%TF.GenerationSoftware,KiCad,Pcbnew,10.0.1*%
%TF.CreationDate,2026-09-03T20:47:45+03:00*%
%TF.ProjectId,PocketArc,506f636b-6574-4417-9263-2e6b69636164,rev?*%
%TF.SameCoordinates,Original*%
%TF.FileFunction,Soldermask,Bot*%
%TF.FilePolarity,Negative*%
%FSLAX46Y46*%
G04 Gerber Fmt 4.6, Leading zero omitted, Abs format (unit mm)*
G04 Created by KiCad (PCBNEW 10.0.1) date 2026-09-03 20:47:45*
%MOMM*%
%LPD*%
G01*
G04 APERTURE LIST*
G04 Aperture macros list*
%AMRoundRect*
0 Rectangle with rounded corners*
0 $1 Rounding radius*
0 $2 $3 $4 $5 $6 $7 $8 $9 X,Y pos of 4 corners*
0 Add a 4 corners polygon primitive as box body*
4,1,4,$2,$3,$4,$5,$6,$7,$8,$9,$2,$3,0*
0 Add four circle primitives for the rounded corners*
1,1,$1+$1,$2,$3*
1,1,$1+$1,$4,$5*
1,1,$1+$1,$6,$7*
1,1,$1+$1,$8,$9*
0 Add four rect primitives between the rounded corners*
20,1,$1+$1,$2,$3,$4,$5,0*
20,1,$1+$1,$4,$5,$6,$7,0*
20,1,$1+$1,$6,$7,$8,$9,0*
20,1,$1+$1,$8,$9,$2,$3,0*%
%AMFreePoly0*
4,1,37,0.603843,0.796157,0.639018,0.796157,0.711114,0.766294,0.766294,0.711114,0.796157,0.639018,0.796157,0.603843,0.800000,0.600000,0.800000,-0.600000,0.796157,-0.603843,0.796157,-0.639018,0.766294,-0.711114,0.711114,-0.766294,0.639018,-0.796157,0.603843,-0.796157,0.600000,-0.800000,0.000000,-0.800000,0.000000,-0.796148,-0.078414,-0.796148,-0.232228,-0.765552,-0.377117,-0.705537,
-0.507515,-0.618408,-0.618408,-0.507515,-0.705537,-0.377117,-0.765552,-0.232228,-0.796148,-0.078414,-0.796148,0.078414,-0.765552,0.232228,-0.705537,0.377117,-0.618408,0.507515,-0.507515,0.618408,-0.377117,0.705537,-0.232228,0.765552,-0.078414,0.796148,0.000000,0.796148,0.000000,0.800000,0.600000,0.800000,0.603843,0.796157,0.603843,0.796157,$1*%
%AMFreePoly1*
4,1,37,0.000000,0.796148,0.078414,0.796148,0.232228,0.765552,0.377117,0.705537,0.507515,0.618408,0.618408,0.507515,0.705537,0.377117,0.765552,0.232228,0.796148,0.078414,0.796148,-0.078414,0.765552,-0.232228,0.705537,-0.377117,0.618408,-0.507515,0.507515,-0.618408,0.377117,-0.705537,0.232228,-0.765552,0.078414,-0.796148,0.000000,-0.796148,0.000000,-0.800000,-0.600000,-0.800000,
-0.603843,-0.796157,-0.639018,-0.796157,-0.711114,-0.766294,-0.766294,-0.711114,-0.796157,-0.639018,-0.796157,-0.603843,-0.800000,-0.600000,-0.800000,0.600000,-0.796157,0.603843,-0.796157,0.639018,-0.766294,0.711114,-0.711114,0.766294,-0.639018,0.796157,-0.603843,0.796157,-0.600000,0.800000,0.000000,0.800000,0.000000,0.796148,0.000000,0.796148,$1*%
G04 Aperture macros list end*
%ADD10C,3.500000*%
%ADD11RoundRect,0.170000X-0.680000X-0.680000X0.680000X-0.680000X0.680000X0.680000X-0.680000X0.680000X0*%
%ADD12C,1.700000*%
%ADD13C,2.100000*%
%ADD14C,2.200000*%
%ADD15C,1.850000*%
%ADD16RoundRect,0.200000X0.600000X0.600000X-0.600000X0.600000X-0.600000X-0.600000X0.600000X-0.600000X0*%
%ADD17C,1.600000*%
%ADD18FreePoly0,180.000000*%
%ADD19FreePoly1,180.000000*%
%ADD20C,3.450000*%
%ADD21C,2.390000*%
%ADD22RoundRect,0.250003X3.499997X2.999997X-3.499997X2.999997X-3.499997X-2.999997X3.499997X-2.999997X0*%
%ADD23O,2.000000X5.000000*%
%ADD24O,5.000000X2.000000*%
%ADD25C,1.400000*%
G04 APERTURE END LIST*
D10*
%TO.C,U3*%
X84497058Y-36780880D03*
X84497058Y-65280880D03*
X114997058Y-36780880D03*
X114997058Y-65280880D03*
D11*
X95937058Y-35080880D03*
D12*
X98477058Y-35080880D03*
X101017058Y-35080880D03*
X103557058Y-35080880D03*
%TD*%
D13*
%TO.C,MH*%
X133000000Y-71000000D03*
%TD*%
D14*
%TO.C,A1*%
X150615000Y-88450000D03*
D15*
X150315000Y-85420000D03*
X145465000Y-85420000D03*
D14*
X145165000Y-88450000D03*
D16*
X156780000Y-88580000D03*
D17*
X156780000Y-86040000D03*
D18*
X156780000Y-83500000D03*
D17*
X156780000Y-80960000D03*
X156780000Y-78420000D03*
X156780000Y-75880000D03*
X156780000Y-73340000D03*
D18*
X156780000Y-70800000D03*
D17*
X156780000Y-68260000D03*
X156780000Y-65720000D03*
X156780000Y-63180000D03*
X156780000Y-60640000D03*
D18*
X156780000Y-58100000D03*
D17*
X156780000Y-55560000D03*
X156780000Y-53020000D03*
X156780000Y-50480000D03*
X156780000Y-47940000D03*
D18*
X156780000Y-45400000D03*
D17*
X156780000Y-42860000D03*
X156780000Y-40320000D03*
X139000000Y-40320000D03*
X139000000Y-42860000D03*
D19*
X139000000Y-45400000D03*
D17*
X139000000Y-47940000D03*
X139000000Y-50480000D03*
X139000000Y-53020000D03*
X139000000Y-55560000D03*
D19*
X139000000Y-58100000D03*
D17*
X139000000Y-60640000D03*
X139000000Y-63180000D03*
X139000000Y-65720000D03*
X139000000Y-68260000D03*
D19*
X139000000Y-70800000D03*
D17*
X139000000Y-73340000D03*
X139000000Y-75880000D03*
X139000000Y-78420000D03*
X139000000Y-80960000D03*
D19*
X139000000Y-83500000D03*
D17*
X139000000Y-86040000D03*
X139000000Y-88580000D03*
%TD*%
D20*
%TO.C,BT1*%
X118557093Y-87588657D03*
X63317093Y-71588657D03*
D21*
X54807093Y-87588657D03*
D22*
X51247093Y-79588657D03*
X130627093Y-79588657D03*
%TD*%
D13*
%TO.C,MH*%
X64000000Y-35000000D03*
%TD*%
D23*
%TO.C,SW4*%
X55186577Y-42013423D03*
X60186577Y-42013423D03*
%TD*%
D13*
%TO.C,MH*%
X155000000Y-35000000D03*
%TD*%
D24*
%TO.C,SW3*%
X127600000Y-57100000D03*
X127600000Y-61700000D03*
%TD*%
D25*
%TO.C,TP4056_Module1*%
X47791422Y-64431200D03*
X47791422Y-50431200D03*
X70791422Y-64431200D03*
X70791422Y-61891200D03*
X70791422Y-52971200D03*
X70791422Y-50431200D03*
%TD*%
D24*
%TO.C,SW2*%
X127600000Y-39100000D03*
X127600000Y-43700000D03*
%TD*%
%TO.C,SW1*%
X71600000Y-43700000D03*
X71600000Y-39100000D03*
%TD*%
M02*
