%TF.GenerationSoftware,KiCad,Pcbnew,10.0.1*%
%TF.CreationDate,2026-09-03T20:47:44+03:00*%
%TF.ProjectId,PocketArc,506f636b-6574-4417-9263-2e6b69636164,rev?*%
%TF.SameCoordinates,Original*%
%TF.FileFunction,Copper,L1,Top*%
%TF.FilePolarity,Positive*%
%FSLAX46Y46*%
G04 Gerber Fmt 4.6, Leading zero omitted, Abs format (unit mm)*
G04 Created by KiCad (PCBNEW 10.0.1) date 2026-09-03 20:47:44*
%MOMM*%
%LPD*%
G01*
G04 APERTURE LIST*
G04 Aperture macros list*
%AMRoundRect*
0 Rectangle with rounded corners*
0 $1 Rounding radius*
0 $2 $3 $4 $5 $6 $7 $8 $9 X,Y pos of 4 corners*
0 Add a 4 corners polygon primitive as box body*
4,1,4,$2,$3,$4,$5,$6,$7,$8,$9,$2,$3,0*
0 Add four circle primitives for the rounded corners*
1,1,$1+$1,$2,$3*
1,1,$1+$1,$4,$5*
1,1,$1+$1,$6,$7*
1,1,$1+$1,$8,$9*
0 Add four rect primitives between the rounded corners*
20,1,$1+$1,$2,$3,$4,$5,0*
20,1,$1+$1,$4,$5,$6,$7,0*
20,1,$1+$1,$6,$7,$8,$9,0*
20,1,$1+$1,$8,$9,$2,$3,0*%
%AMFreePoly0*
4,1,37,0.800000,0.796148,0.878414,0.796148,1.032228,0.765552,1.177117,0.705537,1.307515,0.618408,1.418408,0.507515,1.505537,0.377117,1.565552,0.232228,1.596148,0.078414,1.596148,-0.078414,1.565552,-0.232228,1.505537,-0.377117,1.418408,-0.507515,1.307515,-0.618408,1.177117,-0.705537,1.032228,-0.765552,0.878414,-0.796148,0.800000,-0.796148,0.800000,-0.800000,-1.400000,-0.800000,
-1.403843,-0.796157,-1.439018,-0.796157,-1.511114,-0.766294,-1.566294,-0.711114,-1.596157,-0.639018,-1.596157,-0.603843,-1.600000,-0.600000,-1.600000,0.600000,-1.596157,0.603843,-1.596157,0.639018,-1.566294,0.711114,-1.511114,0.766294,-1.439018,0.796157,-1.403843,0.796157,-1.400000,0.800000,0.800000,0.800000,0.800000,0.796148,0.800000,0.796148,$1*%
%AMFreePoly1*
4,1,37,1.403843,0.796157,1.439018,0.796157,1.511114,0.766294,1.566294,0.711114,1.596157,0.639018,1.596157,0.603843,1.600000,0.600000,1.600000,-0.600000,1.596157,-0.603843,1.596157,-0.639018,1.566294,-0.711114,1.511114,-0.766294,1.439018,-0.796157,1.403843,-0.796157,1.400000,-0.800000,-0.800000,-0.800000,-0.800000,-0.796148,-0.878414,-0.796148,-1.032228,-0.765552,-1.177117,-0.705537,
-1.307515,-0.618408,-1.418408,-0.507515,-1.505537,-0.377117,-1.565552,-0.232228,-1.596148,-0.078414,-1.596148,0.078414,-1.565552,0.232228,-1.505537,0.377117,-1.418408,0.507515,-1.307515,0.618408,-1.177117,0.705537,-1.032228,0.765552,-0.878414,0.796148,-0.800000,0.796148,-0.800000,0.800000,1.400000,0.800000,1.403843,0.796157,1.403843,0.796157,$1*%
%AMFreePoly2*
4,1,37,0.603843,0.796157,0.639018,0.796157,0.711114,0.766294,0.766294,0.711114,0.796157,0.639018,0.796157,0.603843,0.800000,0.600000,0.800000,-0.600000,0.796157,-0.603843,0.796157,-0.639018,0.766294,-0.711114,0.711114,-0.766294,0.639018,-0.796157,0.603843,-0.796157,0.600000,-0.800000,0.000000,-0.800000,0.000000,-0.796148,-0.078414,-0.796148,-0.232228,-0.765552,-0.377117,-0.705537,
-0.507515,-0.618408,-0.618408,-0.507515,-0.705537,-0.377117,-0.765552,-0.232228,-0.796148,-0.078414,-0.796148,0.078414,-0.765552,0.232228,-0.705537,0.377117,-0.618408,0.507515,-0.507515,0.618408,-0.377117,0.705537,-0.232228,0.765552,-0.078414,0.796148,0.000000,0.796148,0.000000,0.800000,0.600000,0.800000,0.603843,0.796157,0.603843,0.796157,$1*%
%AMFreePoly3*
4,1,37,0.000000,0.796148,0.078414,0.796148,0.232228,0.765552,0.377117,0.705537,0.507515,0.618408,0.618408,0.507515,0.705537,0.377117,0.765552,0.232228,0.796148,0.078414,0.796148,-0.078414,0.765552,-0.232228,0.705537,-0.377117,0.618408,-0.507515,0.507515,-0.618408,0.377117,-0.705537,0.232228,-0.765552,0.078414,-0.796148,0.000000,-0.796148,0.000000,-0.800000,-0.600000,-0.800000,
-0.603843,-0.796157,-0.639018,-0.796157,-0.711114,-0.766294,-0.766294,-0.711114,-0.796157,-0.639018,-0.796157,-0.603843,-0.800000,-0.600000,-0.800000,0.600000,-0.796157,0.603843,-0.796157,0.639018,-0.766294,0.711114,-0.711114,0.766294,-0.639018,0.796157,-0.603843,0.796157,-0.600000,0.800000,0.000000,0.800000,0.000000,0.796148,0.000000,0.796148,$1*%
G04 Aperture macros list end*
%TA.AperFunction,ComponentPad*%
%ADD10C,3.500000*%
%TD*%
%TA.AperFunction,ComponentPad*%
%ADD11RoundRect,0.170000X-0.680000X-0.680000X0.680000X-0.680000X0.680000X0.680000X-0.680000X0.680000X0*%
%TD*%
%TA.AperFunction,ComponentPad*%
%ADD12C,1.700000*%
%TD*%
%TA.AperFunction,SMDPad,CuDef*%
%ADD13FreePoly0,180.000000*%
%TD*%
%TA.AperFunction,ComponentPad*%
%ADD14RoundRect,0.200000X0.600000X0.600000X-0.600000X0.600000X-0.600000X-0.600000X0.600000X-0.600000X0*%
%TD*%
%TA.AperFunction,SMDPad,CuDef*%
%ADD15RoundRect,0.800000X0.800000X0.000010X-0.800000X0.000010X-0.800000X-0.000010X0.800000X-0.000010X0*%
%TD*%
%TA.AperFunction,ComponentPad*%
%ADD16C,1.600000*%
%TD*%
%TA.AperFunction,SMDPad,CuDef*%
%ADD17FreePoly1,180.000000*%
%TD*%
%TA.AperFunction,ComponentPad*%
%ADD18FreePoly2,180.000000*%
%TD*%
%TA.AperFunction,ComponentPad*%
%ADD19FreePoly3,180.000000*%
%TD*%
%TA.AperFunction,ComponentPad*%
%ADD20O,2.000000X5.000000*%
%TD*%
%TA.AperFunction,ComponentPad*%
%ADD21O,5.000000X2.000000*%
%TD*%
%TA.AperFunction,ComponentPad*%
%ADD22C,1.400000*%
%TD*%
%TA.AperFunction,ViaPad*%
%ADD23C,0.600000*%
%TD*%
%TA.AperFunction,Conductor*%
%ADD24C,0.200000*%
%TD*%
G04 APERTURE END LIST*
D10*
%TO.P,U3,*%
%TO.N,*%
X84497058Y-36780880D03*
X84497058Y-65280880D03*
X114997058Y-36780880D03*
X114997058Y-65280880D03*
D11*
%TO.P,U3,1,GND_1*%
%TO.N,/COM GND*%
X95937058Y-35080880D03*
D12*
%TO.P,U3,2,VCC_2*%
%TO.N,/OLED VCC*%
X98477058Y-35080880D03*
%TO.P,U3,3,SCL_3*%
%TO.N,/SCL*%
X101017058Y-35080880D03*
%TO.P,U3,4,SDA_4*%
%TO.N,/SDA*%
X103557058Y-35080880D03*
%TD*%
D13*
%TO.P,A1,1,GPIO0_1*%
%TO.N,unconnected-(A1-GPIO0-Pad1)*%
X157580000Y-88580000D03*
D14*
%TO.N,unconnected-(A1-GPIO0-Pad1)_1*%
X156780000Y-88580000D03*
D15*
%TO.P,A1,2,GPIO1_2*%
%TO.N,unconnected-(A1-GPIO1-Pad2)_1*%
X157580000Y-86040000D03*
D16*
%TO.N,unconnected-(A1-GPIO1-Pad2)*%
X156780000Y-86040000D03*
D17*
%TO.P,A1,3,GND_3*%
%TO.N,/COM GND*%
X157580000Y-83500000D03*
D18*
X156780000Y-83500000D03*
D15*
%TO.P,A1,4,GPIO2_4*%
%TO.N,unconnected-(A1-GPIO2-Pad4)*%
X157580000Y-80960000D03*
D16*
%TO.N,unconnected-(A1-GPIO2-Pad4)_1*%
X156780000Y-80960000D03*
D15*
%TO.P,A1,5,GPIO3_5*%
%TO.N,unconnected-(A1-GPIO3-Pad5)_1*%
X157580000Y-78420000D03*
D16*
%TO.N,unconnected-(A1-GPIO3-Pad5)*%
X156780000Y-78420000D03*
D15*
%TO.P,A1,6,GPIO4_6*%
%TO.N,unconnected-(A1-GPIO4-Pad6)*%
X157580000Y-75880000D03*
D16*
%TO.N,unconnected-(A1-GPIO4-Pad6)_1*%
X156780000Y-75880000D03*
D15*
%TO.P,A1,7,GPIO5_7*%
%TO.N,unconnected-(A1-GPIO5-Pad7)_1*%
X157580000Y-73340000D03*
D16*
%TO.N,unconnected-(A1-GPIO5-Pad7)*%
X156780000Y-73340000D03*
D17*
%TO.P,A1,8,GND_8*%
%TO.N,/COM GND*%
X157580000Y-70800000D03*
D18*
X156780000Y-70800000D03*
D15*
%TO.P,A1,9,GPIO6_9*%
%TO.N,unconnected-(A1-GPIO6-Pad9)*%
X157580000Y-68260000D03*
D16*
%TO.N,unconnected-(A1-GPIO6-Pad9)_1*%
X156780000Y-68260000D03*
D15*
%TO.P,A1,10,GPIO7_10*%
%TO.N,unconnected-(A1-GPIO7-Pad10)_1*%
X157580000Y-65720000D03*
D16*
%TO.N,unconnected-(A1-GPIO7-Pad10)*%
X156780000Y-65720000D03*
D15*
%TO.P,A1,11,GPIO8_11*%
%TO.N,unconnected-(A1-GPIO8-Pad11)_1*%
X157580000Y-63180000D03*
D16*
%TO.N,unconnected-(A1-GPIO8-Pad11)*%
X156780000Y-63180000D03*
D15*
%TO.P,A1,12,GPIO9_12*%
%TO.N,unconnected-(A1-GPIO9-Pad12)*%
X157580000Y-60640000D03*
D16*
%TO.N,unconnected-(A1-GPIO9-Pad12)_1*%
X156780000Y-60640000D03*
D17*
%TO.P,A1,13,GND_13*%
%TO.N,/COM GND*%
X157580000Y-58100000D03*
D18*
X156780000Y-58100000D03*
D15*
%TO.P,A1,14,GPIO10_14*%
%TO.N,unconnected-(A1-GPIO10-Pad14)_1*%
X157580000Y-55560000D03*
D16*
%TO.N,unconnected-(A1-GPIO10-Pad14)*%
X156780000Y-55560000D03*
D15*
%TO.P,A1,15,GPIO11_15*%
%TO.N,unconnected-(A1-GPIO11-Pad15)*%
X157580000Y-53020000D03*
D16*
%TO.N,unconnected-(A1-GPIO11-Pad15)_1*%
X156780000Y-53020000D03*
D15*
%TO.P,A1,16,GPIO12_16*%
%TO.N,unconnected-(A1-GPIO12-Pad16)_1*%
X157580000Y-50480000D03*
D16*
%TO.N,unconnected-(A1-GPIO12-Pad16)*%
X156780000Y-50480000D03*
D15*
%TO.P,A1,17,GPIO13_17*%
%TO.N,unconnected-(A1-GPIO13-Pad17)_1*%
X157580000Y-47940000D03*
D16*
%TO.N,unconnected-(A1-GPIO13-Pad17)*%
X156780000Y-47940000D03*
D17*
%TO.P,A1,18,GND_18*%
%TO.N,/COM GND*%
X157580000Y-45400000D03*
D18*
X156780000Y-45400000D03*
D15*
%TO.P,A1,19,GPIO14_19*%
%TO.N,unconnected-(A1-GPIO14-Pad19)*%
X157580000Y-42860000D03*
D16*
%TO.N,unconnected-(A1-GPIO14-Pad19)_1*%
X156780000Y-42860000D03*
D15*
%TO.P,A1,20,GPIO15_20*%
%TO.N,unconnected-(A1-GPIO15-Pad20)_1*%
X157580000Y-40320000D03*
D16*
%TO.N,unconnected-(A1-GPIO15-Pad20)*%
X156780000Y-40320000D03*
%TO.P,A1,21,GPIO16_21*%
%TO.N,unconnected-(A1-GPIO16-Pad21)_1*%
X139000000Y-40320000D03*
D15*
%TO.N,unconnected-(A1-GPIO16-Pad21)*%
X138200000Y-40320000D03*
D16*
%TO.P,A1,22,GPIO17_22*%
%TO.N,unconnected-(A1-GPIO17-Pad22)_1*%
X139000000Y-42860000D03*
D15*
%TO.N,unconnected-(A1-GPIO17-Pad22)*%
X138200000Y-42860000D03*
D19*
%TO.P,A1,23,GND_23*%
%TO.N,/COM GND*%
X139000000Y-45400000D03*
D13*
X138200000Y-45400000D03*
D16*
%TO.P,A1,24,GPIO18_24*%
%TO.N,Net-(A1-GPIO18)*%
X139000000Y-47940000D03*
D15*
X138200000Y-47940000D03*
D16*
%TO.P,A1,25,GPIO19_25*%
%TO.N,Net-(A1-GPIO19)*%
X139000000Y-50480000D03*
D15*
X138200000Y-50480000D03*
D16*
%TO.P,A1,26,GPIO20_26*%
%TO.N,/SDA*%
X139000000Y-53020000D03*
D15*
X138200000Y-53020000D03*
D16*
%TO.P,A1,27,GPIO21_27*%
%TO.N,/SCL*%
X139000000Y-55560000D03*
D15*
X138200000Y-55560000D03*
D19*
%TO.P,A1,28,GND_28*%
%TO.N,/COM GND*%
X139000000Y-58100000D03*
D13*
X138200000Y-58100000D03*
D16*
%TO.P,A1,29,GPIO22_29*%
%TO.N,Net-(A1-GPIO22)*%
X139000000Y-60640000D03*
D15*
X138200000Y-60640000D03*
D16*
%TO.P,A1,30,RUN_30*%
%TO.N,unconnected-(A1-RUN-Pad30)_1*%
X139000000Y-63180000D03*
D15*
%TO.N,unconnected-(A1-RUN-Pad30)*%
X138200000Y-63180000D03*
D16*
%TO.P,A1,31,GPIO26_ADC0_31*%
%TO.N,unconnected-(A1-GPIO26_ADC0-Pad31)_1*%
X139000000Y-65720000D03*
D15*
%TO.N,unconnected-(A1-GPIO26_ADC0-Pad31)*%
X138200000Y-65720000D03*
D16*
%TO.P,A1,32,GPIO27_ADC1_32*%
%TO.N,unconnected-(A1-GPIO27_ADC1-Pad32)*%
X139000000Y-68260000D03*
D15*
%TO.N,unconnected-(A1-GPIO27_ADC1-Pad32)_1*%
X138200000Y-68260000D03*
D19*
%TO.P,A1,33,AGND_33*%
%TO.N,unconnected-(A1-AGND-Pad33)_1*%
X139000000Y-70800000D03*
D13*
%TO.N,unconnected-(A1-AGND-Pad33)*%
X138200000Y-70800000D03*
D16*
%TO.P,A1,34,GPIO28_ADC2_34*%
%TO.N,unconnected-(A1-GPIO28_ADC2-Pad34)*%
X139000000Y-73340000D03*
D15*
%TO.N,unconnected-(A1-GPIO28_ADC2-Pad34)_1*%
X138200000Y-73340000D03*
D16*
%TO.P,A1,35,ADC_VREF_35*%
%TO.N,unconnected-(A1-ADC_VREF-Pad35)_1*%
X139000000Y-75880000D03*
D15*
%TO.N,unconnected-(A1-ADC_VREF-Pad35)*%
X138200000Y-75880000D03*
D16*
%TO.P,A1,36,3V3_36*%
%TO.N,/OLED VCC*%
X139000000Y-78420000D03*
D15*
X138200000Y-78420000D03*
D16*
%TO.P,A1,37,3V3_EN_37*%
%TO.N,unconnected-(A1-3V3_EN-Pad37)_1*%
X139000000Y-80960000D03*
D15*
%TO.N,unconnected-(A1-3V3_EN-Pad37)*%
X138200000Y-80960000D03*
D19*
%TO.P,A1,38,GND_38*%
%TO.N,/COM GND*%
X139000000Y-83500000D03*
D13*
X138200000Y-83500000D03*
D16*
%TO.P,A1,39,VSYS_39*%
%TO.N,/Pico VIN*%
X139000000Y-86040000D03*
D15*
X138200000Y-86040000D03*
D16*
%TO.P,A1,40,VBUS_40*%
%TO.N,unconnected-(A1-VBUS-Pad40)*%
X139000000Y-88580000D03*
D15*
%TO.N,unconnected-(A1-VBUS-Pad40)_1*%
X138200000Y-88580000D03*
%TD*%
D20*
%TO.P,SW4,1,A_1*%
%TO.N,Net-(SW4-A)*%
X55186577Y-42013423D03*
%TO.P,SW4,2,B_2*%
%TO.N,/Pico VIN*%
X60186577Y-42013423D03*
%TD*%
D21*
%TO.P,SW3,1,1_1*%
%TO.N,/COM GND*%
X127600000Y-57100000D03*
%TO.P,SW3,2,2_2*%
%TO.N,Net-(A1-GPIO22)*%
X127600000Y-61700000D03*
%TD*%
D22*
%TO.P,TP4056_Module1,1,IN-_1*%
%TO.N,GND*%
X47791422Y-64431200D03*
%TO.P,TP4056_Module1,2,IN+_2*%
%TO.N,+5V*%
X47791422Y-50431200D03*
%TO.P,TP4056_Module1,3,OUT-_3*%
%TO.N,/COM GND*%
X70791422Y-64431200D03*
%TO.P,TP4056_Module1,4,B-_4*%
%TO.N,Net-(BT1--)*%
X70791422Y-61891200D03*
%TO.P,TP4056_Module1,5,B+_5*%
%TO.N,Net-(BT1-+)*%
X70791422Y-52971200D03*
%TO.P,TP4056_Module1,6,OUT+_6*%
%TO.N,Net-(SW4-A)*%
X70791422Y-50431200D03*
%TD*%
D21*
%TO.P,SW2,1,1_1*%
%TO.N,/COM GND*%
X127600000Y-39100000D03*
%TO.P,SW2,2,2_2*%
%TO.N,Net-(A1-GPIO19)*%
X127600000Y-43700000D03*
%TD*%
%TO.P,SW1,1,1_1*%
%TO.N,Net-(A1-GPIO18)*%
X71600000Y-43700000D03*
%TO.P,SW1,2,2_2*%
%TO.N,/COM GND*%
X71600000Y-39100000D03*
%TD*%
D23*
%TO.N,Net-(A1-GPIO18)*%
X96000000Y-43000000D03*
%TO.N,/OLED VCC*%
X129000000Y-74000000D03*
X98500000Y-46500000D03*
%TD*%
%TO.N,/Pico VIN*%
D24*
X136160000Y-84000000D02*
X138200000Y-86040000D01*
X74000000Y-48200000D02*
X80000000Y-54200000D01*
X80000000Y-84000000D02*
X136160000Y-84000000D01*
X61200000Y-48200000D02*
X74000000Y-48200000D01*
X60186577Y-47186577D02*
X61200000Y-48200000D01*
X80000000Y-54200000D02*
X80000000Y-84000000D01*
X60186577Y-42013423D02*
X60186577Y-47186577D01*
%TO.N,Net-(A1-GPIO22)*%
X137540000Y-61300000D02*
X138200000Y-60640000D01*
X126800000Y-61300000D02*
X137540000Y-61300000D01*
%TO.N,Net-(A1-GPIO19)*%
X131020000Y-43300000D02*
X138200000Y-50480000D01*
X127000000Y-43300000D02*
X131020000Y-43300000D01*
%TO.N,/SDA*%
X135520000Y-53020000D02*
X131500000Y-49000000D01*
X131500000Y-49000000D02*
X117470000Y-49000000D01*
X138200000Y-53020000D02*
X135520000Y-53020000D01*
X117470000Y-49000000D02*
X103560000Y-35090000D01*
%TO.N,/SCL*%
X131500000Y-51000000D02*
X136060000Y-55560000D01*
X136060000Y-55560000D02*
X138200000Y-55560000D01*
X116930000Y-51000000D02*
X131500000Y-51000000D01*
X101020000Y-35090000D02*
X116930000Y-51000000D01*
%TO.N,/OLED VCC*%
X134780000Y-75000000D02*
X138200000Y-78420000D01*
X130000000Y-75000000D02*
X134780000Y-75000000D01*
X129000000Y-74000000D02*
X130000000Y-75000000D01*
X98480000Y-46480000D02*
X98500000Y-46500000D01*
X98480000Y-35090000D02*
X98480000Y-46480000D01*
%TO.N,Net-(A1-GPIO18)*%
X71700000Y-43000000D02*
X71500000Y-42800000D01*
X96000000Y-43000000D02*
X71700000Y-43000000D01*
%TO.N,Net-(SW4-A)*%
X56000000Y-49000000D02*
X56000000Y-41000000D01*
X69360222Y-49000000D02*
X56000000Y-49000000D01*
X70791422Y-50431200D02*
X69360222Y-49000000D01*
%TD*%
%TA.AperFunction,Conductor*%
%TO.N,/COM GND*%
G36*
X138534075Y-83307007D02*
G01*
X138500000Y-83434174D01*
X138500000Y-83565826D01*
X138534075Y-83692993D01*
X138566988Y-83750000D01*
X138324000Y-83750000D01*
X138256961Y-83730315D01*
X138211206Y-83677511D01*
X138200000Y-83626000D01*
X138200000Y-83374000D01*
X138219685Y-83306961D01*
X138272489Y-83261206D01*
X138324000Y-83250000D01*
X138566988Y-83250000D01*
X138534075Y-83307007D01*
G37*
%TD.AperFunction*%
%TA.AperFunction,Conductor*%
G36*
X157002702Y-30500617D02*
G01*
X157386773Y-30517386D01*
X157397505Y-30518326D01*
X157775963Y-30568150D01*
X157786601Y-30570025D01*
X158159279Y-30652647D01*
X158169720Y-30655445D01*
X158533765Y-30770227D01*
X158543911Y-30773920D01*
X158896578Y-30920000D01*
X158906369Y-30924566D01*
X159244942Y-31100816D01*
X159254310Y-31106224D01*
X159576244Y-31311318D01*
X159585105Y-31317523D01*
X159887930Y-31549889D01*
X159896217Y-31556843D01*
X160177635Y-31814715D01*
X160185284Y-31822364D01*
X160443156Y-32103782D01*
X160450110Y-32112069D01*
X160682476Y-32414894D01*
X160688681Y-32423755D01*
X160893775Y-32745689D01*
X160899183Y-32755057D01*
X161075430Y-33093623D01*
X161080002Y-33103427D01*
X161226075Y-33456078D01*
X161229775Y-33466244D01*
X161344553Y-33830276D01*
X161347353Y-33840724D01*
X161429972Y-34213390D01*
X161431850Y-34224044D01*
X161481671Y-34602472D01*
X161482614Y-34613248D01*
X161499382Y-34997297D01*
X161499500Y-35002706D01*
X161499500Y-86997293D01*
X161499382Y-87002702D01*
X161482614Y-87386751D01*
X161481671Y-87397527D01*
X161431850Y-87775955D01*
X161429972Y-87786609D01*
X161347353Y-88159275D01*
X161344553Y-88169723D01*
X161229775Y-88533755D01*
X161226075Y-88543921D01*
X161080002Y-88896572D01*
X161075430Y-88906376D01*
X160899183Y-89244942D01*
X160893775Y-89254310D01*
X160688681Y-89576244D01*
X160682476Y-89585105D01*
X160450110Y-89887930D01*
X160443156Y-89896217D01*
X160185284Y-90177635D01*
X160177635Y-90185284D01*
X159896217Y-90443156D01*
X159887930Y-90450110D01*
X159585105Y-90682476D01*
X159576244Y-90688681D01*
X159254310Y-90893775D01*
X159244942Y-90899183D01*
X158906376Y-91075430D01*
X158896572Y-91080002D01*
X158543921Y-91226075D01*
X158533755Y-91229775D01*
X158169723Y-91344553D01*
X158159275Y-91347353D01*
X157786609Y-91429972D01*
X157775955Y-91431850D01*
X157397527Y-91481671D01*
X157386751Y-91482614D01*
X157002703Y-91499382D01*
X156997294Y-91499500D01*
X50002706Y-91499500D01*
X49997297Y-91499382D01*
X49613248Y-91482614D01*
X49602474Y-91481671D01*
X49540007Y-91473447D01*
X49224044Y-91431850D01*
X49213390Y-91429972D01*
X48840724Y-91347353D01*
X48830276Y-91344553D01*
X48466244Y-91229775D01*
X48456078Y-91226075D01*
X48103427Y-91080002D01*
X48093623Y-91075430D01*
X47755057Y-90899183D01*
X47745689Y-90893775D01*
X47423755Y-90688681D01*
X47414894Y-90682476D01*
X47112069Y-90450110D01*
X47103782Y-90443156D01*
X46822364Y-90185284D01*
X46814715Y-90177635D01*
X46556843Y-89896217D01*
X46549889Y-89887930D01*
X46317523Y-89585105D01*
X46311318Y-89576244D01*
X46303616Y-89564155D01*
X46106223Y-89254309D01*
X46100816Y-89244942D01*
X46100503Y-89244341D01*
X45924566Y-88906369D01*
X45919997Y-88896572D01*
X45918930Y-88893995D01*
X45773920Y-88543911D01*
X45770224Y-88533755D01*
X45769146Y-88530337D01*
X45655445Y-88169720D01*
X45652646Y-88159275D01*
X45649156Y-88143533D01*
X45570025Y-87786601D01*
X45568149Y-87775955D01*
X45564308Y-87746778D01*
X45528514Y-87474888D01*
X53361593Y-87474888D01*
X53361593Y-87702425D01*
X53397186Y-87927147D01*
X53467493Y-88143533D01*
X53467494Y-88143536D01*
X53551922Y-88309233D01*
X53570790Y-88346264D01*
X53704527Y-88530337D01*
X53865413Y-88691223D01*
X54049486Y-88824960D01*
X54148918Y-88875623D01*
X54252213Y-88928255D01*
X54252216Y-88928256D01*
X54327193Y-88952617D01*
X54468604Y-88998564D01*
X54572684Y-89015048D01*
X54693325Y-89034157D01*
X54693330Y-89034157D01*
X54920861Y-89034157D01*
X55029803Y-89016901D01*
X55145582Y-88998564D01*
X55361972Y-88928255D01*
X55564700Y-88824960D01*
X55748773Y-88691223D01*
X55909659Y-88530337D01*
X56043396Y-88346264D01*
X56146691Y-88143536D01*
X56217000Y-87927146D01*
X56242175Y-87768198D01*
X56252593Y-87702425D01*
X56252593Y-87474889D01*
X56252533Y-87474511D01*
X56252533Y-87474509D01*
X56250105Y-87459182D01*
X116581593Y-87459182D01*
X116581593Y-87718131D01*
X116581594Y-87718148D01*
X116615392Y-87974874D01*
X116615393Y-87974879D01*
X116615394Y-87974885D01*
X116639113Y-88063407D01*
X116682417Y-88225021D01*
X116781516Y-88464266D01*
X116781520Y-88464276D01*
X116910999Y-88688540D01*
X117068644Y-88893988D01*
X117068650Y-88893995D01*
X117251754Y-89077099D01*
X117251761Y-89077105D01*
X117457209Y-89234750D01*
X117681473Y-89364229D01*
X117681474Y-89364229D01*
X117681477Y-89364231D01*
X117920727Y-89463332D01*
X118170865Y-89530356D01*
X118427612Y-89564157D01*
X118427619Y-89564157D01*
X118686567Y-89564157D01*
X118686574Y-89564157D01*
X118943321Y-89530356D01*
X119193459Y-89463332D01*
X119432709Y-89364231D01*
X119656977Y-89234750D01*
X119862426Y-89077104D01*
X120045540Y-88893990D01*
X120203186Y-88688541D01*
X120332667Y-88464273D01*
X120431768Y-88225023D01*
X120498792Y-87974885D01*
X120532593Y-87718138D01*
X120532593Y-87459176D01*
X120498792Y-87202429D01*
X120431768Y-86952291D01*
X120332667Y-86713041D01*
X120320940Y-86692730D01*
X120203186Y-86488773D01*
X120045541Y-86283325D01*
X120045535Y-86283318D01*
X119862431Y-86100214D01*
X119862424Y-86100208D01*
X119656976Y-85942563D01*
X119432712Y-85813084D01*
X119432702Y-85813080D01*
X119193457Y-85713981D01*
X119042795Y-85673612D01*
X118943321Y-85646958D01*
X118943315Y-85646957D01*
X118943310Y-85646956D01*
X118686584Y-85613158D01*
X118686579Y-85613157D01*
X118686574Y-85613157D01*
X118427612Y-85613157D01*
X118427606Y-85613157D01*
X118427601Y-85613158D01*
X118170875Y-85646956D01*
X118170868Y-85646957D01*
X118170865Y-85646958D01*
X118118001Y-85661122D01*
X117920728Y-85713981D01*
X117681483Y-85813080D01*
X117681473Y-85813084D01*
X117457209Y-85942563D01*
X117251761Y-86100208D01*
X117251754Y-86100214D01*
X117068650Y-86283318D01*
X117068644Y-86283325D01*
X116910999Y-86488773D01*
X116781520Y-86713037D01*
X116781516Y-86713047D01*
X116682417Y-86952292D01*
X116615395Y-87202426D01*
X116615392Y-87202439D01*
X116581594Y-87459165D01*
X116581593Y-87459182D01*
X56250105Y-87459182D01*
X56217000Y-87250166D01*
X56146692Y-87033780D01*
X56146691Y-87033777D01*
X56067900Y-86879142D01*
X56043396Y-86831050D01*
X55909659Y-86646977D01*
X55748773Y-86486091D01*
X55564700Y-86352354D01*
X55361972Y-86249058D01*
X55361969Y-86249057D01*
X55145583Y-86178750D01*
X54920861Y-86143157D01*
X54920856Y-86143157D01*
X54693330Y-86143157D01*
X54693325Y-86143157D01*
X54468602Y-86178750D01*
X54252216Y-86249057D01*
X54252213Y-86249058D01*
X54049485Y-86352354D01*
X53966545Y-86412614D01*
X53865413Y-86486091D01*
X53865411Y-86486093D01*
X53865410Y-86486093D01*
X53704529Y-86646974D01*
X53704529Y-86646975D01*
X53704527Y-86646977D01*
X53656532Y-86713037D01*
X53570790Y-86831049D01*
X53467494Y-87033777D01*
X53467493Y-87033780D01*
X53397186Y-87250166D01*
X53361593Y-87474888D01*
X45528514Y-87474888D01*
X45518326Y-87397505D01*
X45517386Y-87386773D01*
X45500618Y-87002702D01*
X45500500Y-86997293D01*
X45500500Y-71459182D01*
X61341593Y-71459182D01*
X61341593Y-71718131D01*
X61341594Y-71718148D01*
X61375392Y-71974874D01*
X61375393Y-71974879D01*
X61375394Y-71974885D01*
X61393682Y-72043136D01*
X61442417Y-72225021D01*
X61541516Y-72464266D01*
X61541520Y-72464276D01*
X61670999Y-72688540D01*
X61828644Y-72893988D01*
X61828650Y-72893995D01*
X62011754Y-73077099D01*
X62011761Y-73077105D01*
X62217209Y-73234750D01*
X62441473Y-73364229D01*
X62441474Y-73364229D01*
X62441477Y-73364231D01*
X62680727Y-73463332D01*
X62930865Y-73530356D01*
X63187612Y-73564157D01*
X63187619Y-73564157D01*
X63446567Y-73564157D01*
X63446574Y-73564157D01*
X63703321Y-73530356D01*
X63953459Y-73463332D01*
X64192709Y-73364231D01*
X64416977Y-73234750D01*
X64622426Y-73077104D01*
X64805540Y-72893990D01*
X64963186Y-72688541D01*
X65092667Y-72464273D01*
X65191768Y-72225023D01*
X65258792Y-71974885D01*
X65292593Y-71718138D01*
X65292593Y-71459176D01*
X65258792Y-71202429D01*
X65191768Y-70952291D01*
X65092667Y-70713041D01*
X65040450Y-70622599D01*
X64963186Y-70488773D01*
X64805541Y-70283325D01*
X64805535Y-70283318D01*
X64622431Y-70100214D01*
X64622424Y-70100208D01*
X64416976Y-69942563D01*
X64192712Y-69813084D01*
X64192702Y-69813080D01*
X63953457Y-69713981D01*
X63800582Y-69673019D01*
X63703321Y-69646958D01*
X63703315Y-69646957D01*
X63703310Y-69646956D01*
X63446584Y-69613158D01*
X63446579Y-69613157D01*
X63446574Y-69613157D01*
X63187612Y-69613157D01*
X63187606Y-69613157D01*
X63187601Y-69613158D01*
X62930875Y-69646956D01*
X62930868Y-69646957D01*
X62930865Y-69646958D01*
X62878001Y-69661122D01*
X62680728Y-69713981D01*
X62441483Y-69813080D01*
X62441473Y-69813084D01*
X62217209Y-69942563D01*
X62011761Y-70100208D01*
X62011754Y-70100214D01*
X61828650Y-70283318D01*
X61828644Y-70283325D01*
X61670999Y-70488773D01*
X61541520Y-70713037D01*
X61541516Y-70713047D01*
X61442417Y-70952292D01*
X61416237Y-71050000D01*
X61376019Y-71200099D01*
X61375395Y-71202426D01*
X61375392Y-71202439D01*
X61341594Y-71459165D01*
X61341593Y-71459182D01*
X45500500Y-71459182D01*
X45500500Y-64336713D01*
X46590922Y-64336713D01*
X46590922Y-64525686D01*
X46620481Y-64712318D01*
X46678876Y-64892036D01*
X46753448Y-65038390D01*
X46764662Y-65060399D01*
X46875732Y-65213273D01*
X47009349Y-65346890D01*
X47162223Y-65457960D01*
X47241769Y-65498490D01*
X47330585Y-65543745D01*
X47330587Y-65543745D01*
X47330590Y-65543747D01*
X47398145Y-65565697D01*
X47510303Y-65602140D01*
X47696936Y-65631700D01*
X47696941Y-65631700D01*
X47885908Y-65631700D01*
X48072540Y-65602140D01*
X48074045Y-65601651D01*
X48252254Y-65543747D01*
X48420621Y-65457960D01*
X48573495Y-65346890D01*
X48707112Y-65213273D01*
X48818182Y-65060399D01*
X48903969Y-64892032D01*
X48962362Y-64712318D01*
X48970364Y-64661793D01*
X48991922Y-64525686D01*
X48991922Y-64336713D01*
X48962362Y-64150081D01*
X48903967Y-63970363D01*
X48839755Y-63844341D01*
X48818182Y-63802001D01*
X48707112Y-63649127D01*
X48573495Y-63515510D01*
X48420621Y-63404440D01*
X48252258Y-63318654D01*
X48072540Y-63260259D01*
X47885908Y-63230700D01*
X47885903Y-63230700D01*
X47696941Y-63230700D01*
X47696936Y-63230700D01*
X47510303Y-63260259D01*
X47330585Y-63318654D01*
X47162222Y-63404440D01*
X47075001Y-63467810D01*
X47009349Y-63515510D01*
X47009347Y-63515512D01*
X47009346Y-63515512D01*
X46875734Y-63649124D01*
X46875734Y-63649125D01*
X46875732Y-63649127D01*
X46853869Y-63679219D01*
X46764662Y-63802000D01*
X46678876Y-63970363D01*
X46620481Y-64150081D01*
X46590922Y-64336713D01*
X45500500Y-64336713D01*
X45500500Y-61796713D01*
X69590922Y-61796713D01*
X69590922Y-61985686D01*
X69620481Y-62172318D01*
X69678876Y-62352036D01*
X69753448Y-62498390D01*
X69764662Y-62520399D01*
X69875732Y-62673273D01*
X70009349Y-62806890D01*
X70162223Y-62917960D01*
X70330590Y-63003747D01*
X70453034Y-63043531D01*
X70510709Y-63082969D01*
X70537907Y-63147327D01*
X70525992Y-63216174D01*
X70478748Y-63267649D01*
X70453034Y-63279393D01*
X70330783Y-63319115D01*
X70162482Y-63404869D01*
X70137092Y-63423316D01*
X70137091Y-63423316D01*
X70662013Y-63948237D01*
X70598429Y-63965275D01*
X70484415Y-64031101D01*
X70391323Y-64124193D01*
X70325497Y-64238207D01*
X70308459Y-64301790D01*
X69783538Y-63776869D01*
X69783538Y-63776870D01*
X69765091Y-63802260D01*
X69679336Y-63970562D01*
X69620970Y-64150197D01*
X69591422Y-64336752D01*
X69591422Y-64525647D01*
X69620970Y-64712202D01*
X69679336Y-64891837D01*
X69765088Y-65060133D01*
X69783538Y-65085528D01*
X70308459Y-64560608D01*
X70325497Y-64624193D01*
X70391323Y-64738207D01*
X70484415Y-64831299D01*
X70598429Y-64897125D01*
X70662012Y-64914162D01*
X70137091Y-65439082D01*
X70137092Y-65439083D01*
X70162481Y-65457529D01*
X70330784Y-65543285D01*
X70510419Y-65601651D01*
X70696975Y-65631200D01*
X70885869Y-65631200D01*
X71072424Y-65601651D01*
X71252059Y-65543285D01*
X71420359Y-65457531D01*
X71445750Y-65439083D01*
X71445750Y-65439082D01*
X70920831Y-64914162D01*
X70984415Y-64897125D01*
X71098429Y-64831299D01*
X71191521Y-64738207D01*
X71257347Y-64624193D01*
X71274384Y-64560608D01*
X71799304Y-65085528D01*
X71799305Y-65085528D01*
X71817753Y-65060137D01*
X71903507Y-64891837D01*
X71961873Y-64712202D01*
X71991422Y-64525647D01*
X71991422Y-64336752D01*
X71961873Y-64150197D01*
X71903507Y-63970562D01*
X71817751Y-63802259D01*
X71799305Y-63776870D01*
X71799304Y-63776869D01*
X71274384Y-64301790D01*
X71257347Y-64238207D01*
X71191521Y-64124193D01*
X71098429Y-64031101D01*
X70984415Y-63965275D01*
X70920831Y-63948237D01*
X71445750Y-63423316D01*
X71420355Y-63404866D01*
X71252059Y-63319114D01*
X71129810Y-63279393D01*
X71072134Y-63239955D01*
X71044936Y-63175597D01*
X71056851Y-63106750D01*
X71104095Y-63055275D01*
X71129804Y-63043533D01*
X71252254Y-63003747D01*
X71420621Y-62917960D01*
X71573495Y-62806890D01*
X71707112Y-62673273D01*
X71818182Y-62520399D01*
X71903969Y-62352032D01*
X71962362Y-62172318D01*
X71970364Y-62121793D01*
X71991922Y-61985686D01*
X71991922Y-61796713D01*
X71962362Y-61610081D01*
X71903967Y-61430363D01*
X71839755Y-61304341D01*
X71818182Y-61262001D01*
X71707112Y-61109127D01*
X71573495Y-60975510D01*
X71420621Y-60864440D01*
X71252258Y-60778654D01*
X71072540Y-60720259D01*
X70885908Y-60690700D01*
X70885903Y-60690700D01*
X70696941Y-60690700D01*
X70696936Y-60690700D01*
X70510303Y-60720259D01*
X70330585Y-60778654D01*
X70162222Y-60864440D01*
X70075001Y-60927810D01*
X70009349Y-60975510D01*
X70009347Y-60975512D01*
X70009346Y-60975512D01*
X69875734Y-61109124D01*
X69875734Y-61109125D01*
X69875732Y-61109127D01*
X69853869Y-61139219D01*
X69764662Y-61262000D01*
X69678876Y-61430363D01*
X69620481Y-61610081D01*
X69590922Y-61796713D01*
X45500500Y-61796713D01*
X45500500Y-50336713D01*
X46590922Y-50336713D01*
X46590922Y-50525686D01*
X46620481Y-50712318D01*
X46678876Y-50892036D01*
X46759451Y-51050172D01*
X46764662Y-51060399D01*
X46875732Y-51213273D01*
X47009349Y-51346890D01*
X47162223Y-51457960D01*
X47241769Y-51498490D01*
X47330585Y-51543745D01*
X47330587Y-51543745D01*
X47330590Y-51543747D01*
X47426919Y-51575046D01*
X47510303Y-51602140D01*
X47696936Y-51631700D01*
X47696941Y-51631700D01*
X47885908Y-51631700D01*
X48072540Y-51602140D01*
X48086928Y-51597465D01*
X48252254Y-51543747D01*
X48420621Y-51457960D01*
X48573495Y-51346890D01*
X48707112Y-51213273D01*
X48818182Y-51060399D01*
X48903969Y-50892032D01*
X48962362Y-50712318D01*
X48973357Y-50642900D01*
X48991922Y-50525686D01*
X48991922Y-50336713D01*
X48962362Y-50150081D01*
X48924486Y-50033513D01*
X48903969Y-49970368D01*
X48903967Y-49970365D01*
X48903967Y-49970363D01*
X48858712Y-49881547D01*
X48818182Y-49802001D01*
X48707112Y-49649127D01*
X48573495Y-49515510D01*
X48420621Y-49404440D01*
X48252258Y-49318654D01*
X48072540Y-49260259D01*
X47885908Y-49230700D01*
X47885903Y-49230700D01*
X47696941Y-49230700D01*
X47696936Y-49230700D01*
X47510303Y-49260259D01*
X47330585Y-49318654D01*
X47162222Y-49404440D01*
X47075001Y-49467810D01*
X47009349Y-49515510D01*
X47009347Y-49515512D01*
X47009346Y-49515512D01*
X46875734Y-49649124D01*
X46875734Y-49649125D01*
X46875732Y-49649127D01*
X46867536Y-49660408D01*
X46764662Y-49802000D01*
X46678876Y-49970363D01*
X46620481Y-50150081D01*
X46590922Y-50336713D01*
X45500500Y-50336713D01*
X45500500Y-40395325D01*
X53686077Y-40395325D01*
X53686077Y-43631520D01*
X53723023Y-43864791D01*
X53796010Y-44089419D01*
X53849828Y-44195041D01*
X53903234Y-44299856D01*
X54042060Y-44490933D01*
X54209067Y-44657940D01*
X54400144Y-44796766D01*
X54461054Y-44827801D01*
X54610580Y-44903989D01*
X54610582Y-44903989D01*
X54610585Y-44903991D01*
X54703174Y-44934075D01*
X54835208Y-44976976D01*
X55068480Y-45013923D01*
X55275500Y-45013923D01*
X55342539Y-45033608D01*
X55388294Y-45086412D01*
X55399500Y-45137923D01*
X55399500Y-48920943D01*
X55399500Y-49079057D01*
X55439844Y-49229621D01*
X55440423Y-49231783D01*
X55440426Y-49231790D01*
X55519475Y-49368709D01*
X55519479Y-49368714D01*
X55519480Y-49368716D01*
X55631284Y-49480520D01*
X55631286Y-49480521D01*
X55631290Y-49480524D01*
X55691892Y-49515512D01*
X55768216Y-49559577D01*
X55920943Y-49600500D01*
X69060125Y-49600500D01*
X69127164Y-49620185D01*
X69147806Y-49636819D01*
X69581355Y-50070368D01*
X69614840Y-50131691D01*
X69616147Y-50177447D01*
X69590922Y-50336713D01*
X69590922Y-50525686D01*
X69620481Y-50712318D01*
X69678876Y-50892036D01*
X69759451Y-51050172D01*
X69764662Y-51060399D01*
X69875732Y-51213273D01*
X70009349Y-51346890D01*
X70162223Y-51457960D01*
X70241769Y-51498490D01*
X70330585Y-51543745D01*
X70330587Y-51543745D01*
X70330590Y-51543747D01*
X70420156Y-51572849D01*
X70452225Y-51583269D01*
X70509900Y-51622707D01*
X70537098Y-51687066D01*
X70525183Y-51755912D01*
X70477938Y-51807388D01*
X70452225Y-51819131D01*
X70330585Y-51858654D01*
X70162222Y-51944440D01*
X70075001Y-52007810D01*
X70009349Y-52055510D01*
X70009347Y-52055512D01*
X70009346Y-52055512D01*
X69875734Y-52189124D01*
X69875734Y-52189125D01*
X69875732Y-52189127D01*
X69828032Y-52254779D01*
X69764662Y-52342000D01*
X69678876Y-52510363D01*
X69620481Y-52690081D01*
X69590922Y-52876713D01*
X69590922Y-53065686D01*
X69620481Y-53252318D01*
X69678876Y-53432036D01*
X69747990Y-53567678D01*
X69764662Y-53600399D01*
X69875732Y-53753273D01*
X70009349Y-53886890D01*
X70162223Y-53997960D01*
X70241769Y-54038490D01*
X70330585Y-54083745D01*
X70330587Y-54083745D01*
X70330590Y-54083747D01*
X70426919Y-54115046D01*
X70510303Y-54142140D01*
X70696936Y-54171700D01*
X70696941Y-54171700D01*
X70885908Y-54171700D01*
X71072540Y-54142140D01*
X71097515Y-54134025D01*
X71252254Y-54083747D01*
X71420621Y-53997960D01*
X71573495Y-53886890D01*
X71707112Y-53753273D01*
X71818182Y-53600399D01*
X71903969Y-53432032D01*
X71962362Y-53252318D01*
X71973357Y-53182900D01*
X71991922Y-53065686D01*
X71991922Y-52876713D01*
X71962362Y-52690081D01*
X71924486Y-52573513D01*
X71903969Y-52510368D01*
X71903967Y-52510365D01*
X71903967Y-52510363D01*
X71852955Y-52410248D01*
X71818182Y-52342001D01*
X71707112Y-52189127D01*
X71573495Y-52055510D01*
X71420621Y-51944440D01*
X71252258Y-51858654D01*
X71158711Y-51828259D01*
X71130617Y-51819130D01*
X71072943Y-51779693D01*
X71045745Y-51715334D01*
X71057660Y-51646488D01*
X71104904Y-51595012D01*
X71130616Y-51583269D01*
X71252254Y-51543747D01*
X71420621Y-51457960D01*
X71573495Y-51346890D01*
X71707112Y-51213273D01*
X71818182Y-51060399D01*
X71903969Y-50892032D01*
X71962362Y-50712318D01*
X71973357Y-50642900D01*
X71991922Y-50525686D01*
X71991922Y-50336713D01*
X71962362Y-50150081D01*
X71924486Y-50033513D01*
X71903969Y-49970368D01*
X71903967Y-49970365D01*
X71903967Y-49970363D01*
X71858712Y-49881547D01*
X71818182Y-49802001D01*
X71707112Y-49649127D01*
X71573495Y-49515510D01*
X71420621Y-49404440D01*
X71252258Y-49318654D01*
X71072540Y-49260259D01*
X70885908Y-49230700D01*
X70885903Y-49230700D01*
X70696941Y-49230700D01*
X70696936Y-49230700D01*
X70537669Y-49255925D01*
X70468375Y-49246970D01*
X70430590Y-49221133D01*
X70221638Y-49012181D01*
X70188153Y-48950858D01*
X70193137Y-48881166D01*
X70235009Y-48825233D01*
X70300473Y-48800816D01*
X70309319Y-48800500D01*
X73699903Y-48800500D01*
X73766942Y-48820185D01*
X73787584Y-48836819D01*
X79363181Y-54412416D01*
X79396666Y-54473739D01*
X79399500Y-54500097D01*
X79399500Y-84079057D01*
X79415771Y-84139779D01*
X79440423Y-84231783D01*
X79440426Y-84231790D01*
X79519475Y-84368709D01*
X79519479Y-84368714D01*
X79519480Y-84368716D01*
X79631284Y-84480520D01*
X79631286Y-84480521D01*
X79631290Y-84480524D01*
X79705522Y-84523381D01*
X79768216Y-84559577D01*
X79920943Y-84600500D01*
X80079057Y-84600500D01*
X135859903Y-84600500D01*
X135926942Y-84620185D01*
X135947584Y-84636819D01*
X136372370Y-85061605D01*
X136405855Y-85122928D01*
X136400871Y-85192620D01*
X136386265Y-85220408D01*
X136269431Y-85387267D01*
X136173261Y-85593502D01*
X136173258Y-85593511D01*
X136114366Y-85813302D01*
X136114364Y-85813312D01*
X136099500Y-85983214D01*
X136099500Y-86096785D01*
X136114364Y-86266687D01*
X136114366Y-86266697D01*
X136173258Y-86486488D01*
X136173261Y-86486497D01*
X136269431Y-86692732D01*
X136269432Y-86692734D01*
X136399954Y-86879141D01*
X136560858Y-87040045D01*
X136560861Y-87040047D01*
X136747266Y-87170568D01*
X136804492Y-87197253D01*
X136805275Y-87197618D01*
X136857714Y-87243791D01*
X136876866Y-87310984D01*
X136856650Y-87377865D01*
X136805275Y-87422381D01*
X136788272Y-87430310D01*
X136747267Y-87449431D01*
X136747265Y-87449432D01*
X136560858Y-87579954D01*
X136399954Y-87740858D01*
X136269432Y-87927265D01*
X136269431Y-87927267D01*
X136173261Y-88133502D01*
X136173258Y-88133511D01*
X136114366Y-88353302D01*
X136114364Y-88353312D01*
X136099500Y-88523214D01*
X136099500Y-88636785D01*
X136114364Y-88806687D01*
X136114366Y-88806697D01*
X136173258Y-89026488D01*
X136173261Y-89026497D01*
X136269431Y-89232732D01*
X136269432Y-89232734D01*
X136399954Y-89419141D01*
X136560858Y-89580045D01*
X136560861Y-89580047D01*
X136747266Y-89710568D01*
X136953504Y-89806739D01*
X136953509Y-89806740D01*
X136953511Y-89806741D01*
X137006415Y-89820916D01*
X137173308Y-89865635D01*
X137343214Y-89880499D01*
X137343215Y-89880500D01*
X137343216Y-89880500D01*
X139102350Y-89880500D01*
X139102352Y-89880500D01*
X139154308Y-89872270D01*
X139158582Y-89871592D01*
X139226692Y-89865635D01*
X139270766Y-89853825D01*
X139304534Y-89848477D01*
X139366404Y-89828373D01*
X139372617Y-89826534D01*
X139446490Y-89806741D01*
X139446492Y-89806739D01*
X139446496Y-89806739D01*
X139477532Y-89792266D01*
X139499219Y-89785220D01*
X139570172Y-89749067D01*
X139652734Y-89710568D01*
X139671446Y-89697465D01*
X139681610Y-89692287D01*
X139755199Y-89638821D01*
X139839139Y-89580047D01*
X140000047Y-89419139D01*
X140058821Y-89335199D01*
X140112287Y-89261610D01*
X140117465Y-89251446D01*
X140130568Y-89232734D01*
X140169067Y-89150172D01*
X140205220Y-89079219D01*
X140212266Y-89057532D01*
X140226739Y-89026496D01*
X140226742Y-89026488D01*
X140246534Y-88952617D01*
X140247377Y-88949471D01*
X140268477Y-88884534D01*
X140273825Y-88850766D01*
X140285635Y-88806692D01*
X140291215Y-88742892D01*
X140292270Y-88734306D01*
X140297151Y-88703496D01*
X140300500Y-88682352D01*
X140300500Y-88477648D01*
X140292269Y-88425690D01*
X140291215Y-88417097D01*
X140285635Y-88353308D01*
X140283064Y-88343713D01*
X143814500Y-88343713D01*
X143814500Y-88556286D01*
X143844056Y-88742900D01*
X143847754Y-88766243D01*
X143900395Y-88928256D01*
X143913444Y-88968414D01*
X144009951Y-89157820D01*
X144134890Y-89329786D01*
X144285213Y-89480109D01*
X144457179Y-89605048D01*
X144457181Y-89605049D01*
X144457184Y-89605051D01*
X144646588Y-89701557D01*
X144848757Y-89767246D01*
X145058713Y-89800500D01*
X145058714Y-89800500D01*
X145271286Y-89800500D01*
X145271287Y-89800500D01*
X145481243Y-89767246D01*
X145683412Y-89701557D01*
X145872816Y-89605051D01*
X145951137Y-89548148D01*
X146016943Y-89524668D01*
X146084997Y-89540493D01*
X146111703Y-89560785D01*
X146134306Y-89583388D01*
X146247833Y-89648933D01*
X146374455Y-89682861D01*
X146440000Y-89685000D01*
X147340000Y-89685000D01*
X147405545Y-89682861D01*
X147532167Y-89648932D01*
X147645694Y-89583388D01*
X147738388Y-89490694D01*
X147778282Y-89421593D01*
X147828848Y-89373379D01*
X147897454Y-89360155D01*
X147962319Y-89386122D01*
X147993056Y-89421593D01*
X148041612Y-89505694D01*
X148134306Y-89598388D01*
X148247833Y-89663933D01*
X148374455Y-89697861D01*
X148440000Y-89700000D01*
X149340000Y-89700000D01*
X149405545Y-89697861D01*
X149532167Y-89663932D01*
X149645694Y-89598388D01*
X149676985Y-89567096D01*
X149738305Y-89533612D01*
X149807997Y-89538596D01*
X149837550Y-89554460D01*
X149898009Y-89598385D01*
X149907184Y-89605051D01*
X150096588Y-89701557D01*
X150298757Y-89767246D01*
X150508713Y-89800500D01*
X150508714Y-89800500D01*
X150721286Y-89800500D01*
X150721287Y-89800500D01*
X150931243Y-89767246D01*
X151133412Y-89701557D01*
X151322816Y-89605051D01*
X151379105Y-89564155D01*
X151494786Y-89480109D01*
X151494788Y-89480106D01*
X151494792Y-89480104D01*
X151645104Y-89329792D01*
X151645106Y-89329788D01*
X151645109Y-89329786D01*
X151770048Y-89157820D01*
X151770047Y-89157820D01*
X151770051Y-89157816D01*
X151866557Y-88968412D01*
X151932246Y-88766243D01*
X151965500Y-88556287D01*
X151965500Y-88501207D01*
X155474500Y-88501207D01*
X155474500Y-88658793D01*
X155477430Y-88688540D01*
X155478903Y-88703496D01*
X155479500Y-88715650D01*
X155479500Y-89236616D01*
X155480202Y-89244341D01*
X155485913Y-89307192D01*
X155485913Y-89307194D01*
X155485914Y-89307196D01*
X155536522Y-89469606D01*
X155603284Y-89580044D01*
X155624530Y-89615188D01*
X155744811Y-89735469D01*
X155744813Y-89735470D01*
X155744815Y-89735472D01*
X155890394Y-89823478D01*
X156052804Y-89874086D01*
X156123384Y-89880500D01*
X156644350Y-89880500D01*
X156656502Y-89881096D01*
X156701207Y-89885500D01*
X156701210Y-89885500D01*
X159019784Y-89885500D01*
X159055804Y-89883569D01*
X159073815Y-89882604D01*
X159213226Y-89847022D01*
X159286735Y-89816574D01*
X159335551Y-89793219D01*
X159450733Y-89706994D01*
X159506994Y-89650733D01*
X159543157Y-89610475D01*
X159550329Y-89598388D01*
X159614225Y-89490694D01*
X159616574Y-89486735D01*
X159647022Y-89413226D01*
X159665024Y-89362198D01*
X159685500Y-89219782D01*
X159685500Y-87940218D01*
X159685037Y-87931588D01*
X159682604Y-87886185D01*
X159682603Y-87886181D01*
X159647023Y-87746778D01*
X159647019Y-87746766D01*
X159623669Y-87690394D01*
X159616574Y-87673265D01*
X159593219Y-87624449D01*
X159506994Y-87509267D01*
X159506989Y-87509262D01*
X159506984Y-87509256D01*
X159450747Y-87453019D01*
X159410475Y-87416843D01*
X159410467Y-87416837D01*
X159286736Y-87343426D01*
X159286737Y-87343426D01*
X159237729Y-87323127D01*
X159213226Y-87312978D01*
X159185337Y-87303139D01*
X159128666Y-87262272D01*
X159103085Y-87197253D01*
X159116717Y-87128726D01*
X159155467Y-87084629D01*
X159219139Y-87040047D01*
X159380047Y-86879139D01*
X159510568Y-86692734D01*
X159606739Y-86486496D01*
X159665635Y-86266692D01*
X159680500Y-86096784D01*
X159680500Y-85983216D01*
X159665635Y-85813308D01*
X159612005Y-85613157D01*
X159606741Y-85593511D01*
X159606738Y-85593503D01*
X159510568Y-85387266D01*
X159380047Y-85200861D01*
X159380045Y-85200858D01*
X159219141Y-85039954D01*
X159032734Y-84909432D01*
X159032732Y-84909431D01*
X158980779Y-84885205D01*
X158928340Y-84839032D01*
X158909188Y-84771839D01*
X158929404Y-84704958D01*
X158974732Y-84663464D01*
X159039500Y-84628844D01*
X159039521Y-84628832D01*
X159170530Y-84541295D01*
X159170536Y-84541291D01*
X159247064Y-84478485D01*
X159358485Y-84367064D01*
X159421291Y-84290536D01*
X159421295Y-84290530D01*
X159508832Y-84159521D01*
X159508844Y-84159501D01*
X159555509Y-84072198D01*
X159615814Y-83926612D01*
X159644556Y-83831860D01*
X159644559Y-83831849D01*
X159660839Y-83750000D01*
X157213012Y-83750000D01*
X157245925Y-83692993D01*
X157280000Y-83565826D01*
X157280000Y-83434174D01*
X157245925Y-83307007D01*
X157213012Y-83250000D01*
X159660839Y-83250000D01*
X159660839Y-83249999D01*
X159644559Y-83168150D01*
X159644556Y-83168139D01*
X159615814Y-83073387D01*
X159555509Y-82927801D01*
X159508844Y-82840498D01*
X159508832Y-82840478D01*
X159421295Y-82709469D01*
X159421291Y-82709463D01*
X159358485Y-82632935D01*
X159247064Y-82521514D01*
X159170536Y-82458708D01*
X159170530Y-82458704D01*
X159039521Y-82371167D01*
X159039501Y-82371155D01*
X158974730Y-82336534D01*
X158924886Y-82287571D01*
X158909426Y-82219434D01*
X158933258Y-82153754D01*
X158980777Y-82114795D01*
X159032734Y-82090568D01*
X159219139Y-81960047D01*
X159380047Y-81799139D01*
X159510568Y-81612734D01*
X159606739Y-81406496D01*
X159665635Y-81186692D01*
X159680500Y-81016784D01*
X159680500Y-80903216D01*
X159665635Y-80733308D01*
X159620916Y-80566415D01*
X159606741Y-80513511D01*
X159606738Y-80513503D01*
X159510568Y-80307266D01*
X159380047Y-80120861D01*
X159380045Y-80120858D01*
X159219141Y-79959954D01*
X159032734Y-79829432D01*
X159032728Y-79829429D01*
X158974725Y-79802382D01*
X158922285Y-79756210D01*
X158903133Y-79689017D01*
X158923348Y-79622135D01*
X158974725Y-79577618D01*
X159032734Y-79550568D01*
X159219139Y-79420047D01*
X159380047Y-79259139D01*
X159510568Y-79072734D01*
X159606739Y-78866496D01*
X159665635Y-78646692D01*
X159680500Y-78476784D01*
X159680500Y-78363216D01*
X159665635Y-78193308D01*
X159620916Y-78026415D01*
X159606741Y-77973511D01*
X159606738Y-77973503D01*
X159510568Y-77767266D01*
X159380047Y-77580861D01*
X159380045Y-77580858D01*
X159219141Y-77419954D01*
X159032734Y-77289432D01*
X159032728Y-77289429D01*
X158974725Y-77262382D01*
X158922285Y-77216210D01*
X158903133Y-77149017D01*
X158923348Y-77082135D01*
X158974725Y-77037618D01*
X159032734Y-77010568D01*
X159219139Y-76880047D01*
X159380047Y-76719139D01*
X159510568Y-76532734D01*
X159606739Y-76326496D01*
X159665635Y-76106692D01*
X159680500Y-75936784D01*
X159680500Y-75823216D01*
X159665635Y-75653308D01*
X159619336Y-75480518D01*
X159606741Y-75433511D01*
X159606738Y-75433503D01*
X159510568Y-75227266D01*
X159380047Y-75040861D01*
X159380045Y-75040858D01*
X159219141Y-74879954D01*
X159032734Y-74749432D01*
X159032728Y-74749429D01*
X158974725Y-74722382D01*
X158922285Y-74676210D01*
X158903133Y-74609017D01*
X158923348Y-74542135D01*
X158974725Y-74497618D01*
X159032734Y-74470568D01*
X159219139Y-74340047D01*
X159380047Y-74179139D01*
X159510568Y-73992734D01*
X159606739Y-73786496D01*
X159665635Y-73566692D01*
X159680500Y-73396784D01*
X159680500Y-73283216D01*
X159665635Y-73113308D01*
X159606869Y-72893988D01*
X159606741Y-72893511D01*
X159606738Y-72893503D01*
X159510568Y-72687266D01*
X159380047Y-72500861D01*
X159380045Y-72500858D01*
X159219141Y-72339954D01*
X159032734Y-72209432D01*
X159032732Y-72209431D01*
X158980779Y-72185205D01*
X158928340Y-72139032D01*
X158909188Y-72071839D01*
X158929404Y-72004958D01*
X158974732Y-71963464D01*
X159039500Y-71928844D01*
X159039521Y-71928832D01*
X159170530Y-71841295D01*
X159170536Y-71841291D01*
X159247064Y-71778485D01*
X159358485Y-71667064D01*
X159421291Y-71590536D01*
X159421295Y-71590530D01*
X159508832Y-71459521D01*
X159508844Y-71459501D01*
X159555509Y-71372198D01*
X159615814Y-71226612D01*
X159644556Y-71131860D01*
X159644559Y-71131849D01*
X159660839Y-71050000D01*
X157213012Y-71050000D01*
X157245925Y-70992993D01*
X157280000Y-70865826D01*
X157280000Y-70734174D01*
X157245925Y-70607007D01*
X157213012Y-70550000D01*
X159660839Y-70550000D01*
X159660839Y-70549999D01*
X159644559Y-70468150D01*
X159644556Y-70468139D01*
X159615814Y-70373387D01*
X159555509Y-70227801D01*
X159508844Y-70140498D01*
X159508832Y-70140478D01*
X159421295Y-70009469D01*
X159421291Y-70009463D01*
X159358485Y-69932935D01*
X159247064Y-69821514D01*
X159170536Y-69758708D01*
X159170530Y-69758704D01*
X159039521Y-69671167D01*
X159039501Y-69671155D01*
X158974730Y-69636534D01*
X158924886Y-69587571D01*
X158909426Y-69519434D01*
X158933258Y-69453754D01*
X158980777Y-69414795D01*
X159032734Y-69390568D01*
X159219139Y-69260047D01*
X159380047Y-69099139D01*
X159510568Y-68912734D01*
X159606739Y-68706496D01*
X159665635Y-68486692D01*
X159680500Y-68316784D01*
X159680500Y-68203216D01*
X159665635Y-68033308D01*
X159620916Y-67866415D01*
X159606741Y-67813511D01*
X159606738Y-67813503D01*
X159510568Y-67607266D01*
X159380047Y-67420861D01*
X159380045Y-67420858D01*
X159219141Y-67259954D01*
X159032734Y-67129432D01*
X159032728Y-67129429D01*
X158974725Y-67102382D01*
X158922285Y-67056210D01*
X158903133Y-66989017D01*
X158923348Y-66922135D01*
X158974725Y-66877618D01*
X159032734Y-66850568D01*
X159219139Y-66720047D01*
X159380047Y-66559139D01*
X159510568Y-66372734D01*
X159606739Y-66166496D01*
X159665635Y-65946692D01*
X159680500Y-65776784D01*
X159680500Y-65663216D01*
X159665635Y-65493308D01*
X159614948Y-65304142D01*
X159606741Y-65273511D01*
X159606738Y-65273503D01*
X159510568Y-65067266D01*
X159380047Y-64880861D01*
X159380045Y-64880858D01*
X159219141Y-64719954D01*
X159032734Y-64589432D01*
X159032728Y-64589429D01*
X158974725Y-64562382D01*
X158922285Y-64516210D01*
X158903133Y-64449017D01*
X158923348Y-64382135D01*
X158974725Y-64337618D01*
X159032734Y-64310568D01*
X159219139Y-64180047D01*
X159380047Y-64019139D01*
X159510568Y-63832734D01*
X159606739Y-63626496D01*
X159665635Y-63406692D01*
X159680500Y-63236784D01*
X159680500Y-63123216D01*
X159665635Y-62953308D01*
X159620916Y-62786415D01*
X159606741Y-62733511D01*
X159606738Y-62733503D01*
X159510568Y-62527266D01*
X159380047Y-62340861D01*
X159380045Y-62340858D01*
X159219141Y-62179954D01*
X159032734Y-62049432D01*
X159032728Y-62049429D01*
X158974725Y-62022382D01*
X158922285Y-61976210D01*
X158903133Y-61909017D01*
X158923348Y-61842135D01*
X158974725Y-61797618D01*
X159032734Y-61770568D01*
X159219139Y-61640047D01*
X159380047Y-61479139D01*
X159510568Y-61292734D01*
X159606739Y-61086496D01*
X159665635Y-60866692D01*
X159680500Y-60696784D01*
X159680500Y-60583216D01*
X159665635Y-60413308D01*
X159620916Y-60246415D01*
X159606741Y-60193511D01*
X159606738Y-60193503D01*
X159510568Y-59987266D01*
X159380047Y-59800861D01*
X159380045Y-59800858D01*
X159219141Y-59639954D01*
X159032734Y-59509432D01*
X159032732Y-59509431D01*
X158980779Y-59485205D01*
X158928340Y-59439032D01*
X158909188Y-59371839D01*
X158929404Y-59304958D01*
X158974732Y-59263464D01*
X159039500Y-59228844D01*
X159039521Y-59228832D01*
X159170530Y-59141295D01*
X159170536Y-59141291D01*
X159247064Y-59078485D01*
X159358485Y-58967064D01*
X159421291Y-58890536D01*
X159421295Y-58890530D01*
X159508833Y-58759520D01*
X159508844Y-58759501D01*
X159555509Y-58672198D01*
X159615814Y-58526612D01*
X159644556Y-58431860D01*
X159644559Y-58431849D01*
X159660839Y-58350000D01*
X157213012Y-58350000D01*
X157245925Y-58292993D01*
X157280000Y-58165826D01*
X157280000Y-58034174D01*
X157245925Y-57907007D01*
X157213012Y-57850000D01*
X159660839Y-57850000D01*
X159660839Y-57849999D01*
X159644559Y-57768150D01*
X159644556Y-57768139D01*
X159615814Y-57673387D01*
X159555509Y-57527801D01*
X159508844Y-57440498D01*
X159508832Y-57440478D01*
X159421295Y-57309469D01*
X159421291Y-57309463D01*
X159358485Y-57232935D01*
X159247064Y-57121514D01*
X159170536Y-57058708D01*
X159170530Y-57058704D01*
X159039521Y-56971167D01*
X159039501Y-56971155D01*
X158974730Y-56936534D01*
X158924886Y-56887571D01*
X158909426Y-56819434D01*
X158933258Y-56753754D01*
X158980777Y-56714795D01*
X159032734Y-56690568D01*
X159219139Y-56560047D01*
X159380047Y-56399139D01*
X159510568Y-56212734D01*
X159606739Y-56006496D01*
X159665635Y-55786692D01*
X159680500Y-55616784D01*
X159680500Y-55503216D01*
X159665635Y-55333308D01*
X159620916Y-55166415D01*
X159606741Y-55113511D01*
X159606738Y-55113503D01*
X159510568Y-54907266D01*
X159380047Y-54720861D01*
X159380045Y-54720858D01*
X159219141Y-54559954D01*
X159032734Y-54429432D01*
X159032728Y-54429429D01*
X158974725Y-54402382D01*
X158922285Y-54356210D01*
X158903133Y-54289017D01*
X158923348Y-54222135D01*
X158974725Y-54177618D01*
X159032734Y-54150568D01*
X159219139Y-54020047D01*
X159380047Y-53859139D01*
X159510568Y-53672734D01*
X159606739Y-53466496D01*
X159665635Y-53246692D01*
X159680500Y-53076784D01*
X159680500Y-52963216D01*
X159665635Y-52793308D01*
X159620916Y-52626415D01*
X159606741Y-52573511D01*
X159606738Y-52573503D01*
X159510568Y-52367266D01*
X159385835Y-52189127D01*
X159380045Y-52180858D01*
X159219141Y-52019954D01*
X159032734Y-51889432D01*
X159032728Y-51889429D01*
X158974725Y-51862382D01*
X158922285Y-51816210D01*
X158903133Y-51749017D01*
X158923348Y-51682135D01*
X158974725Y-51637618D01*
X159032734Y-51610568D01*
X159219139Y-51480047D01*
X159380047Y-51319139D01*
X159510568Y-51132734D01*
X159606739Y-50926496D01*
X159665635Y-50706692D01*
X159680500Y-50536784D01*
X159680500Y-50423216D01*
X159665635Y-50253308D01*
X159616617Y-50070368D01*
X159606741Y-50033511D01*
X159606738Y-50033503D01*
X159510568Y-49827266D01*
X159385835Y-49649127D01*
X159380045Y-49640858D01*
X159219141Y-49479954D01*
X159032734Y-49349432D01*
X159032728Y-49349429D01*
X158974725Y-49322382D01*
X158922285Y-49276210D01*
X158903133Y-49209017D01*
X158923348Y-49142135D01*
X158974725Y-49097618D01*
X159032734Y-49070568D01*
X159219139Y-48940047D01*
X159380047Y-48779139D01*
X159510568Y-48592734D01*
X159606739Y-48386496D01*
X159665635Y-48166692D01*
X159680500Y-47996784D01*
X159680500Y-47883216D01*
X159665635Y-47713308D01*
X159620916Y-47546415D01*
X159606741Y-47493511D01*
X159606738Y-47493503D01*
X159510568Y-47287266D01*
X159380047Y-47100861D01*
X159380045Y-47100858D01*
X159219141Y-46939954D01*
X159032734Y-46809432D01*
X159032732Y-46809431D01*
X158980779Y-46785205D01*
X158928340Y-46739032D01*
X158909188Y-46671839D01*
X158929404Y-46604958D01*
X158974732Y-46563464D01*
X159039500Y-46528844D01*
X159039521Y-46528832D01*
X159170530Y-46441295D01*
X159170536Y-46441291D01*
X159247064Y-46378485D01*
X159358485Y-46267064D01*
X159421291Y-46190536D01*
X159421295Y-46190530D01*
X159508832Y-46059521D01*
X159508844Y-46059501D01*
X159555509Y-45972198D01*
X159615814Y-45826612D01*
X159644556Y-45731860D01*
X159644559Y-45731849D01*
X159660839Y-45650000D01*
X157213012Y-45650000D01*
X157245925Y-45592993D01*
X157280000Y-45465826D01*
X157280000Y-45334174D01*
X157245925Y-45207007D01*
X157213012Y-45150000D01*
X159660839Y-45150000D01*
X159660839Y-45149999D01*
X159644559Y-45068150D01*
X159644556Y-45068139D01*
X159615814Y-44973387D01*
X159555509Y-44827801D01*
X159508844Y-44740498D01*
X159508832Y-44740478D01*
X159421295Y-44609469D01*
X159421291Y-44609463D01*
X159358485Y-44532935D01*
X159247064Y-44421514D01*
X159170536Y-44358708D01*
X159170530Y-44358704D01*
X159039521Y-44271167D01*
X159039501Y-44271155D01*
X158974730Y-44236534D01*
X158924886Y-44187571D01*
X158909426Y-44119434D01*
X158933258Y-44053754D01*
X158980777Y-44014795D01*
X159032734Y-43990568D01*
X159219139Y-43860047D01*
X159380047Y-43699139D01*
X159510568Y-43512734D01*
X159606739Y-43306496D01*
X159665635Y-43086692D01*
X159680500Y-42916784D01*
X159680500Y-42803216D01*
X159665635Y-42633308D01*
X159607584Y-42416657D01*
X159606741Y-42413511D01*
X159606738Y-42413503D01*
X159510568Y-42207266D01*
X159380047Y-42020861D01*
X159380045Y-42020858D01*
X159219141Y-41859954D01*
X159032734Y-41729432D01*
X159032728Y-41729429D01*
X158974725Y-41702382D01*
X158922285Y-41656210D01*
X158903133Y-41589017D01*
X158923348Y-41522135D01*
X158974725Y-41477618D01*
X159032734Y-41450568D01*
X159219139Y-41320047D01*
X159380047Y-41159139D01*
X159510568Y-40972734D01*
X159606739Y-40766496D01*
X159665635Y-40546692D01*
X159680500Y-40376784D01*
X159680500Y-40263216D01*
X159665635Y-40093308D01*
X159610133Y-39886171D01*
X159606741Y-39873511D01*
X159606738Y-39873503D01*
X159510568Y-39667266D01*
X159412839Y-39527693D01*
X159380045Y-39480858D01*
X159219141Y-39319954D01*
X159032734Y-39189432D01*
X159032732Y-39189431D01*
X158826497Y-39093261D01*
X158826488Y-39093258D01*
X158606697Y-39034366D01*
X158606687Y-39034364D01*
X158436785Y-39019500D01*
X158436784Y-39019500D01*
X156882352Y-39019500D01*
X156677648Y-39019500D01*
X156677644Y-39019500D01*
X156625697Y-39027728D01*
X156625695Y-39027728D01*
X156621410Y-39028406D01*
X156553308Y-39034365D01*
X156509245Y-39046170D01*
X156502841Y-39047185D01*
X156502824Y-39047189D01*
X156475463Y-39051523D01*
X156475459Y-39051524D01*
X156413627Y-39071615D01*
X156407404Y-39073459D01*
X156333504Y-39093261D01*
X156333503Y-39093261D01*
X156309338Y-39104529D01*
X156309337Y-39104528D01*
X156302456Y-39107736D01*
X156280781Y-39114780D01*
X156209886Y-39150901D01*
X156207900Y-39151828D01*
X156207882Y-39151838D01*
X156127262Y-39189433D01*
X156115655Y-39197559D01*
X156115656Y-39197560D01*
X156108549Y-39202535D01*
X156098390Y-39207713D01*
X156024870Y-39261126D01*
X156023939Y-39261779D01*
X155940859Y-39319954D01*
X155779954Y-39480859D01*
X155721781Y-39563934D01*
X155721782Y-39563935D01*
X155721132Y-39564863D01*
X155667713Y-39638390D01*
X155662535Y-39648550D01*
X155657560Y-39655656D01*
X155657558Y-39655656D01*
X155649433Y-39667262D01*
X155611838Y-39747882D01*
X155610920Y-39749849D01*
X155574780Y-39820781D01*
X155567735Y-39842458D01*
X155564532Y-39849329D01*
X155564529Y-39849338D01*
X155553261Y-39873503D01*
X155553261Y-39873504D01*
X155533459Y-39947404D01*
X155533458Y-39947403D01*
X155532614Y-39950551D01*
X155511523Y-40015466D01*
X155506175Y-40049224D01*
X155504492Y-40055507D01*
X155504492Y-40055511D01*
X155494366Y-40093304D01*
X155494364Y-40093313D01*
X155488783Y-40157106D01*
X155487728Y-40165697D01*
X155479500Y-40217643D01*
X155479500Y-40217648D01*
X155479500Y-40422352D01*
X155488406Y-40478582D01*
X155494365Y-40546692D01*
X155506171Y-40590756D01*
X155507188Y-40597175D01*
X155507190Y-40597181D01*
X155511521Y-40624525D01*
X155511522Y-40624530D01*
X155531617Y-40686378D01*
X155533460Y-40692600D01*
X155553260Y-40766494D01*
X155564529Y-40790662D01*
X155567733Y-40797532D01*
X155574780Y-40819219D01*
X155610930Y-40890169D01*
X155611844Y-40892128D01*
X155649432Y-40972734D01*
X155657562Y-40984346D01*
X155662535Y-40991448D01*
X155667713Y-41001610D01*
X155721164Y-41075180D01*
X155721793Y-41076078D01*
X155779953Y-41159140D01*
X155940858Y-41320045D01*
X155940861Y-41320047D01*
X156024800Y-41378821D01*
X156098390Y-41432287D01*
X156108547Y-41437462D01*
X156115648Y-41442434D01*
X156115652Y-41442436D01*
X156127266Y-41450568D01*
X156127270Y-41450570D01*
X156185272Y-41477617D01*
X156195927Y-41486999D01*
X156209131Y-41492224D01*
X156221629Y-41509629D01*
X156237712Y-41523789D01*
X156241604Y-41537444D01*
X156249886Y-41548977D01*
X156250990Y-41570375D01*
X156256864Y-41590982D01*
X156252755Y-41604573D01*
X156253488Y-41618754D01*
X156242848Y-41637352D01*
X156236649Y-41657864D01*
X156225167Y-41668259D01*
X156218794Y-41679401D01*
X156194369Y-41696145D01*
X156190126Y-41699988D01*
X156187711Y-41701244D01*
X156127266Y-41729432D01*
X156109002Y-41742219D01*
X156101792Y-41745973D01*
X156101591Y-41746012D01*
X156100847Y-41746460D01*
X156098397Y-41747708D01*
X156098394Y-41747710D01*
X156025696Y-41800526D01*
X156023939Y-41801779D01*
X155940859Y-41859954D01*
X155779954Y-42020859D01*
X155721781Y-42103934D01*
X155721782Y-42103935D01*
X155721132Y-42104863D01*
X155667713Y-42178390D01*
X155662535Y-42188550D01*
X155657560Y-42195656D01*
X155657558Y-42195656D01*
X155649433Y-42207262D01*
X155611838Y-42287882D01*
X155610920Y-42289849D01*
X155574780Y-42360781D01*
X155567735Y-42382458D01*
X155564532Y-42389329D01*
X155564529Y-42389338D01*
X155553261Y-42413503D01*
X155553261Y-42413504D01*
X155533459Y-42487404D01*
X155533458Y-42487403D01*
X155532614Y-42490551D01*
X155511523Y-42555466D01*
X155506175Y-42589224D01*
X155504492Y-42595507D01*
X155504492Y-42595511D01*
X155494366Y-42633304D01*
X155494364Y-42633313D01*
X155488783Y-42697106D01*
X155487728Y-42705697D01*
X155479500Y-42757643D01*
X155479500Y-42757647D01*
X155479500Y-42757648D01*
X155479500Y-42962352D01*
X155488406Y-43018582D01*
X155494365Y-43086692D01*
X155506171Y-43130756D01*
X155507188Y-43137175D01*
X155507190Y-43137181D01*
X155511521Y-43164525D01*
X155511522Y-43164530D01*
X155531617Y-43226378D01*
X155533460Y-43232600D01*
X155553260Y-43306494D01*
X155564529Y-43330662D01*
X155567733Y-43337532D01*
X155574780Y-43359219D01*
X155610930Y-43430169D01*
X155611844Y-43432128D01*
X155649432Y-43512734D01*
X155657562Y-43524346D01*
X155662535Y-43531448D01*
X155667713Y-43541610D01*
X155721164Y-43615180D01*
X155721793Y-43616078D01*
X155779953Y-43699140D01*
X155940858Y-43860045D01*
X156007379Y-43906623D01*
X156051004Y-43961199D01*
X156058198Y-44030698D01*
X156026676Y-44093052D01*
X155966922Y-44128346D01*
X155946970Y-44133438D01*
X155946956Y-44133442D01*
X155890415Y-44156862D01*
X156650590Y-44917037D01*
X156587007Y-44934075D01*
X156472993Y-44999901D01*
X156379901Y-45092993D01*
X156314075Y-45207007D01*
X156280000Y-45334174D01*
X156280000Y-45465826D01*
X156314075Y-45592993D01*
X156379901Y-45707007D01*
X156472993Y-45800099D01*
X156587007Y-45865925D01*
X156650589Y-45882962D01*
X155890415Y-46643135D01*
X155890415Y-46643136D01*
X155946947Y-46666553D01*
X155975159Y-46676505D01*
X156031832Y-46717370D01*
X156057415Y-46782388D01*
X156043786Y-46850915D01*
X156005035Y-46895016D01*
X155940859Y-46939954D01*
X155779954Y-47100859D01*
X155721781Y-47183934D01*
X155721782Y-47183935D01*
X155721132Y-47184863D01*
X155667713Y-47258390D01*
X155662535Y-47268550D01*
X155657560Y-47275656D01*
X155657558Y-47275656D01*
X155649433Y-47287262D01*
X155611838Y-47367882D01*
X155610920Y-47369849D01*
X155574780Y-47440781D01*
X155567735Y-47462458D01*
X155564532Y-47469329D01*
X155564529Y-47469338D01*
X155553261Y-47493503D01*
X155553261Y-47493504D01*
X155533459Y-47567404D01*
X155533458Y-47567403D01*
X155532614Y-47570551D01*
X155511523Y-47635466D01*
X155506175Y-47669224D01*
X155504492Y-47675507D01*
X155504492Y-47675511D01*
X155494366Y-47713304D01*
X155494364Y-47713313D01*
X155488783Y-47777106D01*
X155487728Y-47785697D01*
X155479500Y-47837643D01*
X155479500Y-47837648D01*
X155479500Y-48042352D01*
X155488406Y-48098582D01*
X155494365Y-48166692D01*
X155506171Y-48210756D01*
X155507188Y-48217175D01*
X155507190Y-48217181D01*
X155511521Y-48244525D01*
X155511522Y-48244530D01*
X155531617Y-48306378D01*
X155533460Y-48312600D01*
X155553260Y-48386494D01*
X155564529Y-48410662D01*
X155567733Y-48417532D01*
X155574780Y-48439219D01*
X155610930Y-48510169D01*
X155611844Y-48512128D01*
X155649432Y-48592734D01*
X155657562Y-48604346D01*
X155662535Y-48611448D01*
X155667713Y-48621610D01*
X155721164Y-48695180D01*
X155721793Y-48696078D01*
X155779953Y-48779140D01*
X155940858Y-48940045D01*
X155940861Y-48940047D01*
X156024800Y-48998821D01*
X156098390Y-49052287D01*
X156108547Y-49057462D01*
X156115648Y-49062434D01*
X156115652Y-49062436D01*
X156127266Y-49070568D01*
X156127270Y-49070570D01*
X156185272Y-49097617D01*
X156195927Y-49106999D01*
X156209131Y-49112224D01*
X156221629Y-49129629D01*
X156237712Y-49143789D01*
X156241604Y-49157444D01*
X156249886Y-49168977D01*
X156250990Y-49190375D01*
X156256864Y-49210982D01*
X156252755Y-49224573D01*
X156253488Y-49238754D01*
X156242848Y-49257352D01*
X156236649Y-49277864D01*
X156225167Y-49288259D01*
X156218794Y-49299401D01*
X156194369Y-49316145D01*
X156190126Y-49319988D01*
X156187711Y-49321244D01*
X156127266Y-49349432D01*
X156109002Y-49362219D01*
X156101792Y-49365973D01*
X156101591Y-49366012D01*
X156100847Y-49366460D01*
X156098397Y-49367708D01*
X156098394Y-49367710D01*
X156025696Y-49420526D01*
X156023939Y-49421779D01*
X155940859Y-49479954D01*
X155779954Y-49640859D01*
X155721781Y-49723934D01*
X155721782Y-49723935D01*
X155721132Y-49724863D01*
X155667713Y-49798390D01*
X155662535Y-49808550D01*
X155657560Y-49815656D01*
X155657558Y-49815656D01*
X155649433Y-49827262D01*
X155611838Y-49907882D01*
X155610920Y-49909849D01*
X155574780Y-49980781D01*
X155567735Y-50002458D01*
X155564532Y-50009329D01*
X155564529Y-50009338D01*
X155553261Y-50033503D01*
X155553261Y-50033504D01*
X155533459Y-50107404D01*
X155533458Y-50107403D01*
X155532614Y-50110551D01*
X155511523Y-50175466D01*
X155506175Y-50209224D01*
X155504492Y-50215507D01*
X155504492Y-50215511D01*
X155494366Y-50253304D01*
X155494364Y-50253313D01*
X155488783Y-50317106D01*
X155487728Y-50325697D01*
X155479500Y-50377643D01*
X155479500Y-50377648D01*
X155479500Y-50582352D01*
X155488406Y-50638582D01*
X155494365Y-50706692D01*
X155506171Y-50750756D01*
X155507188Y-50757175D01*
X155507190Y-50757181D01*
X155511521Y-50784525D01*
X155511522Y-50784530D01*
X155531617Y-50846378D01*
X155533460Y-50852600D01*
X155553260Y-50926494D01*
X155564529Y-50950662D01*
X155567733Y-50957532D01*
X155574780Y-50979219D01*
X155610930Y-51050169D01*
X155611844Y-51052128D01*
X155649432Y-51132734D01*
X155657562Y-51144346D01*
X155662535Y-51151448D01*
X155667713Y-51161610D01*
X155721164Y-51235180D01*
X155721793Y-51236078D01*
X155779953Y-51319140D01*
X155940858Y-51480045D01*
X155941536Y-51480520D01*
X156024800Y-51538821D01*
X156098390Y-51592287D01*
X156108547Y-51597462D01*
X156115648Y-51602434D01*
X156115652Y-51602436D01*
X156127266Y-51610568D01*
X156127270Y-51610570D01*
X156185272Y-51637617D01*
X156195927Y-51646999D01*
X156209131Y-51652224D01*
X156221629Y-51669629D01*
X156237712Y-51683789D01*
X156241604Y-51697444D01*
X156249886Y-51708977D01*
X156250990Y-51730375D01*
X156256864Y-51750982D01*
X156252755Y-51764573D01*
X156253488Y-51778754D01*
X156242848Y-51797352D01*
X156236649Y-51817864D01*
X156225167Y-51828259D01*
X156218794Y-51839401D01*
X156194369Y-51856145D01*
X156190126Y-51859988D01*
X156187711Y-51861244D01*
X156127266Y-51889432D01*
X156109002Y-51902219D01*
X156101792Y-51905973D01*
X156101591Y-51906012D01*
X156100847Y-51906460D01*
X156098397Y-51907708D01*
X156098394Y-51907710D01*
X156025696Y-51960526D01*
X156023939Y-51961779D01*
X155940859Y-52019954D01*
X155779954Y-52180859D01*
X155721781Y-52263934D01*
X155721782Y-52263935D01*
X155721132Y-52264863D01*
X155667713Y-52338390D01*
X155662535Y-52348550D01*
X155657560Y-52355656D01*
X155657558Y-52355656D01*
X155649433Y-52367262D01*
X155611838Y-52447882D01*
X155610920Y-52449849D01*
X155574780Y-52520781D01*
X155567735Y-52542458D01*
X155564532Y-52549329D01*
X155564529Y-52549338D01*
X155553261Y-52573503D01*
X155553261Y-52573504D01*
X155533459Y-52647404D01*
X155533458Y-52647403D01*
X155532614Y-52650551D01*
X155511523Y-52715466D01*
X155506175Y-52749224D01*
X155504492Y-52755507D01*
X155504492Y-52755511D01*
X155494366Y-52793304D01*
X155494364Y-52793313D01*
X155488783Y-52857106D01*
X155487728Y-52865697D01*
X155479500Y-52917643D01*
X155479500Y-52917648D01*
X155479500Y-53122352D01*
X155488406Y-53178582D01*
X155494365Y-53246692D01*
X155506171Y-53290756D01*
X155507188Y-53297175D01*
X155507190Y-53297181D01*
X155511521Y-53324525D01*
X155511522Y-53324530D01*
X155531617Y-53386378D01*
X155533460Y-53392600D01*
X155553260Y-53466494D01*
X155564529Y-53490662D01*
X155567733Y-53497532D01*
X155574780Y-53519219D01*
X155610930Y-53590169D01*
X155611844Y-53592128D01*
X155649432Y-53672734D01*
X155657562Y-53684346D01*
X155662535Y-53691448D01*
X155667713Y-53701610D01*
X155721164Y-53775180D01*
X155721793Y-53776078D01*
X155779953Y-53859140D01*
X155940858Y-54020045D01*
X155940861Y-54020047D01*
X156024800Y-54078821D01*
X156098390Y-54132287D01*
X156108547Y-54137462D01*
X156115648Y-54142434D01*
X156115652Y-54142436D01*
X156127266Y-54150568D01*
X156127270Y-54150570D01*
X156185272Y-54177617D01*
X156195927Y-54186999D01*
X156209131Y-54192224D01*
X156221629Y-54209629D01*
X156237712Y-54223789D01*
X156241604Y-54237444D01*
X156249886Y-54248977D01*
X156250990Y-54270375D01*
X156256864Y-54290982D01*
X156252755Y-54304573D01*
X156253488Y-54318754D01*
X156242848Y-54337352D01*
X156236649Y-54357864D01*
X156225167Y-54368259D01*
X156218794Y-54379401D01*
X156194369Y-54396145D01*
X156190126Y-54399988D01*
X156187711Y-54401244D01*
X156127266Y-54429432D01*
X156109002Y-54442219D01*
X156101792Y-54445973D01*
X156101591Y-54446012D01*
X156100847Y-54446460D01*
X156098397Y-54447708D01*
X156098394Y-54447710D01*
X156025696Y-54500526D01*
X156023939Y-54501779D01*
X155940859Y-54559954D01*
X155779954Y-54720859D01*
X155721781Y-54803934D01*
X155721782Y-54803935D01*
X155721132Y-54804863D01*
X155667713Y-54878390D01*
X155662535Y-54888550D01*
X155657560Y-54895656D01*
X155657558Y-54895656D01*
X155649433Y-54907262D01*
X155611838Y-54987882D01*
X155610920Y-54989849D01*
X155574780Y-55060781D01*
X155567735Y-55082458D01*
X155564532Y-55089329D01*
X155564529Y-55089338D01*
X155553261Y-55113503D01*
X155553261Y-55113504D01*
X155533459Y-55187404D01*
X155533458Y-55187403D01*
X155532614Y-55190551D01*
X155511523Y-55255466D01*
X155506175Y-55289224D01*
X155504492Y-55295507D01*
X155504492Y-55295511D01*
X155494366Y-55333304D01*
X155494364Y-55333313D01*
X155488783Y-55397106D01*
X155487728Y-55405697D01*
X155479500Y-55457643D01*
X155479500Y-55457648D01*
X155479500Y-55662352D01*
X155488406Y-55718582D01*
X155494365Y-55786692D01*
X155506171Y-55830756D01*
X155507188Y-55837175D01*
X155507190Y-55837181D01*
X155511521Y-55864525D01*
X155511522Y-55864530D01*
X155531617Y-55926378D01*
X155533460Y-55932600D01*
X155553260Y-56006494D01*
X155564529Y-56030662D01*
X155567733Y-56037532D01*
X155574780Y-56059219D01*
X155610930Y-56130169D01*
X155611844Y-56132128D01*
X155649432Y-56212734D01*
X155657562Y-56224346D01*
X155662535Y-56231448D01*
X155667713Y-56241610D01*
X155721164Y-56315180D01*
X155721793Y-56316078D01*
X155779953Y-56399140D01*
X155940858Y-56560045D01*
X156007379Y-56606623D01*
X156051004Y-56661199D01*
X156058198Y-56730698D01*
X156026676Y-56793052D01*
X155966922Y-56828346D01*
X155946970Y-56833438D01*
X155946956Y-56833442D01*
X155890415Y-56856862D01*
X156650590Y-57617037D01*
X156587007Y-57634075D01*
X156472993Y-57699901D01*
X156379901Y-57792993D01*
X156314075Y-57907007D01*
X156280000Y-58034174D01*
X156280000Y-58165826D01*
X156314075Y-58292993D01*
X156379901Y-58407007D01*
X156472993Y-58500099D01*
X156587007Y-58565925D01*
X156650589Y-58582962D01*
X155890415Y-59343135D01*
X155890415Y-59343136D01*
X155946947Y-59366553D01*
X155975159Y-59376505D01*
X156031832Y-59417370D01*
X156057415Y-59482388D01*
X156043786Y-59550915D01*
X156005035Y-59595016D01*
X155940859Y-59639954D01*
X155779954Y-59800859D01*
X155721781Y-59883934D01*
X155721782Y-59883935D01*
X155721132Y-59884863D01*
X155667713Y-59958390D01*
X155662535Y-59968550D01*
X155657560Y-59975656D01*
X155657558Y-59975656D01*
X155649433Y-59987262D01*
X155611838Y-60067882D01*
X155610920Y-60069849D01*
X155574780Y-60140781D01*
X155567735Y-60162458D01*
X155564532Y-60169329D01*
X155564529Y-60169338D01*
X155553261Y-60193503D01*
X155553261Y-60193504D01*
X155533459Y-60267404D01*
X155533458Y-60267403D01*
X155532614Y-60270551D01*
X155511523Y-60335466D01*
X155506175Y-60369224D01*
X155504492Y-60375507D01*
X155504492Y-60375511D01*
X155494366Y-60413304D01*
X155494364Y-60413313D01*
X155488783Y-60477106D01*
X155487728Y-60485697D01*
X155479500Y-60537643D01*
X155479500Y-60537648D01*
X155479500Y-60742352D01*
X155488406Y-60798582D01*
X155494365Y-60866692D01*
X155506171Y-60910756D01*
X155507188Y-60917175D01*
X155507190Y-60917181D01*
X155511521Y-60944525D01*
X155511522Y-60944530D01*
X155531617Y-61006378D01*
X155533460Y-61012600D01*
X155553260Y-61086494D01*
X155564529Y-61110662D01*
X155567733Y-61117532D01*
X155574780Y-61139219D01*
X155610930Y-61210169D01*
X155611844Y-61212128D01*
X155649432Y-61292734D01*
X155657562Y-61304346D01*
X155662535Y-61311448D01*
X155667713Y-61321610D01*
X155721164Y-61395180D01*
X155721793Y-61396078D01*
X155779953Y-61479140D01*
X155940858Y-61640045D01*
X155940861Y-61640047D01*
X156024800Y-61698821D01*
X156098390Y-61752287D01*
X156108547Y-61757462D01*
X156115648Y-61762434D01*
X156115652Y-61762436D01*
X156127266Y-61770568D01*
X156127270Y-61770570D01*
X156185272Y-61797617D01*
X156195927Y-61806999D01*
X156209131Y-61812224D01*
X156221629Y-61829629D01*
X156237712Y-61843789D01*
X156241604Y-61857444D01*
X156249886Y-61868977D01*
X156250990Y-61890375D01*
X156256864Y-61910982D01*
X156252755Y-61924573D01*
X156253488Y-61938754D01*
X156242848Y-61957352D01*
X156236649Y-61977864D01*
X156225167Y-61988259D01*
X156218794Y-61999401D01*
X156194369Y-62016145D01*
X156190126Y-62019988D01*
X156187711Y-62021244D01*
X156127266Y-62049432D01*
X156109002Y-62062219D01*
X156101792Y-62065973D01*
X156101591Y-62066012D01*
X156100847Y-62066460D01*
X156098397Y-62067708D01*
X156098394Y-62067710D01*
X156025696Y-62120526D01*
X156023939Y-62121779D01*
X155940859Y-62179954D01*
X155779954Y-62340859D01*
X155721781Y-62423934D01*
X155721782Y-62423935D01*
X155721132Y-62424863D01*
X155667713Y-62498390D01*
X155662535Y-62508550D01*
X155657560Y-62515656D01*
X155657558Y-62515656D01*
X155649433Y-62527262D01*
X155611838Y-62607882D01*
X155610920Y-62609849D01*
X155574780Y-62680781D01*
X155567735Y-62702458D01*
X155564532Y-62709329D01*
X155564529Y-62709338D01*
X155553261Y-62733503D01*
X155553261Y-62733504D01*
X155533459Y-62807404D01*
X155533458Y-62807403D01*
X155532614Y-62810551D01*
X155511523Y-62875466D01*
X155506175Y-62909224D01*
X155504492Y-62915507D01*
X155504492Y-62915511D01*
X155494366Y-62953304D01*
X155494364Y-62953313D01*
X155488783Y-63017106D01*
X155487728Y-63025697D01*
X155479500Y-63077643D01*
X155479500Y-63077648D01*
X155479500Y-63282352D01*
X155488406Y-63338582D01*
X155494365Y-63406692D01*
X155506171Y-63450756D01*
X155507188Y-63457175D01*
X155507190Y-63457181D01*
X155511521Y-63484525D01*
X155511522Y-63484530D01*
X155531617Y-63546378D01*
X155533460Y-63552600D01*
X155553260Y-63626494D01*
X155564529Y-63650662D01*
X155567733Y-63657532D01*
X155574780Y-63679219D01*
X155610930Y-63750169D01*
X155611844Y-63752128D01*
X155649432Y-63832734D01*
X155657562Y-63844346D01*
X155662535Y-63851448D01*
X155667713Y-63861610D01*
X155721164Y-63935180D01*
X155721793Y-63936078D01*
X155779953Y-64019140D01*
X155940858Y-64180045D01*
X155940861Y-64180047D01*
X156024800Y-64238821D01*
X156098390Y-64292287D01*
X156108547Y-64297462D01*
X156115648Y-64302434D01*
X156115652Y-64302436D01*
X156127266Y-64310568D01*
X156127270Y-64310570D01*
X156185272Y-64337617D01*
X156195927Y-64346999D01*
X156209131Y-64352224D01*
X156221629Y-64369629D01*
X156237712Y-64383789D01*
X156241604Y-64397444D01*
X156249886Y-64408977D01*
X156250990Y-64430375D01*
X156256864Y-64450982D01*
X156252755Y-64464573D01*
X156253488Y-64478754D01*
X156242848Y-64497352D01*
X156236649Y-64517864D01*
X156225167Y-64528259D01*
X156218794Y-64539401D01*
X156194369Y-64556145D01*
X156190126Y-64559988D01*
X156187711Y-64561244D01*
X156127266Y-64589432D01*
X156109002Y-64602219D01*
X156101792Y-64605973D01*
X156101591Y-64606012D01*
X156100847Y-64606460D01*
X156098397Y-64607708D01*
X156098394Y-64607710D01*
X156025696Y-64660526D01*
X156023939Y-64661779D01*
X155940859Y-64719954D01*
X155779954Y-64880859D01*
X155721781Y-64963934D01*
X155721782Y-64963935D01*
X155721132Y-64964863D01*
X155667713Y-65038390D01*
X155662535Y-65048550D01*
X155657560Y-65055656D01*
X155657558Y-65055656D01*
X155649433Y-65067262D01*
X155611838Y-65147882D01*
X155610920Y-65149849D01*
X155574780Y-65220781D01*
X155567735Y-65242458D01*
X155564532Y-65249329D01*
X155564529Y-65249338D01*
X155553261Y-65273503D01*
X155553261Y-65273504D01*
X155533459Y-65347404D01*
X155533458Y-65347403D01*
X155532614Y-65350551D01*
X155511523Y-65415466D01*
X155506175Y-65449224D01*
X155504492Y-65455507D01*
X155504492Y-65455511D01*
X155494366Y-65493304D01*
X155494364Y-65493313D01*
X155488783Y-65557106D01*
X155487728Y-65565697D01*
X155479500Y-65617643D01*
X155479500Y-65617648D01*
X155479500Y-65822352D01*
X155488406Y-65878582D01*
X155494365Y-65946692D01*
X155506171Y-65990756D01*
X155507188Y-65997175D01*
X155507190Y-65997181D01*
X155511521Y-66024525D01*
X155511522Y-66024530D01*
X155531617Y-66086378D01*
X155533460Y-66092600D01*
X155553260Y-66166494D01*
X155564529Y-66190662D01*
X155567733Y-66197532D01*
X155574780Y-66219219D01*
X155610930Y-66290169D01*
X155611844Y-66292128D01*
X155649432Y-66372734D01*
X155657562Y-66384346D01*
X155662535Y-66391448D01*
X155667713Y-66401610D01*
X155721164Y-66475180D01*
X155721793Y-66476078D01*
X155779953Y-66559140D01*
X155940858Y-66720045D01*
X156009241Y-66767927D01*
X156024800Y-66778821D01*
X156098390Y-66832287D01*
X156108547Y-66837462D01*
X156115648Y-66842434D01*
X156115652Y-66842436D01*
X156127266Y-66850568D01*
X156127270Y-66850570D01*
X156185272Y-66877617D01*
X156195927Y-66886999D01*
X156209131Y-66892224D01*
X156221629Y-66909629D01*
X156237712Y-66923789D01*
X156241604Y-66937444D01*
X156249886Y-66948977D01*
X156250990Y-66970375D01*
X156256864Y-66990982D01*
X156252755Y-67004573D01*
X156253488Y-67018754D01*
X156242848Y-67037352D01*
X156236649Y-67057864D01*
X156225167Y-67068259D01*
X156218794Y-67079401D01*
X156194369Y-67096145D01*
X156190126Y-67099988D01*
X156187711Y-67101244D01*
X156127266Y-67129432D01*
X156109002Y-67142219D01*
X156101792Y-67145973D01*
X156101591Y-67146012D01*
X156100847Y-67146460D01*
X156098397Y-67147708D01*
X156098394Y-67147710D01*
X156025696Y-67200526D01*
X156023939Y-67201779D01*
X155940859Y-67259954D01*
X155779954Y-67420859D01*
X155721781Y-67503934D01*
X155721782Y-67503935D01*
X155721132Y-67504863D01*
X155667713Y-67578390D01*
X155662535Y-67588550D01*
X155657560Y-67595656D01*
X155657558Y-67595656D01*
X155649433Y-67607262D01*
X155611838Y-67687882D01*
X155610920Y-67689849D01*
X155574780Y-67760781D01*
X155567735Y-67782458D01*
X155564532Y-67789329D01*
X155564529Y-67789338D01*
X155553261Y-67813503D01*
X155553261Y-67813504D01*
X155533459Y-67887404D01*
X155533458Y-67887403D01*
X155532614Y-67890551D01*
X155511523Y-67955466D01*
X155506175Y-67989224D01*
X155504492Y-67995507D01*
X155504492Y-67995511D01*
X155494366Y-68033304D01*
X155494364Y-68033313D01*
X155488783Y-68097106D01*
X155487728Y-68105697D01*
X155479500Y-68157643D01*
X155479500Y-68157648D01*
X155479500Y-68362352D01*
X155488406Y-68418582D01*
X155494365Y-68486692D01*
X155506171Y-68530756D01*
X155507188Y-68537175D01*
X155507190Y-68537181D01*
X155511521Y-68564525D01*
X155511522Y-68564530D01*
X155531617Y-68626378D01*
X155533460Y-68632600D01*
X155553260Y-68706494D01*
X155564529Y-68730662D01*
X155567733Y-68737532D01*
X155574780Y-68759219D01*
X155610930Y-68830169D01*
X155611844Y-68832128D01*
X155649432Y-68912734D01*
X155657562Y-68924346D01*
X155662535Y-68931448D01*
X155667713Y-68941610D01*
X155721164Y-69015180D01*
X155721793Y-69016078D01*
X155779953Y-69099140D01*
X155940858Y-69260045D01*
X156007379Y-69306623D01*
X156051004Y-69361199D01*
X156058198Y-69430698D01*
X156026676Y-69493052D01*
X155966922Y-69528346D01*
X155946970Y-69533438D01*
X155946956Y-69533442D01*
X155890415Y-69556862D01*
X156650590Y-70317037D01*
X156587007Y-70334075D01*
X156472993Y-70399901D01*
X156379901Y-70492993D01*
X156314075Y-70607007D01*
X156280000Y-70734174D01*
X156280000Y-70865826D01*
X156314075Y-70992993D01*
X156379901Y-71107007D01*
X156472993Y-71200099D01*
X156587007Y-71265925D01*
X156650589Y-71282962D01*
X155890415Y-72043135D01*
X155890415Y-72043136D01*
X155946947Y-72066553D01*
X155975159Y-72076505D01*
X156031832Y-72117370D01*
X156057415Y-72182388D01*
X156043786Y-72250915D01*
X156005035Y-72295016D01*
X155940859Y-72339954D01*
X155779954Y-72500859D01*
X155721781Y-72583934D01*
X155721782Y-72583935D01*
X155721132Y-72584863D01*
X155667713Y-72658390D01*
X155662535Y-72668550D01*
X155657560Y-72675656D01*
X155657558Y-72675656D01*
X155649433Y-72687262D01*
X155611838Y-72767882D01*
X155610920Y-72769849D01*
X155574780Y-72840781D01*
X155567735Y-72862458D01*
X155564532Y-72869329D01*
X155564529Y-72869338D01*
X155553261Y-72893503D01*
X155553261Y-72893504D01*
X155533459Y-72967404D01*
X155533458Y-72967403D01*
X155532614Y-72970551D01*
X155511523Y-73035466D01*
X155506175Y-73069224D01*
X155504492Y-73075507D01*
X155504492Y-73075510D01*
X155504065Y-73077104D01*
X155494366Y-73113304D01*
X155494364Y-73113313D01*
X155488783Y-73177106D01*
X155487728Y-73185697D01*
X155479500Y-73237643D01*
X155479500Y-73237648D01*
X155479500Y-73442352D01*
X155488406Y-73498582D01*
X155494365Y-73566692D01*
X155506171Y-73610756D01*
X155507188Y-73617175D01*
X155507190Y-73617181D01*
X155511521Y-73644525D01*
X155511522Y-73644530D01*
X155531617Y-73706378D01*
X155533460Y-73712600D01*
X155553260Y-73786494D01*
X155564529Y-73810662D01*
X155567733Y-73817532D01*
X155574780Y-73839219D01*
X155610930Y-73910169D01*
X155611844Y-73912128D01*
X155649432Y-73992734D01*
X155657562Y-74004346D01*
X155662535Y-74011448D01*
X155667713Y-74021610D01*
X155721164Y-74095180D01*
X155721793Y-74096078D01*
X155779953Y-74179140D01*
X155940858Y-74340045D01*
X155996756Y-74379185D01*
X156024800Y-74398821D01*
X156098390Y-74452287D01*
X156108547Y-74457462D01*
X156115648Y-74462434D01*
X156115652Y-74462436D01*
X156127266Y-74470568D01*
X156127270Y-74470570D01*
X156185272Y-74497617D01*
X156195927Y-74506999D01*
X156209131Y-74512224D01*
X156221629Y-74529629D01*
X156237712Y-74543789D01*
X156241604Y-74557444D01*
X156249886Y-74568977D01*
X156250990Y-74590375D01*
X156256864Y-74610982D01*
X156252755Y-74624573D01*
X156253488Y-74638754D01*
X156242848Y-74657352D01*
X156236649Y-74677864D01*
X156225167Y-74688259D01*
X156218794Y-74699401D01*
X156194369Y-74716145D01*
X156190126Y-74719988D01*
X156187711Y-74721244D01*
X156127266Y-74749432D01*
X156109002Y-74762219D01*
X156101792Y-74765973D01*
X156101591Y-74766012D01*
X156100847Y-74766460D01*
X156098397Y-74767708D01*
X156098394Y-74767710D01*
X156025696Y-74820526D01*
X156023939Y-74821779D01*
X155940859Y-74879954D01*
X155779954Y-75040859D01*
X155721781Y-75123934D01*
X155721782Y-75123935D01*
X155721132Y-75124863D01*
X155667713Y-75198390D01*
X155662535Y-75208550D01*
X155657560Y-75215656D01*
X155657558Y-75215656D01*
X155649433Y-75227262D01*
X155611838Y-75307882D01*
X155610920Y-75309849D01*
X155574780Y-75380781D01*
X155567735Y-75402458D01*
X155564532Y-75409329D01*
X155564529Y-75409338D01*
X155553261Y-75433503D01*
X155553261Y-75433504D01*
X155533459Y-75507404D01*
X155533458Y-75507403D01*
X155532614Y-75510551D01*
X155511523Y-75575466D01*
X155506175Y-75609224D01*
X155504492Y-75615507D01*
X155504492Y-75615511D01*
X155494366Y-75653304D01*
X155494364Y-75653313D01*
X155488783Y-75717106D01*
X155487728Y-75725697D01*
X155479500Y-75777643D01*
X155479500Y-75777648D01*
X155479500Y-75982352D01*
X155488406Y-76038582D01*
X155494365Y-76106692D01*
X155506171Y-76150756D01*
X155507188Y-76157175D01*
X155507190Y-76157181D01*
X155511521Y-76184525D01*
X155511522Y-76184530D01*
X155531617Y-76246378D01*
X155533460Y-76252600D01*
X155553260Y-76326494D01*
X155564529Y-76350662D01*
X155567733Y-76357532D01*
X155574780Y-76379219D01*
X155610930Y-76450169D01*
X155611844Y-76452128D01*
X155649432Y-76532734D01*
X155657562Y-76544346D01*
X155662535Y-76551448D01*
X155667713Y-76561610D01*
X155721164Y-76635180D01*
X155721793Y-76636078D01*
X155779953Y-76719140D01*
X155940858Y-76880045D01*
X155940861Y-76880047D01*
X156024800Y-76938821D01*
X156098390Y-76992287D01*
X156108547Y-76997462D01*
X156115648Y-77002434D01*
X156115652Y-77002436D01*
X156127266Y-77010568D01*
X156127270Y-77010570D01*
X156185272Y-77037617D01*
X156195927Y-77046999D01*
X156209131Y-77052224D01*
X156221629Y-77069629D01*
X156237712Y-77083789D01*
X156241604Y-77097444D01*
X156249886Y-77108977D01*
X156250990Y-77130375D01*
X156256864Y-77150982D01*
X156252755Y-77164573D01*
X156253488Y-77178754D01*
X156242848Y-77197352D01*
X156236649Y-77217864D01*
X156225167Y-77228259D01*
X156218794Y-77239401D01*
X156194369Y-77256145D01*
X156190126Y-77259988D01*
X156187711Y-77261244D01*
X156127266Y-77289432D01*
X156109002Y-77302219D01*
X156101792Y-77305973D01*
X156101591Y-77306012D01*
X156100847Y-77306460D01*
X156098397Y-77307708D01*
X156098394Y-77307710D01*
X156025696Y-77360526D01*
X156023939Y-77361779D01*
X155940859Y-77419954D01*
X155779954Y-77580859D01*
X155721781Y-77663934D01*
X155721782Y-77663935D01*
X155721132Y-77664863D01*
X155667713Y-77738390D01*
X155662535Y-77748550D01*
X155657560Y-77755656D01*
X155657558Y-77755656D01*
X155649433Y-77767262D01*
X155611838Y-77847882D01*
X155610920Y-77849849D01*
X155574780Y-77920781D01*
X155567735Y-77942458D01*
X155564532Y-77949329D01*
X155564529Y-77949338D01*
X155553261Y-77973503D01*
X155553261Y-77973504D01*
X155533459Y-78047404D01*
X155533458Y-78047403D01*
X155532614Y-78050551D01*
X155511523Y-78115466D01*
X155506175Y-78149224D01*
X155504492Y-78155507D01*
X155504492Y-78155511D01*
X155494366Y-78193304D01*
X155494364Y-78193313D01*
X155488783Y-78257106D01*
X155487728Y-78265697D01*
X155479500Y-78317643D01*
X155479500Y-78317648D01*
X155479500Y-78522352D01*
X155488406Y-78578582D01*
X155494365Y-78646692D01*
X155506171Y-78690756D01*
X155507188Y-78697175D01*
X155507190Y-78697181D01*
X155511521Y-78724525D01*
X155511522Y-78724530D01*
X155531617Y-78786378D01*
X155533460Y-78792600D01*
X155553260Y-78866494D01*
X155564529Y-78890662D01*
X155567733Y-78897532D01*
X155574780Y-78919219D01*
X155610930Y-78990169D01*
X155611844Y-78992128D01*
X155649432Y-79072734D01*
X155657562Y-79084346D01*
X155662535Y-79091448D01*
X155667713Y-79101610D01*
X155721164Y-79175180D01*
X155721793Y-79176078D01*
X155779953Y-79259140D01*
X155940858Y-79420045D01*
X155940861Y-79420047D01*
X156024800Y-79478821D01*
X156098390Y-79532287D01*
X156108547Y-79537462D01*
X156115648Y-79542434D01*
X156115652Y-79542436D01*
X156127266Y-79550568D01*
X156127270Y-79550570D01*
X156185272Y-79577617D01*
X156195927Y-79586999D01*
X156209131Y-79592224D01*
X156221629Y-79609629D01*
X156237712Y-79623789D01*
X156241604Y-79637444D01*
X156249886Y-79648977D01*
X156250990Y-79670375D01*
X156256864Y-79690982D01*
X156252755Y-79704573D01*
X156253488Y-79718754D01*
X156242848Y-79737352D01*
X156236649Y-79757864D01*
X156225167Y-79768259D01*
X156218794Y-79779401D01*
X156194369Y-79796145D01*
X156190126Y-79799988D01*
X156187711Y-79801244D01*
X156127266Y-79829432D01*
X156109002Y-79842219D01*
X156101792Y-79845973D01*
X156101591Y-79846012D01*
X156100847Y-79846460D01*
X156098397Y-79847708D01*
X156098394Y-79847710D01*
X156025696Y-79900526D01*
X156023939Y-79901779D01*
X155940859Y-79959954D01*
X155779954Y-80120859D01*
X155721781Y-80203934D01*
X155721782Y-80203935D01*
X155721132Y-80204863D01*
X155667713Y-80278390D01*
X155662535Y-80288550D01*
X155657560Y-80295656D01*
X155657558Y-80295656D01*
X155649433Y-80307262D01*
X155611838Y-80387882D01*
X155610920Y-80389849D01*
X155574780Y-80460781D01*
X155567735Y-80482458D01*
X155564532Y-80489329D01*
X155564529Y-80489338D01*
X155553261Y-80513503D01*
X155553261Y-80513504D01*
X155533459Y-80587404D01*
X155533458Y-80587403D01*
X155532614Y-80590551D01*
X155511523Y-80655466D01*
X155506175Y-80689224D01*
X155504492Y-80695507D01*
X155504492Y-80695511D01*
X155494366Y-80733304D01*
X155494364Y-80733313D01*
X155488783Y-80797106D01*
X155487728Y-80805697D01*
X155479500Y-80857643D01*
X155479500Y-80857648D01*
X155479500Y-81062352D01*
X155488406Y-81118582D01*
X155494365Y-81186692D01*
X155506171Y-81230756D01*
X155507188Y-81237175D01*
X155507190Y-81237181D01*
X155511521Y-81264525D01*
X155511522Y-81264530D01*
X155531617Y-81326378D01*
X155533460Y-81332600D01*
X155553260Y-81406494D01*
X155564529Y-81430662D01*
X155567733Y-81437532D01*
X155574780Y-81459219D01*
X155610930Y-81530169D01*
X155611844Y-81532128D01*
X155649432Y-81612734D01*
X155657562Y-81624346D01*
X155662535Y-81631448D01*
X155667713Y-81641610D01*
X155721164Y-81715180D01*
X155721793Y-81716078D01*
X155779953Y-81799140D01*
X155940858Y-81960045D01*
X156007379Y-82006623D01*
X156051004Y-82061199D01*
X156058198Y-82130698D01*
X156026676Y-82193052D01*
X155966922Y-82228346D01*
X155946970Y-82233438D01*
X155946956Y-82233442D01*
X155890415Y-82256862D01*
X156650590Y-83017037D01*
X156587007Y-83034075D01*
X156472993Y-83099901D01*
X156379901Y-83192993D01*
X156314075Y-83307007D01*
X156280000Y-83434174D01*
X156280000Y-83565826D01*
X156314075Y-83692993D01*
X156379901Y-83807007D01*
X156472993Y-83900099D01*
X156587007Y-83965925D01*
X156650589Y-83982962D01*
X155890415Y-84743135D01*
X155890415Y-84743136D01*
X155946947Y-84766553D01*
X155975159Y-84776505D01*
X156031832Y-84817370D01*
X156057415Y-84882388D01*
X156043786Y-84950915D01*
X156005035Y-84995016D01*
X155940859Y-85039954D01*
X155779954Y-85200859D01*
X155721781Y-85283934D01*
X155721782Y-85283935D01*
X155721132Y-85284863D01*
X155667713Y-85358390D01*
X155662535Y-85368550D01*
X155657560Y-85375656D01*
X155657558Y-85375656D01*
X155649433Y-85387262D01*
X155611838Y-85467882D01*
X155610920Y-85469849D01*
X155574780Y-85540781D01*
X155567735Y-85562458D01*
X155564532Y-85569329D01*
X155564529Y-85569338D01*
X155553261Y-85593503D01*
X155553261Y-85593504D01*
X155533459Y-85667404D01*
X155533458Y-85667403D01*
X155532614Y-85670551D01*
X155511523Y-85735466D01*
X155506175Y-85769224D01*
X155504492Y-85775507D01*
X155504492Y-85775511D01*
X155494366Y-85813304D01*
X155494364Y-85813313D01*
X155488783Y-85877106D01*
X155487728Y-85885697D01*
X155479500Y-85937643D01*
X155479500Y-85937648D01*
X155479500Y-86142352D01*
X155488406Y-86198582D01*
X155494365Y-86266692D01*
X155506171Y-86310756D01*
X155507188Y-86317175D01*
X155507190Y-86317181D01*
X155511521Y-86344525D01*
X155511522Y-86344530D01*
X155511523Y-86344534D01*
X155517826Y-86363932D01*
X155531617Y-86406378D01*
X155533460Y-86412600D01*
X155553260Y-86486494D01*
X155564529Y-86510662D01*
X155567733Y-86517532D01*
X155574780Y-86539219D01*
X155610930Y-86610169D01*
X155611844Y-86612128D01*
X155649432Y-86692734D01*
X155657562Y-86704346D01*
X155662535Y-86711448D01*
X155667713Y-86721610D01*
X155721164Y-86795180D01*
X155721793Y-86796078D01*
X155779953Y-86879140D01*
X155940857Y-87040044D01*
X155940860Y-87040046D01*
X155940861Y-87040047D01*
X156011483Y-87089496D01*
X156055108Y-87144072D01*
X156062302Y-87213570D01*
X156030780Y-87275925D01*
X155977251Y-87309456D01*
X155890396Y-87336521D01*
X155890394Y-87336521D01*
X155890394Y-87336522D01*
X155847335Y-87362552D01*
X155744811Y-87424530D01*
X155624530Y-87544811D01*
X155536522Y-87690393D01*
X155485913Y-87852807D01*
X155479500Y-87923386D01*
X155479500Y-88444348D01*
X155478952Y-88455502D01*
X155478968Y-88455820D01*
X155478931Y-88456217D01*
X155474500Y-88501207D01*
X151965500Y-88501207D01*
X151965500Y-88343713D01*
X151932246Y-88133757D01*
X151866557Y-87931588D01*
X151770051Y-87742184D01*
X151770049Y-87742181D01*
X151770048Y-87742179D01*
X151645109Y-87570213D01*
X151494786Y-87419890D01*
X151322820Y-87294951D01*
X151133414Y-87198444D01*
X151133413Y-87198443D01*
X151133412Y-87198443D01*
X150931243Y-87132754D01*
X150931241Y-87132753D01*
X150931240Y-87132753D01*
X150769957Y-87107208D01*
X150721287Y-87099500D01*
X150508713Y-87099500D01*
X150460042Y-87107208D01*
X150298760Y-87132753D01*
X150298757Y-87132754D01*
X150100251Y-87197253D01*
X150096585Y-87198444D01*
X149907179Y-87294951D01*
X149735213Y-87419890D01*
X149584890Y-87570213D01*
X149457085Y-87746125D01*
X149455996Y-87745333D01*
X149408706Y-87788096D01*
X149350780Y-87800351D01*
X149340009Y-87800000D01*
X149340000Y-87800000D01*
X148890000Y-87800000D01*
X148440000Y-87800000D01*
X148374455Y-87802139D01*
X148247833Y-87836067D01*
X148247831Y-87836067D01*
X148247831Y-87836068D01*
X148134306Y-87901612D01*
X148134303Y-87901614D01*
X148041614Y-87994303D01*
X148041610Y-87994309D01*
X148001715Y-88063407D01*
X147951147Y-88111622D01*
X147882540Y-88124843D01*
X147817676Y-88098874D01*
X147786941Y-88063404D01*
X147756009Y-88009827D01*
X147738388Y-87979306D01*
X147645694Y-87886612D01*
X147532167Y-87821068D01*
X147532168Y-87821068D01*
X147482513Y-87807763D01*
X147405545Y-87787139D01*
X147405542Y-87787138D01*
X147405543Y-87787138D01*
X147340000Y-87785000D01*
X146890000Y-87785000D01*
X146440000Y-87785000D01*
X146439995Y-87785000D01*
X146418928Y-87785687D01*
X146351282Y-87768198D01*
X146314569Y-87734639D01*
X146234510Y-87624446D01*
X146195107Y-87570211D01*
X146044786Y-87419890D01*
X145872820Y-87294951D01*
X145683414Y-87198444D01*
X145683413Y-87198443D01*
X145683412Y-87198443D01*
X145481243Y-87132754D01*
X145481241Y-87132753D01*
X145481240Y-87132753D01*
X145319957Y-87107208D01*
X145271287Y-87099500D01*
X145058713Y-87099500D01*
X145010042Y-87107208D01*
X144848760Y-87132753D01*
X144848757Y-87132754D01*
X144650251Y-87197253D01*
X144646585Y-87198444D01*
X144457179Y-87294951D01*
X144285213Y-87419890D01*
X144134890Y-87570213D01*
X144009951Y-87742179D01*
X143913444Y-87931585D01*
X143847753Y-88133760D01*
X143814500Y-88343713D01*
X140283064Y-88343713D01*
X140275503Y-88315498D01*
X140272809Y-88302822D01*
X140268477Y-88275466D01*
X140248378Y-88213609D01*
X140246535Y-88207386D01*
X140226742Y-88133513D01*
X140226740Y-88133510D01*
X140226739Y-88133504D01*
X140212266Y-88102467D01*
X140205220Y-88080781D01*
X140169067Y-88009827D01*
X140130568Y-87927266D01*
X140122436Y-87915652D01*
X140122436Y-87915651D01*
X140117462Y-87908548D01*
X140112287Y-87898390D01*
X140058821Y-87824800D01*
X140037650Y-87794565D01*
X140000045Y-87740858D01*
X139839140Y-87579953D01*
X139756078Y-87521793D01*
X139755180Y-87521164D01*
X139681610Y-87467713D01*
X139671448Y-87462535D01*
X139664346Y-87457562D01*
X139652736Y-87449433D01*
X139594724Y-87422381D01*
X139584066Y-87412996D01*
X139570866Y-87407773D01*
X139558368Y-87390369D01*
X139542285Y-87376208D01*
X139538393Y-87362552D01*
X139530112Y-87351021D01*
X139529007Y-87329621D01*
X139523134Y-87309014D01*
X139527241Y-87295423D01*
X139526510Y-87281244D01*
X139537149Y-87262644D01*
X139543350Y-87242133D01*
X139554830Y-87231737D01*
X139561204Y-87220597D01*
X139585623Y-87203856D01*
X139589872Y-87200010D01*
X139592252Y-87198770D01*
X139652734Y-87170568D01*
X139671002Y-87157775D01*
X139678207Y-87154025D01*
X139678416Y-87153983D01*
X139679180Y-87153524D01*
X139681610Y-87152287D01*
X139754358Y-87099432D01*
X139756047Y-87098227D01*
X139839139Y-87040047D01*
X140000047Y-86879139D01*
X140058821Y-86795199D01*
X140112287Y-86721610D01*
X140117465Y-86711446D01*
X140130568Y-86692734D01*
X140169067Y-86610172D01*
X140205220Y-86539219D01*
X140212266Y-86517532D01*
X140226739Y-86486496D01*
X140226742Y-86486488D01*
X140246534Y-86412617D01*
X140247377Y-86409471D01*
X140268477Y-86344534D01*
X140273825Y-86310766D01*
X140285635Y-86266692D01*
X140291215Y-86202892D01*
X140292270Y-86194306D01*
X140293620Y-86185788D01*
X140300500Y-86142352D01*
X140300500Y-85937648D01*
X140291593Y-85881417D01*
X140285635Y-85813308D01*
X140273825Y-85769233D01*
X140268477Y-85735466D01*
X140248378Y-85673609D01*
X140246535Y-85667386D01*
X140226742Y-85593513D01*
X140226740Y-85593510D01*
X140226739Y-85593504D01*
X140212266Y-85562467D01*
X140205220Y-85540781D01*
X140169067Y-85469827D01*
X140130568Y-85387266D01*
X140122113Y-85375192D01*
X140121776Y-85374700D01*
X140121670Y-85374378D01*
X140113524Y-85360818D01*
X140112288Y-85358391D01*
X140112286Y-85358388D01*
X140089834Y-85327486D01*
X144289500Y-85327486D01*
X144289500Y-85512513D01*
X144318445Y-85695265D01*
X144375619Y-85871232D01*
X144375620Y-85871235D01*
X144432678Y-85983216D01*
X144459622Y-86036096D01*
X144568379Y-86185787D01*
X144699213Y-86316621D01*
X144848904Y-86425378D01*
X144929763Y-86466577D01*
X145013764Y-86509379D01*
X145013767Y-86509380D01*
X145101750Y-86537967D01*
X145189736Y-86566555D01*
X145372486Y-86595500D01*
X145372487Y-86595500D01*
X145557513Y-86595500D01*
X145557514Y-86595500D01*
X145740264Y-86566555D01*
X145916235Y-86509379D01*
X146081096Y-86425378D01*
X146230787Y-86316621D01*
X146361621Y-86185787D01*
X146470378Y-86036096D01*
X146554379Y-85871235D01*
X146611555Y-85695264D01*
X146640500Y-85512514D01*
X146640500Y-85327486D01*
X146611555Y-85144736D01*
X146577510Y-85039954D01*
X146576321Y-85036295D01*
X146564528Y-85000000D01*
X146940000Y-85000000D01*
X146940000Y-85900000D01*
X146942139Y-85965545D01*
X146976067Y-86092167D01*
X147041612Y-86205694D01*
X147134306Y-86298388D01*
X147247833Y-86363933D01*
X147374455Y-86397861D01*
X147440000Y-86400000D01*
X148340000Y-86400000D01*
X148405545Y-86397861D01*
X148532167Y-86363932D01*
X148645694Y-86298388D01*
X148738388Y-86205694D01*
X148803932Y-86092167D01*
X148837861Y-85965545D01*
X148840000Y-85900000D01*
X148840000Y-85327486D01*
X149139500Y-85327486D01*
X149139500Y-85512513D01*
X149168445Y-85695265D01*
X149225619Y-85871232D01*
X149225620Y-85871235D01*
X149282678Y-85983216D01*
X149309622Y-86036096D01*
X149418379Y-86185787D01*
X149549213Y-86316621D01*
X149698904Y-86425378D01*
X149779763Y-86466577D01*
X149863764Y-86509379D01*
X149863767Y-86509380D01*
X149951750Y-86537967D01*
X150039736Y-86566555D01*
X150222486Y-86595500D01*
X150222487Y-86595500D01*
X150407513Y-86595500D01*
X150407514Y-86595500D01*
X150590264Y-86566555D01*
X150766235Y-86509379D01*
X150931096Y-86425378D01*
X151080787Y-86316621D01*
X151211621Y-86185787D01*
X151320378Y-86036096D01*
X151404379Y-85871235D01*
X151461555Y-85695264D01*
X151490500Y-85512514D01*
X151490500Y-85327486D01*
X151461555Y-85144736D01*
X151414528Y-85000000D01*
X151404380Y-84968767D01*
X151404379Y-84968764D01*
X151360368Y-84882388D01*
X151320378Y-84803904D01*
X151211621Y-84654213D01*
X151080787Y-84523379D01*
X150931096Y-84414622D01*
X150766235Y-84330620D01*
X150766232Y-84330619D01*
X150590265Y-84273445D01*
X150498889Y-84258972D01*
X150407514Y-84244500D01*
X150222486Y-84244500D01*
X150161569Y-84254148D01*
X150039734Y-84273445D01*
X149863767Y-84330619D01*
X149863764Y-84330620D01*
X149698903Y-84414622D01*
X149613499Y-84476672D01*
X149549213Y-84523379D01*
X149549211Y-84523381D01*
X149549210Y-84523381D01*
X149418381Y-84654210D01*
X149418381Y-84654211D01*
X149418379Y-84654213D01*
X149411658Y-84663464D01*
X149309622Y-84803903D01*
X149225620Y-84968764D01*
X149225619Y-84968767D01*
X149168445Y-85144734D01*
X149139500Y-85327486D01*
X148840000Y-85327486D01*
X148840000Y-85000000D01*
X148837861Y-84934455D01*
X148803932Y-84807833D01*
X148738388Y-84694306D01*
X148645694Y-84601612D01*
X148532167Y-84536068D01*
X148532168Y-84536068D01*
X148493420Y-84525685D01*
X148405545Y-84502139D01*
X148405542Y-84502138D01*
X148405543Y-84502138D01*
X148340000Y-84500000D01*
X147890000Y-84500000D01*
X147440000Y-84500000D01*
X147374455Y-84502139D01*
X147247833Y-84536067D01*
X147247831Y-84536067D01*
X147247831Y-84536068D01*
X147134306Y-84601612D01*
X147134303Y-84601614D01*
X147041614Y-84694303D01*
X147041612Y-84694306D01*
X146976067Y-84807833D01*
X146942139Y-84934455D01*
X146940000Y-85000000D01*
X146564528Y-85000000D01*
X146554380Y-84968767D01*
X146554379Y-84968764D01*
X146510368Y-84882388D01*
X146470378Y-84803904D01*
X146361621Y-84654213D01*
X146230787Y-84523379D01*
X146081096Y-84414622D01*
X145916235Y-84330620D01*
X145916232Y-84330619D01*
X145740265Y-84273445D01*
X145648889Y-84258972D01*
X145557514Y-84244500D01*
X145372486Y-84244500D01*
X145311569Y-84254148D01*
X145189734Y-84273445D01*
X145013767Y-84330619D01*
X145013764Y-84330620D01*
X144848903Y-84414622D01*
X144763499Y-84476672D01*
X144699213Y-84523379D01*
X144699211Y-84523381D01*
X144699210Y-84523381D01*
X144568381Y-84654210D01*
X144568381Y-84654211D01*
X144568379Y-84654213D01*
X144561658Y-84663464D01*
X144459622Y-84803903D01*
X144375620Y-84968764D01*
X144375619Y-84968767D01*
X144318445Y-85144734D01*
X144289500Y-85327486D01*
X140089834Y-85327486D01*
X140059462Y-85285682D01*
X140058205Y-85283920D01*
X140000045Y-85200858D01*
X139839143Y-85039956D01*
X139772620Y-84993376D01*
X139728996Y-84938799D01*
X139721803Y-84869300D01*
X139753325Y-84806946D01*
X139813082Y-84771652D01*
X139833025Y-84766562D01*
X139833035Y-84766559D01*
X139889582Y-84743135D01*
X139129409Y-83982962D01*
X139192993Y-83965925D01*
X139307007Y-83900099D01*
X139400099Y-83807007D01*
X139433012Y-83750000D01*
X139603552Y-83750000D01*
X140243135Y-84389582D01*
X140243137Y-84389582D01*
X140266552Y-84333053D01*
X140284544Y-84282053D01*
X140304998Y-84139785D01*
X155475000Y-84139785D01*
X155477893Y-84193762D01*
X155477893Y-84193764D01*
X155513438Y-84333030D01*
X155513440Y-84333037D01*
X155536863Y-84389583D01*
X156176447Y-83750000D01*
X155475000Y-83750000D01*
X155475000Y-84139785D01*
X140304998Y-84139785D01*
X140304999Y-84139780D01*
X140305000Y-84139779D01*
X140305000Y-83750000D01*
X139603552Y-83750000D01*
X139433012Y-83750000D01*
X139465925Y-83692993D01*
X139500000Y-83565826D01*
X139500000Y-83434174D01*
X139465925Y-83307007D01*
X139433011Y-83249999D01*
X139603552Y-83249999D01*
X139603553Y-83250000D01*
X140305000Y-83250000D01*
X140305000Y-82860214D01*
X140302106Y-82806237D01*
X140302106Y-82806235D01*
X140266558Y-82666960D01*
X140243136Y-82610415D01*
X140243135Y-82610415D01*
X139603552Y-83249999D01*
X139433011Y-83249999D01*
X139400099Y-83192993D01*
X139307007Y-83099901D01*
X139192993Y-83034075D01*
X139129409Y-83017037D01*
X139889583Y-82256863D01*
X139889583Y-82256862D01*
X139833052Y-82233447D01*
X139833024Y-82233436D01*
X139804834Y-82223491D01*
X139748163Y-82182624D01*
X139722582Y-82117605D01*
X139736214Y-82049078D01*
X139774965Y-82004980D01*
X139839139Y-81960047D01*
X140000047Y-81799139D01*
X140058821Y-81715199D01*
X140112287Y-81641610D01*
X140117465Y-81631446D01*
X140130568Y-81612734D01*
X140169067Y-81530172D01*
X140205220Y-81459219D01*
X140212266Y-81437532D01*
X140226739Y-81406496D01*
X140226742Y-81406488D01*
X140246534Y-81332617D01*
X140247377Y-81329471D01*
X140268477Y-81264534D01*
X140273825Y-81230766D01*
X140285635Y-81186692D01*
X140291215Y-81122892D01*
X140292270Y-81114306D01*
X140300500Y-81062350D01*
X140300500Y-80857649D01*
X140292270Y-80805691D01*
X140292270Y-80805690D01*
X140291592Y-80801414D01*
X140285635Y-80733308D01*
X140273825Y-80689233D01*
X140268477Y-80655466D01*
X140248378Y-80593609D01*
X140246535Y-80587386D01*
X140226742Y-80513513D01*
X140226740Y-80513510D01*
X140226739Y-80513504D01*
X140212266Y-80482467D01*
X140205220Y-80460781D01*
X140169067Y-80389827D01*
X140130568Y-80307266D01*
X140122436Y-80295652D01*
X140122436Y-80295651D01*
X140117462Y-80288548D01*
X140112287Y-80278390D01*
X140058821Y-80204800D01*
X140058215Y-80203935D01*
X140058205Y-80203920D01*
X140000045Y-80120858D01*
X139839140Y-79959953D01*
X139756078Y-79901793D01*
X139755180Y-79901164D01*
X139681610Y-79847713D01*
X139671448Y-79842535D01*
X139664346Y-79837562D01*
X139652736Y-79829433D01*
X139652727Y-79829429D01*
X139594723Y-79802380D01*
X139584066Y-79792996D01*
X139570866Y-79787773D01*
X139558368Y-79770369D01*
X139542285Y-79756208D01*
X139538393Y-79742552D01*
X139530112Y-79731021D01*
X139529007Y-79709621D01*
X139523134Y-79689014D01*
X139527241Y-79675423D01*
X139526510Y-79661244D01*
X139537149Y-79642644D01*
X139543350Y-79622133D01*
X139554830Y-79611737D01*
X139561204Y-79600597D01*
X139585623Y-79583856D01*
X139589872Y-79580010D01*
X139592252Y-79578770D01*
X139652734Y-79550568D01*
X139671002Y-79537775D01*
X139678207Y-79534025D01*
X139678416Y-79533983D01*
X139679180Y-79533524D01*
X139681610Y-79532287D01*
X139754358Y-79479432D01*
X139756047Y-79478227D01*
X139839139Y-79420047D01*
X140000047Y-79259139D01*
X140058821Y-79175199D01*
X140112287Y-79101610D01*
X140117465Y-79091446D01*
X140130568Y-79072734D01*
X140169067Y-78990172D01*
X140205220Y-78919219D01*
X140212266Y-78897532D01*
X140226739Y-78866496D01*
X140226742Y-78866488D01*
X140246534Y-78792617D01*
X140247377Y-78789471D01*
X140268477Y-78724534D01*
X140273825Y-78690766D01*
X140285635Y-78646692D01*
X140291215Y-78582892D01*
X140292270Y-78574306D01*
X140300500Y-78522350D01*
X140300500Y-78317649D01*
X140292270Y-78265691D01*
X140292270Y-78265690D01*
X140291592Y-78261414D01*
X140285635Y-78193308D01*
X140273825Y-78149233D01*
X140268477Y-78115466D01*
X140248378Y-78053609D01*
X140246535Y-78047386D01*
X140226742Y-77973513D01*
X140226740Y-77973510D01*
X140226739Y-77973504D01*
X140212266Y-77942467D01*
X140205220Y-77920781D01*
X140169067Y-77849827D01*
X140130568Y-77767266D01*
X140122436Y-77755652D01*
X140122436Y-77755651D01*
X140117462Y-77748548D01*
X140112287Y-77738390D01*
X140058821Y-77664800D01*
X140058215Y-77663935D01*
X140058205Y-77663920D01*
X140000045Y-77580858D01*
X139839140Y-77419953D01*
X139756078Y-77361793D01*
X139755180Y-77361164D01*
X139681610Y-77307713D01*
X139671448Y-77302535D01*
X139664346Y-77297562D01*
X139652736Y-77289433D01*
X139652727Y-77289429D01*
X139594723Y-77262380D01*
X139584066Y-77252996D01*
X139570866Y-77247773D01*
X139558368Y-77230369D01*
X139542285Y-77216208D01*
X139538393Y-77202552D01*
X139530112Y-77191021D01*
X139529007Y-77169621D01*
X139523134Y-77149014D01*
X139527241Y-77135423D01*
X139526510Y-77121244D01*
X139537149Y-77102644D01*
X139543350Y-77082133D01*
X139554830Y-77071737D01*
X139561204Y-77060597D01*
X139585623Y-77043856D01*
X139589872Y-77040010D01*
X139592252Y-77038770D01*
X139652734Y-77010568D01*
X139671002Y-76997775D01*
X139678207Y-76994025D01*
X139678416Y-76993983D01*
X139679180Y-76993524D01*
X139681610Y-76992287D01*
X139754358Y-76939432D01*
X139756047Y-76938227D01*
X139839139Y-76880047D01*
X140000047Y-76719139D01*
X140058821Y-76635199D01*
X140112287Y-76561610D01*
X140117465Y-76551446D01*
X140130568Y-76532734D01*
X140169067Y-76450172D01*
X140205220Y-76379219D01*
X140212266Y-76357532D01*
X140226739Y-76326496D01*
X140226742Y-76326488D01*
X140246534Y-76252617D01*
X140247377Y-76249471D01*
X140268477Y-76184534D01*
X140273825Y-76150766D01*
X140285635Y-76106692D01*
X140291215Y-76042892D01*
X140292270Y-76034306D01*
X140300500Y-75982350D01*
X140300500Y-75777649D01*
X140292270Y-75725691D01*
X140292270Y-75725690D01*
X140291592Y-75721414D01*
X140285635Y-75653308D01*
X140273825Y-75609233D01*
X140268477Y-75575466D01*
X140248378Y-75513609D01*
X140246535Y-75507386D01*
X140226742Y-75433513D01*
X140226740Y-75433510D01*
X140226739Y-75433504D01*
X140212266Y-75402467D01*
X140205220Y-75380781D01*
X140169067Y-75309827D01*
X140130568Y-75227266D01*
X140122436Y-75215652D01*
X140122436Y-75215651D01*
X140117462Y-75208548D01*
X140112287Y-75198390D01*
X140058821Y-75124800D01*
X140058215Y-75123935D01*
X140058205Y-75123920D01*
X140019820Y-75069100D01*
X140019819Y-75069099D01*
X140000044Y-75040857D01*
X139959186Y-74999999D01*
X149440000Y-74999999D01*
X149440000Y-75000000D01*
X149440000Y-78700000D01*
X149440000Y-82400000D01*
X149442139Y-82465545D01*
X149476067Y-82592167D01*
X149541612Y-82705694D01*
X149634306Y-82798388D01*
X149747833Y-82863933D01*
X149874455Y-82897861D01*
X149940000Y-82900000D01*
X150840000Y-82900000D01*
X150905545Y-82897861D01*
X151032167Y-82863933D01*
X151038600Y-82860219D01*
X155475000Y-82860219D01*
X155475000Y-83250000D01*
X156176447Y-83250000D01*
X156176447Y-83249999D01*
X155536862Y-82610415D01*
X155513449Y-82666940D01*
X155495455Y-82717946D01*
X155475000Y-82860219D01*
X151038600Y-82860219D01*
X151145694Y-82798388D01*
X151238388Y-82705694D01*
X151303933Y-82592167D01*
X151337861Y-82465545D01*
X151340000Y-82400000D01*
X151340000Y-78700000D01*
X151340000Y-75000000D01*
X151337861Y-74934455D01*
X151303932Y-74807833D01*
X151238388Y-74694306D01*
X151145694Y-74601612D01*
X151032167Y-74536068D01*
X151032168Y-74536068D01*
X150993420Y-74525685D01*
X150905545Y-74502139D01*
X150905542Y-74502138D01*
X150905543Y-74502138D01*
X150840000Y-74500000D01*
X149940000Y-74500000D01*
X149874458Y-74502138D01*
X149747832Y-74536068D01*
X149634307Y-74601611D01*
X149634304Y-74601613D01*
X149541613Y-74694304D01*
X149541611Y-74694307D01*
X149476068Y-74807832D01*
X149442138Y-74934458D01*
X149440000Y-74999999D01*
X139959186Y-74999999D01*
X139839140Y-74879953D01*
X139756078Y-74821793D01*
X139755180Y-74821164D01*
X139681610Y-74767713D01*
X139671448Y-74762535D01*
X139664346Y-74757562D01*
X139652736Y-74749433D01*
X139652727Y-74749429D01*
X139594723Y-74722380D01*
X139584066Y-74712996D01*
X139570866Y-74707773D01*
X139558368Y-74690369D01*
X139542285Y-74676208D01*
X139538393Y-74662552D01*
X139530112Y-74651021D01*
X139529007Y-74629621D01*
X139523134Y-74609014D01*
X139527241Y-74595423D01*
X139526510Y-74581244D01*
X139537149Y-74562644D01*
X139543350Y-74542133D01*
X139554830Y-74531737D01*
X139561204Y-74520597D01*
X139585623Y-74503856D01*
X139589872Y-74500010D01*
X139592252Y-74498770D01*
X139652734Y-74470568D01*
X139671002Y-74457775D01*
X139678207Y-74454025D01*
X139678416Y-74453983D01*
X139679180Y-74453524D01*
X139681610Y-74452287D01*
X139754358Y-74399432D01*
X139756047Y-74398227D01*
X139839139Y-74340047D01*
X140000047Y-74179139D01*
X140058821Y-74095199D01*
X140112287Y-74021610D01*
X140117465Y-74011446D01*
X140130568Y-73992734D01*
X140169067Y-73910172D01*
X140205220Y-73839219D01*
X140212266Y-73817532D01*
X140226739Y-73786496D01*
X140226742Y-73786488D01*
X140246534Y-73712617D01*
X140247377Y-73709471D01*
X140268477Y-73644534D01*
X140273825Y-73610766D01*
X140285635Y-73566692D01*
X140291215Y-73502892D01*
X140292270Y-73494306D01*
X140292999Y-73489707D01*
X140300500Y-73442352D01*
X140300500Y-73237648D01*
X140292155Y-73184967D01*
X140292057Y-73184297D01*
X140292079Y-73184138D01*
X140291215Y-73177098D01*
X140285635Y-73113308D01*
X140273825Y-73069233D01*
X140268477Y-73035466D01*
X140247377Y-72970528D01*
X140226871Y-72893995D01*
X140226742Y-72893513D01*
X140226740Y-72893510D01*
X140226739Y-72893504D01*
X140212266Y-72862467D01*
X140205220Y-72840781D01*
X140169067Y-72769827D01*
X140130568Y-72687266D01*
X140122436Y-72675652D01*
X140122436Y-72675651D01*
X140117462Y-72668548D01*
X140112287Y-72658390D01*
X140058821Y-72584800D01*
X140058215Y-72583935D01*
X140058205Y-72583920D01*
X140000045Y-72500858D01*
X139839141Y-72339954D01*
X139773155Y-72293751D01*
X139729530Y-72239175D01*
X139722336Y-72169677D01*
X139753858Y-72107322D01*
X139813612Y-72072028D01*
X139833226Y-72067022D01*
X139906735Y-72036574D01*
X139955551Y-72013219D01*
X140070733Y-71926994D01*
X140126994Y-71870733D01*
X140163157Y-71830475D01*
X140236574Y-71706735D01*
X140267022Y-71633226D01*
X140285024Y-71582198D01*
X140305500Y-71439785D01*
X155475000Y-71439785D01*
X155477893Y-71493762D01*
X155477893Y-71493764D01*
X155513438Y-71633030D01*
X155513440Y-71633037D01*
X155536863Y-71689583D01*
X156176447Y-71050000D01*
X155475000Y-71050000D01*
X155475000Y-71439785D01*
X140305500Y-71439785D01*
X140305500Y-71439782D01*
X140305500Y-70160218D01*
X140305101Y-70152781D01*
X140302604Y-70106185D01*
X140302603Y-70106181D01*
X140267023Y-69966778D01*
X140267019Y-69966766D01*
X140236580Y-69893280D01*
X140236568Y-69893252D01*
X140213220Y-69844451D01*
X140213217Y-69844446D01*
X140189736Y-69813080D01*
X140126994Y-69729267D01*
X140126989Y-69729262D01*
X140126984Y-69729256D01*
X140070747Y-69673019D01*
X140068685Y-69671167D01*
X140030475Y-69636843D01*
X140030467Y-69636837D01*
X139906736Y-69563426D01*
X139906737Y-69563426D01*
X139838001Y-69534956D01*
X139833226Y-69532978D01*
X139820468Y-69528477D01*
X139805337Y-69523139D01*
X139748666Y-69482272D01*
X139723085Y-69417253D01*
X139736717Y-69348726D01*
X139775469Y-69304628D01*
X139839139Y-69260047D01*
X140000047Y-69099139D01*
X140058286Y-69015961D01*
X140058451Y-69015729D01*
X140058958Y-69015010D01*
X140069864Y-69000000D01*
X145940000Y-69000000D01*
X145940000Y-69900000D01*
X145942139Y-69965545D01*
X145976067Y-70092167D01*
X146041612Y-70205694D01*
X146134306Y-70298388D01*
X146247833Y-70363933D01*
X146374455Y-70397861D01*
X146440000Y-70400000D01*
X147340000Y-70400000D01*
X147405545Y-70397861D01*
X147532167Y-70363932D01*
X147645694Y-70298388D01*
X147738388Y-70205694D01*
X147764643Y-70160219D01*
X155475000Y-70160219D01*
X155475000Y-70550000D01*
X156176447Y-70550000D01*
X156176447Y-70549999D01*
X155536862Y-69910415D01*
X155513449Y-69966940D01*
X155495455Y-70017946D01*
X155475000Y-70160219D01*
X147764643Y-70160219D01*
X147802996Y-70093790D01*
X147803608Y-70092727D01*
X147803932Y-70092167D01*
X147837861Y-69965545D01*
X147840000Y-69900000D01*
X147840000Y-69000000D01*
X147837861Y-68934455D01*
X147803932Y-68807833D01*
X147738388Y-68694306D01*
X147645694Y-68601612D01*
X147532167Y-68536068D01*
X147532168Y-68536068D01*
X147493420Y-68525685D01*
X147405545Y-68502139D01*
X147405542Y-68502138D01*
X147405543Y-68502138D01*
X147340000Y-68500000D01*
X146890000Y-68500000D01*
X146440000Y-68500000D01*
X146374455Y-68502139D01*
X146247833Y-68536067D01*
X146247831Y-68536067D01*
X146247831Y-68536068D01*
X146134306Y-68601612D01*
X146134303Y-68601614D01*
X146041614Y-68694303D01*
X146041612Y-68694306D01*
X146034574Y-68706497D01*
X145976067Y-68807833D01*
X145947960Y-68912730D01*
X145942139Y-68934455D01*
X145941906Y-68941610D01*
X145940000Y-69000000D01*
X140069864Y-69000000D01*
X140112287Y-68941610D01*
X140116285Y-68933762D01*
X140119619Y-68929037D01*
X140122437Y-68924345D01*
X140130568Y-68912734D01*
X140169067Y-68830172D01*
X140205220Y-68759219D01*
X140212266Y-68737532D01*
X140226739Y-68706496D01*
X140226742Y-68706488D01*
X140246534Y-68632617D01*
X140247377Y-68629471D01*
X140268477Y-68564534D01*
X140273825Y-68530766D01*
X140285635Y-68486692D01*
X140291215Y-68422892D01*
X140292270Y-68414306D01*
X140300500Y-68362350D01*
X140300500Y-68157649D01*
X140292270Y-68105691D01*
X140292270Y-68105690D01*
X140291592Y-68101414D01*
X140285635Y-68033308D01*
X140273825Y-67989233D01*
X140268477Y-67955466D01*
X140248378Y-67893609D01*
X140246535Y-67887386D01*
X140226742Y-67813513D01*
X140226740Y-67813510D01*
X140226739Y-67813504D01*
X140212266Y-67782467D01*
X140205220Y-67760781D01*
X140169067Y-67689827D01*
X140130568Y-67607266D01*
X140122436Y-67595652D01*
X140122436Y-67595651D01*
X140117462Y-67588548D01*
X140112287Y-67578390D01*
X140058821Y-67504800D01*
X140058215Y-67503935D01*
X140058205Y-67503920D01*
X140000045Y-67420858D01*
X139839140Y-67259953D01*
X139756078Y-67201793D01*
X139755180Y-67201164D01*
X139681610Y-67147713D01*
X139671448Y-67142535D01*
X139664346Y-67137562D01*
X139652736Y-67129433D01*
X139652727Y-67129429D01*
X139594723Y-67102380D01*
X139584066Y-67092996D01*
X139570866Y-67087773D01*
X139558368Y-67070369D01*
X139542285Y-67056208D01*
X139538393Y-67042552D01*
X139530112Y-67031021D01*
X139529007Y-67009621D01*
X139523134Y-66989014D01*
X139527241Y-66975423D01*
X139526510Y-66961244D01*
X139537149Y-66942644D01*
X139543350Y-66922133D01*
X139554830Y-66911737D01*
X139561204Y-66900597D01*
X139585623Y-66883856D01*
X139589872Y-66880010D01*
X139592252Y-66878770D01*
X139652734Y-66850568D01*
X139671002Y-66837775D01*
X139678207Y-66834025D01*
X139678416Y-66833983D01*
X139679180Y-66833524D01*
X139681610Y-66832287D01*
X139754358Y-66779432D01*
X139756047Y-66778227D01*
X139839139Y-66720047D01*
X140000047Y-66559139D01*
X140058821Y-66475199D01*
X140112287Y-66401610D01*
X140117465Y-66391446D01*
X140130568Y-66372734D01*
X140169067Y-66290172D01*
X140205220Y-66219219D01*
X140212266Y-66197532D01*
X140226739Y-66166496D01*
X140226742Y-66166488D01*
X140246534Y-66092617D01*
X140247377Y-66089471D01*
X140268477Y-66024534D01*
X140273825Y-65990766D01*
X140285635Y-65946692D01*
X140291215Y-65882892D01*
X140292270Y-65874306D01*
X140300500Y-65822350D01*
X140300500Y-65617649D01*
X140298043Y-65602140D01*
X140291593Y-65561417D01*
X140285635Y-65493308D01*
X140273825Y-65449233D01*
X140268477Y-65415466D01*
X140248378Y-65353609D01*
X140246535Y-65347386D01*
X140226742Y-65273513D01*
X140226740Y-65273510D01*
X140226739Y-65273504D01*
X140212266Y-65242467D01*
X140205220Y-65220781D01*
X140169067Y-65149827D01*
X140130568Y-65067266D01*
X140125576Y-65060137D01*
X140122436Y-65055652D01*
X140122436Y-65055651D01*
X140117462Y-65048548D01*
X140112287Y-65038390D01*
X140058821Y-64964800D01*
X140058215Y-64963935D01*
X140058205Y-64963920D01*
X140000045Y-64880858D01*
X139839140Y-64719953D01*
X139756078Y-64661793D01*
X139755180Y-64661164D01*
X139681610Y-64607713D01*
X139671448Y-64602535D01*
X139664346Y-64597562D01*
X139652736Y-64589433D01*
X139652727Y-64589429D01*
X139594723Y-64562380D01*
X139584066Y-64552996D01*
X139570866Y-64547773D01*
X139558368Y-64530369D01*
X139542285Y-64516208D01*
X139538393Y-64502552D01*
X139530112Y-64491021D01*
X139529007Y-64469621D01*
X139523134Y-64449014D01*
X139527241Y-64435423D01*
X139526510Y-64421244D01*
X139537149Y-64402644D01*
X139543350Y-64382133D01*
X139554830Y-64371737D01*
X139561204Y-64360597D01*
X139585623Y-64343856D01*
X139589872Y-64340010D01*
X139592252Y-64338770D01*
X139652734Y-64310568D01*
X139671002Y-64297775D01*
X139678207Y-64294025D01*
X139678416Y-64293983D01*
X139679180Y-64293524D01*
X139681610Y-64292287D01*
X139754358Y-64239432D01*
X139756047Y-64238227D01*
X139839139Y-64180047D01*
X140000047Y-64019139D01*
X140058821Y-63935199D01*
X140112287Y-63861610D01*
X140117465Y-63851446D01*
X140130568Y-63832734D01*
X140169067Y-63750172D01*
X140205220Y-63679219D01*
X140212266Y-63657532D01*
X140226739Y-63626496D01*
X140226742Y-63626488D01*
X140246534Y-63552617D01*
X140247377Y-63549471D01*
X140268477Y-63484534D01*
X140273825Y-63450766D01*
X140285635Y-63406692D01*
X140291215Y-63342892D01*
X140292270Y-63334306D01*
X140294677Y-63319115D01*
X140300500Y-63282352D01*
X140300500Y-63077648D01*
X140291593Y-63021417D01*
X140285635Y-62953308D01*
X140273825Y-62909233D01*
X140268477Y-62875466D01*
X140248378Y-62813609D01*
X140246535Y-62807386D01*
X140226742Y-62733513D01*
X140226740Y-62733510D01*
X140226739Y-62733504D01*
X140212266Y-62702467D01*
X140205220Y-62680781D01*
X140169067Y-62609827D01*
X140130568Y-62527266D01*
X140122436Y-62515652D01*
X140122436Y-62515651D01*
X140117462Y-62508548D01*
X140112287Y-62498390D01*
X140058821Y-62424800D01*
X140058215Y-62423935D01*
X140058205Y-62423920D01*
X140000045Y-62340858D01*
X139839140Y-62179953D01*
X139756078Y-62121793D01*
X139755180Y-62121164D01*
X139681610Y-62067713D01*
X139671448Y-62062535D01*
X139664346Y-62057562D01*
X139652736Y-62049433D01*
X139652727Y-62049429D01*
X139594723Y-62022380D01*
X139584066Y-62012996D01*
X139570866Y-62007773D01*
X139558368Y-61990369D01*
X139542285Y-61976208D01*
X139538393Y-61962552D01*
X139530112Y-61951021D01*
X139529007Y-61929621D01*
X139523134Y-61909014D01*
X139527241Y-61895423D01*
X139526510Y-61881244D01*
X139537149Y-61862644D01*
X139543350Y-61842133D01*
X139554830Y-61831737D01*
X139561204Y-61820597D01*
X139585623Y-61803856D01*
X139589872Y-61800010D01*
X139592252Y-61798770D01*
X139652734Y-61770568D01*
X139671002Y-61757775D01*
X139678207Y-61754025D01*
X139678416Y-61753983D01*
X139679180Y-61753524D01*
X139681610Y-61752287D01*
X139754358Y-61699432D01*
X139756047Y-61698227D01*
X139839139Y-61640047D01*
X140000047Y-61479139D01*
X140058821Y-61395199D01*
X140112287Y-61321610D01*
X140117465Y-61311446D01*
X140130568Y-61292734D01*
X140169067Y-61210172D01*
X140205220Y-61139219D01*
X140212266Y-61117532D01*
X140226739Y-61086496D01*
X140226742Y-61086488D01*
X140246534Y-61012617D01*
X140247377Y-61009471D01*
X140268477Y-60944534D01*
X140273825Y-60910766D01*
X140285635Y-60866692D01*
X140291215Y-60802892D01*
X140292270Y-60794306D01*
X140294750Y-60778654D01*
X140300500Y-60742352D01*
X140300500Y-60537648D01*
X140292155Y-60484967D01*
X140292057Y-60484297D01*
X140292079Y-60484138D01*
X140291215Y-60477098D01*
X140285635Y-60413308D01*
X140273825Y-60369233D01*
X140268477Y-60335466D01*
X140247377Y-60270528D01*
X140228346Y-60199500D01*
X140226742Y-60193513D01*
X140226740Y-60193510D01*
X140226739Y-60193504D01*
X140212266Y-60162467D01*
X140205220Y-60140781D01*
X140169067Y-60069827D01*
X140130568Y-59987266D01*
X140122436Y-59975652D01*
X140122436Y-59975651D01*
X140117462Y-59968548D01*
X140112287Y-59958390D01*
X140058821Y-59884800D01*
X140058215Y-59883935D01*
X140058205Y-59883920D01*
X140000045Y-59800858D01*
X139839143Y-59639956D01*
X139772620Y-59593376D01*
X139728996Y-59538799D01*
X139721803Y-59469300D01*
X139753325Y-59406946D01*
X139813082Y-59371652D01*
X139833025Y-59366562D01*
X139833035Y-59366559D01*
X139889582Y-59343135D01*
X139129409Y-58582962D01*
X139192993Y-58565925D01*
X139307007Y-58500099D01*
X139400099Y-58407007D01*
X139433012Y-58350000D01*
X139603552Y-58350000D01*
X140243135Y-58989582D01*
X140243137Y-58989582D01*
X140266552Y-58933053D01*
X140284544Y-58882053D01*
X140303529Y-58750002D01*
X141233722Y-58750002D01*
X141252617Y-58942712D01*
X141308586Y-59128091D01*
X141308586Y-59128092D01*
X141380566Y-59263465D01*
X141399494Y-59299063D01*
X141521880Y-59449123D01*
X141671081Y-59572553D01*
X141841416Y-59664652D01*
X141841418Y-59664652D01*
X141841419Y-59664653D01*
X142026390Y-59721912D01*
X142026392Y-59721912D01*
X142026395Y-59721913D01*
X142218973Y-59742154D01*
X142411816Y-59724604D01*
X142597576Y-59669931D01*
X142665600Y-59634369D01*
X142769168Y-59580226D01*
X142769173Y-59580222D01*
X142769180Y-59580219D01*
X142920091Y-59458884D01*
X143032596Y-59324804D01*
X143044555Y-59310553D01*
X143044557Y-59310550D01*
X143044559Y-59310548D01*
X143137846Y-59140860D01*
X143196397Y-58956285D01*
X143217981Y-58763853D01*
X143217980Y-58763847D01*
X143217981Y-58763844D01*
X143217835Y-58762106D01*
X143216819Y-58750002D01*
X143773722Y-58750002D01*
X143792617Y-58942712D01*
X143848586Y-59128091D01*
X143848586Y-59128092D01*
X143920566Y-59263465D01*
X143939494Y-59299063D01*
X144061880Y-59449123D01*
X144211081Y-59572553D01*
X144381416Y-59664652D01*
X144381418Y-59664652D01*
X144381419Y-59664653D01*
X144566390Y-59721912D01*
X144566392Y-59721912D01*
X144566395Y-59721913D01*
X144758973Y-59742154D01*
X144951816Y-59724604D01*
X145137576Y-59669931D01*
X145205600Y-59634369D01*
X145309168Y-59580226D01*
X145309173Y-59580222D01*
X145309180Y-59580219D01*
X145460091Y-59458884D01*
X145572596Y-59324804D01*
X145584555Y-59310553D01*
X145584557Y-59310550D01*
X145584559Y-59310548D01*
X145677846Y-59140860D01*
X145736397Y-58956285D01*
X145757981Y-58763853D01*
X145741778Y-58570893D01*
X145688404Y-58384755D01*
X145599892Y-58212529D01*
X145479613Y-58060775D01*
X145364257Y-57962600D01*
X146318500Y-57962600D01*
X146318500Y-59537400D01*
X146320126Y-59570738D01*
X146320422Y-59576802D01*
X146350574Y-59649596D01*
X146350575Y-59649598D01*
X146350577Y-59649602D01*
X146406298Y-59705323D01*
X146452847Y-59724604D01*
X146479098Y-59735477D01*
X146479097Y-59735477D01*
X146479100Y-59735478D01*
X146518500Y-59737400D01*
X146518515Y-59737400D01*
X148093285Y-59737400D01*
X148093300Y-59737400D01*
X148132700Y-59735478D01*
X148205502Y-59705322D01*
X148205503Y-59705321D01*
X148205505Y-59705320D01*
X148261220Y-59649605D01*
X148261221Y-59649603D01*
X148261222Y-59649602D01*
X148291378Y-59576800D01*
X148293300Y-59537400D01*
X148293300Y-58739785D01*
X155475000Y-58739785D01*
X155477893Y-58793762D01*
X155477893Y-58793764D01*
X155513438Y-58933030D01*
X155513440Y-58933037D01*
X155536863Y-58989583D01*
X156176447Y-58350000D01*
X155475000Y-58350000D01*
X155475000Y-58739785D01*
X148293300Y-58739785D01*
X148293300Y-57962600D01*
X148291378Y-57923200D01*
X148261222Y-57850398D01*
X148261221Y-57850397D01*
X148261221Y-57850396D01*
X148205503Y-57794678D01*
X148152916Y-57772896D01*
X148132700Y-57764522D01*
X148093300Y-57762600D01*
X147305900Y-57762600D01*
X146518500Y-57762600D01*
X146488192Y-57764078D01*
X146479097Y-57764522D01*
X146406303Y-57794674D01*
X146406295Y-57794679D01*
X146350579Y-57850395D01*
X146350574Y-57850403D01*
X146320422Y-57923197D01*
X146320422Y-57923200D01*
X146318500Y-57962600D01*
X145364257Y-57962600D01*
X145332149Y-57935274D01*
X145332145Y-57935272D01*
X145332142Y-57935269D01*
X145163118Y-57840805D01*
X144978955Y-57780966D01*
X144786680Y-57758040D01*
X144786679Y-57758040D01*
X144727413Y-57762600D01*
X144593608Y-57772895D01*
X144593605Y-57772896D01*
X144407103Y-57824969D01*
X144234265Y-57912275D01*
X144081672Y-58031495D01*
X143955143Y-58178081D01*
X143859502Y-58346439D01*
X143798377Y-58530186D01*
X143774108Y-58722298D01*
X143774108Y-58722302D01*
X143773722Y-58750002D01*
X143216819Y-58750002D01*
X143201778Y-58570898D01*
X143201778Y-58570893D01*
X143148404Y-58384755D01*
X143059892Y-58212529D01*
X142939613Y-58060775D01*
X142792149Y-57935274D01*
X142792145Y-57935272D01*
X142792142Y-57935269D01*
X142623118Y-57840805D01*
X142438955Y-57780966D01*
X142246680Y-57758040D01*
X142246679Y-57758040D01*
X142187413Y-57762600D01*
X142053608Y-57772895D01*
X142053605Y-57772896D01*
X141867103Y-57824969D01*
X141694265Y-57912275D01*
X141541672Y-58031495D01*
X141415143Y-58178081D01*
X141319502Y-58346439D01*
X141258377Y-58530186D01*
X141234108Y-58722298D01*
X141234108Y-58722302D01*
X141233722Y-58750002D01*
X140303529Y-58750002D01*
X140304999Y-58739780D01*
X140305000Y-58739778D01*
X140305000Y-58350000D01*
X139603552Y-58350000D01*
X139433012Y-58350000D01*
X139465925Y-58292993D01*
X139500000Y-58165826D01*
X139500000Y-58034174D01*
X139465925Y-57907007D01*
X139433011Y-57849999D01*
X139603552Y-57849999D01*
X139603553Y-57850000D01*
X140305000Y-57850000D01*
X140305000Y-57460224D01*
X140305000Y-57460219D01*
X155475000Y-57460219D01*
X155475000Y-57850000D01*
X156176447Y-57850000D01*
X156176447Y-57849999D01*
X155536862Y-57210415D01*
X155513449Y-57266940D01*
X155495455Y-57317946D01*
X155475000Y-57460219D01*
X140305000Y-57460219D01*
X140304999Y-57460204D01*
X140302106Y-57406237D01*
X140302106Y-57406235D01*
X140266558Y-57266960D01*
X140243136Y-57210415D01*
X140243135Y-57210415D01*
X139603552Y-57849999D01*
X139433011Y-57849999D01*
X139400099Y-57792993D01*
X139307007Y-57699901D01*
X139192993Y-57634075D01*
X139129409Y-57617037D01*
X139889583Y-56856863D01*
X139889583Y-56856862D01*
X139833052Y-56833447D01*
X139833024Y-56833436D01*
X139804834Y-56823491D01*
X139748163Y-56782624D01*
X139722582Y-56717605D01*
X139736214Y-56649078D01*
X139774965Y-56604980D01*
X139839139Y-56560047D01*
X140000047Y-56399139D01*
X140058821Y-56315199D01*
X140112287Y-56241610D01*
X140117465Y-56231446D01*
X140130568Y-56212734D01*
X140169067Y-56130172D01*
X140205220Y-56059219D01*
X140212266Y-56037532D01*
X140226739Y-56006496D01*
X140226742Y-56006488D01*
X140246534Y-55932617D01*
X140247377Y-55929471D01*
X140268477Y-55864534D01*
X140273825Y-55830766D01*
X140285635Y-55786692D01*
X140291215Y-55722892D01*
X140292270Y-55714306D01*
X140292969Y-55709897D01*
X140300500Y-55662352D01*
X140300500Y-55457648D01*
X140291593Y-55401417D01*
X140285635Y-55333308D01*
X140273825Y-55289233D01*
X140268477Y-55255466D01*
X140248378Y-55193609D01*
X140246535Y-55187386D01*
X140226742Y-55113513D01*
X140226740Y-55113510D01*
X140226739Y-55113504D01*
X140212266Y-55082467D01*
X140205220Y-55060781D01*
X140169067Y-54989827D01*
X140130568Y-54907266D01*
X140122436Y-54895652D01*
X140122436Y-54895651D01*
X140117462Y-54888548D01*
X140112287Y-54878390D01*
X140058821Y-54804800D01*
X140058215Y-54803935D01*
X140058205Y-54803920D01*
X140000045Y-54720858D01*
X139839140Y-54559953D01*
X139756078Y-54501793D01*
X139755180Y-54501164D01*
X139681610Y-54447713D01*
X139671448Y-54442535D01*
X139664346Y-54437562D01*
X139652736Y-54429433D01*
X139652727Y-54429429D01*
X139594723Y-54402380D01*
X139584066Y-54392996D01*
X139570866Y-54387773D01*
X139558368Y-54370369D01*
X139542285Y-54356208D01*
X139538393Y-54342552D01*
X139530112Y-54331021D01*
X139529007Y-54309621D01*
X139523134Y-54289014D01*
X139527241Y-54275423D01*
X139526510Y-54261244D01*
X139537149Y-54242644D01*
X139543350Y-54222133D01*
X139554830Y-54211737D01*
X139561204Y-54200597D01*
X139585623Y-54183856D01*
X139589872Y-54180010D01*
X139592252Y-54178770D01*
X139652734Y-54150568D01*
X139671002Y-54137775D01*
X139678207Y-54134025D01*
X139678416Y-54133983D01*
X139679180Y-54133524D01*
X139681610Y-54132287D01*
X139754358Y-54079432D01*
X139756047Y-54078227D01*
X139839139Y-54020047D01*
X140000047Y-53859139D01*
X140058821Y-53775199D01*
X140112287Y-53701610D01*
X140117465Y-53691446D01*
X140130568Y-53672734D01*
X140169067Y-53590172D01*
X140205220Y-53519219D01*
X140212266Y-53497532D01*
X140226739Y-53466496D01*
X140226742Y-53466488D01*
X140246534Y-53392617D01*
X140247377Y-53389471D01*
X140268477Y-53324534D01*
X140273825Y-53290766D01*
X140285635Y-53246692D01*
X140291215Y-53182892D01*
X140292270Y-53174306D01*
X140300500Y-53122350D01*
X140300500Y-52917649D01*
X140292270Y-52865691D01*
X140292270Y-52865690D01*
X140291592Y-52861414D01*
X140285635Y-52793308D01*
X140273825Y-52749233D01*
X140268477Y-52715466D01*
X140248378Y-52653609D01*
X140246535Y-52647386D01*
X140226742Y-52573513D01*
X140226740Y-52573510D01*
X140226739Y-52573504D01*
X140212266Y-52542467D01*
X140205220Y-52520781D01*
X140169067Y-52449827D01*
X140130568Y-52367266D01*
X140122436Y-52355652D01*
X140122436Y-52355651D01*
X140117462Y-52348548D01*
X140112287Y-52338390D01*
X140058821Y-52264800D01*
X140058215Y-52263935D01*
X140058205Y-52263920D01*
X140000045Y-52180858D01*
X139839140Y-52019953D01*
X139756078Y-51961793D01*
X139755180Y-51961164D01*
X139681610Y-51907713D01*
X139671448Y-51902535D01*
X139664346Y-51897562D01*
X139652736Y-51889433D01*
X139652727Y-51889429D01*
X139594723Y-51862380D01*
X139584066Y-51852996D01*
X139570866Y-51847773D01*
X139558368Y-51830369D01*
X139542285Y-51816208D01*
X139538393Y-51802552D01*
X139530112Y-51791021D01*
X139529007Y-51769621D01*
X139523134Y-51749014D01*
X139527241Y-51735423D01*
X139526510Y-51721244D01*
X139537149Y-51702644D01*
X139543350Y-51682133D01*
X139554830Y-51671737D01*
X139561204Y-51660597D01*
X139585623Y-51643856D01*
X139589872Y-51640010D01*
X139592252Y-51638770D01*
X139652734Y-51610568D01*
X139671002Y-51597775D01*
X139678207Y-51594025D01*
X139678416Y-51593983D01*
X139679180Y-51593524D01*
X139681610Y-51592287D01*
X139754358Y-51539432D01*
X139756047Y-51538227D01*
X139839139Y-51480047D01*
X140000047Y-51319139D01*
X140058821Y-51235199D01*
X140112287Y-51161610D01*
X140117465Y-51151446D01*
X140130568Y-51132734D01*
X140169067Y-51050172D01*
X140205220Y-50979219D01*
X140212266Y-50957532D01*
X140226739Y-50926496D01*
X140226742Y-50926488D01*
X140246534Y-50852617D01*
X140247377Y-50849471D01*
X140268477Y-50784534D01*
X140273825Y-50750766D01*
X140285635Y-50706692D01*
X140291215Y-50642892D01*
X140292270Y-50634306D01*
X140292749Y-50631286D01*
X140300500Y-50582352D01*
X140300500Y-50377648D01*
X140291593Y-50321417D01*
X140285635Y-50253308D01*
X140273825Y-50209233D01*
X140268477Y-50175466D01*
X140248378Y-50113609D01*
X140246535Y-50107386D01*
X140226742Y-50033513D01*
X140226740Y-50033510D01*
X140226739Y-50033504D01*
X140212266Y-50002467D01*
X140205220Y-49980781D01*
X140169067Y-49909827D01*
X140130568Y-49827266D01*
X140122436Y-49815652D01*
X140122436Y-49815651D01*
X140117462Y-49808548D01*
X140112287Y-49798390D01*
X140058821Y-49724800D01*
X140058215Y-49723935D01*
X140058205Y-49723920D01*
X140000045Y-49640858D01*
X139839140Y-49479953D01*
X139756078Y-49421793D01*
X139755180Y-49421164D01*
X139681610Y-49367713D01*
X139671448Y-49362535D01*
X139664346Y-49357562D01*
X139652736Y-49349433D01*
X139652727Y-49349429D01*
X139594723Y-49322380D01*
X139584066Y-49312996D01*
X139570866Y-49307773D01*
X139558368Y-49290369D01*
X139542285Y-49276208D01*
X139538393Y-49262552D01*
X139530112Y-49251021D01*
X139529007Y-49229621D01*
X139523134Y-49209014D01*
X139527241Y-49195423D01*
X139526510Y-49181244D01*
X139537149Y-49162644D01*
X139543350Y-49142133D01*
X139554830Y-49131737D01*
X139561204Y-49120597D01*
X139585623Y-49103856D01*
X139589872Y-49100010D01*
X139592252Y-49098770D01*
X139652734Y-49070568D01*
X139671002Y-49057775D01*
X139678207Y-49054025D01*
X139678416Y-49053983D01*
X139679180Y-49053524D01*
X139681610Y-49052287D01*
X139754358Y-48999432D01*
X139756047Y-48998227D01*
X139839139Y-48940047D01*
X140000047Y-48779139D01*
X140058821Y-48695199D01*
X140112287Y-48621610D01*
X140117465Y-48611446D01*
X140130568Y-48592734D01*
X140169067Y-48510172D01*
X140205220Y-48439219D01*
X140212266Y-48417532D01*
X140226739Y-48386496D01*
X140226742Y-48386488D01*
X140246534Y-48312617D01*
X140247377Y-48309471D01*
X140268477Y-48244534D01*
X140273825Y-48210766D01*
X140285635Y-48166692D01*
X140291215Y-48102892D01*
X140292270Y-48094306D01*
X140300500Y-48042350D01*
X140300500Y-47841827D01*
X140300500Y-47837648D01*
X140292155Y-47784967D01*
X140292057Y-47784297D01*
X140292079Y-47784138D01*
X140291215Y-47777098D01*
X140285635Y-47713308D01*
X140273825Y-47669233D01*
X140268477Y-47635466D01*
X140247377Y-47570528D01*
X140243072Y-47554462D01*
X140226742Y-47493513D01*
X140226740Y-47493510D01*
X140226739Y-47493504D01*
X140212266Y-47462467D01*
X140205220Y-47440781D01*
X140169067Y-47369827D01*
X140130568Y-47287266D01*
X140122436Y-47275652D01*
X140122436Y-47275651D01*
X140117462Y-47268548D01*
X140112287Y-47258390D01*
X140058821Y-47184800D01*
X140058215Y-47183935D01*
X140058205Y-47183920D01*
X140000045Y-47100858D01*
X139839143Y-46939956D01*
X139836122Y-46937841D01*
X139772620Y-46893376D01*
X139728996Y-46838799D01*
X139721803Y-46769300D01*
X139753325Y-46706946D01*
X139813082Y-46671652D01*
X139833025Y-46666562D01*
X139833035Y-46666559D01*
X139889582Y-46643135D01*
X139129409Y-45882962D01*
X139192993Y-45865925D01*
X139307007Y-45800099D01*
X139400099Y-45707007D01*
X139433012Y-45650000D01*
X139603552Y-45650000D01*
X140243135Y-46289582D01*
X140243137Y-46289582D01*
X140266552Y-46233053D01*
X140284544Y-46182053D01*
X140304999Y-46039780D01*
X140305000Y-46039779D01*
X140305000Y-45650000D01*
X139603552Y-45650000D01*
X139433012Y-45650000D01*
X139465925Y-45592993D01*
X139500000Y-45465826D01*
X139500000Y-45334174D01*
X139465925Y-45207007D01*
X139433011Y-45149999D01*
X139603552Y-45149999D01*
X139603553Y-45150000D01*
X140305000Y-45150000D01*
X140305000Y-44760214D01*
X140302106Y-44706237D01*
X140302106Y-44706235D01*
X140266558Y-44566960D01*
X140243136Y-44510415D01*
X140243135Y-44510415D01*
X139603552Y-45149999D01*
X139433011Y-45149999D01*
X139400099Y-45092993D01*
X139307007Y-44999901D01*
X139192993Y-44934075D01*
X139129409Y-44917037D01*
X139889583Y-44156863D01*
X139889583Y-44156862D01*
X139833052Y-44133447D01*
X139833024Y-44133436D01*
X139804834Y-44123491D01*
X139748163Y-44082624D01*
X139722582Y-44017605D01*
X139736214Y-43949078D01*
X139774965Y-43904980D01*
X139839139Y-43860047D01*
X140000047Y-43699139D01*
X140058821Y-43615199D01*
X140112287Y-43541610D01*
X140117465Y-43531446D01*
X140130568Y-43512734D01*
X140169067Y-43430172D01*
X140205220Y-43359219D01*
X140212266Y-43337532D01*
X140226739Y-43306496D01*
X140226742Y-43306488D01*
X140246534Y-43232617D01*
X140247377Y-43229471D01*
X140268477Y-43164534D01*
X140273825Y-43130766D01*
X140279361Y-43110105D01*
X140790000Y-43110105D01*
X140790000Y-47450000D01*
X154990000Y-47450000D01*
X154990000Y-46039785D01*
X155475000Y-46039785D01*
X155477893Y-46093762D01*
X155477893Y-46093764D01*
X155513438Y-46233030D01*
X155513440Y-46233037D01*
X155536863Y-46289583D01*
X156176447Y-45650000D01*
X155475000Y-45650000D01*
X155475000Y-46039785D01*
X154990000Y-46039785D01*
X154990000Y-44760219D01*
X155475000Y-44760219D01*
X155475000Y-45150000D01*
X156176447Y-45150000D01*
X156176447Y-45149999D01*
X155536862Y-44510415D01*
X155513449Y-44566940D01*
X155495455Y-44617946D01*
X155475000Y-44760219D01*
X154990000Y-44760219D01*
X154990000Y-43110105D01*
X154989999Y-43110104D01*
X151477944Y-40382657D01*
X151475929Y-40379864D01*
X151472797Y-40378434D01*
X151455636Y-40351732D01*
X151437069Y-40325991D01*
X151436333Y-40321694D01*
X151435023Y-40319656D01*
X151430000Y-40284721D01*
X151430000Y-38949994D01*
X151429646Y-38916518D01*
X151429538Y-38906359D01*
X151421931Y-38819410D01*
X151406775Y-38733454D01*
X151386053Y-38656118D01*
X151384187Y-38649153D01*
X151384184Y-38649145D01*
X151354338Y-38567140D01*
X151354331Y-38567123D01*
X151324746Y-38503681D01*
X151317446Y-38488025D01*
X151273805Y-38412437D01*
X151223742Y-38340940D01*
X151167698Y-38274148D01*
X151167635Y-38274073D01*
X151105926Y-38212364D01*
X151059861Y-38173712D01*
X151039060Y-38156258D01*
X150967670Y-38106270D01*
X150967569Y-38106199D01*
X150967567Y-38106198D01*
X150967563Y-38106195D01*
X150891975Y-38062554D01*
X150891967Y-38062550D01*
X150891965Y-38062549D01*
X150812876Y-38025668D01*
X150812859Y-38025661D01*
X150730854Y-37995815D01*
X150730846Y-37995812D01*
X150646833Y-37973302D01*
X150646546Y-37973225D01*
X150646540Y-37973223D01*
X150646536Y-37973223D01*
X150560602Y-37958071D01*
X150560597Y-37958070D01*
X150560590Y-37958069D01*
X150560586Y-37958068D01*
X150560582Y-37958068D01*
X150473636Y-37950461D01*
X150430000Y-37949999D01*
X150386365Y-37950461D01*
X150386361Y-37950461D01*
X150299417Y-37958068D01*
X150299397Y-37958071D01*
X150213463Y-37973223D01*
X150213446Y-37973227D01*
X150129153Y-37995812D01*
X150129145Y-37995815D01*
X150047140Y-38025661D01*
X150047123Y-38025668D01*
X149968034Y-38062549D01*
X149968027Y-38062552D01*
X149968025Y-38062554D01*
X149892437Y-38106195D01*
X149892436Y-38106196D01*
X149892430Y-38106199D01*
X149820945Y-38156254D01*
X149820938Y-38156259D01*
X149754073Y-38212364D01*
X149692364Y-38274073D01*
X149636259Y-38340938D01*
X149636246Y-38340955D01*
X149596918Y-38397123D01*
X149542341Y-38440748D01*
X149495343Y-38450000D01*
X148824657Y-38450000D01*
X148757618Y-38430315D01*
X148723082Y-38397123D01*
X148683753Y-38340955D01*
X148683746Y-38340946D01*
X148683742Y-38340940D01*
X148627698Y-38274148D01*
X148627635Y-38274073D01*
X148565926Y-38212364D01*
X148519861Y-38173712D01*
X148499060Y-38156258D01*
X148427670Y-38106270D01*
X148427569Y-38106199D01*
X148427567Y-38106198D01*
X148427563Y-38106195D01*
X148351975Y-38062554D01*
X148351967Y-38062550D01*
X148351965Y-38062549D01*
X148272876Y-38025668D01*
X148272859Y-38025661D01*
X148190854Y-37995815D01*
X148190846Y-37995812D01*
X148106833Y-37973302D01*
X148106546Y-37973225D01*
X148106540Y-37973223D01*
X148106536Y-37973223D01*
X148020602Y-37958071D01*
X148020597Y-37958070D01*
X148020590Y-37958069D01*
X148020586Y-37958068D01*
X148020582Y-37958068D01*
X147933636Y-37950461D01*
X147890019Y-37950000D01*
X147890009Y-37950000D01*
X147890000Y-37950000D01*
X147846360Y-37950476D01*
X147846358Y-37950476D01*
X147759409Y-37958083D01*
X147673462Y-37973238D01*
X147673459Y-37973238D01*
X147673457Y-37973239D01*
X147673452Y-37973240D01*
X147673449Y-37973241D01*
X147589165Y-37995824D01*
X147589162Y-37995825D01*
X147507148Y-38025674D01*
X147507141Y-38025677D01*
X147507134Y-38025680D01*
X147428031Y-38062567D01*
X147428027Y-38062569D01*
X147428019Y-38062573D01*
X147352452Y-38106202D01*
X147352426Y-38106218D01*
X147280946Y-38156269D01*
X147214085Y-38212373D01*
X147152373Y-38274085D01*
X147096269Y-38340946D01*
X147056935Y-38397123D01*
X147002359Y-38440748D01*
X146955360Y-38450000D01*
X146284464Y-38450000D01*
X146217425Y-38430315D01*
X146182889Y-38397124D01*
X146182888Y-38397123D01*
X146143601Y-38341015D01*
X146087498Y-38274153D01*
X146087494Y-38274148D01*
X146025785Y-38212439D01*
X145958920Y-38156334D01*
X145958917Y-38156332D01*
X145911048Y-38122813D01*
X145887428Y-38106274D01*
X145887426Y-38106273D01*
X145887422Y-38106270D01*
X145811834Y-38062629D01*
X145811826Y-38062625D01*
X145811824Y-38062624D01*
X145732735Y-38025743D01*
X145732718Y-38025736D01*
X145650713Y-37995890D01*
X145650705Y-37995887D01*
X145566412Y-37973302D01*
X145566415Y-37973302D01*
X145566405Y-37973300D01*
X145566399Y-37973298D01*
X145566395Y-37973298D01*
X145480461Y-37958146D01*
X145480456Y-37958145D01*
X145480449Y-37958144D01*
X145480445Y-37958143D01*
X145480441Y-37958143D01*
X145393495Y-37950536D01*
X145349859Y-37950074D01*
X145306224Y-37950536D01*
X145306220Y-37950536D01*
X145219266Y-37958144D01*
X145133319Y-37973300D01*
X145133316Y-37973300D01*
X145133314Y-37973301D01*
X145133309Y-37973302D01*
X145133306Y-37973303D01*
X145049013Y-37995888D01*
X145049005Y-37995891D01*
X144967000Y-38025737D01*
X144966974Y-38025748D01*
X144887880Y-38062632D01*
X144887867Y-38062638D01*
X144812313Y-38106261D01*
X144812275Y-38106285D01*
X144740802Y-38156332D01*
X144673943Y-38212434D01*
X144612221Y-38274155D01*
X144556119Y-38341017D01*
X144506069Y-38412495D01*
X144506060Y-38412509D01*
X144506058Y-38412513D01*
X144484415Y-38450000D01*
X144462415Y-38488104D01*
X144462412Y-38488110D01*
X144425536Y-38567191D01*
X144395674Y-38649234D01*
X144373095Y-38733510D01*
X144373089Y-38733536D01*
X144357934Y-38819481D01*
X144350328Y-38906419D01*
X144350327Y-38906431D01*
X144349859Y-38950088D01*
X144349859Y-40284830D01*
X144330174Y-40351869D01*
X144301918Y-40382763D01*
X140790000Y-43110105D01*
X140279361Y-43110105D01*
X140285635Y-43086692D01*
X140291215Y-43022899D01*
X140292270Y-43014306D01*
X140300500Y-42962350D01*
X140300500Y-42757649D01*
X140297771Y-42740423D01*
X140291593Y-42701417D01*
X140285635Y-42633308D01*
X140273825Y-42589233D01*
X140268477Y-42555466D01*
X140248378Y-42493609D01*
X140246535Y-42487386D01*
X140226742Y-42413513D01*
X140226740Y-42413510D01*
X140226739Y-42413504D01*
X140212266Y-42382467D01*
X140205220Y-42360781D01*
X140169067Y-42289827D01*
X140130568Y-42207266D01*
X140125130Y-42199500D01*
X140122436Y-42195652D01*
X140122436Y-42195651D01*
X140117462Y-42188548D01*
X140112287Y-42178390D01*
X140058821Y-42104800D01*
X140058215Y-42103935D01*
X140058205Y-42103920D01*
X140000045Y-42020858D01*
X139839140Y-41859953D01*
X139756078Y-41801793D01*
X139755180Y-41801164D01*
X139681610Y-41747713D01*
X139671448Y-41742535D01*
X139664346Y-41737562D01*
X139652736Y-41729433D01*
X139652727Y-41729429D01*
X139594723Y-41702380D01*
X139584066Y-41692996D01*
X139570866Y-41687773D01*
X139558368Y-41670369D01*
X139542285Y-41656208D01*
X139538393Y-41642552D01*
X139530112Y-41631021D01*
X139529007Y-41609621D01*
X139523134Y-41589014D01*
X139527241Y-41575423D01*
X139526510Y-41561244D01*
X139537149Y-41542644D01*
X139543350Y-41522133D01*
X139554830Y-41511737D01*
X139561204Y-41500597D01*
X139585623Y-41483856D01*
X139589872Y-41480010D01*
X139592252Y-41478770D01*
X139652734Y-41450568D01*
X139671002Y-41437775D01*
X139678207Y-41434025D01*
X139678416Y-41433983D01*
X139679180Y-41433524D01*
X139681610Y-41432287D01*
X139754358Y-41379432D01*
X139756047Y-41378227D01*
X139839139Y-41320047D01*
X140000047Y-41159139D01*
X140058821Y-41075199D01*
X140112287Y-41001610D01*
X140117465Y-40991446D01*
X140130568Y-40972734D01*
X140169067Y-40890172D01*
X140205220Y-40819219D01*
X140212266Y-40797532D01*
X140226739Y-40766496D01*
X140226742Y-40766488D01*
X140246534Y-40692617D01*
X140247377Y-40689471D01*
X140268477Y-40624534D01*
X140273825Y-40590766D01*
X140285635Y-40546692D01*
X140291215Y-40482892D01*
X140292270Y-40474306D01*
X140300500Y-40422350D01*
X140300500Y-40217649D01*
X140292270Y-40165691D01*
X140292270Y-40165690D01*
X140291592Y-40161414D01*
X140285635Y-40093308D01*
X140273825Y-40049233D01*
X140268477Y-40015466D01*
X140248378Y-39953609D01*
X140246535Y-39947386D01*
X140226742Y-39873513D01*
X140226740Y-39873510D01*
X140226739Y-39873504D01*
X140212266Y-39842467D01*
X140205220Y-39820781D01*
X140169067Y-39749827D01*
X140130568Y-39667266D01*
X140122436Y-39655652D01*
X140122436Y-39655651D01*
X140117462Y-39648548D01*
X140112287Y-39638390D01*
X140058821Y-39564800D01*
X140058215Y-39563935D01*
X140058205Y-39563920D01*
X140000045Y-39480858D01*
X139839140Y-39319953D01*
X139756078Y-39261793D01*
X139755180Y-39261164D01*
X139681610Y-39207713D01*
X139671448Y-39202535D01*
X139664346Y-39197562D01*
X139652734Y-39189432D01*
X139572128Y-39151844D01*
X139570169Y-39150930D01*
X139499219Y-39114780D01*
X139477534Y-39107733D01*
X139470662Y-39104529D01*
X139470661Y-39104528D01*
X139446494Y-39093260D01*
X139372600Y-39073460D01*
X139372600Y-39073459D01*
X139369446Y-39072614D01*
X139304534Y-39051523D01*
X139270766Y-39046174D01*
X139226692Y-39034365D01*
X139226689Y-39034364D01*
X139226686Y-39034364D01*
X139162891Y-39028783D01*
X139154301Y-39027728D01*
X139102352Y-39019500D01*
X139056784Y-39019500D01*
X137343216Y-39019500D01*
X137343215Y-39019500D01*
X137173312Y-39034364D01*
X137173302Y-39034366D01*
X136953511Y-39093258D01*
X136953502Y-39093261D01*
X136747267Y-39189431D01*
X136747265Y-39189432D01*
X136560858Y-39319954D01*
X136399954Y-39480858D01*
X136269432Y-39667265D01*
X136269431Y-39667267D01*
X136173261Y-39873502D01*
X136173258Y-39873511D01*
X136114366Y-40093302D01*
X136114364Y-40093312D01*
X136099500Y-40263214D01*
X136099500Y-40376785D01*
X136114364Y-40546687D01*
X136114366Y-40546697D01*
X136173258Y-40766488D01*
X136173261Y-40766497D01*
X136269431Y-40972732D01*
X136269432Y-40972734D01*
X136399954Y-41159141D01*
X136560858Y-41320045D01*
X136560861Y-41320047D01*
X136747266Y-41450568D01*
X136805275Y-41477618D01*
X136857714Y-41523791D01*
X136876866Y-41590984D01*
X136856650Y-41657865D01*
X136805275Y-41702382D01*
X136747267Y-41729431D01*
X136747265Y-41729432D01*
X136560858Y-41859954D01*
X136399954Y-42020858D01*
X136269432Y-42207265D01*
X136269431Y-42207267D01*
X136173261Y-42413502D01*
X136173258Y-42413511D01*
X136114366Y-42633302D01*
X136114364Y-42633312D01*
X136099500Y-42803214D01*
X136099500Y-42916785D01*
X136114364Y-43086687D01*
X136114366Y-43086697D01*
X136173258Y-43306488D01*
X136173261Y-43306497D01*
X136269431Y-43512732D01*
X136269432Y-43512734D01*
X136399954Y-43699141D01*
X136560858Y-43860045D01*
X136560861Y-43860047D01*
X136747266Y-43990568D01*
X136799219Y-44014794D01*
X136851659Y-44060966D01*
X136870811Y-44128159D01*
X136850596Y-44195041D01*
X136805269Y-44236534D01*
X136740499Y-44271155D01*
X136740478Y-44271167D01*
X136609469Y-44358704D01*
X136609463Y-44358708D01*
X136532935Y-44421514D01*
X136421514Y-44532935D01*
X136358708Y-44609463D01*
X136358704Y-44609469D01*
X136271167Y-44740478D01*
X136271155Y-44740498D01*
X136224490Y-44827801D01*
X136164185Y-44973387D01*
X136135443Y-45068139D01*
X136135440Y-45068150D01*
X136119160Y-45149999D01*
X136119161Y-45150000D01*
X138566988Y-45150000D01*
X138534075Y-45207007D01*
X138500000Y-45334174D01*
X138500000Y-45465826D01*
X138534075Y-45592993D01*
X138566988Y-45650000D01*
X136119160Y-45650000D01*
X136135440Y-45731849D01*
X136135443Y-45731860D01*
X136164185Y-45826612D01*
X136224490Y-45972198D01*
X136271155Y-46059501D01*
X136271167Y-46059521D01*
X136358704Y-46190530D01*
X136358708Y-46190536D01*
X136421514Y-46267064D01*
X136532935Y-46378485D01*
X136609463Y-46441291D01*
X136609469Y-46441295D01*
X136740478Y-46528832D01*
X136740506Y-46528849D01*
X136805268Y-46563465D01*
X136855112Y-46612427D01*
X136870573Y-46680565D01*
X136846741Y-46746244D01*
X136799221Y-46785205D01*
X136747264Y-46809433D01*
X136560858Y-46939954D01*
X136399954Y-47100858D01*
X136269433Y-47287264D01*
X136212954Y-47408381D01*
X136166780Y-47460820D01*
X136099587Y-47479971D01*
X136032706Y-47459754D01*
X136012891Y-47443656D01*
X131507590Y-42938355D01*
X131507588Y-42938352D01*
X131388717Y-42819481D01*
X131388716Y-42819480D01*
X131281619Y-42757648D01*
X131281618Y-42757647D01*
X131251783Y-42740422D01*
X131184859Y-42722490D01*
X131099057Y-42699499D01*
X130940943Y-42699499D01*
X130933347Y-42699499D01*
X130933331Y-42699500D01*
X130272889Y-42699500D01*
X130205850Y-42679815D01*
X130185208Y-42663181D01*
X130077512Y-42555485D01*
X130077510Y-42555483D01*
X129886433Y-42416657D01*
X129880241Y-42413502D01*
X129675996Y-42309433D01*
X129451368Y-42236446D01*
X129218097Y-42199500D01*
X129218092Y-42199500D01*
X125981908Y-42199500D01*
X125981903Y-42199500D01*
X125748631Y-42236446D01*
X125524003Y-42309433D01*
X125313566Y-42416657D01*
X125216217Y-42487386D01*
X125122490Y-42555483D01*
X125122488Y-42555485D01*
X125122487Y-42555485D01*
X124955485Y-42722487D01*
X124955485Y-42722488D01*
X124955483Y-42722490D01*
X124896833Y-42803214D01*
X124816657Y-42913566D01*
X124709433Y-43124003D01*
X124636446Y-43348631D01*
X124599500Y-43581902D01*
X124599500Y-43818097D01*
X124636446Y-44051368D01*
X124709433Y-44275996D01*
X124783579Y-44421514D01*
X124816657Y-44486433D01*
X124955483Y-44677510D01*
X125122490Y-44844517D01*
X125313567Y-44983343D01*
X125373584Y-45013923D01*
X125524003Y-45090566D01*
X125524005Y-45090566D01*
X125524008Y-45090568D01*
X125644412Y-45129689D01*
X125748631Y-45163553D01*
X125981903Y-45200500D01*
X125981908Y-45200500D01*
X129218097Y-45200500D01*
X129451368Y-45163553D01*
X129675992Y-45090568D01*
X129886433Y-44983343D01*
X130077510Y-44844517D01*
X130244517Y-44677510D01*
X130383343Y-44486433D01*
X130490568Y-44275992D01*
X130563553Y-44051368D01*
X130570881Y-44005102D01*
X130585477Y-43974310D01*
X130599641Y-43943297D01*
X130600415Y-43942799D01*
X130600810Y-43941967D01*
X130629748Y-43923948D01*
X130658419Y-43905523D01*
X130659616Y-43905350D01*
X130660122Y-43905036D01*
X130693354Y-43900500D01*
X130719903Y-43900500D01*
X130786942Y-43920185D01*
X130807584Y-43936819D01*
X136372370Y-49501605D01*
X136405855Y-49562928D01*
X136400871Y-49632620D01*
X136386265Y-49660408D01*
X136269431Y-49827267D01*
X136173261Y-50033502D01*
X136173258Y-50033511D01*
X136114366Y-50253302D01*
X136114364Y-50253312D01*
X136099500Y-50423214D01*
X136099500Y-50536785D01*
X136114364Y-50706687D01*
X136114366Y-50706697D01*
X136173258Y-50926488D01*
X136173261Y-50926497D01*
X136269431Y-51132732D01*
X136269432Y-51132734D01*
X136399954Y-51319141D01*
X136560858Y-51480045D01*
X136561542Y-51480524D01*
X136747266Y-51610568D01*
X136805275Y-51637618D01*
X136857714Y-51683791D01*
X136876866Y-51750984D01*
X136856650Y-51817865D01*
X136805275Y-51862382D01*
X136747267Y-51889431D01*
X136747265Y-51889432D01*
X136560858Y-52019954D01*
X136399954Y-52180858D01*
X136341795Y-52263920D01*
X136269881Y-52366624D01*
X136215307Y-52410248D01*
X136168308Y-52419500D01*
X135820098Y-52419500D01*
X135753059Y-52399815D01*
X135732417Y-52383181D01*
X131987590Y-48638355D01*
X131987588Y-48638352D01*
X131868717Y-48519481D01*
X131868716Y-48519480D01*
X131781904Y-48469360D01*
X131781904Y-48469359D01*
X131781900Y-48469358D01*
X131731785Y-48440423D01*
X131579057Y-48399499D01*
X131420943Y-48399499D01*
X131413347Y-48399499D01*
X131413331Y-48399500D01*
X117770098Y-48399500D01*
X117703059Y-48379815D01*
X117682417Y-48363181D01*
X113219736Y-43900500D01*
X105952601Y-36633366D01*
X112746558Y-36633366D01*
X112746558Y-36928393D01*
X112778629Y-37171993D01*
X112785065Y-37220873D01*
X112785066Y-37220875D01*
X112861419Y-37505831D01*
X112861422Y-37505841D01*
X112974312Y-37778380D01*
X112974316Y-37778390D01*
X113121819Y-38033873D01*
X113301410Y-38267920D01*
X113301416Y-38267927D01*
X113510010Y-38476521D01*
X113510017Y-38476527D01*
X113744064Y-38656118D01*
X113999547Y-38803621D01*
X113999548Y-38803621D01*
X113999551Y-38803623D01*
X114210354Y-38890940D01*
X114247758Y-38906434D01*
X114272106Y-38916519D01*
X114557065Y-38992873D01*
X114849552Y-39031380D01*
X114849559Y-39031380D01*
X115144557Y-39031380D01*
X115144564Y-39031380D01*
X115437051Y-38992873D01*
X115722010Y-38916519D01*
X115882601Y-38850000D01*
X124620898Y-38850000D01*
X125666988Y-38850000D01*
X125634075Y-38907007D01*
X125600000Y-39034174D01*
X125600000Y-39165826D01*
X125634075Y-39292993D01*
X125666988Y-39350000D01*
X124620898Y-39350000D01*
X124636934Y-39451247D01*
X124709897Y-39675802D01*
X124817085Y-39886171D01*
X124955866Y-40077186D01*
X125122813Y-40244133D01*
X125313828Y-40382914D01*
X125524197Y-40490102D01*
X125748752Y-40563065D01*
X125748751Y-40563065D01*
X125981948Y-40600000D01*
X127350000Y-40600000D01*
X127350000Y-39600000D01*
X127850000Y-39600000D01*
X127850000Y-40600000D01*
X129218052Y-40600000D01*
X129451247Y-40563065D01*
X129675802Y-40490102D01*
X129886171Y-40382914D01*
X130077186Y-40244133D01*
X130148491Y-40172829D01*
X130244133Y-40077186D01*
X130382914Y-39886171D01*
X130490102Y-39675802D01*
X130563065Y-39451247D01*
X130579102Y-39350000D01*
X129533012Y-39350000D01*
X129565925Y-39292993D01*
X129600000Y-39165826D01*
X129600000Y-39034174D01*
X129565925Y-38907007D01*
X129533012Y-38850000D01*
X130579102Y-38850000D01*
X130563065Y-38748752D01*
X130490102Y-38524197D01*
X130382914Y-38313828D01*
X130244133Y-38122813D01*
X130077186Y-37955866D01*
X129886171Y-37817085D01*
X129675802Y-37709897D01*
X129451247Y-37636934D01*
X129451248Y-37636934D01*
X129218052Y-37600000D01*
X127850000Y-37600000D01*
X127850000Y-38600000D01*
X127350000Y-38600000D01*
X127350000Y-37600000D01*
X125981948Y-37600000D01*
X125748752Y-37636934D01*
X125524197Y-37709897D01*
X125313828Y-37817085D01*
X125122813Y-37955866D01*
X124955866Y-38122813D01*
X124817085Y-38313828D01*
X124709897Y-38524197D01*
X124636934Y-38748752D01*
X124620898Y-38850000D01*
X115882601Y-38850000D01*
X115994565Y-38803623D01*
X116250052Y-38656118D01*
X116484100Y-38476526D01*
X116692704Y-38267922D01*
X116872296Y-38033874D01*
X117019801Y-37778387D01*
X117132697Y-37505832D01*
X117209051Y-37220873D01*
X117247558Y-36928386D01*
X117247558Y-36633374D01*
X117209051Y-36340887D01*
X117132697Y-36055928D01*
X117125220Y-36037878D01*
X117060876Y-35882538D01*
X117019801Y-35783373D01*
X116872296Y-35527886D01*
X116739639Y-35355005D01*
X116692705Y-35293839D01*
X116692699Y-35293832D01*
X116484105Y-35085238D01*
X116392640Y-35015054D01*
X116361488Y-34991150D01*
X116250051Y-34905641D01*
X116236207Y-34897648D01*
X153699500Y-34897648D01*
X153699500Y-35102351D01*
X153731522Y-35304534D01*
X153794781Y-35499223D01*
X153887715Y-35681613D01*
X154008028Y-35847213D01*
X154152786Y-35991971D01*
X154307749Y-36104556D01*
X154318390Y-36112287D01*
X154434607Y-36171503D01*
X154500776Y-36205218D01*
X154500778Y-36205218D01*
X154500781Y-36205220D01*
X154595297Y-36235930D01*
X154695465Y-36268477D01*
X154796557Y-36284488D01*
X154897648Y-36300500D01*
X154897649Y-36300500D01*
X155102351Y-36300500D01*
X155102352Y-36300500D01*
X155304534Y-36268477D01*
X155499219Y-36205220D01*
X155681610Y-36112287D01*
X155784030Y-36037875D01*
X155847213Y-35991971D01*
X155847215Y-35991968D01*
X155847219Y-35991966D01*
X155991966Y-35847219D01*
X155991968Y-35847215D01*
X155991971Y-35847213D01*
X156089958Y-35712343D01*
X156112287Y-35681610D01*
X156205220Y-35499219D01*
X156268477Y-35304534D01*
X156300500Y-35102352D01*
X156300500Y-34897648D01*
X156279433Y-34764637D01*
X156268477Y-34695465D01*
X156205218Y-34500776D01*
X156144609Y-34381826D01*
X156112287Y-34318390D01*
X156104556Y-34307749D01*
X155991971Y-34152786D01*
X155847213Y-34008028D01*
X155681613Y-33887715D01*
X155681612Y-33887714D01*
X155681610Y-33887713D01*
X155624653Y-33858691D01*
X155499223Y-33794781D01*
X155304534Y-33731522D01*
X155129995Y-33703878D01*
X155102352Y-33699500D01*
X154897648Y-33699500D01*
X154873329Y-33703351D01*
X154695465Y-33731522D01*
X154500776Y-33794781D01*
X154318386Y-33887715D01*
X154152786Y-34008028D01*
X154008028Y-34152786D01*
X153887715Y-34318386D01*
X153794781Y-34500776D01*
X153731522Y-34695465D01*
X153699500Y-34897648D01*
X116236207Y-34897648D01*
X115994568Y-34758138D01*
X115994558Y-34758134D01*
X115722019Y-34645244D01*
X115722012Y-34645242D01*
X115722010Y-34645241D01*
X115437051Y-34568887D01*
X115388171Y-34562451D01*
X115144571Y-34530380D01*
X115144564Y-34530380D01*
X114849552Y-34530380D01*
X114849544Y-34530380D01*
X114571143Y-34567033D01*
X114557065Y-34568887D01*
X114385136Y-34614955D01*
X114272106Y-34645241D01*
X114272096Y-34645244D01*
X113999557Y-34758134D01*
X113999547Y-34758138D01*
X113744064Y-34905641D01*
X113510017Y-35085232D01*
X113510010Y-35085238D01*
X113301416Y-35293832D01*
X113301410Y-35293839D01*
X113121819Y-35527886D01*
X112974316Y-35783369D01*
X112974312Y-35783379D01*
X112861422Y-36055918D01*
X112861419Y-36055928D01*
X112796541Y-36298060D01*
X112785066Y-36340884D01*
X112785064Y-36340895D01*
X112746558Y-36633366D01*
X105952601Y-36633366D01*
X104889299Y-35570064D01*
X104855815Y-35508742D01*
X104859050Y-35444066D01*
X104874304Y-35397123D01*
X104907558Y-35187167D01*
X104907558Y-34974593D01*
X104874304Y-34764637D01*
X104808615Y-34562468D01*
X104712109Y-34373064D01*
X104712107Y-34373061D01*
X104712106Y-34373059D01*
X104587167Y-34201093D01*
X104436844Y-34050770D01*
X104264878Y-33925831D01*
X104075472Y-33829324D01*
X104075471Y-33829323D01*
X104075470Y-33829323D01*
X103873301Y-33763634D01*
X103873299Y-33763633D01*
X103873298Y-33763633D01*
X103705230Y-33737014D01*
X103663345Y-33730380D01*
X103450771Y-33730380D01*
X103408886Y-33737014D01*
X103240818Y-33763633D01*
X103038643Y-33829324D01*
X102849237Y-33925831D01*
X102677271Y-34050770D01*
X102526948Y-34201093D01*
X102402007Y-34373062D01*
X102397542Y-34381826D01*
X102349567Y-34432622D01*
X102281746Y-34449416D01*
X102215611Y-34426878D01*
X102176574Y-34381826D01*
X102172108Y-34373062D01*
X102047167Y-34201093D01*
X101896844Y-34050770D01*
X101724878Y-33925831D01*
X101535472Y-33829324D01*
X101535471Y-33829323D01*
X101535470Y-33829323D01*
X101333301Y-33763634D01*
X101333299Y-33763633D01*
X101333298Y-33763633D01*
X101165230Y-33737014D01*
X101123345Y-33730380D01*
X100910771Y-33730380D01*
X100868886Y-33737014D01*
X100700818Y-33763633D01*
X100498643Y-33829324D01*
X100309237Y-33925831D01*
X100137271Y-34050770D01*
X99986948Y-34201093D01*
X99862007Y-34373062D01*
X99857542Y-34381826D01*
X99809567Y-34432622D01*
X99741746Y-34449416D01*
X99675611Y-34426878D01*
X99636574Y-34381826D01*
X99632108Y-34373062D01*
X99507167Y-34201093D01*
X99356844Y-34050770D01*
X99184878Y-33925831D01*
X98995472Y-33829324D01*
X98995471Y-33829323D01*
X98995470Y-33829323D01*
X98793301Y-33763634D01*
X98793299Y-33763633D01*
X98793298Y-33763633D01*
X98625230Y-33737014D01*
X98583345Y-33730380D01*
X98370771Y-33730380D01*
X98328886Y-33737014D01*
X98160818Y-33763633D01*
X97958643Y-33829324D01*
X97769237Y-33925831D01*
X97597273Y-34050769D01*
X97446848Y-34201194D01*
X97385525Y-34234678D01*
X97315833Y-34229694D01*
X97259900Y-34187822D01*
X97240782Y-34150402D01*
X97232520Y-34123889D01*
X97232517Y-34123881D01*
X97148347Y-33984646D01*
X97148344Y-33984642D01*
X97033295Y-33869593D01*
X97033291Y-33869590D01*
X96894056Y-33785420D01*
X96894050Y-33785418D01*
X96738720Y-33737015D01*
X96738713Y-33737014D01*
X96671209Y-33730880D01*
X96187058Y-33730880D01*
X96187058Y-34647868D01*
X96130051Y-34614955D01*
X96002884Y-34580880D01*
X95871232Y-34580880D01*
X95744065Y-34614955D01*
X95687058Y-34647868D01*
X95687058Y-33730880D01*
X95202895Y-33730880D01*
X95135406Y-33737012D01*
X95135399Y-33737014D01*
X94980068Y-33785417D01*
X94980059Y-33785420D01*
X94840824Y-33869590D01*
X94840820Y-33869593D01*
X94725771Y-33984642D01*
X94725768Y-33984646D01*
X94641598Y-34123881D01*
X94641596Y-34123887D01*
X94593193Y-34279217D01*
X94593192Y-34279224D01*
X94587058Y-34346728D01*
X94587058Y-34830880D01*
X95504046Y-34830880D01*
X95471133Y-34887887D01*
X95437058Y-35015054D01*
X95437058Y-35146706D01*
X95471133Y-35273873D01*
X95504046Y-35330880D01*
X94587059Y-35330880D01*
X94587059Y-35815042D01*
X94593190Y-35882531D01*
X94593192Y-35882538D01*
X94641595Y-36037869D01*
X94641598Y-36037878D01*
X94725768Y-36177113D01*
X94725771Y-36177117D01*
X94840820Y-36292166D01*
X94840824Y-36292169D01*
X94980059Y-36376339D01*
X94980065Y-36376341D01*
X95135395Y-36424744D01*
X95135402Y-36424745D01*
X95202906Y-36430879D01*
X95687057Y-36430879D01*
X95687058Y-36430878D01*
X95687058Y-35513892D01*
X95744065Y-35546805D01*
X95871232Y-35580880D01*
X96002884Y-35580880D01*
X96130051Y-35546805D01*
X96187058Y-35513892D01*
X96187058Y-36430879D01*
X96671219Y-36430879D01*
X96738709Y-36424747D01*
X96738716Y-36424745D01*
X96894047Y-36376342D01*
X96894056Y-36376339D01*
X97033291Y-36292169D01*
X97033295Y-36292166D01*
X97148344Y-36177117D01*
X97148347Y-36177113D01*
X97232517Y-36037878D01*
X97232518Y-36037875D01*
X97240781Y-36011358D01*
X97279518Y-35953210D01*
X97343543Y-35925235D01*
X97412529Y-35936316D01*
X97446848Y-35960566D01*
X97597271Y-36110989D01*
X97769240Y-36235930D01*
X97811794Y-36257612D01*
X97862590Y-36305585D01*
X97879500Y-36368097D01*
X97879500Y-45950166D01*
X97859815Y-46017205D01*
X97858602Y-46019057D01*
X97790609Y-46120814D01*
X97790602Y-46120827D01*
X97730264Y-46266498D01*
X97730261Y-46266510D01*
X97699500Y-46421153D01*
X97699500Y-46578846D01*
X97730261Y-46733489D01*
X97730264Y-46733501D01*
X97790602Y-46879172D01*
X97790609Y-46879185D01*
X97878210Y-47010288D01*
X97878213Y-47010292D01*
X97989707Y-47121786D01*
X97989711Y-47121789D01*
X98120814Y-47209390D01*
X98120827Y-47209397D01*
X98266498Y-47269735D01*
X98266503Y-47269737D01*
X98421153Y-47300499D01*
X98421156Y-47300500D01*
X98421158Y-47300500D01*
X98578844Y-47300500D01*
X98578845Y-47300499D01*
X98733497Y-47269737D01*
X98879179Y-47209394D01*
X99010289Y-47121789D01*
X99121789Y-47010289D01*
X99209394Y-46879179D01*
X99269737Y-46733497D01*
X99300500Y-46578842D01*
X99300500Y-46421158D01*
X99300500Y-46421155D01*
X99300499Y-46421153D01*
X99274328Y-46289583D01*
X99269737Y-46266503D01*
X99234757Y-46182053D01*
X99209397Y-46120827D01*
X99209390Y-46120814D01*
X99121789Y-45989711D01*
X99121786Y-45989707D01*
X99116819Y-45984740D01*
X99083334Y-45923417D01*
X99080500Y-45897059D01*
X99080500Y-36365099D01*
X99100185Y-36298060D01*
X99148205Y-36254614D01*
X99184874Y-36235931D01*
X99355057Y-36112287D01*
X99356844Y-36110989D01*
X99356846Y-36110986D01*
X99356850Y-36110984D01*
X99507162Y-35960672D01*
X99507164Y-35960668D01*
X99507167Y-35960666D01*
X99632106Y-35788700D01*
X99632105Y-35788700D01*
X99632109Y-35788696D01*
X99636572Y-35779934D01*
X99684546Y-35729139D01*
X99752366Y-35712343D01*
X99818502Y-35734879D01*
X99857544Y-35779936D01*
X99862009Y-35788700D01*
X99986948Y-35960666D01*
X100137271Y-36110989D01*
X100309237Y-36235928D01*
X100309239Y-36235929D01*
X100309242Y-36235931D01*
X100498646Y-36332437D01*
X100700815Y-36398126D01*
X100910771Y-36431380D01*
X100910772Y-36431380D01*
X101123344Y-36431380D01*
X101123345Y-36431380D01*
X101333301Y-36398126D01*
X101370918Y-36385902D01*
X101440755Y-36383906D01*
X101496916Y-36416151D01*
X116561284Y-51480520D01*
X116561286Y-51480521D01*
X116561290Y-51480524D01*
X116661177Y-51538193D01*
X116698216Y-51559577D01*
X116850943Y-51600501D01*
X116850945Y-51600501D01*
X117016654Y-51600501D01*
X117016670Y-51600500D01*
X131199903Y-51600500D01*
X131266942Y-51620185D01*
X131287584Y-51636819D01*
X135575139Y-55924374D01*
X135575149Y-55924385D01*
X135579479Y-55928715D01*
X135579480Y-55928716D01*
X135691284Y-56040520D01*
X135778095Y-56090639D01*
X135778097Y-56090641D01*
X135816151Y-56112611D01*
X135828215Y-56119577D01*
X135980943Y-56160501D01*
X135980946Y-56160501D01*
X136146653Y-56160501D01*
X136146669Y-56160500D01*
X136168308Y-56160500D01*
X136235347Y-56180185D01*
X136269880Y-56213374D01*
X136355480Y-56335624D01*
X136399954Y-56399141D01*
X136560858Y-56560045D01*
X136560861Y-56560047D01*
X136747266Y-56690568D01*
X136799219Y-56714794D01*
X136851659Y-56760966D01*
X136870811Y-56828159D01*
X136850596Y-56895041D01*
X136805269Y-56936534D01*
X136740499Y-56971155D01*
X136740478Y-56971167D01*
X136609469Y-57058704D01*
X136609463Y-57058708D01*
X136532935Y-57121514D01*
X136421514Y-57232935D01*
X136358708Y-57309463D01*
X136358704Y-57309469D01*
X136271167Y-57440478D01*
X136271155Y-57440498D01*
X136224490Y-57527801D01*
X136164185Y-57673387D01*
X136135443Y-57768139D01*
X136135440Y-57768150D01*
X136119160Y-57849999D01*
X136119161Y-57850000D01*
X138566988Y-57850000D01*
X138534075Y-57907007D01*
X138500000Y-58034174D01*
X138500000Y-58165826D01*
X138534075Y-58292993D01*
X138566988Y-58350000D01*
X136119160Y-58350000D01*
X136135440Y-58431849D01*
X136135443Y-58431860D01*
X136164185Y-58526612D01*
X136224490Y-58672198D01*
X136271155Y-58759501D01*
X136271167Y-58759520D01*
X136358704Y-58890530D01*
X136358708Y-58890536D01*
X136421514Y-58967064D01*
X136532935Y-59078485D01*
X136609463Y-59141291D01*
X136609469Y-59141295D01*
X136740478Y-59228832D01*
X136740506Y-59228849D01*
X136805268Y-59263465D01*
X136855112Y-59312427D01*
X136870573Y-59380565D01*
X136846741Y-59446244D01*
X136799221Y-59485205D01*
X136747264Y-59509433D01*
X136560858Y-59639954D01*
X136399954Y-59800858D01*
X136269432Y-59987265D01*
X136269431Y-59987267D01*
X136173261Y-60193502D01*
X136173258Y-60193511D01*
X136114366Y-60413302D01*
X136114364Y-60413312D01*
X136099264Y-60585912D01*
X136097909Y-60585793D01*
X136077063Y-60646952D01*
X136022345Y-60690400D01*
X135975719Y-60699500D01*
X130272889Y-60699500D01*
X130205850Y-60679815D01*
X130185208Y-60663181D01*
X130077512Y-60555485D01*
X130077510Y-60555483D01*
X129886433Y-60416657D01*
X129879852Y-60413304D01*
X129675996Y-60309433D01*
X129451368Y-60236446D01*
X129218097Y-60199500D01*
X129218092Y-60199500D01*
X125981908Y-60199500D01*
X125981903Y-60199500D01*
X125748631Y-60236446D01*
X125524003Y-60309433D01*
X125313566Y-60416657D01*
X125230377Y-60477098D01*
X125122490Y-60555483D01*
X125122488Y-60555485D01*
X125122487Y-60555485D01*
X124955485Y-60722487D01*
X124955485Y-60722488D01*
X124955483Y-60722490D01*
X124900199Y-60798582D01*
X124816657Y-60913566D01*
X124709433Y-61124003D01*
X124636446Y-61348631D01*
X124599500Y-61581902D01*
X124599500Y-61818097D01*
X124636446Y-62051368D01*
X124709433Y-62275996D01*
X124785253Y-62424800D01*
X124816657Y-62486433D01*
X124955483Y-62677510D01*
X125122490Y-62844517D01*
X125313567Y-62983343D01*
X125405882Y-63030380D01*
X125524003Y-63090566D01*
X125524005Y-63090566D01*
X125524008Y-63090568D01*
X125624482Y-63123214D01*
X125748631Y-63163553D01*
X125981903Y-63200500D01*
X125981908Y-63200500D01*
X129218097Y-63200500D01*
X129451368Y-63163553D01*
X129507726Y-63145241D01*
X129675992Y-63090568D01*
X129886433Y-62983343D01*
X130077510Y-62844517D01*
X130244517Y-62677510D01*
X130383343Y-62486433D01*
X130490568Y-62275992D01*
X130563553Y-62051368D01*
X130569132Y-62016145D01*
X130570881Y-62005102D01*
X130600810Y-61941967D01*
X130660122Y-61905036D01*
X130693354Y-61900500D01*
X136566684Y-61900500D01*
X136633723Y-61920185D01*
X136679478Y-61972989D01*
X136689422Y-62042147D01*
X136660397Y-62105703D01*
X136637807Y-62126075D01*
X136560858Y-62179954D01*
X136399954Y-62340858D01*
X136269432Y-62527265D01*
X136269431Y-62527267D01*
X136173261Y-62733502D01*
X136173258Y-62733511D01*
X136114366Y-62953302D01*
X136114364Y-62953312D01*
X136099500Y-63123214D01*
X136099500Y-63236785D01*
X136114364Y-63406687D01*
X136114366Y-63406697D01*
X136173258Y-63626488D01*
X136173261Y-63626497D01*
X136269431Y-63832732D01*
X136269432Y-63832734D01*
X136399954Y-64019141D01*
X136560858Y-64180045D01*
X136560861Y-64180047D01*
X136747266Y-64310568D01*
X136805275Y-64337618D01*
X136857714Y-64383791D01*
X136876866Y-64450984D01*
X136856650Y-64517865D01*
X136805275Y-64562382D01*
X136747267Y-64589431D01*
X136747265Y-64589432D01*
X136560858Y-64719954D01*
X136399954Y-64880858D01*
X136269432Y-65067265D01*
X136269431Y-65067267D01*
X136173261Y-65273502D01*
X136173258Y-65273511D01*
X136114366Y-65493302D01*
X136114364Y-65493312D01*
X136099500Y-65663214D01*
X136099500Y-65776785D01*
X136114364Y-65946687D01*
X136114366Y-65946697D01*
X136173258Y-66166488D01*
X136173261Y-66166497D01*
X136269431Y-66372732D01*
X136269432Y-66372734D01*
X136399954Y-66559141D01*
X136560858Y-66720045D01*
X136560861Y-66720047D01*
X136747266Y-66850568D01*
X136805275Y-66877618D01*
X136857714Y-66923791D01*
X136876866Y-66990984D01*
X136856650Y-67057865D01*
X136805275Y-67102382D01*
X136747267Y-67129431D01*
X136747265Y-67129432D01*
X136560858Y-67259954D01*
X136399954Y-67420858D01*
X136269432Y-67607265D01*
X136269431Y-67607267D01*
X136173261Y-67813502D01*
X136173258Y-67813511D01*
X136114366Y-68033302D01*
X136114364Y-68033312D01*
X136099500Y-68203214D01*
X136099500Y-68316785D01*
X136114364Y-68486687D01*
X136114366Y-68486697D01*
X136173258Y-68706488D01*
X136173261Y-68706497D01*
X136269431Y-68912732D01*
X136269432Y-68912734D01*
X136399954Y-69099141D01*
X136560858Y-69260045D01*
X136560861Y-69260047D01*
X136747266Y-69390568D01*
X136798655Y-69414531D01*
X136851095Y-69460703D01*
X136870247Y-69527896D01*
X136850032Y-69594778D01*
X136804705Y-69636271D01*
X136754288Y-69663219D01*
X136740217Y-69670741D01*
X136740214Y-69670742D01*
X136740200Y-69670751D01*
X136609206Y-69758278D01*
X136609194Y-69758287D01*
X136609189Y-69758290D01*
X136609189Y-69758291D01*
X136532588Y-69821157D01*
X136532585Y-69821160D01*
X136532582Y-69821162D01*
X136421162Y-69932582D01*
X136421160Y-69932585D01*
X136421157Y-69932588D01*
X136392965Y-69966940D01*
X136358287Y-70009194D01*
X136358278Y-70009206D01*
X136270751Y-70140200D01*
X136270734Y-70140228D01*
X136224031Y-70227603D01*
X136224029Y-70227608D01*
X136163722Y-70373200D01*
X136156242Y-70397860D01*
X136134956Y-70468032D01*
X136134955Y-70468036D01*
X136134955Y-70468037D01*
X136104211Y-70622599D01*
X136104211Y-70622602D01*
X136094500Y-70721209D01*
X136094500Y-70878790D01*
X136104211Y-70977397D01*
X136104211Y-70977400D01*
X136104213Y-70977410D01*
X136134956Y-71131968D01*
X136155623Y-71200099D01*
X136163722Y-71226799D01*
X136224029Y-71372391D01*
X136224031Y-71372396D01*
X136270734Y-71459771D01*
X136270751Y-71459799D01*
X136358278Y-71590793D01*
X136358286Y-71590804D01*
X136358291Y-71590811D01*
X136421157Y-71667412D01*
X136532588Y-71778843D01*
X136609189Y-71841709D01*
X136609198Y-71841715D01*
X136609206Y-71841721D01*
X136740200Y-71929248D01*
X136740205Y-71929251D01*
X136740217Y-71929259D01*
X136740226Y-71929263D01*
X136740228Y-71929265D01*
X136804704Y-71963728D01*
X136854548Y-72012690D01*
X136870009Y-72080828D01*
X136846178Y-72146507D01*
X136798657Y-72185468D01*
X136747264Y-72209433D01*
X136560858Y-72339954D01*
X136399954Y-72500858D01*
X136269432Y-72687265D01*
X136269431Y-72687267D01*
X136173261Y-72893502D01*
X136173258Y-72893511D01*
X136114366Y-73113302D01*
X136114364Y-73113312D01*
X136099500Y-73283214D01*
X136099500Y-73396785D01*
X136114364Y-73566687D01*
X136114366Y-73566697D01*
X136173258Y-73786488D01*
X136173261Y-73786497D01*
X136269431Y-73992732D01*
X136269432Y-73992734D01*
X136399954Y-74179141D01*
X136560858Y-74340045D01*
X136560861Y-74340047D01*
X136747266Y-74470568D01*
X136805275Y-74497618D01*
X136857714Y-74543791D01*
X136876866Y-74610984D01*
X136856650Y-74677865D01*
X136805275Y-74722382D01*
X136747267Y-74749431D01*
X136747265Y-74749432D01*
X136560858Y-74879954D01*
X136399954Y-75040858D01*
X136269433Y-75227264D01*
X136212954Y-75348381D01*
X136166780Y-75400820D01*
X136099587Y-75419971D01*
X136032706Y-75399754D01*
X136012891Y-75383656D01*
X135267590Y-74638355D01*
X135267588Y-74638352D01*
X135148717Y-74519481D01*
X135148716Y-74519480D01*
X135061904Y-74469360D01*
X135061904Y-74469359D01*
X135061900Y-74469358D01*
X135011785Y-74440423D01*
X134859057Y-74399499D01*
X134700943Y-74399499D01*
X134693347Y-74399499D01*
X134693331Y-74399500D01*
X130300098Y-74399500D01*
X130233059Y-74379815D01*
X130212417Y-74363181D01*
X129834573Y-73985337D01*
X129801088Y-73924014D01*
X129800637Y-73921847D01*
X129773714Y-73786496D01*
X129769737Y-73766503D01*
X129744833Y-73706378D01*
X129709397Y-73620827D01*
X129709390Y-73620814D01*
X129621789Y-73489711D01*
X129621786Y-73489707D01*
X129510292Y-73378213D01*
X129510288Y-73378210D01*
X129379185Y-73290609D01*
X129379172Y-73290602D01*
X129233501Y-73230264D01*
X129233489Y-73230261D01*
X129078845Y-73199500D01*
X129078842Y-73199500D01*
X128921158Y-73199500D01*
X128921155Y-73199500D01*
X128766510Y-73230261D01*
X128766498Y-73230264D01*
X128620827Y-73290602D01*
X128620814Y-73290609D01*
X128489711Y-73378210D01*
X128489707Y-73378213D01*
X128378213Y-73489707D01*
X128378210Y-73489711D01*
X128290609Y-73620814D01*
X128290602Y-73620827D01*
X128230264Y-73766498D01*
X128230261Y-73766510D01*
X128199500Y-73921153D01*
X128199500Y-74078846D01*
X128230261Y-74233489D01*
X128230264Y-74233501D01*
X128290602Y-74379172D01*
X128290609Y-74379185D01*
X128378210Y-74510288D01*
X128378213Y-74510292D01*
X128489707Y-74621786D01*
X128489711Y-74621789D01*
X128620814Y-74709390D01*
X128620827Y-74709397D01*
X128766498Y-74769735D01*
X128766503Y-74769737D01*
X128831147Y-74782595D01*
X128921849Y-74800638D01*
X128983760Y-74833023D01*
X128985336Y-74834571D01*
X129631284Y-75480520D01*
X129631286Y-75480521D01*
X129631290Y-75480524D01*
X129700826Y-75520670D01*
X129768216Y-75559577D01*
X129920943Y-75600501D01*
X129920945Y-75600501D01*
X130086654Y-75600501D01*
X130086670Y-75600500D01*
X134479903Y-75600500D01*
X134546942Y-75620185D01*
X134567584Y-75636819D01*
X136372370Y-77441605D01*
X136405855Y-77502928D01*
X136400871Y-77572620D01*
X136386265Y-77600408D01*
X136269431Y-77767267D01*
X136173261Y-77973502D01*
X136173258Y-77973511D01*
X136114366Y-78193302D01*
X136114364Y-78193312D01*
X136099500Y-78363214D01*
X136099500Y-78476785D01*
X136114364Y-78646687D01*
X136114366Y-78646697D01*
X136173258Y-78866488D01*
X136173261Y-78866497D01*
X136269431Y-79072732D01*
X136269432Y-79072734D01*
X136399954Y-79259141D01*
X136560858Y-79420045D01*
X136560861Y-79420047D01*
X136747266Y-79550568D01*
X136805275Y-79577618D01*
X136857714Y-79623791D01*
X136876866Y-79690984D01*
X136856650Y-79757865D01*
X136805275Y-79802382D01*
X136747267Y-79829431D01*
X136747265Y-79829432D01*
X136560858Y-79959954D01*
X136399954Y-80120858D01*
X136269432Y-80307265D01*
X136269431Y-80307267D01*
X136173261Y-80513502D01*
X136173258Y-80513511D01*
X136114366Y-80733302D01*
X136114364Y-80733312D01*
X136099500Y-80903214D01*
X136099500Y-81016785D01*
X136114364Y-81186687D01*
X136114366Y-81186697D01*
X136173258Y-81406488D01*
X136173261Y-81406497D01*
X136269431Y-81612732D01*
X136269432Y-81612734D01*
X136399954Y-81799141D01*
X136560858Y-81960045D01*
X136560861Y-81960047D01*
X136747266Y-82090568D01*
X136799219Y-82114794D01*
X136851659Y-82160966D01*
X136870811Y-82228159D01*
X136850596Y-82295041D01*
X136805269Y-82336534D01*
X136740499Y-82371155D01*
X136740478Y-82371167D01*
X136609469Y-82458704D01*
X136609463Y-82458708D01*
X136532935Y-82521514D01*
X136421514Y-82632935D01*
X136358708Y-82709463D01*
X136358704Y-82709469D01*
X136271167Y-82840478D01*
X136271155Y-82840498D01*
X136224490Y-82927801D01*
X136164185Y-83073387D01*
X136135444Y-83168135D01*
X136109278Y-83299690D01*
X136076893Y-83361602D01*
X136016177Y-83396176D01*
X135987660Y-83399500D01*
X80724500Y-83399500D01*
X80657461Y-83379815D01*
X80611706Y-83327011D01*
X80600500Y-83275500D01*
X80600500Y-70897648D01*
X131699500Y-70897648D01*
X131699500Y-71102351D01*
X131731522Y-71304534D01*
X131794781Y-71499223D01*
X131858691Y-71624653D01*
X131880481Y-71667417D01*
X131887715Y-71681613D01*
X132008028Y-71847213D01*
X132152786Y-71991971D01*
X132275090Y-72080828D01*
X132318390Y-72112287D01*
X132431024Y-72169677D01*
X132500776Y-72205218D01*
X132500778Y-72205218D01*
X132500781Y-72205220D01*
X132605137Y-72239127D01*
X132695465Y-72268477D01*
X132796557Y-72284488D01*
X132897648Y-72300500D01*
X132897649Y-72300500D01*
X133102351Y-72300500D01*
X133102352Y-72300500D01*
X133304534Y-72268477D01*
X133499219Y-72205220D01*
X133681610Y-72112287D01*
X133786228Y-72036278D01*
X133847213Y-71991971D01*
X133847215Y-71991968D01*
X133847219Y-71991966D01*
X133991966Y-71847219D01*
X133991968Y-71847215D01*
X133991971Y-71847213D01*
X134044732Y-71774590D01*
X134112287Y-71681610D01*
X134205220Y-71499219D01*
X134268477Y-71304534D01*
X134300500Y-71102352D01*
X134300500Y-70897648D01*
X134268477Y-70695466D01*
X134205220Y-70500781D01*
X134205218Y-70500778D01*
X134205218Y-70500776D01*
X134153819Y-70399901D01*
X134112287Y-70318390D01*
X134046331Y-70227608D01*
X133991971Y-70152786D01*
X133847213Y-70008028D01*
X133681613Y-69887715D01*
X133681612Y-69887714D01*
X133681610Y-69887713D01*
X133596694Y-69844446D01*
X133499223Y-69794781D01*
X133304534Y-69731522D01*
X133129995Y-69703878D01*
X133102352Y-69699500D01*
X132897648Y-69699500D01*
X132873329Y-69703351D01*
X132695465Y-69731522D01*
X132500776Y-69794781D01*
X132318386Y-69887715D01*
X132152786Y-70008028D01*
X132008028Y-70152786D01*
X131887715Y-70318386D01*
X131794781Y-70500776D01*
X131731522Y-70695465D01*
X131699500Y-70897648D01*
X80600500Y-70897648D01*
X80600500Y-65133366D01*
X82246558Y-65133366D01*
X82246558Y-65428393D01*
X82269369Y-65601651D01*
X82285065Y-65720873D01*
X82359101Y-65997181D01*
X82361419Y-66005831D01*
X82361422Y-66005841D01*
X82474312Y-66278380D01*
X82474316Y-66278390D01*
X82621819Y-66533873D01*
X82801410Y-66767920D01*
X82801416Y-66767927D01*
X83010010Y-66976521D01*
X83010017Y-66976527D01*
X83244064Y-67156118D01*
X83499547Y-67303621D01*
X83499548Y-67303621D01*
X83499551Y-67303623D01*
X83772106Y-67416519D01*
X84057065Y-67492873D01*
X84349552Y-67531380D01*
X84349559Y-67531380D01*
X84644557Y-67531380D01*
X84644564Y-67531380D01*
X84937051Y-67492873D01*
X85222010Y-67416519D01*
X85494565Y-67303623D01*
X85750052Y-67156118D01*
X85984100Y-66976526D01*
X86192704Y-66767922D01*
X86372296Y-66533874D01*
X86519801Y-66278387D01*
X86632697Y-66005832D01*
X86709051Y-65720873D01*
X86747558Y-65428386D01*
X86747558Y-65133374D01*
X86747557Y-65133366D01*
X112746558Y-65133366D01*
X112746558Y-65428393D01*
X112769369Y-65601651D01*
X112785065Y-65720873D01*
X112859101Y-65997181D01*
X112861419Y-66005831D01*
X112861422Y-66005841D01*
X112974312Y-66278380D01*
X112974316Y-66278390D01*
X113121819Y-66533873D01*
X113301410Y-66767920D01*
X113301416Y-66767927D01*
X113510010Y-66976521D01*
X113510017Y-66976527D01*
X113744064Y-67156118D01*
X113999547Y-67303621D01*
X113999548Y-67303621D01*
X113999551Y-67303623D01*
X114272106Y-67416519D01*
X114557065Y-67492873D01*
X114849552Y-67531380D01*
X114849559Y-67531380D01*
X115144557Y-67531380D01*
X115144564Y-67531380D01*
X115437051Y-67492873D01*
X115722010Y-67416519D01*
X115994565Y-67303623D01*
X116250052Y-67156118D01*
X116484100Y-66976526D01*
X116692704Y-66767922D01*
X116872296Y-66533874D01*
X117019801Y-66278387D01*
X117132697Y-66005832D01*
X117209051Y-65720873D01*
X117247558Y-65428386D01*
X117247558Y-65133374D01*
X117209051Y-64840887D01*
X117132697Y-64555928D01*
X117019801Y-64283373D01*
X116994443Y-64239452D01*
X116872296Y-64027886D01*
X116692705Y-63793839D01*
X116692699Y-63793832D01*
X116484105Y-63585238D01*
X116484098Y-63585232D01*
X116250051Y-63405641D01*
X115994568Y-63258138D01*
X115994558Y-63258134D01*
X115722019Y-63145244D01*
X115722012Y-63145242D01*
X115722010Y-63145241D01*
X115437051Y-63068887D01*
X115385803Y-63062140D01*
X115144571Y-63030380D01*
X115144564Y-63030380D01*
X114849552Y-63030380D01*
X114849544Y-63030380D01*
X114571143Y-63067033D01*
X114557065Y-63068887D01*
X114354309Y-63123215D01*
X114272106Y-63145241D01*
X114272096Y-63145244D01*
X113999557Y-63258134D01*
X113999547Y-63258138D01*
X113744064Y-63405641D01*
X113510017Y-63585232D01*
X113510010Y-63585238D01*
X113301416Y-63793832D01*
X113301410Y-63793839D01*
X113121819Y-64027886D01*
X112974316Y-64283369D01*
X112974312Y-64283379D01*
X112861422Y-64555918D01*
X112861419Y-64555928D01*
X112852443Y-64589429D01*
X112785066Y-64840884D01*
X112785064Y-64840895D01*
X112746558Y-65133366D01*
X86747557Y-65133366D01*
X86709051Y-64840887D01*
X86632697Y-64555928D01*
X86519801Y-64283373D01*
X86494443Y-64239452D01*
X86372296Y-64027886D01*
X86192705Y-63793839D01*
X86192699Y-63793832D01*
X85984105Y-63585238D01*
X85984098Y-63585232D01*
X85750051Y-63405641D01*
X85494568Y-63258138D01*
X85494558Y-63258134D01*
X85222019Y-63145244D01*
X85222012Y-63145242D01*
X85222010Y-63145241D01*
X84937051Y-63068887D01*
X84885803Y-63062140D01*
X84644571Y-63030380D01*
X84644564Y-63030380D01*
X84349552Y-63030380D01*
X84349544Y-63030380D01*
X84071143Y-63067033D01*
X84057065Y-63068887D01*
X83854309Y-63123215D01*
X83772106Y-63145241D01*
X83772096Y-63145244D01*
X83499557Y-63258134D01*
X83499547Y-63258138D01*
X83244064Y-63405641D01*
X83010017Y-63585232D01*
X83010010Y-63585238D01*
X82801416Y-63793832D01*
X82801410Y-63793839D01*
X82621819Y-64027886D01*
X82474316Y-64283369D01*
X82474312Y-64283379D01*
X82361422Y-64555918D01*
X82361419Y-64555928D01*
X82352443Y-64589429D01*
X82285066Y-64840884D01*
X82285064Y-64840895D01*
X82246558Y-65133366D01*
X80600500Y-65133366D01*
X80600500Y-56850000D01*
X124620898Y-56850000D01*
X125666988Y-56850000D01*
X125634075Y-56907007D01*
X125600000Y-57034174D01*
X125600000Y-57165826D01*
X125634075Y-57292993D01*
X125666988Y-57350000D01*
X124620898Y-57350000D01*
X124636934Y-57451247D01*
X124709897Y-57675802D01*
X124817085Y-57886171D01*
X124955866Y-58077186D01*
X125122813Y-58244133D01*
X125313828Y-58382914D01*
X125524197Y-58490102D01*
X125748752Y-58563065D01*
X125748751Y-58563065D01*
X125981948Y-58600000D01*
X127350000Y-58600000D01*
X127350000Y-57600000D01*
X127850000Y-57600000D01*
X127850000Y-58600000D01*
X129218052Y-58600000D01*
X129451247Y-58563065D01*
X129675802Y-58490102D01*
X129886171Y-58382914D01*
X130077186Y-58244133D01*
X130244133Y-58077186D01*
X130382914Y-57886171D01*
X130490102Y-57675802D01*
X130563065Y-57451247D01*
X130579102Y-57350000D01*
X129533012Y-57350000D01*
X129565925Y-57292993D01*
X129600000Y-57165826D01*
X129600000Y-57034174D01*
X129565925Y-56907007D01*
X129533012Y-56850000D01*
X130579102Y-56850000D01*
X130563065Y-56748752D01*
X130490102Y-56524197D01*
X130382914Y-56313828D01*
X130244133Y-56122813D01*
X130077186Y-55955866D01*
X129886171Y-55817085D01*
X129675802Y-55709897D01*
X129451247Y-55636934D01*
X129451248Y-55636934D01*
X129218052Y-55600000D01*
X127850000Y-55600000D01*
X127850000Y-56600000D01*
X127350000Y-56600000D01*
X127350000Y-55600000D01*
X125981948Y-55600000D01*
X125748752Y-55636934D01*
X125524197Y-55709897D01*
X125313828Y-55817085D01*
X125122813Y-55955866D01*
X124955866Y-56122813D01*
X124817085Y-56313828D01*
X124709897Y-56524197D01*
X124636934Y-56748752D01*
X124620898Y-56850000D01*
X80600500Y-56850000D01*
X80600500Y-54120945D01*
X80600500Y-54120943D01*
X80559577Y-53968216D01*
X80496604Y-53859142D01*
X80480524Y-53831290D01*
X80480521Y-53831286D01*
X80480520Y-53831284D01*
X80368716Y-53719480D01*
X80368715Y-53719479D01*
X80364385Y-53715149D01*
X80364374Y-53715139D01*
X74487590Y-47838355D01*
X74487588Y-47838352D01*
X74368717Y-47719481D01*
X74368709Y-47719475D01*
X74245195Y-47648165D01*
X74245192Y-47648164D01*
X74231785Y-47640423D01*
X74079057Y-47599499D01*
X73920943Y-47599499D01*
X73913347Y-47599499D01*
X73913331Y-47599500D01*
X61500098Y-47599500D01*
X61433059Y-47579815D01*
X61412417Y-47563181D01*
X60823396Y-46974160D01*
X60789911Y-46912837D01*
X60787077Y-46886479D01*
X60787077Y-44967490D01*
X60806762Y-44900451D01*
X60854782Y-44857005D01*
X60973010Y-44796766D01*
X61164087Y-44657940D01*
X61331094Y-44490933D01*
X61469920Y-44299856D01*
X61577145Y-44089415D01*
X61650130Y-43864791D01*
X61665185Y-43769737D01*
X61687077Y-43631520D01*
X61687077Y-43581902D01*
X68599500Y-43581902D01*
X68599500Y-43818097D01*
X68636446Y-44051368D01*
X68709433Y-44275996D01*
X68783579Y-44421514D01*
X68816657Y-44486433D01*
X68955483Y-44677510D01*
X69122490Y-44844517D01*
X69313567Y-44983343D01*
X69373584Y-45013923D01*
X69524003Y-45090566D01*
X69524005Y-45090566D01*
X69524008Y-45090568D01*
X69644412Y-45129689D01*
X69748631Y-45163553D01*
X69981903Y-45200500D01*
X69981908Y-45200500D01*
X73218097Y-45200500D01*
X73451368Y-45163553D01*
X73675992Y-45090568D01*
X73886433Y-44983343D01*
X74077510Y-44844517D01*
X74244517Y-44677510D01*
X74383343Y-44486433D01*
X74490568Y-44275992D01*
X74563553Y-44051368D01*
X74567085Y-44029067D01*
X74600500Y-43818097D01*
X74600500Y-43724500D01*
X74620185Y-43657461D01*
X74672989Y-43611706D01*
X74724500Y-43600500D01*
X95420234Y-43600500D01*
X95487273Y-43620185D01*
X95489125Y-43621398D01*
X95620814Y-43709390D01*
X95620827Y-43709397D01*
X95766498Y-43769735D01*
X95766503Y-43769737D01*
X95921153Y-43800499D01*
X95921156Y-43800500D01*
X95921158Y-43800500D01*
X96078844Y-43800500D01*
X96078845Y-43800499D01*
X96233497Y-43769737D01*
X96379179Y-43709394D01*
X96510289Y-43621789D01*
X96621789Y-43510289D01*
X96709394Y-43379179D01*
X96769737Y-43233497D01*
X96800500Y-43078842D01*
X96800500Y-42921158D01*
X96800500Y-42921155D01*
X96800499Y-42921153D01*
X96780275Y-42819480D01*
X96769737Y-42766503D01*
X96766067Y-42757643D01*
X96709397Y-42620827D01*
X96709390Y-42620814D01*
X96621789Y-42489711D01*
X96621786Y-42489707D01*
X96510292Y-42378213D01*
X96510288Y-42378210D01*
X96379185Y-42290609D01*
X96379172Y-42290602D01*
X96233501Y-42230264D01*
X96233489Y-42230261D01*
X96078845Y-42199500D01*
X96078842Y-42199500D01*
X95921158Y-42199500D01*
X95921155Y-42199500D01*
X95766510Y-42230261D01*
X95766498Y-42230264D01*
X95620827Y-42290602D01*
X95620814Y-42290609D01*
X95489125Y-42378602D01*
X95422447Y-42399480D01*
X95420234Y-42399500D01*
X73882530Y-42399500D01*
X73826235Y-42385985D01*
X73675996Y-42309433D01*
X73451368Y-42236446D01*
X73218097Y-42199500D01*
X73218092Y-42199500D01*
X71579061Y-42199500D01*
X71579057Y-42199499D01*
X71420943Y-42199499D01*
X71420939Y-42199500D01*
X69981908Y-42199500D01*
X69981903Y-42199500D01*
X69748631Y-42236446D01*
X69524003Y-42309433D01*
X69313566Y-42416657D01*
X69216217Y-42487386D01*
X69122490Y-42555483D01*
X69122488Y-42555485D01*
X69122487Y-42555485D01*
X68955485Y-42722487D01*
X68955485Y-42722488D01*
X68955483Y-42722490D01*
X68896833Y-42803214D01*
X68816657Y-42913566D01*
X68709433Y-43124003D01*
X68636446Y-43348631D01*
X68599500Y-43581902D01*
X61687077Y-43581902D01*
X61687077Y-40395325D01*
X61650130Y-40162054D01*
X61602500Y-40015465D01*
X61577145Y-39937431D01*
X61577143Y-39937428D01*
X61577143Y-39937426D01*
X61469919Y-39726989D01*
X61331094Y-39535913D01*
X61164087Y-39368906D01*
X60973010Y-39230080D01*
X60762573Y-39122856D01*
X60537945Y-39049869D01*
X60304674Y-39012923D01*
X60304669Y-39012923D01*
X60068485Y-39012923D01*
X60068480Y-39012923D01*
X59835208Y-39049869D01*
X59610580Y-39122856D01*
X59400143Y-39230080D01*
X59313552Y-39292993D01*
X59209067Y-39368906D01*
X59209065Y-39368908D01*
X59209064Y-39368908D01*
X59042062Y-39535910D01*
X59042062Y-39535911D01*
X59042060Y-39535913D01*
X59020255Y-39565925D01*
X58903234Y-39726989D01*
X58796010Y-39937426D01*
X58723023Y-40162054D01*
X58686077Y-40395325D01*
X58686077Y-43631520D01*
X58723023Y-43864791D01*
X58796010Y-44089419D01*
X58849828Y-44195041D01*
X58903234Y-44299856D01*
X59042060Y-44490933D01*
X59209067Y-44657940D01*
X59322698Y-44740498D01*
X59400145Y-44796767D01*
X59461054Y-44827801D01*
X59518371Y-44857005D01*
X59569167Y-44904979D01*
X59586077Y-44967490D01*
X59586077Y-47099907D01*
X59586076Y-47099925D01*
X59586076Y-47265631D01*
X59586075Y-47265631D01*
X59627000Y-47418363D01*
X59639942Y-47440777D01*
X59639943Y-47440782D01*
X59639945Y-47440782D01*
X59670389Y-47493513D01*
X59706056Y-47555291D01*
X59706058Y-47555294D01*
X59824926Y-47674162D01*
X59824932Y-47674167D01*
X60338583Y-48187819D01*
X60372068Y-48249142D01*
X60367084Y-48318834D01*
X60325212Y-48374767D01*
X60259748Y-48399184D01*
X60250902Y-48399500D01*
X56724500Y-48399500D01*
X56657461Y-48379815D01*
X56611706Y-48327011D01*
X56600500Y-48275500D01*
X56600500Y-44037174D01*
X56606569Y-43998856D01*
X56650130Y-43864791D01*
X56674742Y-43709397D01*
X56687077Y-43631520D01*
X56687077Y-40395325D01*
X56650130Y-40162054D01*
X56602500Y-40015465D01*
X56577145Y-39937431D01*
X56577143Y-39937428D01*
X56577143Y-39937426D01*
X56469919Y-39726989D01*
X56331094Y-39535913D01*
X56164087Y-39368906D01*
X55973010Y-39230080D01*
X55762573Y-39122856D01*
X55537945Y-39049869D01*
X55304674Y-39012923D01*
X55304669Y-39012923D01*
X55068485Y-39012923D01*
X55068480Y-39012923D01*
X54835208Y-39049869D01*
X54610580Y-39122856D01*
X54400143Y-39230080D01*
X54313552Y-39292993D01*
X54209067Y-39368906D01*
X54209065Y-39368908D01*
X54209064Y-39368908D01*
X54042062Y-39535910D01*
X54042062Y-39535911D01*
X54042060Y-39535913D01*
X54020255Y-39565925D01*
X53903234Y-39726989D01*
X53796010Y-39937426D01*
X53723023Y-40162054D01*
X53686077Y-40395325D01*
X45500500Y-40395325D01*
X45500500Y-38850000D01*
X68620898Y-38850000D01*
X69666988Y-38850000D01*
X69634075Y-38907007D01*
X69600000Y-39034174D01*
X69600000Y-39165826D01*
X69634075Y-39292993D01*
X69666988Y-39350000D01*
X68620898Y-39350000D01*
X68636934Y-39451247D01*
X68709897Y-39675802D01*
X68817085Y-39886171D01*
X68955866Y-40077186D01*
X69122813Y-40244133D01*
X69313828Y-40382914D01*
X69524197Y-40490102D01*
X69748752Y-40563065D01*
X69748751Y-40563065D01*
X69981948Y-40600000D01*
X71350000Y-40600000D01*
X71350000Y-39600000D01*
X71850000Y-39600000D01*
X71850000Y-40600000D01*
X73218052Y-40600000D01*
X73451247Y-40563065D01*
X73675802Y-40490102D01*
X73886171Y-40382914D01*
X74077186Y-40244133D01*
X74244133Y-40077186D01*
X74382914Y-39886171D01*
X74490102Y-39675802D01*
X74563065Y-39451247D01*
X74579102Y-39350000D01*
X73533012Y-39350000D01*
X73565925Y-39292993D01*
X73600000Y-39165826D01*
X73600000Y-39034174D01*
X73565925Y-38907007D01*
X73533012Y-38850000D01*
X74579102Y-38850000D01*
X74563065Y-38748752D01*
X74490102Y-38524197D01*
X74382914Y-38313828D01*
X74244133Y-38122813D01*
X74077186Y-37955866D01*
X73886171Y-37817085D01*
X73675802Y-37709897D01*
X73451247Y-37636934D01*
X73451248Y-37636934D01*
X73218052Y-37600000D01*
X71850000Y-37600000D01*
X71850000Y-38600000D01*
X71350000Y-38600000D01*
X71350000Y-37600000D01*
X69981948Y-37600000D01*
X69748752Y-37636934D01*
X69524197Y-37709897D01*
X69313828Y-37817085D01*
X69122813Y-37955866D01*
X68955866Y-38122813D01*
X68817085Y-38313828D01*
X68709897Y-38524197D01*
X68636934Y-38748752D01*
X68620898Y-38850000D01*
X45500500Y-38850000D01*
X45500500Y-36633366D01*
X82246558Y-36633366D01*
X82246558Y-36928393D01*
X82278629Y-37171993D01*
X82285065Y-37220873D01*
X82285066Y-37220875D01*
X82361419Y-37505831D01*
X82361422Y-37505841D01*
X82474312Y-37778380D01*
X82474316Y-37778390D01*
X82621819Y-38033873D01*
X82801410Y-38267920D01*
X82801416Y-38267927D01*
X83010010Y-38476521D01*
X83010017Y-38476527D01*
X83244064Y-38656118D01*
X83499547Y-38803621D01*
X83499548Y-38803621D01*
X83499551Y-38803623D01*
X83710354Y-38890940D01*
X83747758Y-38906434D01*
X83772106Y-38916519D01*
X84057065Y-38992873D01*
X84349552Y-39031380D01*
X84349559Y-39031380D01*
X84644557Y-39031380D01*
X84644564Y-39031380D01*
X84937051Y-38992873D01*
X85222010Y-38916519D01*
X85494565Y-38803623D01*
X85750052Y-38656118D01*
X85984100Y-38476526D01*
X86192704Y-38267922D01*
X86372296Y-38033874D01*
X86519801Y-37778387D01*
X86632697Y-37505832D01*
X86709051Y-37220873D01*
X86747558Y-36928386D01*
X86747558Y-36633374D01*
X86709051Y-36340887D01*
X86632697Y-36055928D01*
X86625220Y-36037878D01*
X86560876Y-35882538D01*
X86519801Y-35783373D01*
X86372296Y-35527886D01*
X86271958Y-35397123D01*
X86239641Y-35355007D01*
X86239639Y-35355005D01*
X86200911Y-35304534D01*
X86192704Y-35293838D01*
X86192702Y-35293836D01*
X86192699Y-35293832D01*
X85984105Y-35085238D01*
X85984098Y-35085232D01*
X85750051Y-34905641D01*
X85494568Y-34758138D01*
X85494558Y-34758134D01*
X85222019Y-34645244D01*
X85222012Y-34645242D01*
X85222010Y-34645241D01*
X84937051Y-34568887D01*
X84888171Y-34562451D01*
X84644571Y-34530380D01*
X84644564Y-34530380D01*
X84349552Y-34530380D01*
X84349544Y-34530380D01*
X84071143Y-34567033D01*
X84057065Y-34568887D01*
X83885136Y-34614955D01*
X83772106Y-34645241D01*
X83772096Y-34645244D01*
X83499557Y-34758134D01*
X83499547Y-34758138D01*
X83244064Y-34905641D01*
X83010017Y-35085232D01*
X83010010Y-35085238D01*
X82801416Y-35293832D01*
X82801410Y-35293839D01*
X82621819Y-35527886D01*
X82474316Y-35783369D01*
X82474312Y-35783379D01*
X82361422Y-36055918D01*
X82361419Y-36055928D01*
X82296541Y-36298060D01*
X82285066Y-36340884D01*
X82285064Y-36340895D01*
X82246558Y-36633366D01*
X45500500Y-36633366D01*
X45500500Y-35002706D01*
X45500618Y-34997298D01*
X45503377Y-34934108D01*
X45504969Y-34897648D01*
X62699500Y-34897648D01*
X62699500Y-35102351D01*
X62731522Y-35304534D01*
X62794781Y-35499223D01*
X62887715Y-35681613D01*
X63008028Y-35847213D01*
X63152786Y-35991971D01*
X63307749Y-36104556D01*
X63318390Y-36112287D01*
X63434607Y-36171503D01*
X63500776Y-36205218D01*
X63500778Y-36205218D01*
X63500781Y-36205220D01*
X63595297Y-36235930D01*
X63695465Y-36268477D01*
X63796557Y-36284488D01*
X63897648Y-36300500D01*
X63897649Y-36300500D01*
X64102351Y-36300500D01*
X64102352Y-36300500D01*
X64304534Y-36268477D01*
X64499219Y-36205220D01*
X64681610Y-36112287D01*
X64784030Y-36037875D01*
X64847213Y-35991971D01*
X64847215Y-35991968D01*
X64847219Y-35991966D01*
X64991966Y-35847219D01*
X64991968Y-35847215D01*
X64991971Y-35847213D01*
X65089958Y-35712343D01*
X65112287Y-35681610D01*
X65205220Y-35499219D01*
X65268477Y-35304534D01*
X65300500Y-35102352D01*
X65300500Y-34897648D01*
X65279433Y-34764637D01*
X65268477Y-34695465D01*
X65205218Y-34500776D01*
X65153976Y-34400210D01*
X65144609Y-34381826D01*
X65112287Y-34318390D01*
X65112285Y-34318387D01*
X65112284Y-34318385D01*
X64991971Y-34152786D01*
X64847213Y-34008028D01*
X64681613Y-33887715D01*
X64681612Y-33887714D01*
X64681610Y-33887713D01*
X64624653Y-33858691D01*
X64499223Y-33794781D01*
X64304534Y-33731522D01*
X64129995Y-33703878D01*
X64102352Y-33699500D01*
X63897648Y-33699500D01*
X63873329Y-33703351D01*
X63695465Y-33731522D01*
X63500776Y-33794781D01*
X63318386Y-33887715D01*
X63152786Y-34008028D01*
X63008028Y-34152786D01*
X62887715Y-34318386D01*
X62794781Y-34500776D01*
X62731522Y-34695465D01*
X62699500Y-34897648D01*
X45504969Y-34897648D01*
X45517387Y-34613224D01*
X45518325Y-34602496D01*
X45568151Y-34224032D01*
X45570024Y-34213402D01*
X45652648Y-33840714D01*
X45655446Y-33830276D01*
X45770230Y-33466227D01*
X45773917Y-33456095D01*
X45920003Y-33103412D01*
X45924561Y-33093638D01*
X46100822Y-32755045D01*
X46106217Y-32745700D01*
X46311325Y-32423744D01*
X46317515Y-32414905D01*
X46549896Y-32112060D01*
X46556834Y-32103791D01*
X46814726Y-31822352D01*
X46822352Y-31814726D01*
X47103791Y-31556834D01*
X47112060Y-31549896D01*
X47414905Y-31317515D01*
X47423744Y-31311325D01*
X47745700Y-31106217D01*
X47755045Y-31100822D01*
X48093638Y-30924561D01*
X48103412Y-30920003D01*
X48456095Y-30773917D01*
X48466227Y-30770230D01*
X48830285Y-30655443D01*
X48840714Y-30652648D01*
X49213402Y-30570024D01*
X49224032Y-30568151D01*
X49602496Y-30518325D01*
X49613224Y-30517387D01*
X49997297Y-30500617D01*
X50002706Y-30500500D01*
X50065892Y-30500500D01*
X156934108Y-30500500D01*
X156997294Y-30500500D01*
X157002702Y-30500617D01*
G37*
%TD.AperFunction*%
%TD*%
M02*
