%TF.GenerationSoftware,KiCad,Pcbnew,10.0.1*%
%TF.CreationDate,2026-09-03T20:47:44+03:00*%
%TF.ProjectId,PocketArc,506f636b-6574-4417-9263-2e6b69636164,rev?*%
%TF.SameCoordinates,Original*%
%TF.FileFunction,Copper,L2,Bot*%
%TF.FilePolarity,Positive*%
%FSLAX46Y46*%
G04 Gerber Fmt 4.6, Leading zero omitted, Abs format (unit mm)*
G04 Created by KiCad (PCBNEW 10.0.1) date 2026-09-03 20:47:44*
%MOMM*%
%LPD*%
G01*
G04 APERTURE LIST*
G04 Aperture macros list*
%AMRoundRect*
0 Rectangle with rounded corners*
0 $1 Rounding radius*
0 $2 $3 $4 $5 $6 $7 $8 $9 X,Y pos of 4 corners*
0 Add a 4 corners polygon primitive as box body*
4,1,4,$2,$3,$4,$5,$6,$7,$8,$9,$2,$3,0*
0 Add four circle primitives for the rounded corners*
1,1,$1+$1,$2,$3*
1,1,$1+$1,$4,$5*
1,1,$1+$1,$6,$7*
1,1,$1+$1,$8,$9*
0 Add four rect primitives between the rounded corners*
20,1,$1+$1,$2,$3,$4,$5,0*
20,1,$1+$1,$4,$5,$6,$7,0*
20,1,$1+$1,$6,$7,$8,$9,0*
20,1,$1+$1,$8,$9,$2,$3,0*%
%AMFreePoly0*
4,1,37,0.603843,0.796157,0.639018,0.796157,0.711114,0.766294,0.766294,0.711114,0.796157,0.639018,0.796157,0.603843,0.800000,0.600000,0.800000,-0.600000,0.796157,-0.603843,0.796157,-0.639018,0.766294,-0.711114,0.711114,-0.766294,0.639018,-0.796157,0.603843,-0.796157,0.600000,-0.800000,0.000000,-0.800000,0.000000,-0.796148,-0.078414,-0.796148,-0.232228,-0.765552,-0.377117,-0.705537,
-0.507515,-0.618408,-0.618408,-0.507515,-0.705537,-0.377117,-0.765552,-0.232228,-0.796148,-0.078414,-0.796148,0.078414,-0.765552,0.232228,-0.705537,0.377117,-0.618408,0.507515,-0.507515,0.618408,-0.377117,0.705537,-0.232228,0.765552,-0.078414,0.796148,0.000000,0.796148,0.000000,0.800000,0.600000,0.800000,0.603843,0.796157,0.603843,0.796157,$1*%
%AMFreePoly1*
4,1,37,0.000000,0.796148,0.078414,0.796148,0.232228,0.765552,0.377117,0.705537,0.507515,0.618408,0.618408,0.507515,0.705537,0.377117,0.765552,0.232228,0.796148,0.078414,0.796148,-0.078414,0.765552,-0.232228,0.705537,-0.377117,0.618408,-0.507515,0.507515,-0.618408,0.377117,-0.705537,0.232228,-0.765552,0.078414,-0.796148,0.000000,-0.796148,0.000000,-0.800000,-0.600000,-0.800000,
-0.603843,-0.796157,-0.639018,-0.796157,-0.711114,-0.766294,-0.766294,-0.711114,-0.796157,-0.639018,-0.796157,-0.603843,-0.800000,-0.600000,-0.800000,0.600000,-0.796157,0.603843,-0.796157,0.639018,-0.766294,0.711114,-0.711114,0.766294,-0.639018,0.796157,-0.603843,0.796157,-0.600000,0.800000,0.000000,0.800000,0.000000,0.796148,0.000000,0.796148,$1*%
G04 Aperture macros list end*
%TA.AperFunction,ComponentPad*%
%ADD10C,3.500000*%
%TD*%
%TA.AperFunction,ComponentPad*%
%ADD11RoundRect,0.170000X-0.680000X-0.680000X0.680000X-0.680000X0.680000X0.680000X-0.680000X0.680000X0*%
%TD*%
%TA.AperFunction,ComponentPad*%
%ADD12C,1.700000*%
%TD*%
%TA.AperFunction,ComponentPad*%
%ADD13RoundRect,0.200000X0.600000X0.600000X-0.600000X0.600000X-0.600000X-0.600000X0.600000X-0.600000X0*%
%TD*%
%TA.AperFunction,ComponentPad*%
%ADD14C,1.600000*%
%TD*%
%TA.AperFunction,ComponentPad*%
%ADD15FreePoly0,180.000000*%
%TD*%
%TA.AperFunction,ComponentPad*%
%ADD16FreePoly1,180.000000*%
%TD*%
%TA.AperFunction,SMDPad,CuDef*%
%ADD17RoundRect,0.250003X3.499997X2.999997X-3.499997X2.999997X-3.499997X-2.999997X3.499997X-2.999997X0*%
%TD*%
%TA.AperFunction,ComponentPad*%
%ADD18O,2.000000X5.000000*%
%TD*%
%TA.AperFunction,ComponentPad*%
%ADD19O,5.000000X2.000000*%
%TD*%
%TA.AperFunction,ComponentPad*%
%ADD20C,1.400000*%
%TD*%
%TA.AperFunction,ViaPad*%
%ADD21C,0.600000*%
%TD*%
%TA.AperFunction,Conductor*%
%ADD22C,0.200000*%
%TD*%
G04 APERTURE END LIST*
D10*
%TO.P,U3,*%
%TO.N,*%
X84497058Y-36780880D03*
X84497058Y-65280880D03*
X114997058Y-36780880D03*
X114997058Y-65280880D03*
D11*
%TO.P,U3,1,GND_1*%
%TO.N,/COM GND*%
X95937058Y-35080880D03*
D12*
%TO.P,U3,2,VCC_2*%
%TO.N,/OLED VCC*%
X98477058Y-35080880D03*
%TO.P,U3,3,SCL_3*%
%TO.N,/SCL*%
X101017058Y-35080880D03*
%TO.P,U3,4,SDA_4*%
%TO.N,/SDA*%
X103557058Y-35080880D03*
%TD*%
D13*
%TO.P,A1,1,GPIO0_1*%
%TO.N,unconnected-(A1-GPIO0-Pad1)_1*%
X156780000Y-88580000D03*
D14*
%TO.P,A1,2,GPIO1_2*%
%TO.N,unconnected-(A1-GPIO1-Pad2)*%
X156780000Y-86040000D03*
D15*
%TO.P,A1,3,GND_3*%
%TO.N,/COM GND*%
X156780000Y-83500000D03*
D14*
%TO.P,A1,4,GPIO2_4*%
%TO.N,unconnected-(A1-GPIO2-Pad4)_1*%
X156780000Y-80960000D03*
%TO.P,A1,5,GPIO3_5*%
%TO.N,unconnected-(A1-GPIO3-Pad5)*%
X156780000Y-78420000D03*
%TO.P,A1,6,GPIO4_6*%
%TO.N,unconnected-(A1-GPIO4-Pad6)_1*%
X156780000Y-75880000D03*
%TO.P,A1,7,GPIO5_7*%
%TO.N,unconnected-(A1-GPIO5-Pad7)*%
X156780000Y-73340000D03*
D15*
%TO.P,A1,8,GND_8*%
%TO.N,/COM GND*%
X156780000Y-70800000D03*
D14*
%TO.P,A1,9,GPIO6_9*%
%TO.N,unconnected-(A1-GPIO6-Pad9)_1*%
X156780000Y-68260000D03*
%TO.P,A1,10,GPIO7_10*%
%TO.N,unconnected-(A1-GPIO7-Pad10)*%
X156780000Y-65720000D03*
%TO.P,A1,11,GPIO8_11*%
%TO.N,unconnected-(A1-GPIO8-Pad11)*%
X156780000Y-63180000D03*
%TO.P,A1,12,GPIO9_12*%
%TO.N,unconnected-(A1-GPIO9-Pad12)_1*%
X156780000Y-60640000D03*
D15*
%TO.P,A1,13,GND_13*%
%TO.N,/COM GND*%
X156780000Y-58100000D03*
D14*
%TO.P,A1,14,GPIO10_14*%
%TO.N,unconnected-(A1-GPIO10-Pad14)*%
X156780000Y-55560000D03*
%TO.P,A1,15,GPIO11_15*%
%TO.N,unconnected-(A1-GPIO11-Pad15)_1*%
X156780000Y-53020000D03*
%TO.P,A1,16,GPIO12_16*%
%TO.N,unconnected-(A1-GPIO12-Pad16)*%
X156780000Y-50480000D03*
%TO.P,A1,17,GPIO13_17*%
%TO.N,unconnected-(A1-GPIO13-Pad17)*%
X156780000Y-47940000D03*
D15*
%TO.P,A1,18,GND_18*%
%TO.N,/COM GND*%
X156780000Y-45400000D03*
D14*
%TO.P,A1,19,GPIO14_19*%
%TO.N,unconnected-(A1-GPIO14-Pad19)_1*%
X156780000Y-42860000D03*
%TO.P,A1,20,GPIO15_20*%
%TO.N,unconnected-(A1-GPIO15-Pad20)*%
X156780000Y-40320000D03*
%TO.P,A1,21,GPIO16_21*%
%TO.N,unconnected-(A1-GPIO16-Pad21)_1*%
X139000000Y-40320000D03*
%TO.P,A1,22,GPIO17_22*%
%TO.N,unconnected-(A1-GPIO17-Pad22)_1*%
X139000000Y-42860000D03*
D16*
%TO.P,A1,23,GND_23*%
%TO.N,/COM GND*%
X139000000Y-45400000D03*
D14*
%TO.P,A1,24,GPIO18_24*%
%TO.N,Net-(A1-GPIO18)*%
X139000000Y-47940000D03*
%TO.P,A1,25,GPIO19_25*%
%TO.N,Net-(A1-GPIO19)*%
X139000000Y-50480000D03*
%TO.P,A1,26,GPIO20_26*%
%TO.N,/SDA*%
X139000000Y-53020000D03*
%TO.P,A1,27,GPIO21_27*%
%TO.N,/SCL*%
X139000000Y-55560000D03*
D16*
%TO.P,A1,28,GND_28*%
%TO.N,/COM GND*%
X139000000Y-58100000D03*
D14*
%TO.P,A1,29,GPIO22_29*%
%TO.N,Net-(A1-GPIO22)*%
X139000000Y-60640000D03*
%TO.P,A1,30,RUN_30*%
%TO.N,unconnected-(A1-RUN-Pad30)_1*%
X139000000Y-63180000D03*
%TO.P,A1,31,GPIO26_ADC0_31*%
%TO.N,unconnected-(A1-GPIO26_ADC0-Pad31)_1*%
X139000000Y-65720000D03*
%TO.P,A1,32,GPIO27_ADC1_32*%
%TO.N,unconnected-(A1-GPIO27_ADC1-Pad32)*%
X139000000Y-68260000D03*
D16*
%TO.P,A1,33,AGND_33*%
%TO.N,unconnected-(A1-AGND-Pad33)_1*%
X139000000Y-70800000D03*
D14*
%TO.P,A1,34,GPIO28_ADC2_34*%
%TO.N,unconnected-(A1-GPIO28_ADC2-Pad34)*%
X139000000Y-73340000D03*
%TO.P,A1,35,ADC_VREF_35*%
%TO.N,unconnected-(A1-ADC_VREF-Pad35)_1*%
X139000000Y-75880000D03*
%TO.P,A1,36,3V3_36*%
%TO.N,/OLED VCC*%
X139000000Y-78420000D03*
%TO.P,A1,37,3V3_EN_37*%
%TO.N,unconnected-(A1-3V3_EN-Pad37)_1*%
X139000000Y-80960000D03*
D16*
%TO.P,A1,38,GND_38*%
%TO.N,/COM GND*%
X139000000Y-83500000D03*
D14*
%TO.P,A1,39,VSYS_39*%
%TO.N,/Pico VIN*%
X139000000Y-86040000D03*
%TO.P,A1,40,VBUS_40*%
%TO.N,unconnected-(A1-VBUS-Pad40)*%
X139000000Y-88580000D03*
%TD*%
D17*
%TO.P,BT1,1,+_1*%
%TO.N,Net-(BT1-+)*%
X51247093Y-79588657D03*
%TO.P,BT1,2,-_2*%
%TO.N,Net-(BT1--)*%
X130627093Y-79588657D03*
%TD*%
D18*
%TO.P,SW4,1,A_1*%
%TO.N,Net-(SW4-A)*%
X55186577Y-42013423D03*
%TO.P,SW4,2,B_2*%
%TO.N,/Pico VIN*%
X60186577Y-42013423D03*
%TD*%
D19*
%TO.P,SW3,1,1_1*%
%TO.N,/COM GND*%
X127600000Y-57100000D03*
%TO.P,SW3,2,2_2*%
%TO.N,Net-(A1-GPIO22)*%
X127600000Y-61700000D03*
%TD*%
D20*
%TO.P,TP4056_Module1,1,IN-_1*%
%TO.N,GND*%
X47791422Y-64431200D03*
%TO.P,TP4056_Module1,2,IN+_2*%
%TO.N,+5V*%
X47791422Y-50431200D03*
%TO.P,TP4056_Module1,3,OUT-_3*%
%TO.N,/COM GND*%
X70791422Y-64431200D03*
%TO.P,TP4056_Module1,4,B-_4*%
%TO.N,Net-(BT1--)*%
X70791422Y-61891200D03*
%TO.P,TP4056_Module1,5,B+_5*%
%TO.N,Net-(BT1-+)*%
X70791422Y-52971200D03*
%TO.P,TP4056_Module1,6,OUT+_6*%
%TO.N,Net-(SW4-A)*%
X70791422Y-50431200D03*
%TD*%
D19*
%TO.P,SW2,1,1_1*%
%TO.N,/COM GND*%
X127600000Y-39100000D03*
%TO.P,SW2,2,2_2*%
%TO.N,Net-(A1-GPIO19)*%
X127600000Y-43700000D03*
%TD*%
%TO.P,SW1,1,1_1*%
%TO.N,Net-(A1-GPIO18)*%
X71600000Y-43700000D03*
%TO.P,SW1,2,2_2*%
%TO.N,/COM GND*%
X71600000Y-39100000D03*
%TD*%
D21*
%TO.N,Net-(A1-GPIO18)*%
X96000000Y-43000000D03*
%TO.N,/OLED VCC*%
X129000000Y-74000000D03*
X98500000Y-46500000D03*
%TD*%
%TO.N,Net-(BT1--)*%
D22*
X88488879Y-79588657D02*
X130627093Y-79588657D01*
X70791422Y-61891200D02*
X88488879Y-79588657D01*
%TO.N,Net-(BT1-+)*%
X53028800Y-52971200D02*
X51247093Y-54752907D01*
X70791422Y-52971200D02*
X53028800Y-52971200D01*
X51247093Y-54752907D02*
X51247093Y-79588657D01*
%TO.N,/OLED VCC*%
X101000000Y-73500000D02*
X128500000Y-73500000D01*
X98500000Y-71000000D02*
X101000000Y-73500000D01*
X98500000Y-46500000D02*
X98500000Y-71000000D01*
X128500000Y-73500000D02*
X129000000Y-74000000D01*
%TO.N,Net-(A1-GPIO18)*%
X118560000Y-47940000D02*
X139000000Y-47940000D01*
X118500000Y-48000000D02*
X118560000Y-47940000D01*
X96000000Y-43000000D02*
X113500000Y-43000000D01*
X113500000Y-43000000D02*
X118500000Y-48000000D01*
%TD*%
%TA.AperFunction,Conductor*%
%TO.N,/COM GND*%
G36*
X157002702Y-30500617D02*
G01*
X157386773Y-30517386D01*
X157397505Y-30518326D01*
X157775963Y-30568150D01*
X157786601Y-30570025D01*
X158159279Y-30652647D01*
X158169720Y-30655445D01*
X158533765Y-30770227D01*
X158543911Y-30773920D01*
X158896578Y-30920000D01*
X158906369Y-30924566D01*
X159244942Y-31100816D01*
X159254310Y-31106224D01*
X159576244Y-31311318D01*
X159585105Y-31317523D01*
X159887930Y-31549889D01*
X159896217Y-31556843D01*
X160177635Y-31814715D01*
X160185284Y-31822364D01*
X160443156Y-32103782D01*
X160450110Y-32112069D01*
X160682476Y-32414894D01*
X160688681Y-32423755D01*
X160893775Y-32745689D01*
X160899183Y-32755057D01*
X161075430Y-33093623D01*
X161080002Y-33103427D01*
X161226075Y-33456078D01*
X161229775Y-33466244D01*
X161344553Y-33830276D01*
X161347353Y-33840724D01*
X161429972Y-34213390D01*
X161431850Y-34224044D01*
X161481671Y-34602472D01*
X161482614Y-34613248D01*
X161499382Y-34997297D01*
X161499500Y-35002706D01*
X161499500Y-86997293D01*
X161499382Y-87002702D01*
X161482614Y-87386751D01*
X161481671Y-87397527D01*
X161431850Y-87775955D01*
X161429972Y-87786609D01*
X161347353Y-88159275D01*
X161344553Y-88169723D01*
X161229775Y-88533755D01*
X161226075Y-88543921D01*
X161080002Y-88896572D01*
X161075430Y-88906376D01*
X160899183Y-89244942D01*
X160893775Y-89254310D01*
X160688681Y-89576244D01*
X160682476Y-89585105D01*
X160450110Y-89887930D01*
X160443156Y-89896217D01*
X160185284Y-90177635D01*
X160177635Y-90185284D01*
X159896217Y-90443156D01*
X159887930Y-90450110D01*
X159585105Y-90682476D01*
X159576244Y-90688681D01*
X159254310Y-90893775D01*
X159244942Y-90899183D01*
X158906376Y-91075430D01*
X158896572Y-91080002D01*
X158543921Y-91226075D01*
X158533755Y-91229775D01*
X158169723Y-91344553D01*
X158159275Y-91347353D01*
X157786609Y-91429972D01*
X157775955Y-91431850D01*
X157397527Y-91481671D01*
X157386751Y-91482614D01*
X157002703Y-91499382D01*
X156997294Y-91499500D01*
X50002706Y-91499500D01*
X49997297Y-91499382D01*
X49613248Y-91482614D01*
X49602474Y-91481671D01*
X49540007Y-91473447D01*
X49224044Y-91431850D01*
X49213390Y-91429972D01*
X48840724Y-91347353D01*
X48830276Y-91344553D01*
X48466244Y-91229775D01*
X48456078Y-91226075D01*
X48103427Y-91080002D01*
X48093623Y-91075430D01*
X47755057Y-90899183D01*
X47745689Y-90893775D01*
X47423755Y-90688681D01*
X47414894Y-90682476D01*
X47112069Y-90450110D01*
X47103782Y-90443156D01*
X46822364Y-90185284D01*
X46814715Y-90177635D01*
X46556843Y-89896217D01*
X46549889Y-89887930D01*
X46317523Y-89585105D01*
X46311318Y-89576244D01*
X46303616Y-89564155D01*
X46106223Y-89254309D01*
X46100816Y-89244942D01*
X45924569Y-88906376D01*
X45919997Y-88896572D01*
X45918930Y-88893995D01*
X45773920Y-88543911D01*
X45770224Y-88533755D01*
X45769146Y-88530337D01*
X45655445Y-88169720D01*
X45652646Y-88159275D01*
X45649156Y-88143533D01*
X45570025Y-87786601D01*
X45568149Y-87775955D01*
X45563703Y-87742184D01*
X45528513Y-87474888D01*
X53361593Y-87474888D01*
X53361593Y-87702425D01*
X53397186Y-87927147D01*
X53467493Y-88143533D01*
X53467494Y-88143536D01*
X53569490Y-88343713D01*
X53570790Y-88346264D01*
X53704527Y-88530337D01*
X53865413Y-88691223D01*
X54049486Y-88824960D01*
X54148918Y-88875623D01*
X54252213Y-88928255D01*
X54252216Y-88928256D01*
X54360409Y-88963409D01*
X54468604Y-88998564D01*
X54572684Y-89015048D01*
X54693325Y-89034157D01*
X54693330Y-89034157D01*
X54920861Y-89034157D01*
X55029803Y-89016901D01*
X55145582Y-88998564D01*
X55361972Y-88928255D01*
X55564700Y-88824960D01*
X55748773Y-88691223D01*
X55909659Y-88530337D01*
X56043396Y-88346264D01*
X56146691Y-88143536D01*
X56217000Y-87927146D01*
X56240946Y-87775955D01*
X56252593Y-87702425D01*
X56252593Y-87474889D01*
X56252533Y-87474511D01*
X56252533Y-87474509D01*
X56250105Y-87459182D01*
X116581593Y-87459182D01*
X116581593Y-87718131D01*
X116581594Y-87718148D01*
X116615392Y-87974874D01*
X116615393Y-87974879D01*
X116615394Y-87974885D01*
X116615395Y-87974887D01*
X116682417Y-88225021D01*
X116781516Y-88464266D01*
X116781520Y-88464276D01*
X116910999Y-88688540D01*
X117068644Y-88893988D01*
X117068650Y-88893995D01*
X117251754Y-89077099D01*
X117251761Y-89077105D01*
X117457209Y-89234750D01*
X117681473Y-89364229D01*
X117681474Y-89364229D01*
X117681477Y-89364231D01*
X117920727Y-89463332D01*
X118170865Y-89530356D01*
X118427612Y-89564157D01*
X118427619Y-89564157D01*
X118686567Y-89564157D01*
X118686574Y-89564157D01*
X118943321Y-89530356D01*
X119193459Y-89463332D01*
X119432709Y-89364231D01*
X119656977Y-89234750D01*
X119862426Y-89077104D01*
X120045540Y-88893990D01*
X120203186Y-88688541D01*
X120332667Y-88464273D01*
X120431768Y-88225023D01*
X120498792Y-87974885D01*
X120532593Y-87718138D01*
X120532593Y-87459176D01*
X120498792Y-87202429D01*
X120431768Y-86952291D01*
X120332667Y-86713041D01*
X120203186Y-86488773D01*
X120201128Y-86486091D01*
X120045541Y-86283325D01*
X120045535Y-86283318D01*
X119862431Y-86100214D01*
X119862424Y-86100208D01*
X119772428Y-86031152D01*
X119656976Y-85942563D01*
X119432712Y-85813084D01*
X119432702Y-85813080D01*
X119193457Y-85713981D01*
X119068390Y-85680470D01*
X118943321Y-85646958D01*
X118943315Y-85646957D01*
X118943310Y-85646956D01*
X118686584Y-85613158D01*
X118686579Y-85613157D01*
X118686574Y-85613157D01*
X118427612Y-85613157D01*
X118427606Y-85613157D01*
X118427601Y-85613158D01*
X118170875Y-85646956D01*
X118170868Y-85646957D01*
X118170865Y-85646958D01*
X118118001Y-85661122D01*
X117920728Y-85713981D01*
X117681483Y-85813080D01*
X117681473Y-85813084D01*
X117457209Y-85942563D01*
X117251761Y-86100208D01*
X117251754Y-86100214D01*
X117068650Y-86283318D01*
X117068644Y-86283325D01*
X116910999Y-86488773D01*
X116781520Y-86713037D01*
X116781516Y-86713047D01*
X116682417Y-86952292D01*
X116615395Y-87202426D01*
X116615392Y-87202439D01*
X116581594Y-87459165D01*
X116581593Y-87459182D01*
X56250105Y-87459182D01*
X56217000Y-87250166D01*
X56146692Y-87033780D01*
X56146691Y-87033777D01*
X56094059Y-86930482D01*
X56043396Y-86831050D01*
X55909659Y-86646977D01*
X55748773Y-86486091D01*
X55564700Y-86352354D01*
X55361972Y-86249058D01*
X55361969Y-86249057D01*
X55145583Y-86178750D01*
X54920861Y-86143157D01*
X54920856Y-86143157D01*
X54693330Y-86143157D01*
X54693325Y-86143157D01*
X54468602Y-86178750D01*
X54252216Y-86249057D01*
X54252213Y-86249058D01*
X54049485Y-86352354D01*
X53948979Y-86425377D01*
X53865413Y-86486091D01*
X53865411Y-86486093D01*
X53865410Y-86486093D01*
X53704529Y-86646974D01*
X53704529Y-86646975D01*
X53704527Y-86646977D01*
X53656532Y-86713037D01*
X53570790Y-86831049D01*
X53467494Y-87033777D01*
X53467493Y-87033780D01*
X53397186Y-87250166D01*
X53361593Y-87474888D01*
X45528513Y-87474888D01*
X45518326Y-87397505D01*
X45517386Y-87386773D01*
X45500618Y-87002702D01*
X45500500Y-86997293D01*
X45500500Y-76538643D01*
X46996593Y-76538643D01*
X46996593Y-82638670D01*
X47007093Y-82741450D01*
X47046451Y-82860224D01*
X47062279Y-82907989D01*
X47154382Y-83057311D01*
X47278439Y-83181368D01*
X47427761Y-83273471D01*
X47594298Y-83328656D01*
X47697087Y-83339157D01*
X47697092Y-83339157D01*
X54797094Y-83339157D01*
X54797099Y-83339157D01*
X54899888Y-83328656D01*
X55066425Y-83273471D01*
X55215747Y-83181368D01*
X55339804Y-83057311D01*
X55431907Y-82907989D01*
X55487092Y-82741452D01*
X55497593Y-82638663D01*
X55497593Y-76538651D01*
X55487092Y-76435862D01*
X55431907Y-76269325D01*
X55339804Y-76120003D01*
X55215747Y-75995946D01*
X55066425Y-75903843D01*
X54899888Y-75848658D01*
X54899886Y-75848657D01*
X54797106Y-75838157D01*
X54797099Y-75838157D01*
X51971593Y-75838157D01*
X51904554Y-75818472D01*
X51858799Y-75765668D01*
X51847593Y-75714157D01*
X51847593Y-71459182D01*
X61341593Y-71459182D01*
X61341593Y-71718131D01*
X61341594Y-71718148D01*
X61375392Y-71974874D01*
X61375393Y-71974879D01*
X61375394Y-71974885D01*
X61393682Y-72043136D01*
X61442417Y-72225021D01*
X61541516Y-72464266D01*
X61541520Y-72464276D01*
X61670999Y-72688540D01*
X61828644Y-72893988D01*
X61828650Y-72893995D01*
X62011754Y-73077099D01*
X62011761Y-73077105D01*
X62217209Y-73234750D01*
X62441473Y-73364229D01*
X62441474Y-73364229D01*
X62441477Y-73364231D01*
X62680727Y-73463332D01*
X62930865Y-73530356D01*
X63187612Y-73564157D01*
X63187619Y-73564157D01*
X63446567Y-73564157D01*
X63446574Y-73564157D01*
X63703321Y-73530356D01*
X63953459Y-73463332D01*
X64192709Y-73364231D01*
X64416977Y-73234750D01*
X64622426Y-73077104D01*
X64805540Y-72893990D01*
X64963186Y-72688541D01*
X65092667Y-72464273D01*
X65191768Y-72225023D01*
X65258792Y-71974885D01*
X65292593Y-71718138D01*
X65292593Y-71459176D01*
X65258792Y-71202429D01*
X65191768Y-70952291D01*
X65092667Y-70713041D01*
X65040450Y-70622599D01*
X64963186Y-70488773D01*
X64805541Y-70283325D01*
X64805535Y-70283318D01*
X64622431Y-70100214D01*
X64622424Y-70100208D01*
X64416976Y-69942563D01*
X64192712Y-69813084D01*
X64192702Y-69813080D01*
X63953457Y-69713981D01*
X63800582Y-69673019D01*
X63703321Y-69646958D01*
X63703315Y-69646957D01*
X63703310Y-69646956D01*
X63446584Y-69613158D01*
X63446579Y-69613157D01*
X63446574Y-69613157D01*
X63187612Y-69613157D01*
X63187606Y-69613157D01*
X63187601Y-69613158D01*
X62930875Y-69646956D01*
X62930868Y-69646957D01*
X62930865Y-69646958D01*
X62878001Y-69661122D01*
X62680728Y-69713981D01*
X62441483Y-69813080D01*
X62441473Y-69813084D01*
X62217209Y-69942563D01*
X62011761Y-70100208D01*
X62011754Y-70100214D01*
X61828650Y-70283318D01*
X61828644Y-70283325D01*
X61670999Y-70488773D01*
X61541520Y-70713037D01*
X61541516Y-70713047D01*
X61442417Y-70952292D01*
X61408452Y-71079054D01*
X61376019Y-71200099D01*
X61375395Y-71202426D01*
X61375392Y-71202439D01*
X61341594Y-71459165D01*
X61341593Y-71459182D01*
X51847593Y-71459182D01*
X51847593Y-61796713D01*
X69590922Y-61796713D01*
X69590922Y-61985686D01*
X69620481Y-62172318D01*
X69678876Y-62352036D01*
X69753446Y-62498386D01*
X69764662Y-62520399D01*
X69875732Y-62673273D01*
X70009349Y-62806890D01*
X70162223Y-62917960D01*
X70330590Y-63003747D01*
X70453034Y-63043531D01*
X70510709Y-63082969D01*
X70537907Y-63147327D01*
X70525992Y-63216174D01*
X70478748Y-63267649D01*
X70453034Y-63279393D01*
X70330783Y-63319115D01*
X70162482Y-63404869D01*
X70137092Y-63423316D01*
X70137091Y-63423316D01*
X70662012Y-63948237D01*
X70598429Y-63965275D01*
X70484415Y-64031101D01*
X70391323Y-64124193D01*
X70325497Y-64238207D01*
X70308459Y-64301790D01*
X69783538Y-63776869D01*
X69783538Y-63776870D01*
X69765091Y-63802260D01*
X69679336Y-63970562D01*
X69620970Y-64150197D01*
X69591422Y-64336752D01*
X69591422Y-64525647D01*
X69620970Y-64712202D01*
X69679336Y-64891837D01*
X69765088Y-65060133D01*
X69783538Y-65085528D01*
X70308459Y-64560608D01*
X70325497Y-64624193D01*
X70391323Y-64738207D01*
X70484415Y-64831299D01*
X70598429Y-64897125D01*
X70662012Y-64914162D01*
X70137091Y-65439082D01*
X70137092Y-65439083D01*
X70162481Y-65457529D01*
X70330784Y-65543285D01*
X70510419Y-65601651D01*
X70696975Y-65631200D01*
X70885869Y-65631200D01*
X71072424Y-65601651D01*
X71252059Y-65543285D01*
X71420359Y-65457531D01*
X71445750Y-65439083D01*
X71445750Y-65439082D01*
X70920831Y-64914162D01*
X70984415Y-64897125D01*
X71098429Y-64831299D01*
X71191521Y-64738207D01*
X71257347Y-64624193D01*
X71274384Y-64560608D01*
X71799304Y-65085528D01*
X71799305Y-65085528D01*
X71817753Y-65060137D01*
X71903507Y-64891837D01*
X71961873Y-64712202D01*
X71991422Y-64525647D01*
X71991422Y-64336753D01*
X71976538Y-64242785D01*
X71985492Y-64173491D01*
X72030488Y-64120039D01*
X72097239Y-64099399D01*
X72164553Y-64118123D01*
X72186691Y-64135704D01*
X88120163Y-80069177D01*
X88120165Y-80069178D01*
X88120169Y-80069181D01*
X88257088Y-80148230D01*
X88257095Y-80148234D01*
X88409822Y-80189158D01*
X88409824Y-80189158D01*
X88575533Y-80189158D01*
X88575549Y-80189157D01*
X126252593Y-80189157D01*
X126319632Y-80208842D01*
X126365387Y-80261646D01*
X126376593Y-80313157D01*
X126376593Y-82638670D01*
X126387093Y-82741450D01*
X126426451Y-82860224D01*
X126442279Y-82907989D01*
X126534382Y-83057311D01*
X126658439Y-83181368D01*
X126807761Y-83273471D01*
X126974298Y-83328656D01*
X127077087Y-83339157D01*
X127077092Y-83339157D01*
X134177094Y-83339157D01*
X134177099Y-83339157D01*
X134279888Y-83328656D01*
X134446425Y-83273471D01*
X134595747Y-83181368D01*
X134719804Y-83057311D01*
X134811907Y-82907989D01*
X134867092Y-82741452D01*
X134877593Y-82638663D01*
X134877593Y-76538651D01*
X134867092Y-76435862D01*
X134811907Y-76269325D01*
X134719804Y-76120003D01*
X134595747Y-75995946D01*
X134446425Y-75903843D01*
X134279888Y-75848658D01*
X134279886Y-75848657D01*
X134177106Y-75838157D01*
X134177099Y-75838157D01*
X127077087Y-75838157D01*
X127077079Y-75838157D01*
X126974299Y-75848657D01*
X126974298Y-75848658D01*
X126891765Y-75876006D01*
X126807763Y-75903842D01*
X126807758Y-75903844D01*
X126658437Y-75995947D01*
X126534383Y-76120001D01*
X126442280Y-76269322D01*
X126442279Y-76269325D01*
X126387094Y-76435862D01*
X126387094Y-76435863D01*
X126387093Y-76435863D01*
X126376593Y-76538643D01*
X126376593Y-78864157D01*
X126356908Y-78931196D01*
X126304104Y-78976951D01*
X126252593Y-78988157D01*
X88788977Y-78988157D01*
X88721938Y-78968472D01*
X88701296Y-78951838D01*
X81852062Y-72102604D01*
X74882823Y-65133366D01*
X82246558Y-65133366D01*
X82246558Y-65428393D01*
X82269369Y-65601651D01*
X82285065Y-65720873D01*
X82285066Y-65720875D01*
X82361419Y-66005831D01*
X82361422Y-66005841D01*
X82474312Y-66278380D01*
X82474316Y-66278390D01*
X82621819Y-66533873D01*
X82801410Y-66767920D01*
X82801416Y-66767927D01*
X83010010Y-66976521D01*
X83010017Y-66976527D01*
X83244064Y-67156118D01*
X83499547Y-67303621D01*
X83499548Y-67303621D01*
X83499551Y-67303623D01*
X83710354Y-67390940D01*
X83763093Y-67412786D01*
X83772106Y-67416519D01*
X84057065Y-67492873D01*
X84349552Y-67531380D01*
X84349559Y-67531380D01*
X84644557Y-67531380D01*
X84644564Y-67531380D01*
X84937051Y-67492873D01*
X85222010Y-67416519D01*
X85494565Y-67303623D01*
X85750052Y-67156118D01*
X85984100Y-66976526D01*
X86192704Y-66767922D01*
X86372296Y-66533874D01*
X86519801Y-66278387D01*
X86632697Y-66005832D01*
X86709051Y-65720873D01*
X86747558Y-65428386D01*
X86747558Y-65133374D01*
X86709051Y-64840887D01*
X86632697Y-64555928D01*
X86519801Y-64283373D01*
X86493724Y-64238207D01*
X86372296Y-64027886D01*
X86192705Y-63793839D01*
X86192699Y-63793832D01*
X85984105Y-63585238D01*
X85984098Y-63585232D01*
X85750051Y-63405641D01*
X85494568Y-63258138D01*
X85494558Y-63258134D01*
X85222019Y-63145244D01*
X85222012Y-63145242D01*
X85222010Y-63145241D01*
X84937051Y-63068887D01*
X84885803Y-63062140D01*
X84644571Y-63030380D01*
X84644564Y-63030380D01*
X84349552Y-63030380D01*
X84349544Y-63030380D01*
X84071143Y-63067033D01*
X84057065Y-63068887D01*
X83772106Y-63145241D01*
X83772096Y-63145244D01*
X83499557Y-63258134D01*
X83499547Y-63258138D01*
X83244064Y-63405641D01*
X83010017Y-63585232D01*
X83010010Y-63585238D01*
X82801416Y-63793832D01*
X82801410Y-63793839D01*
X82621819Y-64027886D01*
X82474316Y-64283369D01*
X82474312Y-64283379D01*
X82361422Y-64555918D01*
X82361419Y-64555928D01*
X82285066Y-64840884D01*
X82285064Y-64840895D01*
X82246558Y-65133366D01*
X74882823Y-65133366D01*
X72001487Y-62252030D01*
X71968003Y-62190708D01*
X71966696Y-62144952D01*
X71991922Y-61985686D01*
X71991922Y-61796713D01*
X71962362Y-61610081D01*
X71903967Y-61430363D01*
X71818181Y-61262000D01*
X71707112Y-61109127D01*
X71573495Y-60975510D01*
X71420621Y-60864440D01*
X71252258Y-60778654D01*
X71072540Y-60720259D01*
X70885908Y-60690700D01*
X70885903Y-60690700D01*
X70696941Y-60690700D01*
X70696936Y-60690700D01*
X70510303Y-60720259D01*
X70330585Y-60778654D01*
X70162222Y-60864440D01*
X70094607Y-60913566D01*
X70009349Y-60975510D01*
X70009347Y-60975512D01*
X70009346Y-60975512D01*
X69875734Y-61109124D01*
X69875734Y-61109125D01*
X69875732Y-61109127D01*
X69853869Y-61139219D01*
X69764662Y-61262000D01*
X69678876Y-61430363D01*
X69620481Y-61610081D01*
X69590922Y-61796713D01*
X51847593Y-61796713D01*
X51847593Y-55053004D01*
X51867278Y-54985965D01*
X51883912Y-54965323D01*
X53241216Y-53608019D01*
X53302539Y-53574534D01*
X53328897Y-53571700D01*
X69680630Y-53571700D01*
X69747669Y-53591385D01*
X69780946Y-53622812D01*
X69875732Y-53753273D01*
X70009349Y-53886890D01*
X70162223Y-53997960D01*
X70241769Y-54038490D01*
X70330585Y-54083745D01*
X70330587Y-54083745D01*
X70330590Y-54083747D01*
X70426919Y-54115046D01*
X70510303Y-54142140D01*
X70696936Y-54171700D01*
X70696941Y-54171700D01*
X70885908Y-54171700D01*
X71072540Y-54142140D01*
X71102873Y-54132284D01*
X71252254Y-54083747D01*
X71420621Y-53997960D01*
X71573495Y-53886890D01*
X71707112Y-53753273D01*
X71818182Y-53600399D01*
X71903969Y-53432032D01*
X71962362Y-53252318D01*
X71991922Y-53065686D01*
X71991922Y-52876713D01*
X71962362Y-52690081D01*
X71907352Y-52520781D01*
X71903969Y-52510368D01*
X71903967Y-52510365D01*
X71903967Y-52510363D01*
X71832805Y-52370700D01*
X71818182Y-52342001D01*
X71707112Y-52189127D01*
X71573495Y-52055510D01*
X71420621Y-51944440D01*
X71252258Y-51858654D01*
X71137743Y-51821446D01*
X71130617Y-51819130D01*
X71072943Y-51779693D01*
X71045745Y-51715334D01*
X71057660Y-51646488D01*
X71104904Y-51595012D01*
X71130616Y-51583269D01*
X71252254Y-51543747D01*
X71420621Y-51457960D01*
X71573495Y-51346890D01*
X71707112Y-51213273D01*
X71818182Y-51060399D01*
X71903969Y-50892032D01*
X71962362Y-50712318D01*
X71991922Y-50525686D01*
X71991922Y-50336713D01*
X71962362Y-50150081D01*
X71907352Y-49980781D01*
X71903969Y-49970368D01*
X71903967Y-49970365D01*
X71903967Y-49970363D01*
X71818181Y-49802000D01*
X71815558Y-49798390D01*
X71707112Y-49649127D01*
X71573495Y-49515510D01*
X71420621Y-49404440D01*
X71252258Y-49318654D01*
X71072540Y-49260259D01*
X70885908Y-49230700D01*
X70885903Y-49230700D01*
X70696941Y-49230700D01*
X70696936Y-49230700D01*
X70510303Y-49260259D01*
X70330585Y-49318654D01*
X70162222Y-49404440D01*
X70075001Y-49467810D01*
X70009349Y-49515510D01*
X70009347Y-49515512D01*
X70009346Y-49515512D01*
X69875734Y-49649124D01*
X69875734Y-49649125D01*
X69875732Y-49649127D01*
X69828032Y-49714779D01*
X69764662Y-49802000D01*
X69678876Y-49970363D01*
X69620481Y-50150081D01*
X69590922Y-50336713D01*
X69590922Y-50525686D01*
X69620481Y-50712318D01*
X69678876Y-50892036D01*
X69764662Y-51060399D01*
X69875732Y-51213273D01*
X70009349Y-51346890D01*
X70162223Y-51457960D01*
X70241769Y-51498490D01*
X70330585Y-51543745D01*
X70330587Y-51543745D01*
X70330590Y-51543747D01*
X70420156Y-51572849D01*
X70452225Y-51583269D01*
X70509900Y-51622707D01*
X70537098Y-51687066D01*
X70525183Y-51755912D01*
X70477938Y-51807388D01*
X70452225Y-51819131D01*
X70330585Y-51858654D01*
X70162222Y-51944440D01*
X70075001Y-52007810D01*
X70009349Y-52055510D01*
X70009347Y-52055512D01*
X70009346Y-52055512D01*
X69875734Y-52189124D01*
X69875734Y-52189125D01*
X69875732Y-52189127D01*
X69780948Y-52319586D01*
X69725618Y-52362251D01*
X69680630Y-52370700D01*
X53107857Y-52370700D01*
X52949742Y-52370700D01*
X52797015Y-52411623D01*
X52797014Y-52411623D01*
X52797012Y-52411624D01*
X52797009Y-52411625D01*
X52746896Y-52440559D01*
X52746895Y-52440560D01*
X52703489Y-52465620D01*
X52660085Y-52490679D01*
X52660082Y-52490681D01*
X50766572Y-54384191D01*
X50740794Y-54428840D01*
X50729899Y-54447713D01*
X50687516Y-54521122D01*
X50646592Y-54673850D01*
X50646592Y-54673852D01*
X50646592Y-54841953D01*
X50646593Y-54841966D01*
X50646593Y-75714157D01*
X50626908Y-75781196D01*
X50574104Y-75826951D01*
X50522593Y-75838157D01*
X47697079Y-75838157D01*
X47594299Y-75848657D01*
X47594298Y-75848658D01*
X47511765Y-75876006D01*
X47427763Y-75903842D01*
X47427758Y-75903844D01*
X47278437Y-75995947D01*
X47154383Y-76120001D01*
X47062280Y-76269322D01*
X47062279Y-76269325D01*
X47007094Y-76435862D01*
X47007094Y-76435863D01*
X47007093Y-76435863D01*
X46996593Y-76538643D01*
X45500500Y-76538643D01*
X45500500Y-64336713D01*
X46590922Y-64336713D01*
X46590922Y-64525686D01*
X46620481Y-64712318D01*
X46678876Y-64892036D01*
X46753446Y-65038386D01*
X46764662Y-65060399D01*
X46875732Y-65213273D01*
X47009349Y-65346890D01*
X47162223Y-65457960D01*
X47241769Y-65498490D01*
X47330585Y-65543745D01*
X47330587Y-65543745D01*
X47330590Y-65543747D01*
X47426919Y-65575046D01*
X47510303Y-65602140D01*
X47696936Y-65631700D01*
X47696941Y-65631700D01*
X47885908Y-65631700D01*
X48072540Y-65602140D01*
X48074045Y-65601651D01*
X48252254Y-65543747D01*
X48420621Y-65457960D01*
X48573495Y-65346890D01*
X48707112Y-65213273D01*
X48818182Y-65060399D01*
X48903969Y-64892032D01*
X48962362Y-64712318D01*
X48962380Y-64712202D01*
X48991922Y-64525686D01*
X48991922Y-64336713D01*
X48962362Y-64150081D01*
X48903967Y-63970363D01*
X48848554Y-63861610D01*
X48818182Y-63802001D01*
X48707112Y-63649127D01*
X48573495Y-63515510D01*
X48420621Y-63404440D01*
X48252258Y-63318654D01*
X48072540Y-63260259D01*
X47885908Y-63230700D01*
X47885903Y-63230700D01*
X47696941Y-63230700D01*
X47696936Y-63230700D01*
X47510303Y-63260259D01*
X47330585Y-63318654D01*
X47162222Y-63404440D01*
X47075001Y-63467810D01*
X47009349Y-63515510D01*
X47009347Y-63515512D01*
X47009346Y-63515512D01*
X46875734Y-63649124D01*
X46875734Y-63649125D01*
X46875732Y-63649127D01*
X46853869Y-63679219D01*
X46764662Y-63802000D01*
X46678876Y-63970363D01*
X46620481Y-64150081D01*
X46590922Y-64336713D01*
X45500500Y-64336713D01*
X45500500Y-50336713D01*
X46590922Y-50336713D01*
X46590922Y-50525686D01*
X46620481Y-50712318D01*
X46678876Y-50892036D01*
X46764662Y-51060399D01*
X46875732Y-51213273D01*
X47009349Y-51346890D01*
X47162223Y-51457960D01*
X47241769Y-51498490D01*
X47330585Y-51543745D01*
X47330587Y-51543745D01*
X47330590Y-51543747D01*
X47426919Y-51575046D01*
X47510303Y-51602140D01*
X47696936Y-51631700D01*
X47696941Y-51631700D01*
X47885908Y-51631700D01*
X48072540Y-51602140D01*
X48252254Y-51543747D01*
X48420621Y-51457960D01*
X48573495Y-51346890D01*
X48707112Y-51213273D01*
X48818182Y-51060399D01*
X48903969Y-50892032D01*
X48962362Y-50712318D01*
X48991922Y-50525686D01*
X48991922Y-50336713D01*
X48962362Y-50150081D01*
X48907352Y-49980781D01*
X48903969Y-49970368D01*
X48903967Y-49970365D01*
X48903967Y-49970363D01*
X48818181Y-49802000D01*
X48815558Y-49798390D01*
X48707112Y-49649127D01*
X48573495Y-49515510D01*
X48420621Y-49404440D01*
X48252258Y-49318654D01*
X48072540Y-49260259D01*
X47885908Y-49230700D01*
X47885903Y-49230700D01*
X47696941Y-49230700D01*
X47696936Y-49230700D01*
X47510303Y-49260259D01*
X47330585Y-49318654D01*
X47162222Y-49404440D01*
X47075001Y-49467810D01*
X47009349Y-49515510D01*
X47009347Y-49515512D01*
X47009346Y-49515512D01*
X46875734Y-49649124D01*
X46875734Y-49649125D01*
X46875732Y-49649127D01*
X46828032Y-49714779D01*
X46764662Y-49802000D01*
X46678876Y-49970363D01*
X46620481Y-50150081D01*
X46590922Y-50336713D01*
X45500500Y-50336713D01*
X45500500Y-46421153D01*
X97699500Y-46421153D01*
X97699500Y-46578846D01*
X97730261Y-46733489D01*
X97730264Y-46733501D01*
X97790602Y-46879172D01*
X97790609Y-46879185D01*
X97878602Y-47010874D01*
X97899480Y-47077551D01*
X97899500Y-47079765D01*
X97899500Y-70913330D01*
X97899499Y-70913348D01*
X97899499Y-71079054D01*
X97899498Y-71079054D01*
X97940423Y-71231785D01*
X97969358Y-71281900D01*
X97969359Y-71281904D01*
X97969360Y-71281904D01*
X98019479Y-71368714D01*
X98019481Y-71368717D01*
X98138349Y-71487585D01*
X98138355Y-71487590D01*
X100515139Y-73864374D01*
X100515149Y-73864385D01*
X100519479Y-73868715D01*
X100519480Y-73868716D01*
X100631284Y-73980520D01*
X100702455Y-74021610D01*
X100768215Y-74059577D01*
X100920943Y-74100501D01*
X100920946Y-74100501D01*
X101086653Y-74100501D01*
X101086669Y-74100500D01*
X128102044Y-74100500D01*
X128169083Y-74120185D01*
X128214838Y-74172989D01*
X128223661Y-74200309D01*
X128230261Y-74233489D01*
X128230264Y-74233501D01*
X128290602Y-74379172D01*
X128290609Y-74379185D01*
X128378210Y-74510288D01*
X128378213Y-74510292D01*
X128489707Y-74621786D01*
X128489711Y-74621789D01*
X128620814Y-74709390D01*
X128620827Y-74709397D01*
X128761621Y-74767715D01*
X128766503Y-74769737D01*
X128921153Y-74800499D01*
X128921156Y-74800500D01*
X128921158Y-74800500D01*
X129078844Y-74800500D01*
X129078845Y-74800499D01*
X129233497Y-74769737D01*
X129379179Y-74709394D01*
X129510289Y-74621789D01*
X129621789Y-74510289D01*
X129709394Y-74379179D01*
X129769737Y-74233497D01*
X129800500Y-74078842D01*
X129800500Y-73921158D01*
X129800500Y-73921155D01*
X129800499Y-73921153D01*
X129769737Y-73766503D01*
X129769735Y-73766498D01*
X129709397Y-73620827D01*
X129709390Y-73620814D01*
X129621789Y-73489711D01*
X129621786Y-73489707D01*
X129510292Y-73378213D01*
X129510288Y-73378210D01*
X129379185Y-73290609D01*
X129379172Y-73290602D01*
X129233501Y-73230264D01*
X129233491Y-73230261D01*
X129078151Y-73199362D01*
X129061394Y-73190596D01*
X129042916Y-73186577D01*
X129017875Y-73167831D01*
X129016241Y-73166977D01*
X129014664Y-73165428D01*
X129014660Y-73165425D01*
X128980520Y-73131284D01*
X128868717Y-73019481D01*
X128868716Y-73019480D01*
X128781904Y-72969360D01*
X128781904Y-72969359D01*
X128781900Y-72969358D01*
X128731785Y-72940423D01*
X128579057Y-72899499D01*
X128420943Y-72899499D01*
X128413347Y-72899499D01*
X128413331Y-72899500D01*
X101300097Y-72899500D01*
X101233058Y-72879815D01*
X101212416Y-72863181D01*
X99246883Y-70897648D01*
X131699500Y-70897648D01*
X131699500Y-71102351D01*
X131731522Y-71304534D01*
X131794781Y-71499223D01*
X131858691Y-71624653D01*
X131880481Y-71667417D01*
X131887715Y-71681613D01*
X132008028Y-71847213D01*
X132152786Y-71991971D01*
X132275979Y-72081474D01*
X132318390Y-72112287D01*
X132427079Y-72167667D01*
X132500776Y-72205218D01*
X132500778Y-72205218D01*
X132500781Y-72205220D01*
X132599452Y-72237280D01*
X132695465Y-72268477D01*
X132796557Y-72284488D01*
X132897648Y-72300500D01*
X132897649Y-72300500D01*
X133102351Y-72300500D01*
X133102352Y-72300500D01*
X133304534Y-72268477D01*
X133499219Y-72205220D01*
X133681610Y-72112287D01*
X133786228Y-72036278D01*
X133847213Y-71991971D01*
X133847215Y-71991968D01*
X133847219Y-71991966D01*
X133991966Y-71847219D01*
X133991968Y-71847215D01*
X133991971Y-71847213D01*
X134044732Y-71774590D01*
X134112287Y-71681610D01*
X134205220Y-71499219D01*
X134268477Y-71304534D01*
X134300500Y-71102352D01*
X134300500Y-70897648D01*
X134268477Y-70695466D01*
X134205220Y-70500781D01*
X134205218Y-70500778D01*
X134205218Y-70500776D01*
X134140214Y-70373200D01*
X134112287Y-70318390D01*
X134046331Y-70227608D01*
X133991971Y-70152786D01*
X133847213Y-70008028D01*
X133681613Y-69887715D01*
X133681612Y-69887714D01*
X133681610Y-69887713D01*
X133596694Y-69844446D01*
X133499223Y-69794781D01*
X133304534Y-69731522D01*
X133129995Y-69703878D01*
X133102352Y-69699500D01*
X132897648Y-69699500D01*
X132873329Y-69703351D01*
X132695465Y-69731522D01*
X132500776Y-69794781D01*
X132318386Y-69887715D01*
X132152786Y-70008028D01*
X132008028Y-70152786D01*
X131887715Y-70318386D01*
X131794781Y-70500776D01*
X131731522Y-70695465D01*
X131699500Y-70897648D01*
X99246883Y-70897648D01*
X99136819Y-70787584D01*
X99103334Y-70726261D01*
X99100500Y-70699903D01*
X99100500Y-65133366D01*
X112746558Y-65133366D01*
X112746558Y-65428393D01*
X112769369Y-65601651D01*
X112785065Y-65720873D01*
X112785066Y-65720875D01*
X112861419Y-66005831D01*
X112861422Y-66005841D01*
X112974312Y-66278380D01*
X112974316Y-66278390D01*
X113121819Y-66533873D01*
X113301410Y-66767920D01*
X113301416Y-66767927D01*
X113510010Y-66976521D01*
X113510017Y-66976527D01*
X113744064Y-67156118D01*
X113999547Y-67303621D01*
X113999548Y-67303621D01*
X113999551Y-67303623D01*
X114210354Y-67390940D01*
X114263093Y-67412786D01*
X114272106Y-67416519D01*
X114557065Y-67492873D01*
X114849552Y-67531380D01*
X114849559Y-67531380D01*
X115144557Y-67531380D01*
X115144564Y-67531380D01*
X115437051Y-67492873D01*
X115722010Y-67416519D01*
X115994565Y-67303623D01*
X116250052Y-67156118D01*
X116484100Y-66976526D01*
X116692704Y-66767922D01*
X116872296Y-66533874D01*
X117019801Y-66278387D01*
X117132697Y-66005832D01*
X117209051Y-65720873D01*
X117247558Y-65428386D01*
X117247558Y-65133374D01*
X117209051Y-64840887D01*
X117132697Y-64555928D01*
X117019801Y-64283373D01*
X116993724Y-64238207D01*
X116872296Y-64027886D01*
X116692705Y-63793839D01*
X116692699Y-63793832D01*
X116484105Y-63585238D01*
X116484098Y-63585232D01*
X116250051Y-63405641D01*
X115994568Y-63258138D01*
X115994558Y-63258134D01*
X115722019Y-63145244D01*
X115722012Y-63145242D01*
X115722010Y-63145241D01*
X115437051Y-63068887D01*
X115385803Y-63062140D01*
X115144571Y-63030380D01*
X115144564Y-63030380D01*
X114849552Y-63030380D01*
X114849544Y-63030380D01*
X114571143Y-63067033D01*
X114557065Y-63068887D01*
X114272106Y-63145241D01*
X114272096Y-63145244D01*
X113999557Y-63258134D01*
X113999547Y-63258138D01*
X113744064Y-63405641D01*
X113510017Y-63585232D01*
X113510010Y-63585238D01*
X113301416Y-63793832D01*
X113301410Y-63793839D01*
X113121819Y-64027886D01*
X112974316Y-64283369D01*
X112974312Y-64283379D01*
X112861422Y-64555918D01*
X112861419Y-64555928D01*
X112785066Y-64840884D01*
X112785064Y-64840895D01*
X112746558Y-65133366D01*
X99100500Y-65133366D01*
X99100500Y-61581902D01*
X124599500Y-61581902D01*
X124599500Y-61818097D01*
X124636446Y-62051368D01*
X124709433Y-62275996D01*
X124748176Y-62352032D01*
X124816657Y-62486433D01*
X124955483Y-62677510D01*
X125122490Y-62844517D01*
X125313567Y-62983343D01*
X125405882Y-63030380D01*
X125524003Y-63090566D01*
X125524005Y-63090566D01*
X125524008Y-63090568D01*
X125644412Y-63129689D01*
X125748631Y-63163553D01*
X125981903Y-63200500D01*
X125981908Y-63200500D01*
X129218097Y-63200500D01*
X129451368Y-63163553D01*
X129507726Y-63145241D01*
X129675992Y-63090568D01*
X129886433Y-62983343D01*
X130077510Y-62844517D01*
X130244517Y-62677510D01*
X130383343Y-62486433D01*
X130490568Y-62275992D01*
X130563553Y-62051368D01*
X130573957Y-61985681D01*
X130600500Y-61818097D01*
X130600500Y-61581902D01*
X130563553Y-61348631D01*
X130529689Y-61244412D01*
X130490568Y-61124008D01*
X130490566Y-61124005D01*
X130490566Y-61124003D01*
X130434002Y-61012991D01*
X130383343Y-60913567D01*
X130244517Y-60722490D01*
X130077510Y-60555483D01*
X129886433Y-60416657D01*
X129675996Y-60309433D01*
X129451368Y-60236446D01*
X129218097Y-60199500D01*
X129218092Y-60199500D01*
X125981908Y-60199500D01*
X125981903Y-60199500D01*
X125748631Y-60236446D01*
X125524003Y-60309433D01*
X125313566Y-60416657D01*
X125204550Y-60495862D01*
X125122490Y-60555483D01*
X125122488Y-60555485D01*
X125122487Y-60555485D01*
X124955485Y-60722487D01*
X124955485Y-60722488D01*
X124955483Y-60722490D01*
X124895862Y-60804550D01*
X124816657Y-60913566D01*
X124709433Y-61124003D01*
X124636446Y-61348631D01*
X124599500Y-61581902D01*
X99100500Y-61581902D01*
X99100500Y-56850000D01*
X124620898Y-56850000D01*
X125666988Y-56850000D01*
X125634075Y-56907007D01*
X125600000Y-57034174D01*
X125600000Y-57165826D01*
X125634075Y-57292993D01*
X125666988Y-57350000D01*
X124620898Y-57350000D01*
X124636934Y-57451247D01*
X124709897Y-57675802D01*
X124817085Y-57886171D01*
X124955866Y-58077186D01*
X125122813Y-58244133D01*
X125313828Y-58382914D01*
X125524197Y-58490102D01*
X125748752Y-58563065D01*
X125748751Y-58563065D01*
X125981948Y-58600000D01*
X127350000Y-58600000D01*
X127350000Y-57600000D01*
X127850000Y-57600000D01*
X127850000Y-58600000D01*
X129218052Y-58600000D01*
X129451247Y-58563065D01*
X129675802Y-58490102D01*
X129886171Y-58382914D01*
X130077186Y-58244133D01*
X130244133Y-58077186D01*
X130244133Y-58077185D01*
X130339972Y-57945277D01*
X130339973Y-57945275D01*
X130382912Y-57886174D01*
X130490102Y-57675802D01*
X130563065Y-57451247D01*
X130579102Y-57350000D01*
X129533012Y-57350000D01*
X129565925Y-57292993D01*
X129600000Y-57165826D01*
X129600000Y-57034174D01*
X129565925Y-56907007D01*
X129533012Y-56850000D01*
X130579102Y-56850000D01*
X130563065Y-56748752D01*
X130490102Y-56524197D01*
X130382914Y-56313828D01*
X130244133Y-56122813D01*
X130077186Y-55955866D01*
X129886171Y-55817085D01*
X129675802Y-55709897D01*
X129451247Y-55636934D01*
X129451248Y-55636934D01*
X129218052Y-55600000D01*
X127850000Y-55600000D01*
X127850000Y-56600000D01*
X127350000Y-56600000D01*
X127350000Y-55600000D01*
X125981948Y-55600000D01*
X125748752Y-55636934D01*
X125524197Y-55709897D01*
X125313828Y-55817085D01*
X125122813Y-55955866D01*
X124955866Y-56122813D01*
X124817085Y-56313828D01*
X124709897Y-56524197D01*
X124636934Y-56748752D01*
X124620898Y-56850000D01*
X99100500Y-56850000D01*
X99100500Y-47079765D01*
X99120185Y-47012726D01*
X99121398Y-47010874D01*
X99163387Y-46948034D01*
X99209394Y-46879179D01*
X99269737Y-46733497D01*
X99300500Y-46578842D01*
X99300500Y-46421158D01*
X99300500Y-46421155D01*
X99300499Y-46421153D01*
X99274328Y-46289583D01*
X99269737Y-46266503D01*
X99212746Y-46128913D01*
X99209397Y-46120827D01*
X99209390Y-46120814D01*
X99121789Y-45989711D01*
X99121786Y-45989707D01*
X99010292Y-45878213D01*
X99010288Y-45878210D01*
X98879185Y-45790609D01*
X98879172Y-45790602D01*
X98733501Y-45730264D01*
X98733489Y-45730261D01*
X98578845Y-45699500D01*
X98578842Y-45699500D01*
X98421158Y-45699500D01*
X98421155Y-45699500D01*
X98266510Y-45730261D01*
X98266498Y-45730264D01*
X98120827Y-45790602D01*
X98120814Y-45790609D01*
X97989711Y-45878210D01*
X97989707Y-45878213D01*
X97878213Y-45989707D01*
X97878210Y-45989711D01*
X97790609Y-46120814D01*
X97790602Y-46120827D01*
X97730264Y-46266498D01*
X97730261Y-46266510D01*
X97699500Y-46421153D01*
X45500500Y-46421153D01*
X45500500Y-40395325D01*
X53686077Y-40395325D01*
X53686077Y-43631520D01*
X53723023Y-43864791D01*
X53796010Y-44089419D01*
X53888611Y-44271157D01*
X53903234Y-44299856D01*
X54042060Y-44490933D01*
X54209067Y-44657940D01*
X54400144Y-44796766D01*
X54461054Y-44827801D01*
X54610580Y-44903989D01*
X54610582Y-44903989D01*
X54610585Y-44903991D01*
X54703174Y-44934075D01*
X54835208Y-44976976D01*
X55068480Y-45013923D01*
X55068485Y-45013923D01*
X55304674Y-45013923D01*
X55537945Y-44976976D01*
X55548991Y-44973387D01*
X55762569Y-44903991D01*
X55973010Y-44796766D01*
X56164087Y-44657940D01*
X56331094Y-44490933D01*
X56469920Y-44299856D01*
X56577145Y-44089415D01*
X56650130Y-43864791D01*
X56687077Y-43631520D01*
X56687077Y-40395325D01*
X58686077Y-40395325D01*
X58686077Y-43631520D01*
X58723023Y-43864791D01*
X58796010Y-44089419D01*
X58888611Y-44271157D01*
X58903234Y-44299856D01*
X59042060Y-44490933D01*
X59209067Y-44657940D01*
X59400144Y-44796766D01*
X59461054Y-44827801D01*
X59610580Y-44903989D01*
X59610582Y-44903989D01*
X59610585Y-44903991D01*
X59703174Y-44934075D01*
X59835208Y-44976976D01*
X60068480Y-45013923D01*
X60068485Y-45013923D01*
X60304674Y-45013923D01*
X60537945Y-44976976D01*
X60548991Y-44973387D01*
X60762569Y-44903991D01*
X60973010Y-44796766D01*
X61164087Y-44657940D01*
X61331094Y-44490933D01*
X61469920Y-44299856D01*
X61577145Y-44089415D01*
X61650130Y-43864791D01*
X61687077Y-43631520D01*
X61687077Y-43581902D01*
X68599500Y-43581902D01*
X68599500Y-43818097D01*
X68636446Y-44051368D01*
X68709433Y-44275996D01*
X68816657Y-44486433D01*
X68955483Y-44677510D01*
X69122490Y-44844517D01*
X69313567Y-44983343D01*
X69373584Y-45013923D01*
X69524003Y-45090566D01*
X69524005Y-45090566D01*
X69524008Y-45090568D01*
X69644412Y-45129689D01*
X69748631Y-45163553D01*
X69981903Y-45200500D01*
X69981908Y-45200500D01*
X73218097Y-45200500D01*
X73451368Y-45163553D01*
X73675992Y-45090568D01*
X73886433Y-44983343D01*
X74077510Y-44844517D01*
X74244517Y-44677510D01*
X74383343Y-44486433D01*
X74490568Y-44275992D01*
X74563553Y-44051368D01*
X74576078Y-43972287D01*
X74600500Y-43818097D01*
X74600500Y-43581902D01*
X74563553Y-43348631D01*
X74526141Y-43233489D01*
X74490568Y-43124008D01*
X74490566Y-43124005D01*
X74490566Y-43124003D01*
X74449965Y-43044321D01*
X74387211Y-42921158D01*
X74387208Y-42921153D01*
X95199500Y-42921153D01*
X95199500Y-43078846D01*
X95230261Y-43233489D01*
X95230264Y-43233501D01*
X95290602Y-43379172D01*
X95290609Y-43379185D01*
X95378210Y-43510288D01*
X95378213Y-43510292D01*
X95489707Y-43621786D01*
X95489711Y-43621789D01*
X95620814Y-43709390D01*
X95620827Y-43709397D01*
X95766498Y-43769735D01*
X95766503Y-43769737D01*
X95921153Y-43800499D01*
X95921156Y-43800500D01*
X95921158Y-43800500D01*
X96078844Y-43800500D01*
X96078845Y-43800499D01*
X96233497Y-43769737D01*
X96379179Y-43709394D01*
X96382443Y-43707213D01*
X96510875Y-43621398D01*
X96577553Y-43600520D01*
X96579766Y-43600500D01*
X113199903Y-43600500D01*
X113266942Y-43620185D01*
X113287584Y-43636819D01*
X118131284Y-48480519D01*
X118268215Y-48559577D01*
X118420943Y-48600501D01*
X118420946Y-48600501D01*
X118579054Y-48600501D01*
X118579057Y-48600501D01*
X118731785Y-48559577D01*
X118733438Y-48558622D01*
X118736050Y-48557115D01*
X118798053Y-48540500D01*
X137770398Y-48540500D01*
X137837437Y-48560185D01*
X137880883Y-48608205D01*
X137887715Y-48621614D01*
X138008028Y-48787213D01*
X138152786Y-48931971D01*
X138307749Y-49044556D01*
X138318390Y-49052287D01*
X138409840Y-49098883D01*
X138411080Y-49099515D01*
X138461876Y-49147490D01*
X138478671Y-49215311D01*
X138456134Y-49281446D01*
X138411080Y-49320485D01*
X138318386Y-49367715D01*
X138152786Y-49488028D01*
X138008028Y-49632786D01*
X137887715Y-49798386D01*
X137794781Y-49980776D01*
X137731522Y-50175465D01*
X137699500Y-50377648D01*
X137699500Y-50582351D01*
X137731522Y-50784534D01*
X137794781Y-50979223D01*
X137887715Y-51161613D01*
X138008028Y-51327213D01*
X138152786Y-51471971D01*
X138305978Y-51583269D01*
X138318390Y-51592287D01*
X138409840Y-51638883D01*
X138411080Y-51639515D01*
X138461876Y-51687490D01*
X138478671Y-51755311D01*
X138456134Y-51821446D01*
X138411080Y-51860485D01*
X138318386Y-51907715D01*
X138152786Y-52028028D01*
X138008028Y-52172786D01*
X137887715Y-52338386D01*
X137794781Y-52520776D01*
X137731522Y-52715465D01*
X137699500Y-52917648D01*
X137699500Y-53122351D01*
X137731522Y-53324534D01*
X137794781Y-53519223D01*
X137887715Y-53701613D01*
X138008028Y-53867213D01*
X138152786Y-54011971D01*
X138307749Y-54124556D01*
X138318390Y-54132287D01*
X138409840Y-54178883D01*
X138411080Y-54179515D01*
X138461876Y-54227490D01*
X138478671Y-54295311D01*
X138456134Y-54361446D01*
X138411080Y-54400485D01*
X138318388Y-54447714D01*
X138152786Y-54568028D01*
X138008028Y-54712786D01*
X137887715Y-54878386D01*
X137794781Y-55060776D01*
X137731522Y-55255465D01*
X137699500Y-55457648D01*
X137699500Y-55662351D01*
X137731522Y-55864534D01*
X137794781Y-56059223D01*
X137887715Y-56241613D01*
X138008028Y-56407213D01*
X138152786Y-56551971D01*
X138318388Y-56672286D01*
X138318390Y-56672287D01*
X138404294Y-56716057D01*
X138455090Y-56764031D01*
X138471886Y-56831852D01*
X138449349Y-56897987D01*
X138406455Y-56935899D01*
X138340494Y-56971157D01*
X138340489Y-56971160D01*
X138271086Y-57017532D01*
X138271085Y-57017533D01*
X138870590Y-57617037D01*
X138807007Y-57634075D01*
X138692993Y-57699901D01*
X138599901Y-57792993D01*
X138534075Y-57907007D01*
X138517037Y-57970589D01*
X137917533Y-57371085D01*
X137917532Y-57371086D01*
X137871161Y-57440488D01*
X137824490Y-57527801D01*
X137764185Y-57673387D01*
X137735444Y-57768135D01*
X137704701Y-57922697D01*
X137704701Y-57922700D01*
X137695000Y-58021210D01*
X137695000Y-58178789D01*
X137704701Y-58277299D01*
X137704701Y-58277302D01*
X137735444Y-58431864D01*
X137764185Y-58526612D01*
X137824490Y-58672198D01*
X137871158Y-58759506D01*
X137917533Y-58828912D01*
X137917534Y-58828913D01*
X138517037Y-58229409D01*
X138534075Y-58292993D01*
X138599901Y-58407007D01*
X138692993Y-58500099D01*
X138807007Y-58565925D01*
X138870590Y-58582962D01*
X138271085Y-59182465D01*
X138340493Y-59228841D01*
X138406454Y-59264099D01*
X138456298Y-59313062D01*
X138471758Y-59381200D01*
X138447926Y-59446879D01*
X138404295Y-59483942D01*
X138318386Y-59527715D01*
X138152786Y-59648028D01*
X138008028Y-59792786D01*
X137887715Y-59958386D01*
X137794781Y-60140776D01*
X137731522Y-60335465D01*
X137699500Y-60537648D01*
X137699500Y-60742351D01*
X137731522Y-60944534D01*
X137794781Y-61139223D01*
X137887715Y-61321613D01*
X138008028Y-61487213D01*
X138152786Y-61631971D01*
X138307749Y-61744556D01*
X138318390Y-61752287D01*
X138405581Y-61796713D01*
X138411080Y-61799515D01*
X138461876Y-61847490D01*
X138478671Y-61915311D01*
X138456134Y-61981446D01*
X138411080Y-62020485D01*
X138318386Y-62067715D01*
X138152786Y-62188028D01*
X138008028Y-62332786D01*
X137887715Y-62498386D01*
X137794781Y-62680776D01*
X137731522Y-62875465D01*
X137699500Y-63077648D01*
X137699500Y-63282351D01*
X137731522Y-63484534D01*
X137794781Y-63679223D01*
X137887715Y-63861613D01*
X138008028Y-64027213D01*
X138152786Y-64171971D01*
X138266274Y-64254423D01*
X138318390Y-64292287D01*
X138405581Y-64336713D01*
X138411080Y-64339515D01*
X138461876Y-64387490D01*
X138478671Y-64455311D01*
X138456134Y-64521446D01*
X138411080Y-64560485D01*
X138318386Y-64607715D01*
X138152786Y-64728028D01*
X138008028Y-64872786D01*
X137887715Y-65038386D01*
X137794781Y-65220776D01*
X137731522Y-65415465D01*
X137699500Y-65617648D01*
X137699500Y-65822351D01*
X137731522Y-66024534D01*
X137794781Y-66219223D01*
X137887715Y-66401613D01*
X138008028Y-66567213D01*
X138152786Y-66711971D01*
X138307749Y-66824556D01*
X138318390Y-66832287D01*
X138409840Y-66878883D01*
X138411080Y-66879515D01*
X138461876Y-66927490D01*
X138478671Y-66995311D01*
X138456134Y-67061446D01*
X138411080Y-67100485D01*
X138318386Y-67147715D01*
X138152786Y-67268028D01*
X138008028Y-67412786D01*
X137887715Y-67578386D01*
X137794781Y-67760776D01*
X137731522Y-67955465D01*
X137699500Y-68157648D01*
X137699500Y-68362351D01*
X137731522Y-68564534D01*
X137794781Y-68759223D01*
X137887715Y-68941613D01*
X138008028Y-69107213D01*
X138152786Y-69251971D01*
X138318385Y-69372284D01*
X138318387Y-69372285D01*
X138318390Y-69372287D01*
X138403754Y-69415782D01*
X138454550Y-69463757D01*
X138471345Y-69531578D01*
X138448808Y-69597712D01*
X138405914Y-69635624D01*
X138340228Y-69670734D01*
X138340200Y-69670751D01*
X138209206Y-69758278D01*
X138209194Y-69758287D01*
X138209189Y-69758290D01*
X138209189Y-69758291D01*
X138132588Y-69821157D01*
X138132585Y-69821160D01*
X138132582Y-69821162D01*
X138021162Y-69932582D01*
X138021160Y-69932585D01*
X138021157Y-69932588D01*
X137992965Y-69966940D01*
X137958287Y-70009194D01*
X137958278Y-70009206D01*
X137870751Y-70140200D01*
X137870734Y-70140228D01*
X137824031Y-70227603D01*
X137824029Y-70227608D01*
X137763722Y-70373200D01*
X137755623Y-70399901D01*
X137734956Y-70468032D01*
X137734955Y-70468036D01*
X137734955Y-70468037D01*
X137704211Y-70622599D01*
X137704211Y-70622602D01*
X137694500Y-70721209D01*
X137694500Y-70878790D01*
X137704211Y-70977397D01*
X137704211Y-70977400D01*
X137704213Y-70977410D01*
X137734956Y-71131968D01*
X137741504Y-71153553D01*
X137763722Y-71226799D01*
X137824029Y-71372391D01*
X137824031Y-71372396D01*
X137870734Y-71459771D01*
X137870751Y-71459799D01*
X137958278Y-71590793D01*
X137958286Y-71590804D01*
X137958291Y-71590811D01*
X138021157Y-71667412D01*
X138132588Y-71778843D01*
X138209189Y-71841709D01*
X138209198Y-71841715D01*
X138209206Y-71841721D01*
X138340200Y-71929248D01*
X138340205Y-71929251D01*
X138340217Y-71929259D01*
X138340226Y-71929263D01*
X138340228Y-71929265D01*
X138405912Y-71964374D01*
X138455757Y-72013336D01*
X138471217Y-72081474D01*
X138447385Y-72147154D01*
X138403755Y-72184216D01*
X138318388Y-72227713D01*
X138152786Y-72348028D01*
X138008028Y-72492786D01*
X137887715Y-72658386D01*
X137794781Y-72840776D01*
X137731522Y-73035465D01*
X137699500Y-73237648D01*
X137699500Y-73442351D01*
X137731522Y-73644534D01*
X137794781Y-73839223D01*
X137887715Y-74021613D01*
X138008028Y-74187213D01*
X138152786Y-74331971D01*
X138307749Y-74444556D01*
X138318390Y-74452287D01*
X138409840Y-74498883D01*
X138411080Y-74499515D01*
X138461876Y-74547490D01*
X138478671Y-74615311D01*
X138456134Y-74681446D01*
X138411080Y-74720485D01*
X138318386Y-74767715D01*
X138152786Y-74888028D01*
X138008028Y-75032786D01*
X137887715Y-75198386D01*
X137794781Y-75380776D01*
X137731522Y-75575465D01*
X137699500Y-75777648D01*
X137699500Y-75982351D01*
X137731522Y-76184534D01*
X137794781Y-76379223D01*
X137858691Y-76504653D01*
X137876017Y-76538656D01*
X137887715Y-76561613D01*
X138008028Y-76727213D01*
X138152786Y-76871971D01*
X138307749Y-76984556D01*
X138318390Y-76992287D01*
X138409840Y-77038883D01*
X138411080Y-77039515D01*
X138461876Y-77087490D01*
X138478671Y-77155311D01*
X138456134Y-77221446D01*
X138411080Y-77260485D01*
X138318386Y-77307715D01*
X138152786Y-77428028D01*
X138008028Y-77572786D01*
X137887715Y-77738386D01*
X137794781Y-77920776D01*
X137731522Y-78115465D01*
X137699500Y-78317648D01*
X137699500Y-78522351D01*
X137731522Y-78724534D01*
X137794781Y-78919223D01*
X137887715Y-79101613D01*
X138008028Y-79267213D01*
X138152786Y-79411971D01*
X138307749Y-79524556D01*
X138318390Y-79532287D01*
X138409840Y-79578883D01*
X138411080Y-79579515D01*
X138461876Y-79627490D01*
X138478671Y-79695311D01*
X138456134Y-79761446D01*
X138411080Y-79800485D01*
X138318386Y-79847715D01*
X138152786Y-79968028D01*
X138008028Y-80112786D01*
X137887715Y-80278386D01*
X137794781Y-80460776D01*
X137731522Y-80655465D01*
X137699500Y-80857648D01*
X137699500Y-81062351D01*
X137731522Y-81264534D01*
X137794781Y-81459223D01*
X137887715Y-81641613D01*
X138008028Y-81807213D01*
X138152786Y-81951971D01*
X138318388Y-82072286D01*
X138318390Y-82072287D01*
X138404294Y-82116057D01*
X138455090Y-82164031D01*
X138471886Y-82231852D01*
X138449349Y-82297987D01*
X138406455Y-82335899D01*
X138340494Y-82371157D01*
X138340489Y-82371160D01*
X138271086Y-82417532D01*
X138271085Y-82417533D01*
X138870590Y-83017037D01*
X138807007Y-83034075D01*
X138692993Y-83099901D01*
X138599901Y-83192993D01*
X138534075Y-83307007D01*
X138517037Y-83370589D01*
X137917533Y-82771085D01*
X137917532Y-82771086D01*
X137871161Y-82840488D01*
X137824490Y-82927801D01*
X137764185Y-83073387D01*
X137735444Y-83168135D01*
X137704701Y-83322697D01*
X137704701Y-83322700D01*
X137695000Y-83421210D01*
X137695000Y-83578789D01*
X137704701Y-83677299D01*
X137704701Y-83677302D01*
X137735444Y-83831864D01*
X137764185Y-83926612D01*
X137824490Y-84072198D01*
X137871158Y-84159506D01*
X137917533Y-84228912D01*
X137917534Y-84228913D01*
X138517037Y-83629409D01*
X138534075Y-83692993D01*
X138599901Y-83807007D01*
X138692993Y-83900099D01*
X138807007Y-83965925D01*
X138870590Y-83982962D01*
X138271085Y-84582465D01*
X138340493Y-84628841D01*
X138406454Y-84664099D01*
X138456298Y-84713062D01*
X138471758Y-84781200D01*
X138447926Y-84846879D01*
X138404295Y-84883942D01*
X138318386Y-84927715D01*
X138152786Y-85048028D01*
X138008028Y-85192786D01*
X137887715Y-85358386D01*
X137794781Y-85540776D01*
X137731522Y-85735465D01*
X137699500Y-85937648D01*
X137699500Y-86142351D01*
X137731522Y-86344534D01*
X137794781Y-86539223D01*
X137887715Y-86721613D01*
X138008028Y-86887213D01*
X138152786Y-87031971D01*
X138291505Y-87132754D01*
X138318390Y-87152287D01*
X138408976Y-87198443D01*
X138411080Y-87199515D01*
X138461876Y-87247490D01*
X138478671Y-87315311D01*
X138456134Y-87381446D01*
X138411080Y-87420485D01*
X138318386Y-87467715D01*
X138152786Y-87588028D01*
X138008028Y-87732786D01*
X137887715Y-87898386D01*
X137794781Y-88080776D01*
X137731522Y-88275465D01*
X137699500Y-88477648D01*
X137699500Y-88682351D01*
X137731522Y-88884534D01*
X137794781Y-89079223D01*
X137834827Y-89157816D01*
X137883993Y-89254310D01*
X137887715Y-89261613D01*
X138008028Y-89427213D01*
X138152786Y-89571971D01*
X138307749Y-89684556D01*
X138318390Y-89692287D01*
X138434607Y-89751503D01*
X138500776Y-89785218D01*
X138500778Y-89785218D01*
X138500781Y-89785220D01*
X138601763Y-89818031D01*
X138695465Y-89848477D01*
X138796557Y-89864488D01*
X138897648Y-89880500D01*
X138897649Y-89880500D01*
X139102351Y-89880500D01*
X139102352Y-89880500D01*
X139304534Y-89848477D01*
X139499219Y-89785220D01*
X139681610Y-89692287D01*
X139829135Y-89585105D01*
X139847213Y-89571971D01*
X139847215Y-89571968D01*
X139847219Y-89571966D01*
X139991966Y-89427219D01*
X139991968Y-89427215D01*
X139991971Y-89427213D01*
X140062750Y-89329792D01*
X140112287Y-89261610D01*
X140205220Y-89079219D01*
X140268477Y-88884534D01*
X140300500Y-88682352D01*
X140300500Y-88477648D01*
X140279286Y-88343713D01*
X143814500Y-88343713D01*
X143814500Y-88556287D01*
X143847754Y-88766243D01*
X143900395Y-88928256D01*
X143913444Y-88968414D01*
X144009951Y-89157820D01*
X144134890Y-89329786D01*
X144285213Y-89480109D01*
X144457179Y-89605048D01*
X144457181Y-89605049D01*
X144457184Y-89605051D01*
X144646588Y-89701557D01*
X144848757Y-89767246D01*
X145058713Y-89800500D01*
X145058714Y-89800500D01*
X145271286Y-89800500D01*
X145271287Y-89800500D01*
X145481243Y-89767246D01*
X145683412Y-89701557D01*
X145872816Y-89605051D01*
X145929105Y-89564155D01*
X146044786Y-89480109D01*
X146044788Y-89480106D01*
X146044792Y-89480104D01*
X146195104Y-89329792D01*
X146195106Y-89329788D01*
X146195109Y-89329786D01*
X146320048Y-89157820D01*
X146320047Y-89157820D01*
X146320051Y-89157816D01*
X146416557Y-88968412D01*
X146482246Y-88766243D01*
X146515500Y-88556287D01*
X146515500Y-88343713D01*
X149264500Y-88343713D01*
X149264500Y-88556287D01*
X149297754Y-88766243D01*
X149350395Y-88928256D01*
X149363444Y-88968414D01*
X149459951Y-89157820D01*
X149584890Y-89329786D01*
X149735213Y-89480109D01*
X149907179Y-89605048D01*
X149907181Y-89605049D01*
X149907184Y-89605051D01*
X150096588Y-89701557D01*
X150298757Y-89767246D01*
X150508713Y-89800500D01*
X150508714Y-89800500D01*
X150721286Y-89800500D01*
X150721287Y-89800500D01*
X150931243Y-89767246D01*
X151133412Y-89701557D01*
X151322816Y-89605051D01*
X151379105Y-89564155D01*
X151494786Y-89480109D01*
X151494788Y-89480106D01*
X151494792Y-89480104D01*
X151645104Y-89329792D01*
X151645106Y-89329788D01*
X151645109Y-89329786D01*
X151770048Y-89157820D01*
X151770047Y-89157820D01*
X151770051Y-89157816D01*
X151866557Y-88968412D01*
X151932246Y-88766243D01*
X151965500Y-88556287D01*
X151965500Y-88343713D01*
X151932246Y-88133757D01*
X151866557Y-87931588D01*
X151770051Y-87742184D01*
X151770049Y-87742181D01*
X151770048Y-87742179D01*
X151645109Y-87570213D01*
X151494786Y-87419890D01*
X151322820Y-87294951D01*
X151133414Y-87198444D01*
X151133413Y-87198443D01*
X151133412Y-87198443D01*
X150931243Y-87132754D01*
X150931241Y-87132753D01*
X150931240Y-87132753D01*
X150769957Y-87107208D01*
X150721287Y-87099500D01*
X150508713Y-87099500D01*
X150460042Y-87107208D01*
X150298760Y-87132753D01*
X150096585Y-87198444D01*
X149907179Y-87294951D01*
X149735213Y-87419890D01*
X149584890Y-87570213D01*
X149459951Y-87742179D01*
X149363444Y-87931585D01*
X149297753Y-88133760D01*
X149275309Y-88275465D01*
X149264500Y-88343713D01*
X146515500Y-88343713D01*
X146482246Y-88133757D01*
X146416557Y-87931588D01*
X146320051Y-87742184D01*
X146320049Y-87742181D01*
X146320048Y-87742179D01*
X146195109Y-87570213D01*
X146044786Y-87419890D01*
X145872820Y-87294951D01*
X145683414Y-87198444D01*
X145683413Y-87198443D01*
X145683412Y-87198443D01*
X145481243Y-87132754D01*
X145481241Y-87132753D01*
X145481240Y-87132753D01*
X145319957Y-87107208D01*
X145271287Y-87099500D01*
X145058713Y-87099500D01*
X145010042Y-87107208D01*
X144848760Y-87132753D01*
X144646585Y-87198444D01*
X144457179Y-87294951D01*
X144285213Y-87419890D01*
X144134890Y-87570213D01*
X144009951Y-87742179D01*
X143913444Y-87931585D01*
X143847753Y-88133760D01*
X143825309Y-88275465D01*
X143814500Y-88343713D01*
X140279286Y-88343713D01*
X140268477Y-88275466D01*
X140205220Y-88080781D01*
X140205218Y-88080778D01*
X140205218Y-88080776D01*
X140151263Y-87974885D01*
X140112287Y-87898390D01*
X140104556Y-87887749D01*
X139991971Y-87732786D01*
X139847213Y-87588028D01*
X139681614Y-87467715D01*
X139664834Y-87459165D01*
X139588917Y-87420483D01*
X139538123Y-87372511D01*
X139521328Y-87304690D01*
X139543865Y-87238555D01*
X139588917Y-87199516D01*
X139681610Y-87152287D01*
X139766440Y-87090655D01*
X139847213Y-87031971D01*
X139847215Y-87031968D01*
X139847219Y-87031966D01*
X139991966Y-86887219D01*
X139991968Y-86887215D01*
X139991971Y-86887213D01*
X140044732Y-86814590D01*
X140112287Y-86721610D01*
X140205220Y-86539219D01*
X140268477Y-86344534D01*
X140300500Y-86142352D01*
X140300500Y-85937648D01*
X140268477Y-85735466D01*
X140261496Y-85713982D01*
X140205218Y-85540776D01*
X140122742Y-85378909D01*
X140122741Y-85378907D01*
X140112286Y-85358388D01*
X140089835Y-85327486D01*
X144289500Y-85327486D01*
X144289500Y-85512513D01*
X144318445Y-85695265D01*
X144375619Y-85871232D01*
X144375620Y-85871235D01*
X144457103Y-86031152D01*
X144459622Y-86036096D01*
X144568379Y-86185787D01*
X144699213Y-86316621D01*
X144848904Y-86425378D01*
X144929763Y-86466577D01*
X145013764Y-86509379D01*
X145013767Y-86509380D01*
X145101750Y-86537967D01*
X145189736Y-86566555D01*
X145372486Y-86595500D01*
X145372487Y-86595500D01*
X145557513Y-86595500D01*
X145557514Y-86595500D01*
X145740264Y-86566555D01*
X145916235Y-86509379D01*
X146081096Y-86425378D01*
X146230787Y-86316621D01*
X146361621Y-86185787D01*
X146470378Y-86036096D01*
X146554379Y-85871235D01*
X146611555Y-85695264D01*
X146640500Y-85512514D01*
X146640500Y-85327486D01*
X149139500Y-85327486D01*
X149139500Y-85512513D01*
X149168445Y-85695265D01*
X149225619Y-85871232D01*
X149225620Y-85871235D01*
X149307103Y-86031152D01*
X149309622Y-86036096D01*
X149418379Y-86185787D01*
X149549213Y-86316621D01*
X149698904Y-86425378D01*
X149779763Y-86466577D01*
X149863764Y-86509379D01*
X149863767Y-86509380D01*
X149951750Y-86537967D01*
X150039736Y-86566555D01*
X150222486Y-86595500D01*
X150222487Y-86595500D01*
X150407513Y-86595500D01*
X150407514Y-86595500D01*
X150590264Y-86566555D01*
X150766235Y-86509379D01*
X150931096Y-86425378D01*
X151080787Y-86316621D01*
X151211621Y-86185787D01*
X151320378Y-86036096D01*
X151404379Y-85871235D01*
X151461555Y-85695264D01*
X151490500Y-85512514D01*
X151490500Y-85327486D01*
X151461555Y-85144736D01*
X151404379Y-84968765D01*
X151404379Y-84968764D01*
X151336110Y-84834780D01*
X151320378Y-84803904D01*
X151211621Y-84654213D01*
X151080787Y-84523379D01*
X150931096Y-84414622D01*
X150766235Y-84330620D01*
X150766232Y-84330619D01*
X150590265Y-84273445D01*
X150498889Y-84258972D01*
X150407514Y-84244500D01*
X150222486Y-84244500D01*
X150161569Y-84254148D01*
X150039734Y-84273445D01*
X149863767Y-84330619D01*
X149863764Y-84330620D01*
X149698903Y-84414622D01*
X149613499Y-84476672D01*
X149549213Y-84523379D01*
X149549211Y-84523381D01*
X149549210Y-84523381D01*
X149418381Y-84654210D01*
X149418381Y-84654211D01*
X149418379Y-84654213D01*
X149383651Y-84702012D01*
X149309622Y-84803903D01*
X149225620Y-84968764D01*
X149225619Y-84968767D01*
X149168445Y-85144734D01*
X149139500Y-85327486D01*
X146640500Y-85327486D01*
X146611555Y-85144736D01*
X146554379Y-84968765D01*
X146554379Y-84968764D01*
X146486110Y-84834780D01*
X146470378Y-84803904D01*
X146361621Y-84654213D01*
X146230787Y-84523379D01*
X146081096Y-84414622D01*
X145916235Y-84330620D01*
X145916232Y-84330619D01*
X145740265Y-84273445D01*
X145648889Y-84258972D01*
X145557514Y-84244500D01*
X145372486Y-84244500D01*
X145311569Y-84254148D01*
X145189734Y-84273445D01*
X145013767Y-84330619D01*
X145013764Y-84330620D01*
X144848903Y-84414622D01*
X144763499Y-84476672D01*
X144699213Y-84523379D01*
X144699211Y-84523381D01*
X144699210Y-84523381D01*
X144568381Y-84654210D01*
X144568381Y-84654211D01*
X144568379Y-84654213D01*
X144533651Y-84702012D01*
X144459622Y-84803903D01*
X144375620Y-84968764D01*
X144375619Y-84968767D01*
X144318445Y-85144734D01*
X144289500Y-85327486D01*
X140089835Y-85327486D01*
X139991971Y-85192786D01*
X139847217Y-85048032D01*
X139770415Y-84992232D01*
X139727750Y-84936902D01*
X139721771Y-84867288D01*
X139754377Y-84805494D01*
X139812640Y-84771765D01*
X139833022Y-84766563D01*
X139833035Y-84766559D01*
X139889582Y-84743135D01*
X139129409Y-83982962D01*
X139192993Y-83965925D01*
X139307007Y-83900099D01*
X139400099Y-83807007D01*
X139465925Y-83692993D01*
X139482962Y-83629409D01*
X140243135Y-84389582D01*
X140243137Y-84389582D01*
X140266552Y-84333053D01*
X140284544Y-84282053D01*
X140304999Y-84139780D01*
X140305000Y-84139779D01*
X140305000Y-82860224D01*
X140304999Y-82860204D01*
X140302106Y-82806237D01*
X140302106Y-82806235D01*
X140266558Y-82666960D01*
X140243136Y-82610415D01*
X140243135Y-82610415D01*
X139482962Y-83370589D01*
X139465925Y-83307007D01*
X139400099Y-83192993D01*
X139307007Y-83099901D01*
X139192993Y-83034075D01*
X139129410Y-83017037D01*
X139889583Y-82256863D01*
X139889583Y-82256862D01*
X139833052Y-82233447D01*
X139833013Y-82233432D01*
X139804375Y-82223329D01*
X139747704Y-82182463D01*
X139722122Y-82117444D01*
X139735754Y-82048917D01*
X139772745Y-82006074D01*
X139847215Y-81951969D01*
X139847215Y-81951968D01*
X139847219Y-81951966D01*
X139991966Y-81807219D01*
X139991968Y-81807215D01*
X139991971Y-81807213D01*
X140044732Y-81734590D01*
X140112287Y-81641610D01*
X140205220Y-81459219D01*
X140268477Y-81264534D01*
X140300500Y-81062352D01*
X140300500Y-80857648D01*
X140268477Y-80655466D01*
X140205220Y-80460781D01*
X140205218Y-80460778D01*
X140205218Y-80460776D01*
X140171503Y-80394607D01*
X140112287Y-80278390D01*
X140047457Y-80189158D01*
X139991971Y-80112786D01*
X139847213Y-79968028D01*
X139681614Y-79847715D01*
X139675006Y-79844348D01*
X139588917Y-79800483D01*
X139538123Y-79752511D01*
X139521328Y-79684690D01*
X139543865Y-79618555D01*
X139588917Y-79579516D01*
X139681610Y-79532287D01*
X139702770Y-79516913D01*
X139847213Y-79411971D01*
X139847215Y-79411968D01*
X139847219Y-79411966D01*
X139991966Y-79267219D01*
X139991968Y-79267215D01*
X139991971Y-79267213D01*
X140044732Y-79194590D01*
X140112287Y-79101610D01*
X140205220Y-78919219D01*
X140268477Y-78724534D01*
X140300500Y-78522352D01*
X140300500Y-78317648D01*
X140268477Y-78115466D01*
X140205220Y-77920781D01*
X140205218Y-77920778D01*
X140205218Y-77920776D01*
X140171503Y-77854607D01*
X140112287Y-77738390D01*
X140104556Y-77727749D01*
X139991971Y-77572786D01*
X139847213Y-77428028D01*
X139681614Y-77307715D01*
X139675006Y-77304348D01*
X139588917Y-77260483D01*
X139538123Y-77212511D01*
X139521328Y-77144690D01*
X139543865Y-77078555D01*
X139588917Y-77039516D01*
X139681610Y-76992287D01*
X139702770Y-76976913D01*
X139847213Y-76871971D01*
X139847215Y-76871968D01*
X139847219Y-76871966D01*
X139991966Y-76727219D01*
X139991968Y-76727215D01*
X139991971Y-76727213D01*
X140044732Y-76654590D01*
X140112287Y-76561610D01*
X140205220Y-76379219D01*
X140268477Y-76184534D01*
X140300500Y-75982352D01*
X140300500Y-75777648D01*
X140268477Y-75575466D01*
X140205220Y-75380781D01*
X140205218Y-75380778D01*
X140205218Y-75380776D01*
X140171503Y-75314607D01*
X140112287Y-75198390D01*
X140104556Y-75187749D01*
X139991971Y-75032786D01*
X139847213Y-74888028D01*
X139681614Y-74767715D01*
X139675006Y-74764348D01*
X139588917Y-74720483D01*
X139538123Y-74672511D01*
X139521328Y-74604690D01*
X139543865Y-74538555D01*
X139588917Y-74499516D01*
X139681610Y-74452287D01*
X139702770Y-74436913D01*
X139847213Y-74331971D01*
X139847215Y-74331968D01*
X139847219Y-74331966D01*
X139991966Y-74187219D01*
X139991968Y-74187215D01*
X139991971Y-74187213D01*
X140054970Y-74100501D01*
X140112287Y-74021610D01*
X140205220Y-73839219D01*
X140268477Y-73644534D01*
X140300500Y-73442352D01*
X140300500Y-73237648D01*
X140289061Y-73165425D01*
X140268477Y-73035465D01*
X140224299Y-72899500D01*
X140205220Y-72840781D01*
X140205218Y-72840778D01*
X140205218Y-72840776D01*
X140171503Y-72774607D01*
X140112287Y-72658390D01*
X140104556Y-72647749D01*
X139991971Y-72492786D01*
X139847217Y-72348032D01*
X139847212Y-72348028D01*
X139770936Y-72292610D01*
X139728270Y-72237280D01*
X139722291Y-72167667D01*
X139754897Y-72105872D01*
X139813158Y-72072143D01*
X139833226Y-72067022D01*
X139906735Y-72036574D01*
X139955551Y-72013219D01*
X140070733Y-71926994D01*
X140126994Y-71870733D01*
X140163157Y-71830475D01*
X140236574Y-71706735D01*
X140267022Y-71633226D01*
X140285024Y-71582198D01*
X140305500Y-71439782D01*
X140305500Y-70160218D01*
X140302604Y-70106185D01*
X140301078Y-70100208D01*
X140267023Y-69966778D01*
X140267019Y-69966766D01*
X140236580Y-69893280D01*
X140236568Y-69893252D01*
X140213220Y-69844451D01*
X140213217Y-69844446D01*
X140189736Y-69813080D01*
X140126994Y-69729267D01*
X140126989Y-69729262D01*
X140126984Y-69729256D01*
X140070747Y-69673019D01*
X140068675Y-69671158D01*
X140030475Y-69636843D01*
X140030467Y-69636837D01*
X139906736Y-69563426D01*
X139906737Y-69563426D01*
X139838001Y-69534956D01*
X139833226Y-69532978D01*
X139833217Y-69532975D01*
X139833205Y-69532970D01*
X139804863Y-69522971D01*
X139748193Y-69482103D01*
X139722613Y-69417084D01*
X139736246Y-69348558D01*
X139773236Y-69305717D01*
X139847215Y-69251969D01*
X139847215Y-69251968D01*
X139847219Y-69251966D01*
X139991966Y-69107219D01*
X139991968Y-69107215D01*
X139991971Y-69107213D01*
X140044732Y-69034590D01*
X140112287Y-68941610D01*
X140205220Y-68759219D01*
X140268477Y-68564534D01*
X140300500Y-68362352D01*
X140300500Y-68157648D01*
X140268477Y-67955466D01*
X140205220Y-67760781D01*
X140205218Y-67760778D01*
X140205218Y-67760776D01*
X140171503Y-67694607D01*
X140112287Y-67578390D01*
X140050156Y-67492873D01*
X139991971Y-67412786D01*
X139847213Y-67268028D01*
X139681614Y-67147715D01*
X139675006Y-67144348D01*
X139588917Y-67100483D01*
X139538123Y-67052511D01*
X139521328Y-66984690D01*
X139543865Y-66918555D01*
X139588917Y-66879516D01*
X139681610Y-66832287D01*
X139770202Y-66767922D01*
X139847213Y-66711971D01*
X139847215Y-66711968D01*
X139847219Y-66711966D01*
X139991966Y-66567219D01*
X139991968Y-66567215D01*
X139991971Y-66567213D01*
X140044732Y-66494590D01*
X140112287Y-66401610D01*
X140205220Y-66219219D01*
X140268477Y-66024534D01*
X140300500Y-65822352D01*
X140300500Y-65617648D01*
X140288722Y-65543285D01*
X140268477Y-65415465D01*
X140205218Y-65220776D01*
X140160680Y-65133366D01*
X140112287Y-65038390D01*
X140034410Y-64931200D01*
X139991971Y-64872786D01*
X139847213Y-64728028D01*
X139681614Y-64607715D01*
X139675006Y-64604348D01*
X139588917Y-64560483D01*
X139538123Y-64512511D01*
X139521328Y-64444690D01*
X139543865Y-64378555D01*
X139588917Y-64339516D01*
X139681610Y-64292287D01*
X139733726Y-64254423D01*
X139847213Y-64171971D01*
X139847215Y-64171968D01*
X139847219Y-64171966D01*
X139991966Y-64027219D01*
X139991968Y-64027215D01*
X139991971Y-64027213D01*
X140061727Y-63931200D01*
X140112287Y-63861610D01*
X140205220Y-63679219D01*
X140268477Y-63484534D01*
X140300500Y-63282352D01*
X140300500Y-63077648D01*
X140285563Y-62983342D01*
X140268477Y-62875465D01*
X140205218Y-62680776D01*
X140171503Y-62614607D01*
X140112287Y-62498390D01*
X140103600Y-62486433D01*
X139991971Y-62332786D01*
X139847213Y-62188028D01*
X139681614Y-62067715D01*
X139649531Y-62051368D01*
X139588917Y-62020483D01*
X139538123Y-61972511D01*
X139521328Y-61904690D01*
X139543865Y-61838555D01*
X139588917Y-61799516D01*
X139681610Y-61752287D01*
X139702770Y-61736913D01*
X139847213Y-61631971D01*
X139847215Y-61631968D01*
X139847219Y-61631966D01*
X139991966Y-61487219D01*
X139991968Y-61487215D01*
X139991971Y-61487213D01*
X140044732Y-61414590D01*
X140112287Y-61321610D01*
X140205220Y-61139219D01*
X140268477Y-60944534D01*
X140300500Y-60742352D01*
X140300500Y-60537648D01*
X140268477Y-60335466D01*
X140260018Y-60309433D01*
X140205218Y-60140776D01*
X140171503Y-60074607D01*
X140112287Y-59958390D01*
X140104556Y-59947749D01*
X139991971Y-59792786D01*
X139847217Y-59648032D01*
X139770415Y-59592232D01*
X139727750Y-59536902D01*
X139721771Y-59467288D01*
X139754377Y-59405494D01*
X139812640Y-59371765D01*
X139833022Y-59366563D01*
X139833035Y-59366559D01*
X139889582Y-59343135D01*
X139129409Y-58582962D01*
X139192993Y-58565925D01*
X139307007Y-58500099D01*
X139400099Y-58407007D01*
X139465925Y-58292993D01*
X139482962Y-58229409D01*
X140243135Y-58989582D01*
X140243137Y-58989582D01*
X140266552Y-58933053D01*
X140284544Y-58882053D01*
X140304999Y-58739780D01*
X140305000Y-58739779D01*
X140305000Y-57460224D01*
X140304999Y-57460204D01*
X140302106Y-57406237D01*
X140302106Y-57406235D01*
X140266558Y-57266960D01*
X140243136Y-57210415D01*
X140243135Y-57210415D01*
X139482962Y-57970589D01*
X139465925Y-57907007D01*
X139400099Y-57792993D01*
X139307007Y-57699901D01*
X139192993Y-57634075D01*
X139129410Y-57617037D01*
X139889583Y-56856863D01*
X139889583Y-56856862D01*
X139833052Y-56833447D01*
X139833013Y-56833432D01*
X139804375Y-56823329D01*
X139747704Y-56782463D01*
X139722122Y-56717444D01*
X139735754Y-56648917D01*
X139772745Y-56606074D01*
X139847215Y-56551969D01*
X139847215Y-56551968D01*
X139847219Y-56551966D01*
X139991966Y-56407219D01*
X139991968Y-56407215D01*
X139991971Y-56407213D01*
X140059818Y-56313828D01*
X140112287Y-56241610D01*
X140205220Y-56059219D01*
X140268477Y-55864534D01*
X140300500Y-55662352D01*
X140300500Y-55457648D01*
X140268477Y-55255466D01*
X140205220Y-55060781D01*
X140205218Y-55060778D01*
X140205218Y-55060776D01*
X140167099Y-54985965D01*
X140112287Y-54878390D01*
X140078557Y-54831964D01*
X139991971Y-54712786D01*
X139847213Y-54568028D01*
X139681612Y-54447714D01*
X139678186Y-54445968D01*
X139588917Y-54400483D01*
X139538123Y-54352511D01*
X139521328Y-54284690D01*
X139543865Y-54218555D01*
X139588917Y-54179516D01*
X139681610Y-54132287D01*
X139748423Y-54083745D01*
X139847213Y-54011971D01*
X139847215Y-54011968D01*
X139847219Y-54011966D01*
X139991966Y-53867219D01*
X139991968Y-53867215D01*
X139991971Y-53867213D01*
X140074752Y-53753273D01*
X140112287Y-53701610D01*
X140205220Y-53519219D01*
X140268477Y-53324534D01*
X140300500Y-53122352D01*
X140300500Y-52917648D01*
X140268477Y-52715466D01*
X140205220Y-52520781D01*
X140205218Y-52520778D01*
X140205218Y-52520776D01*
X140149602Y-52411625D01*
X140112287Y-52338390D01*
X140098625Y-52319586D01*
X139991971Y-52172786D01*
X139847213Y-52028028D01*
X139681614Y-51907715D01*
X139675006Y-51904348D01*
X139588917Y-51860483D01*
X139538123Y-51812511D01*
X139521328Y-51744690D01*
X139543865Y-51678555D01*
X139588917Y-51639516D01*
X139681610Y-51592287D01*
X139748423Y-51543745D01*
X139847213Y-51471971D01*
X139847215Y-51471968D01*
X139847219Y-51471966D01*
X139991966Y-51327219D01*
X139991968Y-51327215D01*
X139991971Y-51327213D01*
X140074752Y-51213273D01*
X140112287Y-51161610D01*
X140205220Y-50979219D01*
X140268477Y-50784534D01*
X140300500Y-50582352D01*
X140300500Y-50377648D01*
X140268477Y-50175466D01*
X140205220Y-49980781D01*
X140205218Y-49980778D01*
X140205218Y-49980776D01*
X140171503Y-49914607D01*
X140112287Y-49798390D01*
X140104556Y-49787749D01*
X139991971Y-49632786D01*
X139847213Y-49488028D01*
X139681614Y-49367715D01*
X139675006Y-49364348D01*
X139588917Y-49320483D01*
X139538123Y-49272511D01*
X139521328Y-49204690D01*
X139543865Y-49138555D01*
X139588917Y-49099516D01*
X139681610Y-49052287D01*
X139702770Y-49036913D01*
X139847213Y-48931971D01*
X139847215Y-48931968D01*
X139847219Y-48931966D01*
X139991966Y-48787219D01*
X139991968Y-48787215D01*
X139991971Y-48787213D01*
X140044732Y-48714590D01*
X140112287Y-48621610D01*
X140205220Y-48439219D01*
X140268477Y-48244534D01*
X140300500Y-48042352D01*
X140300500Y-47837648D01*
X140268477Y-47635466D01*
X140205220Y-47440781D01*
X140205218Y-47440778D01*
X140205218Y-47440776D01*
X140171503Y-47374607D01*
X140112287Y-47258390D01*
X140104556Y-47247749D01*
X139991971Y-47092786D01*
X139847217Y-46948032D01*
X139770415Y-46892232D01*
X139727750Y-46836902D01*
X139721771Y-46767288D01*
X139754377Y-46705494D01*
X139812640Y-46671765D01*
X139833022Y-46666563D01*
X139833035Y-46666559D01*
X139889582Y-46643135D01*
X139129409Y-45882962D01*
X139192993Y-45865925D01*
X139307007Y-45800099D01*
X139400099Y-45707007D01*
X139465925Y-45592993D01*
X139482962Y-45529409D01*
X140243135Y-46289582D01*
X140243137Y-46289582D01*
X140266552Y-46233053D01*
X140284544Y-46182053D01*
X140304999Y-46039780D01*
X140305000Y-46039779D01*
X140305000Y-44760214D01*
X140302106Y-44706237D01*
X140302106Y-44706235D01*
X140266558Y-44566960D01*
X140243136Y-44510415D01*
X140243135Y-44510415D01*
X139482962Y-45270589D01*
X139465925Y-45207007D01*
X139400099Y-45092993D01*
X139307007Y-44999901D01*
X139192993Y-44934075D01*
X139129410Y-44917037D01*
X139889583Y-44156863D01*
X139889583Y-44156862D01*
X139833052Y-44133447D01*
X139833013Y-44133432D01*
X139804375Y-44123329D01*
X139747704Y-44082463D01*
X139722122Y-44017444D01*
X139735754Y-43948917D01*
X139772745Y-43906074D01*
X139847215Y-43851969D01*
X139847215Y-43851968D01*
X139847219Y-43851966D01*
X139991966Y-43707219D01*
X139991968Y-43707215D01*
X139991971Y-43707213D01*
X140055199Y-43620185D01*
X140112287Y-43541610D01*
X140205220Y-43359219D01*
X140268477Y-43164534D01*
X140277098Y-43110104D01*
X140790000Y-43110104D01*
X140790000Y-43110105D01*
X140790000Y-47450000D01*
X154990000Y-47450000D01*
X154990000Y-44760219D01*
X155475000Y-44760219D01*
X155475000Y-46039785D01*
X155477893Y-46093762D01*
X155477893Y-46093764D01*
X155513438Y-46233030D01*
X155513440Y-46233037D01*
X155536863Y-46289583D01*
X156297037Y-45529409D01*
X156314075Y-45592993D01*
X156379901Y-45707007D01*
X156472993Y-45800099D01*
X156587007Y-45865925D01*
X156650590Y-45882962D01*
X155890415Y-46643135D01*
X155890415Y-46643136D01*
X155946954Y-46666556D01*
X155946961Y-46666558D01*
X155975621Y-46676669D01*
X156032294Y-46717534D01*
X156057876Y-46782552D01*
X156044246Y-46851080D01*
X156007256Y-46893924D01*
X155932782Y-46948032D01*
X155788028Y-47092786D01*
X155667715Y-47258386D01*
X155574781Y-47440776D01*
X155511522Y-47635465D01*
X155479500Y-47837648D01*
X155479500Y-48042351D01*
X155511522Y-48244534D01*
X155574781Y-48439223D01*
X155636105Y-48559576D01*
X155656957Y-48600501D01*
X155667715Y-48621613D01*
X155788028Y-48787213D01*
X155932786Y-48931971D01*
X156087749Y-49044556D01*
X156098390Y-49052287D01*
X156189840Y-49098883D01*
X156191080Y-49099515D01*
X156241876Y-49147490D01*
X156258671Y-49215311D01*
X156236134Y-49281446D01*
X156191080Y-49320485D01*
X156098386Y-49367715D01*
X155932786Y-49488028D01*
X155788028Y-49632786D01*
X155667715Y-49798386D01*
X155574781Y-49980776D01*
X155511522Y-50175465D01*
X155479500Y-50377648D01*
X155479500Y-50582351D01*
X155511522Y-50784534D01*
X155574781Y-50979223D01*
X155667715Y-51161613D01*
X155788028Y-51327213D01*
X155932786Y-51471971D01*
X156085978Y-51583269D01*
X156098390Y-51592287D01*
X156189840Y-51638883D01*
X156191080Y-51639515D01*
X156241876Y-51687490D01*
X156258671Y-51755311D01*
X156236134Y-51821446D01*
X156191080Y-51860485D01*
X156098386Y-51907715D01*
X155932786Y-52028028D01*
X155788028Y-52172786D01*
X155667715Y-52338386D01*
X155574781Y-52520776D01*
X155511522Y-52715465D01*
X155479500Y-52917648D01*
X155479500Y-53122351D01*
X155511522Y-53324534D01*
X155574781Y-53519223D01*
X155667715Y-53701613D01*
X155788028Y-53867213D01*
X155932786Y-54011971D01*
X156087749Y-54124556D01*
X156098390Y-54132287D01*
X156189840Y-54178883D01*
X156191080Y-54179515D01*
X156241876Y-54227490D01*
X156258671Y-54295311D01*
X156236134Y-54361446D01*
X156191080Y-54400485D01*
X156098388Y-54447714D01*
X155932786Y-54568028D01*
X155788028Y-54712786D01*
X155667715Y-54878386D01*
X155574781Y-55060776D01*
X155511522Y-55255465D01*
X155479500Y-55457648D01*
X155479500Y-55662351D01*
X155511522Y-55864534D01*
X155574781Y-56059223D01*
X155667715Y-56241613D01*
X155788028Y-56407213D01*
X155932782Y-56551967D01*
X155932787Y-56551971D01*
X156009583Y-56607767D01*
X156052249Y-56663097D01*
X156058228Y-56732710D01*
X156025622Y-56794505D01*
X155967365Y-56828233D01*
X155946967Y-56833439D01*
X155946956Y-56833442D01*
X155890415Y-56856862D01*
X156650590Y-57617037D01*
X156587007Y-57634075D01*
X156472993Y-57699901D01*
X156379901Y-57792993D01*
X156314075Y-57907007D01*
X156297037Y-57970589D01*
X155536862Y-57210415D01*
X155513449Y-57266940D01*
X155495455Y-57317946D01*
X155475000Y-57460219D01*
X155475000Y-58739785D01*
X155477893Y-58793762D01*
X155477893Y-58793764D01*
X155513438Y-58933030D01*
X155513440Y-58933037D01*
X155536863Y-58989583D01*
X156297037Y-58229409D01*
X156314075Y-58292993D01*
X156379901Y-58407007D01*
X156472993Y-58500099D01*
X156587007Y-58565925D01*
X156650590Y-58582962D01*
X155890415Y-59343135D01*
X155890415Y-59343136D01*
X155946954Y-59366556D01*
X155946961Y-59366558D01*
X155975621Y-59376669D01*
X156032294Y-59417534D01*
X156057876Y-59482552D01*
X156044246Y-59551080D01*
X156007256Y-59593924D01*
X155932782Y-59648032D01*
X155788028Y-59792786D01*
X155667715Y-59958386D01*
X155574781Y-60140776D01*
X155511522Y-60335465D01*
X155479500Y-60537648D01*
X155479500Y-60742351D01*
X155511522Y-60944534D01*
X155574781Y-61139223D01*
X155667715Y-61321613D01*
X155788028Y-61487213D01*
X155932786Y-61631971D01*
X156087749Y-61744556D01*
X156098390Y-61752287D01*
X156185581Y-61796713D01*
X156191080Y-61799515D01*
X156241876Y-61847490D01*
X156258671Y-61915311D01*
X156236134Y-61981446D01*
X156191080Y-62020485D01*
X156098386Y-62067715D01*
X155932786Y-62188028D01*
X155788028Y-62332786D01*
X155667715Y-62498386D01*
X155574781Y-62680776D01*
X155511522Y-62875465D01*
X155479500Y-63077648D01*
X155479500Y-63282351D01*
X155511522Y-63484534D01*
X155574781Y-63679223D01*
X155667715Y-63861613D01*
X155788028Y-64027213D01*
X155932786Y-64171971D01*
X156046274Y-64254423D01*
X156098390Y-64292287D01*
X156185581Y-64336713D01*
X156191080Y-64339515D01*
X156241876Y-64387490D01*
X156258671Y-64455311D01*
X156236134Y-64521446D01*
X156191080Y-64560485D01*
X156098386Y-64607715D01*
X155932786Y-64728028D01*
X155788028Y-64872786D01*
X155667715Y-65038386D01*
X155574781Y-65220776D01*
X155511522Y-65415465D01*
X155479500Y-65617648D01*
X155479500Y-65822351D01*
X155511522Y-66024534D01*
X155574781Y-66219223D01*
X155667715Y-66401613D01*
X155788028Y-66567213D01*
X155932786Y-66711971D01*
X156087749Y-66824556D01*
X156098390Y-66832287D01*
X156189840Y-66878883D01*
X156191080Y-66879515D01*
X156241876Y-66927490D01*
X156258671Y-66995311D01*
X156236134Y-67061446D01*
X156191080Y-67100485D01*
X156098386Y-67147715D01*
X155932786Y-67268028D01*
X155788028Y-67412786D01*
X155667715Y-67578386D01*
X155574781Y-67760776D01*
X155511522Y-67955465D01*
X155479500Y-68157648D01*
X155479500Y-68362351D01*
X155511522Y-68564534D01*
X155574781Y-68759223D01*
X155667715Y-68941613D01*
X155788028Y-69107213D01*
X155932782Y-69251967D01*
X155932787Y-69251971D01*
X156009583Y-69307767D01*
X156052249Y-69363097D01*
X156058228Y-69432710D01*
X156025622Y-69494505D01*
X155967365Y-69528233D01*
X155946967Y-69533439D01*
X155946956Y-69533442D01*
X155890415Y-69556862D01*
X156650590Y-70317037D01*
X156587007Y-70334075D01*
X156472993Y-70399901D01*
X156379901Y-70492993D01*
X156314075Y-70607007D01*
X156297037Y-70670590D01*
X155536862Y-69910415D01*
X155513449Y-69966940D01*
X155495455Y-70017946D01*
X155475000Y-70160219D01*
X155475000Y-71439785D01*
X155477893Y-71493762D01*
X155477893Y-71493764D01*
X155513438Y-71633030D01*
X155513440Y-71633037D01*
X155536863Y-71689583D01*
X156297037Y-70929409D01*
X156314075Y-70992993D01*
X156379901Y-71107007D01*
X156472993Y-71200099D01*
X156587007Y-71265925D01*
X156650590Y-71282962D01*
X155890415Y-72043135D01*
X155890415Y-72043136D01*
X155946954Y-72066556D01*
X155946961Y-72066558D01*
X155975621Y-72076669D01*
X156032294Y-72117534D01*
X156057876Y-72182552D01*
X156044246Y-72251080D01*
X156007256Y-72293924D01*
X155932782Y-72348032D01*
X155788028Y-72492786D01*
X155667715Y-72658386D01*
X155574781Y-72840776D01*
X155511522Y-73035465D01*
X155479500Y-73237648D01*
X155479500Y-73442351D01*
X155511522Y-73644534D01*
X155574781Y-73839223D01*
X155667715Y-74021613D01*
X155788028Y-74187213D01*
X155932786Y-74331971D01*
X156087749Y-74444556D01*
X156098390Y-74452287D01*
X156189840Y-74498883D01*
X156191080Y-74499515D01*
X156241876Y-74547490D01*
X156258671Y-74615311D01*
X156236134Y-74681446D01*
X156191080Y-74720485D01*
X156098386Y-74767715D01*
X155932786Y-74888028D01*
X155788028Y-75032786D01*
X155667715Y-75198386D01*
X155574781Y-75380776D01*
X155511522Y-75575465D01*
X155479500Y-75777648D01*
X155479500Y-75982351D01*
X155511522Y-76184534D01*
X155574781Y-76379223D01*
X155638691Y-76504653D01*
X155656017Y-76538656D01*
X155667715Y-76561613D01*
X155788028Y-76727213D01*
X155932786Y-76871971D01*
X156087749Y-76984556D01*
X156098390Y-76992287D01*
X156189840Y-77038883D01*
X156191080Y-77039515D01*
X156241876Y-77087490D01*
X156258671Y-77155311D01*
X156236134Y-77221446D01*
X156191080Y-77260485D01*
X156098386Y-77307715D01*
X155932786Y-77428028D01*
X155788028Y-77572786D01*
X155667715Y-77738386D01*
X155574781Y-77920776D01*
X155511522Y-78115465D01*
X155479500Y-78317648D01*
X155479500Y-78522351D01*
X155511522Y-78724534D01*
X155574781Y-78919223D01*
X155667715Y-79101613D01*
X155788028Y-79267213D01*
X155932786Y-79411971D01*
X156087749Y-79524556D01*
X156098390Y-79532287D01*
X156189840Y-79578883D01*
X156191080Y-79579515D01*
X156241876Y-79627490D01*
X156258671Y-79695311D01*
X156236134Y-79761446D01*
X156191080Y-79800485D01*
X156098386Y-79847715D01*
X155932786Y-79968028D01*
X155788028Y-80112786D01*
X155667715Y-80278386D01*
X155574781Y-80460776D01*
X155511522Y-80655465D01*
X155479500Y-80857648D01*
X155479500Y-81062351D01*
X155511522Y-81264534D01*
X155574781Y-81459223D01*
X155667715Y-81641613D01*
X155788028Y-81807213D01*
X155932782Y-81951967D01*
X155932787Y-81951971D01*
X156009583Y-82007767D01*
X156052249Y-82063097D01*
X156058228Y-82132710D01*
X156025622Y-82194505D01*
X155967365Y-82228233D01*
X155946967Y-82233439D01*
X155946956Y-82233442D01*
X155890415Y-82256862D01*
X156650590Y-83017037D01*
X156587007Y-83034075D01*
X156472993Y-83099901D01*
X156379901Y-83192993D01*
X156314075Y-83307007D01*
X156297037Y-83370590D01*
X155536862Y-82610415D01*
X155513449Y-82666940D01*
X155495455Y-82717946D01*
X155475000Y-82860219D01*
X155475000Y-84139785D01*
X155477893Y-84193762D01*
X155477893Y-84193764D01*
X155513438Y-84333030D01*
X155513440Y-84333037D01*
X155536863Y-84389583D01*
X156297037Y-83629409D01*
X156314075Y-83692993D01*
X156379901Y-83807007D01*
X156472993Y-83900099D01*
X156587007Y-83965925D01*
X156650590Y-83982962D01*
X155890415Y-84743135D01*
X155890415Y-84743136D01*
X155946954Y-84766556D01*
X155946961Y-84766558D01*
X155975621Y-84776669D01*
X156032294Y-84817534D01*
X156057876Y-84882552D01*
X156044246Y-84951080D01*
X156007256Y-84993924D01*
X155932782Y-85048032D01*
X155788028Y-85192786D01*
X155667715Y-85358386D01*
X155574781Y-85540776D01*
X155511522Y-85735465D01*
X155479500Y-85937648D01*
X155479500Y-86142351D01*
X155511522Y-86344534D01*
X155574781Y-86539223D01*
X155667715Y-86721613D01*
X155788028Y-86887213D01*
X155932786Y-87031971D01*
X156013559Y-87090655D01*
X156056225Y-87145984D01*
X156062204Y-87215598D01*
X156029599Y-87277393D01*
X155977565Y-87309358D01*
X155890396Y-87336521D01*
X155744811Y-87424530D01*
X155624530Y-87544811D01*
X155536522Y-87690393D01*
X155485913Y-87852807D01*
X155479500Y-87923386D01*
X155479500Y-89236613D01*
X155485913Y-89307192D01*
X155485913Y-89307194D01*
X155485914Y-89307196D01*
X155536522Y-89469606D01*
X155573247Y-89530357D01*
X155624530Y-89615188D01*
X155744811Y-89735469D01*
X155744813Y-89735470D01*
X155744815Y-89735472D01*
X155890394Y-89823478D01*
X156052804Y-89874086D01*
X156123384Y-89880500D01*
X156123387Y-89880500D01*
X157436613Y-89880500D01*
X157436616Y-89880500D01*
X157507196Y-89874086D01*
X157669606Y-89823478D01*
X157815185Y-89735472D01*
X157935472Y-89615185D01*
X158023478Y-89469606D01*
X158074086Y-89307196D01*
X158080500Y-89236616D01*
X158080500Y-87923384D01*
X158074086Y-87852804D01*
X158023478Y-87690394D01*
X157935472Y-87544815D01*
X157935470Y-87544813D01*
X157935469Y-87544811D01*
X157815188Y-87424530D01*
X157808497Y-87420485D01*
X157669606Y-87336522D01*
X157669604Y-87336521D01*
X157669602Y-87336520D01*
X157669603Y-87336520D01*
X157582435Y-87309358D01*
X157524287Y-87270621D01*
X157496313Y-87206595D01*
X157507395Y-87137610D01*
X157546441Y-87090654D01*
X157627215Y-87031969D01*
X157627215Y-87031968D01*
X157627219Y-87031966D01*
X157771966Y-86887219D01*
X157771968Y-86887215D01*
X157771971Y-86887213D01*
X157824732Y-86814590D01*
X157892287Y-86721610D01*
X157985220Y-86539219D01*
X158048477Y-86344534D01*
X158080500Y-86142352D01*
X158080500Y-85937648D01*
X158048477Y-85735466D01*
X158041496Y-85713982D01*
X157985218Y-85540776D01*
X157951503Y-85474607D01*
X157892287Y-85358390D01*
X157869834Y-85327486D01*
X157771971Y-85192786D01*
X157627213Y-85048028D01*
X157461614Y-84927715D01*
X157453410Y-84923535D01*
X157375703Y-84883941D01*
X157324908Y-84835968D01*
X157308113Y-84768147D01*
X157330650Y-84702012D01*
X157373546Y-84664099D01*
X157439493Y-84628849D01*
X157439511Y-84628838D01*
X157508912Y-84582465D01*
X156909409Y-83982962D01*
X156972993Y-83965925D01*
X157087007Y-83900099D01*
X157180099Y-83807007D01*
X157245925Y-83692993D01*
X157262962Y-83629409D01*
X157862465Y-84228912D01*
X157908838Y-84159511D01*
X157908844Y-84159501D01*
X157955509Y-84072198D01*
X158015814Y-83926612D01*
X158044555Y-83831864D01*
X158075298Y-83677302D01*
X158075298Y-83677299D01*
X158085000Y-83578789D01*
X158085000Y-83421210D01*
X158075298Y-83322700D01*
X158075298Y-83322697D01*
X158044555Y-83168135D01*
X158015814Y-83073387D01*
X157955509Y-82927801D01*
X157908841Y-82840493D01*
X157862465Y-82771086D01*
X157862465Y-82771085D01*
X157262962Y-83370589D01*
X157245925Y-83307007D01*
X157180099Y-83192993D01*
X157087007Y-83099901D01*
X156972993Y-83034075D01*
X156909410Y-83017037D01*
X157508913Y-82417534D01*
X157508912Y-82417533D01*
X157439506Y-82371158D01*
X157373545Y-82335900D01*
X157323701Y-82286937D01*
X157308241Y-82218799D01*
X157332073Y-82153119D01*
X157375702Y-82116059D01*
X157461610Y-82072287D01*
X157552745Y-82006074D01*
X157627213Y-81951971D01*
X157627215Y-81951968D01*
X157627219Y-81951966D01*
X157771966Y-81807219D01*
X157771968Y-81807215D01*
X157771971Y-81807213D01*
X157824732Y-81734590D01*
X157892287Y-81641610D01*
X157985220Y-81459219D01*
X158048477Y-81264534D01*
X158080500Y-81062352D01*
X158080500Y-80857648D01*
X158048477Y-80655466D01*
X157985220Y-80460781D01*
X157985218Y-80460778D01*
X157985218Y-80460776D01*
X157951503Y-80394607D01*
X157892287Y-80278390D01*
X157827457Y-80189158D01*
X157771971Y-80112786D01*
X157627213Y-79968028D01*
X157461614Y-79847715D01*
X157455006Y-79844348D01*
X157368917Y-79800483D01*
X157318123Y-79752511D01*
X157301328Y-79684690D01*
X157323865Y-79618555D01*
X157368917Y-79579516D01*
X157461610Y-79532287D01*
X157482770Y-79516913D01*
X157627213Y-79411971D01*
X157627215Y-79411968D01*
X157627219Y-79411966D01*
X157771966Y-79267219D01*
X157771968Y-79267215D01*
X157771971Y-79267213D01*
X157824732Y-79194590D01*
X157892287Y-79101610D01*
X157985220Y-78919219D01*
X158048477Y-78724534D01*
X158080500Y-78522352D01*
X158080500Y-78317648D01*
X158048477Y-78115466D01*
X157985220Y-77920781D01*
X157985218Y-77920778D01*
X157985218Y-77920776D01*
X157951503Y-77854607D01*
X157892287Y-77738390D01*
X157884556Y-77727749D01*
X157771971Y-77572786D01*
X157627213Y-77428028D01*
X157461614Y-77307715D01*
X157455006Y-77304348D01*
X157368917Y-77260483D01*
X157318123Y-77212511D01*
X157301328Y-77144690D01*
X157323865Y-77078555D01*
X157368917Y-77039516D01*
X157461610Y-76992287D01*
X157482770Y-76976913D01*
X157627213Y-76871971D01*
X157627215Y-76871968D01*
X157627219Y-76871966D01*
X157771966Y-76727219D01*
X157771968Y-76727215D01*
X157771971Y-76727213D01*
X157824732Y-76654590D01*
X157892287Y-76561610D01*
X157985220Y-76379219D01*
X158048477Y-76184534D01*
X158080500Y-75982352D01*
X158080500Y-75777648D01*
X158048477Y-75575466D01*
X157985220Y-75380781D01*
X157985218Y-75380778D01*
X157985218Y-75380776D01*
X157951503Y-75314607D01*
X157892287Y-75198390D01*
X157884556Y-75187749D01*
X157771971Y-75032786D01*
X157627213Y-74888028D01*
X157461614Y-74767715D01*
X157455006Y-74764348D01*
X157368917Y-74720483D01*
X157318123Y-74672511D01*
X157301328Y-74604690D01*
X157323865Y-74538555D01*
X157368917Y-74499516D01*
X157461610Y-74452287D01*
X157482770Y-74436913D01*
X157627213Y-74331971D01*
X157627215Y-74331968D01*
X157627219Y-74331966D01*
X157771966Y-74187219D01*
X157771968Y-74187215D01*
X157771971Y-74187213D01*
X157834970Y-74100501D01*
X157892287Y-74021610D01*
X157985220Y-73839219D01*
X158048477Y-73644534D01*
X158080500Y-73442352D01*
X158080500Y-73237648D01*
X158069061Y-73165425D01*
X158048477Y-73035465D01*
X158004299Y-72899500D01*
X157985220Y-72840781D01*
X157985218Y-72840778D01*
X157985218Y-72840776D01*
X157951503Y-72774607D01*
X157892287Y-72658390D01*
X157884556Y-72647749D01*
X157771971Y-72492786D01*
X157627213Y-72348028D01*
X157461614Y-72227715D01*
X157376242Y-72184216D01*
X157375703Y-72183941D01*
X157324908Y-72135968D01*
X157308113Y-72068147D01*
X157330650Y-72002012D01*
X157373546Y-71964099D01*
X157439493Y-71928849D01*
X157439511Y-71928838D01*
X157508912Y-71882465D01*
X156909409Y-71282962D01*
X156972993Y-71265925D01*
X157087007Y-71200099D01*
X157180099Y-71107007D01*
X157245925Y-70992993D01*
X157262962Y-70929409D01*
X157862465Y-71528912D01*
X157908838Y-71459511D01*
X157908844Y-71459501D01*
X157955509Y-71372198D01*
X158015814Y-71226612D01*
X158044555Y-71131864D01*
X158075298Y-70977302D01*
X158075298Y-70977299D01*
X158085000Y-70878789D01*
X158085000Y-70721210D01*
X158075298Y-70622700D01*
X158075298Y-70622697D01*
X158044555Y-70468135D01*
X158015814Y-70373387D01*
X157955509Y-70227801D01*
X157908841Y-70140493D01*
X157862465Y-70071086D01*
X157862465Y-70071085D01*
X157262962Y-70670589D01*
X157245925Y-70607007D01*
X157180099Y-70492993D01*
X157087007Y-70399901D01*
X156972993Y-70334075D01*
X156909410Y-70317037D01*
X157508913Y-69717534D01*
X157508912Y-69717533D01*
X157439506Y-69671158D01*
X157373545Y-69635900D01*
X157323701Y-69586937D01*
X157308241Y-69518799D01*
X157332073Y-69453119D01*
X157375702Y-69416059D01*
X157461610Y-69372287D01*
X157550415Y-69307767D01*
X157627213Y-69251971D01*
X157627215Y-69251968D01*
X157627219Y-69251966D01*
X157771966Y-69107219D01*
X157771968Y-69107215D01*
X157771971Y-69107213D01*
X157824732Y-69034590D01*
X157892287Y-68941610D01*
X157985220Y-68759219D01*
X158048477Y-68564534D01*
X158080500Y-68362352D01*
X158080500Y-68157648D01*
X158048477Y-67955466D01*
X157985220Y-67760781D01*
X157985218Y-67760778D01*
X157985218Y-67760776D01*
X157951503Y-67694607D01*
X157892287Y-67578390D01*
X157830156Y-67492873D01*
X157771971Y-67412786D01*
X157627213Y-67268028D01*
X157461614Y-67147715D01*
X157455006Y-67144348D01*
X157368917Y-67100483D01*
X157318123Y-67052511D01*
X157301328Y-66984690D01*
X157323865Y-66918555D01*
X157368917Y-66879516D01*
X157461610Y-66832287D01*
X157550202Y-66767922D01*
X157627213Y-66711971D01*
X157627215Y-66711968D01*
X157627219Y-66711966D01*
X157771966Y-66567219D01*
X157771968Y-66567215D01*
X157771971Y-66567213D01*
X157824732Y-66494590D01*
X157892287Y-66401610D01*
X157985220Y-66219219D01*
X158048477Y-66024534D01*
X158080500Y-65822352D01*
X158080500Y-65617648D01*
X158068722Y-65543285D01*
X158048477Y-65415465D01*
X157985218Y-65220776D01*
X157940680Y-65133366D01*
X157892287Y-65038390D01*
X157814410Y-64931200D01*
X157771971Y-64872786D01*
X157627213Y-64728028D01*
X157461614Y-64607715D01*
X157455006Y-64604348D01*
X157368917Y-64560483D01*
X157318123Y-64512511D01*
X157301328Y-64444690D01*
X157323865Y-64378555D01*
X157368917Y-64339516D01*
X157461610Y-64292287D01*
X157513726Y-64254423D01*
X157627213Y-64171971D01*
X157627215Y-64171968D01*
X157627219Y-64171966D01*
X157771966Y-64027219D01*
X157771968Y-64027215D01*
X157771971Y-64027213D01*
X157841727Y-63931200D01*
X157892287Y-63861610D01*
X157985220Y-63679219D01*
X158048477Y-63484534D01*
X158080500Y-63282352D01*
X158080500Y-63077648D01*
X158065563Y-62983342D01*
X158048477Y-62875465D01*
X157985218Y-62680776D01*
X157951503Y-62614607D01*
X157892287Y-62498390D01*
X157883600Y-62486433D01*
X157771971Y-62332786D01*
X157627213Y-62188028D01*
X157461614Y-62067715D01*
X157429531Y-62051368D01*
X157368917Y-62020483D01*
X157318123Y-61972511D01*
X157301328Y-61904690D01*
X157323865Y-61838555D01*
X157368917Y-61799516D01*
X157461610Y-61752287D01*
X157482770Y-61736913D01*
X157627213Y-61631971D01*
X157627215Y-61631968D01*
X157627219Y-61631966D01*
X157771966Y-61487219D01*
X157771968Y-61487215D01*
X157771971Y-61487213D01*
X157824732Y-61414590D01*
X157892287Y-61321610D01*
X157985220Y-61139219D01*
X158048477Y-60944534D01*
X158080500Y-60742352D01*
X158080500Y-60537648D01*
X158048477Y-60335466D01*
X158040018Y-60309433D01*
X157985218Y-60140776D01*
X157951503Y-60074607D01*
X157892287Y-59958390D01*
X157884556Y-59947749D01*
X157771971Y-59792786D01*
X157627213Y-59648028D01*
X157461614Y-59527715D01*
X157453410Y-59523535D01*
X157375703Y-59483941D01*
X157324908Y-59435968D01*
X157308113Y-59368147D01*
X157330650Y-59302012D01*
X157373546Y-59264099D01*
X157439493Y-59228849D01*
X157439511Y-59228838D01*
X157508912Y-59182465D01*
X156909409Y-58582962D01*
X156972993Y-58565925D01*
X157087007Y-58500099D01*
X157180099Y-58407007D01*
X157245925Y-58292993D01*
X157262962Y-58229409D01*
X157862465Y-58828912D01*
X157908838Y-58759511D01*
X157908844Y-58759501D01*
X157955509Y-58672198D01*
X158015814Y-58526612D01*
X158044555Y-58431864D01*
X158075298Y-58277302D01*
X158075298Y-58277299D01*
X158085000Y-58178789D01*
X158085000Y-58021210D01*
X158075298Y-57922700D01*
X158075298Y-57922697D01*
X158044555Y-57768135D01*
X158015814Y-57673387D01*
X157955509Y-57527801D01*
X157908841Y-57440493D01*
X157862465Y-57371086D01*
X157862465Y-57371085D01*
X157262962Y-57970589D01*
X157245925Y-57907007D01*
X157180099Y-57792993D01*
X157087007Y-57699901D01*
X156972993Y-57634075D01*
X156909410Y-57617037D01*
X157508913Y-57017534D01*
X157508912Y-57017533D01*
X157439506Y-56971158D01*
X157373545Y-56935900D01*
X157323701Y-56886937D01*
X157308241Y-56818799D01*
X157332073Y-56753119D01*
X157375702Y-56716059D01*
X157461610Y-56672287D01*
X157552745Y-56606074D01*
X157627213Y-56551971D01*
X157627215Y-56551968D01*
X157627219Y-56551966D01*
X157771966Y-56407219D01*
X157771968Y-56407215D01*
X157771971Y-56407213D01*
X157839818Y-56313828D01*
X157892287Y-56241610D01*
X157985220Y-56059219D01*
X158048477Y-55864534D01*
X158080500Y-55662352D01*
X158080500Y-55457648D01*
X158048477Y-55255466D01*
X157985220Y-55060781D01*
X157985218Y-55060778D01*
X157985218Y-55060776D01*
X157947099Y-54985965D01*
X157892287Y-54878390D01*
X157858557Y-54831964D01*
X157771971Y-54712786D01*
X157627213Y-54568028D01*
X157461612Y-54447714D01*
X157458186Y-54445968D01*
X157368917Y-54400483D01*
X157318123Y-54352511D01*
X157301328Y-54284690D01*
X157323865Y-54218555D01*
X157368917Y-54179516D01*
X157461610Y-54132287D01*
X157528423Y-54083745D01*
X157627213Y-54011971D01*
X157627215Y-54011968D01*
X157627219Y-54011966D01*
X157771966Y-53867219D01*
X157771968Y-53867215D01*
X157771971Y-53867213D01*
X157854752Y-53753273D01*
X157892287Y-53701610D01*
X157985220Y-53519219D01*
X158048477Y-53324534D01*
X158080500Y-53122352D01*
X158080500Y-52917648D01*
X158048477Y-52715466D01*
X157985220Y-52520781D01*
X157985218Y-52520778D01*
X157985218Y-52520776D01*
X157929602Y-52411625D01*
X157892287Y-52338390D01*
X157878625Y-52319586D01*
X157771971Y-52172786D01*
X157627213Y-52028028D01*
X157461614Y-51907715D01*
X157455006Y-51904348D01*
X157368917Y-51860483D01*
X157318123Y-51812511D01*
X157301328Y-51744690D01*
X157323865Y-51678555D01*
X157368917Y-51639516D01*
X157461610Y-51592287D01*
X157528423Y-51543745D01*
X157627213Y-51471971D01*
X157627215Y-51471968D01*
X157627219Y-51471966D01*
X157771966Y-51327219D01*
X157771968Y-51327215D01*
X157771971Y-51327213D01*
X157854752Y-51213273D01*
X157892287Y-51161610D01*
X157985220Y-50979219D01*
X158048477Y-50784534D01*
X158080500Y-50582352D01*
X158080500Y-50377648D01*
X158048477Y-50175466D01*
X157985220Y-49980781D01*
X157985218Y-49980778D01*
X157985218Y-49980776D01*
X157951503Y-49914607D01*
X157892287Y-49798390D01*
X157884556Y-49787749D01*
X157771971Y-49632786D01*
X157627213Y-49488028D01*
X157461614Y-49367715D01*
X157455006Y-49364348D01*
X157368917Y-49320483D01*
X157318123Y-49272511D01*
X157301328Y-49204690D01*
X157323865Y-49138555D01*
X157368917Y-49099516D01*
X157461610Y-49052287D01*
X157482770Y-49036913D01*
X157627213Y-48931971D01*
X157627215Y-48931968D01*
X157627219Y-48931966D01*
X157771966Y-48787219D01*
X157771968Y-48787215D01*
X157771971Y-48787213D01*
X157824732Y-48714590D01*
X157892287Y-48621610D01*
X157985220Y-48439219D01*
X158048477Y-48244534D01*
X158080500Y-48042352D01*
X158080500Y-47837648D01*
X158048477Y-47635466D01*
X157985220Y-47440781D01*
X157985218Y-47440778D01*
X157985218Y-47440776D01*
X157951503Y-47374607D01*
X157892287Y-47258390D01*
X157884556Y-47247749D01*
X157771971Y-47092786D01*
X157627213Y-46948028D01*
X157461614Y-46827715D01*
X157453410Y-46823535D01*
X157375703Y-46783941D01*
X157324908Y-46735968D01*
X157308113Y-46668147D01*
X157330650Y-46602012D01*
X157373546Y-46564099D01*
X157439493Y-46528849D01*
X157439511Y-46528838D01*
X157508912Y-46482465D01*
X156909409Y-45882962D01*
X156972993Y-45865925D01*
X157087007Y-45800099D01*
X157180099Y-45707007D01*
X157245925Y-45592993D01*
X157262962Y-45529409D01*
X157862465Y-46128912D01*
X157908838Y-46059511D01*
X157908844Y-46059501D01*
X157955509Y-45972198D01*
X158015814Y-45826612D01*
X158044555Y-45731864D01*
X158075298Y-45577302D01*
X158075298Y-45577299D01*
X158085000Y-45478789D01*
X158085000Y-45321210D01*
X158075298Y-45222700D01*
X158075298Y-45222697D01*
X158044555Y-45068135D01*
X158015814Y-44973387D01*
X157955509Y-44827801D01*
X157908841Y-44740493D01*
X157862465Y-44671086D01*
X157862465Y-44671085D01*
X157262962Y-45270589D01*
X157245925Y-45207007D01*
X157180099Y-45092993D01*
X157087007Y-44999901D01*
X156972993Y-44934075D01*
X156909410Y-44917037D01*
X157508913Y-44317534D01*
X157508912Y-44317533D01*
X157439506Y-44271158D01*
X157373545Y-44235900D01*
X157323701Y-44186937D01*
X157308241Y-44118799D01*
X157332073Y-44053119D01*
X157375702Y-44016059D01*
X157461610Y-43972287D01*
X157552745Y-43906074D01*
X157627213Y-43851971D01*
X157627215Y-43851968D01*
X157627219Y-43851966D01*
X157771966Y-43707219D01*
X157771968Y-43707215D01*
X157771971Y-43707213D01*
X157835199Y-43620185D01*
X157892287Y-43541610D01*
X157985220Y-43359219D01*
X158048477Y-43164534D01*
X158080500Y-42962352D01*
X158080500Y-42757648D01*
X158048477Y-42555466D01*
X158036784Y-42519480D01*
X158003375Y-42416657D01*
X157985220Y-42360781D01*
X157985218Y-42360778D01*
X157985218Y-42360776D01*
X157951503Y-42294607D01*
X157892287Y-42178390D01*
X157884556Y-42167749D01*
X157771971Y-42012786D01*
X157627213Y-41868028D01*
X157461614Y-41747715D01*
X157455006Y-41744348D01*
X157368917Y-41700483D01*
X157318123Y-41652511D01*
X157301328Y-41584690D01*
X157323865Y-41518555D01*
X157368917Y-41479516D01*
X157461610Y-41432287D01*
X157482770Y-41416913D01*
X157627213Y-41311971D01*
X157627215Y-41311968D01*
X157627219Y-41311966D01*
X157771966Y-41167219D01*
X157771968Y-41167215D01*
X157771971Y-41167213D01*
X157824732Y-41094590D01*
X157892287Y-41001610D01*
X157985220Y-40819219D01*
X158048477Y-40624534D01*
X158080500Y-40422352D01*
X158080500Y-40217648D01*
X158048477Y-40015466D01*
X157985220Y-39820781D01*
X157985218Y-39820778D01*
X157985218Y-39820776D01*
X157937431Y-39726990D01*
X157892287Y-39638390D01*
X157884556Y-39627749D01*
X157771971Y-39472786D01*
X157627213Y-39328028D01*
X157461613Y-39207715D01*
X157461612Y-39207714D01*
X157461610Y-39207713D01*
X157404653Y-39178691D01*
X157279223Y-39114781D01*
X157084534Y-39051522D01*
X156909995Y-39023878D01*
X156882352Y-39019500D01*
X156677648Y-39019500D01*
X156653329Y-39023351D01*
X156475465Y-39051522D01*
X156280776Y-39114781D01*
X156098386Y-39207715D01*
X155932786Y-39328028D01*
X155788028Y-39472786D01*
X155667715Y-39638386D01*
X155574781Y-39820776D01*
X155511522Y-40015465D01*
X155479500Y-40217648D01*
X155479500Y-40422351D01*
X155511522Y-40624534D01*
X155574781Y-40819223D01*
X155667715Y-41001613D01*
X155788028Y-41167213D01*
X155932786Y-41311971D01*
X156087749Y-41424556D01*
X156098390Y-41432287D01*
X156189840Y-41478883D01*
X156191080Y-41479515D01*
X156241876Y-41527490D01*
X156258671Y-41595311D01*
X156236134Y-41661446D01*
X156191080Y-41700485D01*
X156098386Y-41747715D01*
X155932786Y-41868028D01*
X155788028Y-42012786D01*
X155667715Y-42178386D01*
X155574781Y-42360776D01*
X155511522Y-42555465D01*
X155479500Y-42757648D01*
X155479500Y-42962351D01*
X155511522Y-43164534D01*
X155574781Y-43359223D01*
X155667715Y-43541613D01*
X155788028Y-43707213D01*
X155932782Y-43851967D01*
X155932787Y-43851971D01*
X156009583Y-43907767D01*
X156052249Y-43963097D01*
X156058228Y-44032710D01*
X156025622Y-44094505D01*
X155967365Y-44128233D01*
X155946967Y-44133439D01*
X155946956Y-44133442D01*
X155890415Y-44156862D01*
X156650590Y-44917037D01*
X156587007Y-44934075D01*
X156472993Y-44999901D01*
X156379901Y-45092993D01*
X156314075Y-45207007D01*
X156297037Y-45270589D01*
X155536862Y-44510415D01*
X155513449Y-44566940D01*
X155495455Y-44617946D01*
X155475000Y-44760219D01*
X154990000Y-44760219D01*
X154990000Y-43110105D01*
X154989999Y-43110104D01*
X152488194Y-41167213D01*
X150567747Y-39675802D01*
X150337944Y-39497338D01*
X150297069Y-39440672D01*
X150290000Y-39399402D01*
X150290000Y-38450000D01*
X145490000Y-38450000D01*
X145490000Y-39399402D01*
X145470315Y-39466441D01*
X145442056Y-39497338D01*
X140790000Y-43110104D01*
X140277098Y-43110104D01*
X140282049Y-43078846D01*
X140284720Y-43061984D01*
X140300500Y-42962351D01*
X140300500Y-42757648D01*
X140268477Y-42555465D01*
X140223375Y-42416657D01*
X140205220Y-42360781D01*
X140205218Y-42360778D01*
X140205218Y-42360776D01*
X140171503Y-42294607D01*
X140112287Y-42178390D01*
X140104556Y-42167749D01*
X139991971Y-42012786D01*
X139847213Y-41868028D01*
X139681614Y-41747715D01*
X139675006Y-41744348D01*
X139588917Y-41700483D01*
X139538123Y-41652511D01*
X139521328Y-41584690D01*
X139543865Y-41518555D01*
X139588917Y-41479516D01*
X139681610Y-41432287D01*
X139702770Y-41416913D01*
X139847213Y-41311971D01*
X139847215Y-41311968D01*
X139847219Y-41311966D01*
X139991966Y-41167219D01*
X139991968Y-41167215D01*
X139991971Y-41167213D01*
X140044732Y-41094590D01*
X140112287Y-41001610D01*
X140205220Y-40819219D01*
X140268477Y-40624534D01*
X140300500Y-40422352D01*
X140300500Y-40217648D01*
X140268477Y-40015466D01*
X140205220Y-39820781D01*
X140205218Y-39820778D01*
X140205218Y-39820776D01*
X140157431Y-39726990D01*
X140112287Y-39638390D01*
X140104556Y-39627749D01*
X139991971Y-39472786D01*
X139847213Y-39328028D01*
X139681613Y-39207715D01*
X139681612Y-39207714D01*
X139681610Y-39207713D01*
X139624653Y-39178691D01*
X139499223Y-39114781D01*
X139304534Y-39051522D01*
X139129995Y-39023878D01*
X139102352Y-39019500D01*
X138897648Y-39019500D01*
X138873329Y-39023351D01*
X138695465Y-39051522D01*
X138500776Y-39114781D01*
X138318386Y-39207715D01*
X138152786Y-39328028D01*
X138008028Y-39472786D01*
X137887715Y-39638386D01*
X137794781Y-39820776D01*
X137731522Y-40015465D01*
X137699500Y-40217648D01*
X137699500Y-40422351D01*
X137731522Y-40624534D01*
X137794781Y-40819223D01*
X137887715Y-41001613D01*
X138008028Y-41167213D01*
X138152786Y-41311971D01*
X138307749Y-41424556D01*
X138318390Y-41432287D01*
X138409840Y-41478883D01*
X138411080Y-41479515D01*
X138461876Y-41527490D01*
X138478671Y-41595311D01*
X138456134Y-41661446D01*
X138411080Y-41700485D01*
X138318386Y-41747715D01*
X138152786Y-41868028D01*
X138008028Y-42012786D01*
X137887715Y-42178386D01*
X137794781Y-42360776D01*
X137731522Y-42555465D01*
X137699500Y-42757648D01*
X137699500Y-42962351D01*
X137731522Y-43164534D01*
X137794781Y-43359223D01*
X137887715Y-43541613D01*
X138008028Y-43707213D01*
X138152786Y-43851971D01*
X138318388Y-43972286D01*
X138318390Y-43972287D01*
X138404294Y-44016057D01*
X138455090Y-44064031D01*
X138471886Y-44131852D01*
X138449349Y-44197987D01*
X138406455Y-44235899D01*
X138340494Y-44271157D01*
X138340489Y-44271160D01*
X138271086Y-44317532D01*
X138271085Y-44317533D01*
X138870590Y-44917037D01*
X138807007Y-44934075D01*
X138692993Y-44999901D01*
X138599901Y-45092993D01*
X138534075Y-45207007D01*
X138517037Y-45270589D01*
X137917533Y-44671085D01*
X137917532Y-44671086D01*
X137871161Y-44740488D01*
X137824490Y-44827801D01*
X137764185Y-44973387D01*
X137735444Y-45068135D01*
X137704701Y-45222697D01*
X137704701Y-45222700D01*
X137695000Y-45321210D01*
X137695000Y-45478789D01*
X137704701Y-45577299D01*
X137704701Y-45577302D01*
X137735444Y-45731864D01*
X137764185Y-45826612D01*
X137824490Y-45972198D01*
X137871158Y-46059506D01*
X137917533Y-46128912D01*
X137917534Y-46128913D01*
X138517037Y-45529409D01*
X138534075Y-45592993D01*
X138599901Y-45707007D01*
X138692993Y-45800099D01*
X138807007Y-45865925D01*
X138870590Y-45882962D01*
X138271085Y-46482465D01*
X138340493Y-46528841D01*
X138406454Y-46564099D01*
X138456298Y-46613062D01*
X138471758Y-46681200D01*
X138447926Y-46746879D01*
X138404295Y-46783942D01*
X138318386Y-46827715D01*
X138152786Y-46948028D01*
X138008028Y-47092786D01*
X137887715Y-47258385D01*
X137880883Y-47271795D01*
X137832909Y-47322591D01*
X137770398Y-47339500D01*
X118740097Y-47339500D01*
X118673058Y-47319815D01*
X118652416Y-47303181D01*
X114931137Y-43581902D01*
X124599500Y-43581902D01*
X124599500Y-43818097D01*
X124636446Y-44051368D01*
X124709433Y-44275996D01*
X124816657Y-44486433D01*
X124955483Y-44677510D01*
X125122490Y-44844517D01*
X125313567Y-44983343D01*
X125373584Y-45013923D01*
X125524003Y-45090566D01*
X125524005Y-45090566D01*
X125524008Y-45090568D01*
X125644412Y-45129689D01*
X125748631Y-45163553D01*
X125981903Y-45200500D01*
X125981908Y-45200500D01*
X129218097Y-45200500D01*
X129248466Y-45195690D01*
X129451368Y-45163553D01*
X129675992Y-45090568D01*
X129886433Y-44983343D01*
X130077510Y-44844517D01*
X130244517Y-44677510D01*
X130383343Y-44486433D01*
X130490568Y-44275992D01*
X130563553Y-44051368D01*
X130576078Y-43972287D01*
X130600500Y-43818097D01*
X130600500Y-43581902D01*
X130563553Y-43348631D01*
X130526141Y-43233489D01*
X130490568Y-43124008D01*
X130490566Y-43124005D01*
X130490566Y-43124003D01*
X130434002Y-43012991D01*
X130383343Y-42913567D01*
X130244517Y-42722490D01*
X130077510Y-42555483D01*
X129886433Y-42416657D01*
X129675996Y-42309433D01*
X129451368Y-42236446D01*
X129218097Y-42199500D01*
X129218092Y-42199500D01*
X125981908Y-42199500D01*
X125981903Y-42199500D01*
X125748631Y-42236446D01*
X125524003Y-42309433D01*
X125313566Y-42416657D01*
X125213023Y-42489707D01*
X125122490Y-42555483D01*
X125122488Y-42555485D01*
X125122487Y-42555485D01*
X124955485Y-42722487D01*
X124955485Y-42722488D01*
X124955483Y-42722490D01*
X124895862Y-42804550D01*
X124816657Y-42913566D01*
X124709433Y-43124003D01*
X124636446Y-43348631D01*
X124599500Y-43581902D01*
X114931137Y-43581902D01*
X113987590Y-42638355D01*
X113987588Y-42638352D01*
X113868717Y-42519481D01*
X113868716Y-42519480D01*
X113781904Y-42469360D01*
X113781904Y-42469359D01*
X113781900Y-42469358D01*
X113731785Y-42440423D01*
X113579057Y-42399499D01*
X113420943Y-42399499D01*
X113413347Y-42399499D01*
X113413331Y-42399500D01*
X96579766Y-42399500D01*
X96512727Y-42379815D01*
X96510875Y-42378602D01*
X96379185Y-42290609D01*
X96379172Y-42290602D01*
X96233501Y-42230264D01*
X96233489Y-42230261D01*
X96078845Y-42199500D01*
X96078842Y-42199500D01*
X95921158Y-42199500D01*
X95921155Y-42199500D01*
X95766510Y-42230261D01*
X95766498Y-42230264D01*
X95620827Y-42290602D01*
X95620814Y-42290609D01*
X95489711Y-42378210D01*
X95489707Y-42378213D01*
X95378213Y-42489707D01*
X95378210Y-42489711D01*
X95290609Y-42620814D01*
X95290602Y-42620827D01*
X95230264Y-42766498D01*
X95230261Y-42766510D01*
X95199500Y-42921153D01*
X74387208Y-42921153D01*
X74383344Y-42913568D01*
X74362488Y-42884863D01*
X74244517Y-42722490D01*
X74077510Y-42555483D01*
X73886433Y-42416657D01*
X73675996Y-42309433D01*
X73451368Y-42236446D01*
X73218097Y-42199500D01*
X73218092Y-42199500D01*
X69981908Y-42199500D01*
X69981903Y-42199500D01*
X69748631Y-42236446D01*
X69524003Y-42309433D01*
X69313566Y-42416657D01*
X69213023Y-42489707D01*
X69122490Y-42555483D01*
X69122488Y-42555485D01*
X69122487Y-42555485D01*
X68955485Y-42722487D01*
X68955485Y-42722488D01*
X68955483Y-42722490D01*
X68895862Y-42804550D01*
X68816657Y-42913566D01*
X68709433Y-43124003D01*
X68636446Y-43348631D01*
X68599500Y-43581902D01*
X61687077Y-43581902D01*
X61687077Y-40395325D01*
X61650130Y-40162054D01*
X61577143Y-39937426D01*
X61469919Y-39726989D01*
X61331094Y-39535913D01*
X61164087Y-39368906D01*
X60973010Y-39230080D01*
X60762573Y-39122856D01*
X60537945Y-39049869D01*
X60304674Y-39012923D01*
X60304669Y-39012923D01*
X60068485Y-39012923D01*
X60068480Y-39012923D01*
X59835208Y-39049869D01*
X59610580Y-39122856D01*
X59400143Y-39230080D01*
X59313552Y-39292993D01*
X59209067Y-39368906D01*
X59209065Y-39368908D01*
X59209064Y-39368908D01*
X59042062Y-39535910D01*
X59042062Y-39535911D01*
X59042060Y-39535913D01*
X59020255Y-39565925D01*
X58903234Y-39726989D01*
X58796010Y-39937426D01*
X58723023Y-40162054D01*
X58686077Y-40395325D01*
X56687077Y-40395325D01*
X56650130Y-40162054D01*
X56577143Y-39937426D01*
X56469919Y-39726989D01*
X56331094Y-39535913D01*
X56164087Y-39368906D01*
X55973010Y-39230080D01*
X55762573Y-39122856D01*
X55537945Y-39049869D01*
X55304674Y-39012923D01*
X55304669Y-39012923D01*
X55068485Y-39012923D01*
X55068480Y-39012923D01*
X54835208Y-39049869D01*
X54610580Y-39122856D01*
X54400143Y-39230080D01*
X54313552Y-39292993D01*
X54209067Y-39368906D01*
X54209065Y-39368908D01*
X54209064Y-39368908D01*
X54042062Y-39535910D01*
X54042062Y-39535911D01*
X54042060Y-39535913D01*
X54020255Y-39565925D01*
X53903234Y-39726989D01*
X53796010Y-39937426D01*
X53723023Y-40162054D01*
X53686077Y-40395325D01*
X45500500Y-40395325D01*
X45500500Y-38850000D01*
X68620898Y-38850000D01*
X69666988Y-38850000D01*
X69634075Y-38907007D01*
X69600000Y-39034174D01*
X69600000Y-39165826D01*
X69634075Y-39292993D01*
X69666988Y-39350000D01*
X68620898Y-39350000D01*
X68636934Y-39451247D01*
X68709897Y-39675802D01*
X68817085Y-39886171D01*
X68955866Y-40077186D01*
X69122813Y-40244133D01*
X69313828Y-40382914D01*
X69524197Y-40490102D01*
X69748752Y-40563065D01*
X69748751Y-40563065D01*
X69981948Y-40600000D01*
X71350000Y-40600000D01*
X71350000Y-39600000D01*
X71850000Y-39600000D01*
X71850000Y-40600000D01*
X73218052Y-40600000D01*
X73451247Y-40563065D01*
X73675802Y-40490102D01*
X73886171Y-40382914D01*
X74077186Y-40244133D01*
X74244133Y-40077186D01*
X74382914Y-39886171D01*
X74490102Y-39675802D01*
X74563065Y-39451247D01*
X74579102Y-39350000D01*
X73533012Y-39350000D01*
X73565925Y-39292993D01*
X73600000Y-39165826D01*
X73600000Y-39034174D01*
X73565925Y-38907007D01*
X73533012Y-38850000D01*
X74579102Y-38850000D01*
X74563065Y-38748752D01*
X74490102Y-38524197D01*
X74382914Y-38313828D01*
X74244133Y-38122813D01*
X74077186Y-37955866D01*
X73886171Y-37817085D01*
X73675802Y-37709897D01*
X73451247Y-37636934D01*
X73451248Y-37636934D01*
X73218052Y-37600000D01*
X71850000Y-37600000D01*
X71850000Y-38600000D01*
X71350000Y-38600000D01*
X71350000Y-37600000D01*
X69981948Y-37600000D01*
X69748752Y-37636934D01*
X69524197Y-37709897D01*
X69313828Y-37817085D01*
X69122813Y-37955866D01*
X68955866Y-38122813D01*
X68817085Y-38313828D01*
X68709897Y-38524197D01*
X68636934Y-38748752D01*
X68620898Y-38850000D01*
X45500500Y-38850000D01*
X45500500Y-36633366D01*
X82246558Y-36633366D01*
X82246558Y-36928393D01*
X82278629Y-37171993D01*
X82285065Y-37220873D01*
X82285066Y-37220875D01*
X82361419Y-37505831D01*
X82361422Y-37505841D01*
X82474312Y-37778380D01*
X82474316Y-37778390D01*
X82621819Y-38033873D01*
X82801410Y-38267920D01*
X82801416Y-38267927D01*
X83010010Y-38476521D01*
X83010017Y-38476527D01*
X83244064Y-38656118D01*
X83499547Y-38803621D01*
X83499548Y-38803621D01*
X83499551Y-38803623D01*
X83772106Y-38916519D01*
X84057065Y-38992873D01*
X84349552Y-39031380D01*
X84349559Y-39031380D01*
X84644557Y-39031380D01*
X84644564Y-39031380D01*
X84937051Y-38992873D01*
X85222010Y-38916519D01*
X85494565Y-38803623D01*
X85750052Y-38656118D01*
X85984100Y-38476526D01*
X86192704Y-38267922D01*
X86372296Y-38033874D01*
X86519801Y-37778387D01*
X86632697Y-37505832D01*
X86709051Y-37220873D01*
X86747558Y-36928386D01*
X86747558Y-36633374D01*
X86747557Y-36633366D01*
X112746558Y-36633366D01*
X112746558Y-36928393D01*
X112778629Y-37171993D01*
X112785065Y-37220873D01*
X112785066Y-37220875D01*
X112861419Y-37505831D01*
X112861422Y-37505841D01*
X112974312Y-37778380D01*
X112974316Y-37778390D01*
X113121819Y-38033873D01*
X113301410Y-38267920D01*
X113301416Y-38267927D01*
X113510010Y-38476521D01*
X113510017Y-38476527D01*
X113744064Y-38656118D01*
X113999547Y-38803621D01*
X113999548Y-38803621D01*
X113999551Y-38803623D01*
X114272106Y-38916519D01*
X114557065Y-38992873D01*
X114849552Y-39031380D01*
X114849559Y-39031380D01*
X115144557Y-39031380D01*
X115144564Y-39031380D01*
X115437051Y-38992873D01*
X115722010Y-38916519D01*
X115882601Y-38850000D01*
X124620898Y-38850000D01*
X125666988Y-38850000D01*
X125634075Y-38907007D01*
X125600000Y-39034174D01*
X125600000Y-39165826D01*
X125634075Y-39292993D01*
X125666988Y-39350000D01*
X124620898Y-39350000D01*
X124636934Y-39451247D01*
X124709897Y-39675802D01*
X124817085Y-39886171D01*
X124955866Y-40077186D01*
X125122813Y-40244133D01*
X125313828Y-40382914D01*
X125524197Y-40490102D01*
X125748752Y-40563065D01*
X125748751Y-40563065D01*
X125981948Y-40600000D01*
X127350000Y-40600000D01*
X127350000Y-39600000D01*
X127850000Y-39600000D01*
X127850000Y-40600000D01*
X129218052Y-40600000D01*
X129451247Y-40563065D01*
X129675802Y-40490102D01*
X129886171Y-40382914D01*
X130077186Y-40244133D01*
X130196225Y-40125095D01*
X130244133Y-40077186D01*
X130382914Y-39886171D01*
X130490102Y-39675802D01*
X130563065Y-39451247D01*
X130579102Y-39350000D01*
X129533012Y-39350000D01*
X129565925Y-39292993D01*
X129600000Y-39165826D01*
X129600000Y-39034174D01*
X129565925Y-38907007D01*
X129533012Y-38850000D01*
X130579102Y-38850000D01*
X130563065Y-38748752D01*
X130490102Y-38524197D01*
X130382914Y-38313828D01*
X130244133Y-38122813D01*
X130077186Y-37955866D01*
X129886171Y-37817085D01*
X129675802Y-37709897D01*
X129451247Y-37636934D01*
X129451248Y-37636934D01*
X129218052Y-37600000D01*
X127850000Y-37600000D01*
X127850000Y-38600000D01*
X127350000Y-38600000D01*
X127350000Y-37600000D01*
X125981948Y-37600000D01*
X125748752Y-37636934D01*
X125524197Y-37709897D01*
X125313828Y-37817085D01*
X125122813Y-37955866D01*
X124955866Y-38122813D01*
X124817085Y-38313828D01*
X124709897Y-38524197D01*
X124636934Y-38748752D01*
X124620898Y-38850000D01*
X115882601Y-38850000D01*
X115994565Y-38803623D01*
X116250052Y-38656118D01*
X116484100Y-38476526D01*
X116692704Y-38267922D01*
X116872296Y-38033874D01*
X117019801Y-37778387D01*
X117132697Y-37505832D01*
X117209051Y-37220873D01*
X117247558Y-36928386D01*
X117247558Y-36633374D01*
X117209051Y-36340887D01*
X117132697Y-36055928D01*
X117125220Y-36037878D01*
X117060876Y-35882538D01*
X117019801Y-35783373D01*
X116872296Y-35527886D01*
X116739639Y-35355005D01*
X116692705Y-35293839D01*
X116692699Y-35293832D01*
X116484105Y-35085238D01*
X116392640Y-35015054D01*
X116361488Y-34991150D01*
X116250051Y-34905641D01*
X116236207Y-34897648D01*
X153699500Y-34897648D01*
X153699500Y-35102351D01*
X153731522Y-35304534D01*
X153794781Y-35499223D01*
X153887715Y-35681613D01*
X154008028Y-35847213D01*
X154152786Y-35991971D01*
X154307749Y-36104556D01*
X154318390Y-36112287D01*
X154434607Y-36171503D01*
X154500776Y-36205218D01*
X154500778Y-36205218D01*
X154500781Y-36205220D01*
X154595300Y-36235931D01*
X154695465Y-36268477D01*
X154796557Y-36284488D01*
X154897648Y-36300500D01*
X154897649Y-36300500D01*
X155102351Y-36300500D01*
X155102352Y-36300500D01*
X155304534Y-36268477D01*
X155499219Y-36205220D01*
X155681610Y-36112287D01*
X155784030Y-36037875D01*
X155847213Y-35991971D01*
X155847215Y-35991968D01*
X155847219Y-35991966D01*
X155991966Y-35847219D01*
X155991968Y-35847215D01*
X155991971Y-35847213D01*
X156089958Y-35712343D01*
X156112287Y-35681610D01*
X156205220Y-35499219D01*
X156268477Y-35304534D01*
X156300500Y-35102352D01*
X156300500Y-34897648D01*
X156279433Y-34764637D01*
X156268477Y-34695465D01*
X156205218Y-34500776D01*
X156144609Y-34381826D01*
X156112287Y-34318390D01*
X156104556Y-34307749D01*
X155991971Y-34152786D01*
X155847213Y-34008028D01*
X155681613Y-33887715D01*
X155681612Y-33887714D01*
X155681610Y-33887713D01*
X155624653Y-33858691D01*
X155499223Y-33794781D01*
X155304534Y-33731522D01*
X155129995Y-33703878D01*
X155102352Y-33699500D01*
X154897648Y-33699500D01*
X154873329Y-33703351D01*
X154695465Y-33731522D01*
X154500776Y-33794781D01*
X154318386Y-33887715D01*
X154152786Y-34008028D01*
X154008028Y-34152786D01*
X153887715Y-34318386D01*
X153794781Y-34500776D01*
X153731522Y-34695465D01*
X153699500Y-34897648D01*
X116236207Y-34897648D01*
X115994568Y-34758138D01*
X115994558Y-34758134D01*
X115722019Y-34645244D01*
X115722012Y-34645242D01*
X115722010Y-34645241D01*
X115437051Y-34568887D01*
X115388171Y-34562451D01*
X115144571Y-34530380D01*
X115144564Y-34530380D01*
X114849552Y-34530380D01*
X114849544Y-34530380D01*
X114571143Y-34567033D01*
X114557065Y-34568887D01*
X114385136Y-34614955D01*
X114272106Y-34645241D01*
X114272096Y-34645244D01*
X113999557Y-34758134D01*
X113999547Y-34758138D01*
X113744064Y-34905641D01*
X113510017Y-35085232D01*
X113510010Y-35085238D01*
X113301416Y-35293832D01*
X113301410Y-35293839D01*
X113121819Y-35527886D01*
X112974316Y-35783369D01*
X112974312Y-35783379D01*
X112861422Y-36055918D01*
X112861419Y-36055928D01*
X112813189Y-36235928D01*
X112785066Y-36340884D01*
X112785064Y-36340895D01*
X112746558Y-36633366D01*
X86747557Y-36633366D01*
X86709051Y-36340887D01*
X86632697Y-36055928D01*
X86625220Y-36037878D01*
X86560876Y-35882538D01*
X86519801Y-35783373D01*
X86372296Y-35527886D01*
X86192704Y-35293838D01*
X86192702Y-35293836D01*
X86192699Y-35293832D01*
X85984105Y-35085238D01*
X85984098Y-35085232D01*
X85750051Y-34905641D01*
X85494568Y-34758138D01*
X85494558Y-34758134D01*
X85222019Y-34645244D01*
X85222012Y-34645242D01*
X85222010Y-34645241D01*
X84937051Y-34568887D01*
X84888171Y-34562451D01*
X84644571Y-34530380D01*
X84644564Y-34530380D01*
X84349552Y-34530380D01*
X84349544Y-34530380D01*
X84071143Y-34567033D01*
X84057065Y-34568887D01*
X83885136Y-34614955D01*
X83772106Y-34645241D01*
X83772096Y-34645244D01*
X83499557Y-34758134D01*
X83499547Y-34758138D01*
X83244064Y-34905641D01*
X83010017Y-35085232D01*
X83010010Y-35085238D01*
X82801416Y-35293832D01*
X82801410Y-35293839D01*
X82621819Y-35527886D01*
X82474316Y-35783369D01*
X82474312Y-35783379D01*
X82361422Y-36055918D01*
X82361419Y-36055928D01*
X82313189Y-36235928D01*
X82285066Y-36340884D01*
X82285064Y-36340895D01*
X82246558Y-36633366D01*
X45500500Y-36633366D01*
X45500500Y-35002706D01*
X45500618Y-34997298D01*
X45503377Y-34934108D01*
X45504969Y-34897648D01*
X62699500Y-34897648D01*
X62699500Y-35102351D01*
X62731522Y-35304534D01*
X62794781Y-35499223D01*
X62887715Y-35681613D01*
X63008028Y-35847213D01*
X63152786Y-35991971D01*
X63307749Y-36104556D01*
X63318390Y-36112287D01*
X63434607Y-36171503D01*
X63500776Y-36205218D01*
X63500778Y-36205218D01*
X63500781Y-36205220D01*
X63595300Y-36235931D01*
X63695465Y-36268477D01*
X63796557Y-36284488D01*
X63897648Y-36300500D01*
X63897649Y-36300500D01*
X64102351Y-36300500D01*
X64102352Y-36300500D01*
X64304534Y-36268477D01*
X64499219Y-36205220D01*
X64681610Y-36112287D01*
X64784030Y-36037875D01*
X64847213Y-35991971D01*
X64847215Y-35991968D01*
X64847219Y-35991966D01*
X64991966Y-35847219D01*
X64991968Y-35847215D01*
X64991971Y-35847213D01*
X65089958Y-35712343D01*
X65112287Y-35681610D01*
X65205220Y-35499219D01*
X65268477Y-35304534D01*
X65300500Y-35102352D01*
X65300500Y-34897648D01*
X65279433Y-34764637D01*
X65268477Y-34695465D01*
X65205218Y-34500776D01*
X65153976Y-34400210D01*
X65144609Y-34381826D01*
X65126726Y-34346728D01*
X94587058Y-34346728D01*
X94587058Y-34830880D01*
X95504046Y-34830880D01*
X95471133Y-34887887D01*
X95437058Y-35015054D01*
X95437058Y-35146706D01*
X95471133Y-35273873D01*
X95504046Y-35330880D01*
X94587059Y-35330880D01*
X94587059Y-35815042D01*
X94593190Y-35882531D01*
X94593192Y-35882538D01*
X94641595Y-36037869D01*
X94641598Y-36037878D01*
X94725768Y-36177113D01*
X94725771Y-36177117D01*
X94840820Y-36292166D01*
X94840824Y-36292169D01*
X94980059Y-36376339D01*
X94980065Y-36376341D01*
X95135395Y-36424744D01*
X95135402Y-36424745D01*
X95202906Y-36430879D01*
X95687057Y-36430879D01*
X95687058Y-36430878D01*
X95687058Y-35513892D01*
X95744065Y-35546805D01*
X95871232Y-35580880D01*
X96002884Y-35580880D01*
X96130051Y-35546805D01*
X96187058Y-35513892D01*
X96187058Y-36430879D01*
X96671219Y-36430879D01*
X96738709Y-36424747D01*
X96738716Y-36424745D01*
X96894047Y-36376342D01*
X96894056Y-36376339D01*
X97033291Y-36292169D01*
X97033295Y-36292166D01*
X97148344Y-36177117D01*
X97148347Y-36177113D01*
X97232517Y-36037878D01*
X97232518Y-36037875D01*
X97240781Y-36011358D01*
X97279518Y-35953210D01*
X97343543Y-35925235D01*
X97412529Y-35936316D01*
X97446848Y-35960566D01*
X97597271Y-36110989D01*
X97769237Y-36235928D01*
X97769239Y-36235929D01*
X97769242Y-36235931D01*
X97958646Y-36332437D01*
X98160815Y-36398126D01*
X98370771Y-36431380D01*
X98370772Y-36431380D01*
X98583344Y-36431380D01*
X98583345Y-36431380D01*
X98793301Y-36398126D01*
X98995470Y-36332437D01*
X99184874Y-36235931D01*
X99355057Y-36112287D01*
X99356844Y-36110989D01*
X99356846Y-36110986D01*
X99356850Y-36110984D01*
X99507162Y-35960672D01*
X99507164Y-35960668D01*
X99507167Y-35960666D01*
X99632106Y-35788700D01*
X99632105Y-35788700D01*
X99632109Y-35788696D01*
X99636572Y-35779934D01*
X99684546Y-35729139D01*
X99752366Y-35712343D01*
X99818502Y-35734879D01*
X99857544Y-35779936D01*
X99862009Y-35788700D01*
X99986948Y-35960666D01*
X100137271Y-36110989D01*
X100309237Y-36235928D01*
X100309239Y-36235929D01*
X100309242Y-36235931D01*
X100498646Y-36332437D01*
X100700815Y-36398126D01*
X100910771Y-36431380D01*
X100910772Y-36431380D01*
X101123344Y-36431380D01*
X101123345Y-36431380D01*
X101333301Y-36398126D01*
X101535470Y-36332437D01*
X101724874Y-36235931D01*
X101895057Y-36112287D01*
X101896844Y-36110989D01*
X101896846Y-36110986D01*
X101896850Y-36110984D01*
X102047162Y-35960672D01*
X102047164Y-35960668D01*
X102047167Y-35960666D01*
X102172106Y-35788700D01*
X102172105Y-35788700D01*
X102172109Y-35788696D01*
X102176572Y-35779934D01*
X102224546Y-35729139D01*
X102292366Y-35712343D01*
X102358502Y-35734879D01*
X102397544Y-35779936D01*
X102402009Y-35788700D01*
X102526948Y-35960666D01*
X102677271Y-36110989D01*
X102849237Y-36235928D01*
X102849239Y-36235929D01*
X102849242Y-36235931D01*
X103038646Y-36332437D01*
X103240815Y-36398126D01*
X103450771Y-36431380D01*
X103450772Y-36431380D01*
X103663344Y-36431380D01*
X103663345Y-36431380D01*
X103873301Y-36398126D01*
X104075470Y-36332437D01*
X104264874Y-36235931D01*
X104435057Y-36112287D01*
X104436844Y-36110989D01*
X104436846Y-36110986D01*
X104436850Y-36110984D01*
X104587162Y-35960672D01*
X104587164Y-35960668D01*
X104587167Y-35960666D01*
X104712106Y-35788700D01*
X104712105Y-35788700D01*
X104712109Y-35788696D01*
X104808615Y-35599292D01*
X104874304Y-35397123D01*
X104907558Y-35187167D01*
X104907558Y-34974593D01*
X104874304Y-34764637D01*
X104808615Y-34562468D01*
X104712109Y-34373064D01*
X104712107Y-34373061D01*
X104712106Y-34373059D01*
X104587167Y-34201093D01*
X104436844Y-34050770D01*
X104264878Y-33925831D01*
X104075472Y-33829324D01*
X104075471Y-33829323D01*
X104075470Y-33829323D01*
X103873301Y-33763634D01*
X103873299Y-33763633D01*
X103873298Y-33763633D01*
X103705230Y-33737014D01*
X103663345Y-33730380D01*
X103450771Y-33730380D01*
X103408886Y-33737014D01*
X103240818Y-33763633D01*
X103038643Y-33829324D01*
X102849237Y-33925831D01*
X102677271Y-34050770D01*
X102526948Y-34201093D01*
X102402007Y-34373062D01*
X102397542Y-34381826D01*
X102349567Y-34432622D01*
X102281746Y-34449416D01*
X102215611Y-34426878D01*
X102176574Y-34381826D01*
X102172108Y-34373062D01*
X102047167Y-34201093D01*
X101896844Y-34050770D01*
X101724878Y-33925831D01*
X101535472Y-33829324D01*
X101535471Y-33829323D01*
X101535470Y-33829323D01*
X101333301Y-33763634D01*
X101333299Y-33763633D01*
X101333298Y-33763633D01*
X101165230Y-33737014D01*
X101123345Y-33730380D01*
X100910771Y-33730380D01*
X100868886Y-33737014D01*
X100700818Y-33763633D01*
X100498643Y-33829324D01*
X100309237Y-33925831D01*
X100137271Y-34050770D01*
X99986948Y-34201093D01*
X99862007Y-34373062D01*
X99857542Y-34381826D01*
X99809567Y-34432622D01*
X99741746Y-34449416D01*
X99675611Y-34426878D01*
X99636574Y-34381826D01*
X99632108Y-34373062D01*
X99507167Y-34201093D01*
X99356844Y-34050770D01*
X99184878Y-33925831D01*
X98995472Y-33829324D01*
X98995471Y-33829323D01*
X98995470Y-33829323D01*
X98793301Y-33763634D01*
X98793299Y-33763633D01*
X98793298Y-33763633D01*
X98625230Y-33737014D01*
X98583345Y-33730380D01*
X98370771Y-33730380D01*
X98328886Y-33737014D01*
X98160818Y-33763633D01*
X97958643Y-33829324D01*
X97769237Y-33925831D01*
X97597273Y-34050769D01*
X97446848Y-34201194D01*
X97385525Y-34234678D01*
X97315833Y-34229694D01*
X97259900Y-34187822D01*
X97240782Y-34150402D01*
X97232520Y-34123889D01*
X97232517Y-34123881D01*
X97148347Y-33984646D01*
X97148344Y-33984642D01*
X97033295Y-33869593D01*
X97033291Y-33869590D01*
X96894056Y-33785420D01*
X96894050Y-33785418D01*
X96738720Y-33737015D01*
X96738713Y-33737014D01*
X96671209Y-33730880D01*
X96187058Y-33730880D01*
X96187058Y-34647868D01*
X96130051Y-34614955D01*
X96002884Y-34580880D01*
X95871232Y-34580880D01*
X95744065Y-34614955D01*
X95687058Y-34647868D01*
X95687058Y-33730880D01*
X95202895Y-33730880D01*
X95135406Y-33737012D01*
X95135399Y-33737014D01*
X94980068Y-33785417D01*
X94980059Y-33785420D01*
X94840824Y-33869590D01*
X94840820Y-33869593D01*
X94725771Y-33984642D01*
X94725768Y-33984646D01*
X94641598Y-34123881D01*
X94641596Y-34123887D01*
X94593193Y-34279217D01*
X94593192Y-34279224D01*
X94587058Y-34346728D01*
X65126726Y-34346728D01*
X65112287Y-34318390D01*
X65112285Y-34318387D01*
X65112284Y-34318385D01*
X64991971Y-34152786D01*
X64847213Y-34008028D01*
X64681613Y-33887715D01*
X64681612Y-33887714D01*
X64681610Y-33887713D01*
X64624653Y-33858691D01*
X64499223Y-33794781D01*
X64304534Y-33731522D01*
X64129995Y-33703878D01*
X64102352Y-33699500D01*
X63897648Y-33699500D01*
X63873329Y-33703351D01*
X63695465Y-33731522D01*
X63500776Y-33794781D01*
X63318386Y-33887715D01*
X63152786Y-34008028D01*
X63008028Y-34152786D01*
X62887715Y-34318386D01*
X62794781Y-34500776D01*
X62731522Y-34695465D01*
X62699500Y-34897648D01*
X45504969Y-34897648D01*
X45517387Y-34613224D01*
X45518325Y-34602496D01*
X45568151Y-34224032D01*
X45570024Y-34213402D01*
X45652648Y-33840714D01*
X45655446Y-33830276D01*
X45770230Y-33466227D01*
X45773917Y-33456095D01*
X45920003Y-33103412D01*
X45924561Y-33093638D01*
X46100822Y-32755045D01*
X46106217Y-32745700D01*
X46311325Y-32423744D01*
X46317515Y-32414905D01*
X46549896Y-32112060D01*
X46556834Y-32103791D01*
X46814726Y-31822352D01*
X46822352Y-31814726D01*
X47103791Y-31556834D01*
X47112060Y-31549896D01*
X47414905Y-31317515D01*
X47423744Y-31311325D01*
X47745700Y-31106217D01*
X47755045Y-31100822D01*
X48093638Y-30924561D01*
X48103412Y-30920003D01*
X48456095Y-30773917D01*
X48466227Y-30770230D01*
X48830285Y-30655443D01*
X48840714Y-30652648D01*
X49213402Y-30570024D01*
X49224032Y-30568151D01*
X49602496Y-30518325D01*
X49613224Y-30517387D01*
X49997297Y-30500617D01*
X50002706Y-30500500D01*
X50065892Y-30500500D01*
X156934108Y-30500500D01*
X156997294Y-30500500D01*
X157002702Y-30500617D01*
G37*
%TD.AperFunction*%
%TD*%
M02*
