M48
; DRILL file KiCad 10.0.1 date 2026-09-03T20:48:01
; FORMAT={-:-/ absolute / metric / decimal}
; #@! TF.CreationDate,2026-09-03T20:48:01+03:00
; #@! TF.GenerationSoftware,Kicad,Pcbnew,10.0.1
; #@! TF.FileFunction,Plated,1,2,PTH
FMAT,2
METRIC
; #@! TA.AperFunction,Plated,PTH,ViaDrill
T1C0.300
; #@! TA.AperFunction,Plated,PTH,ComponentDrill
T2C1.000
; #@! TA.AperFunction,Plated,PTH,ComponentDrill
T3C3.000
%
G90
G05
T1
X96.0Y-43.0
X98.5Y-46.5
X129.0Y-74.0
T2
X47.791Y-50.431
X47.791Y-64.431
X70.791Y-50.431
X70.791Y-52.971
X70.791Y-61.891
X70.791Y-64.431
X95.937Y-35.081
X98.477Y-35.081
X101.017Y-35.081
X103.557Y-35.081
X139.0Y-40.32
X139.0Y-42.86
X139.0Y-45.4
X139.0Y-47.94
X139.0Y-50.48
X139.0Y-53.02
X139.0Y-55.56
X139.0Y-58.1
X139.0Y-60.64
X139.0Y-63.18
X139.0Y-65.72
X139.0Y-68.26
X139.0Y-70.8
X139.0Y-73.34
X139.0Y-75.88
X139.0Y-78.42
X139.0Y-80.96
X139.0Y-83.5
X139.0Y-86.04
X139.0Y-88.58
X156.78Y-40.32
X156.78Y-42.86
X156.78Y-45.4
X156.78Y-47.94
X156.78Y-50.48
X156.78Y-53.02
X156.78Y-55.56
X156.78Y-58.1
X156.78Y-60.64
X156.78Y-63.18
X156.78Y-65.72
X156.78Y-68.26
X156.78Y-70.8
X156.78Y-73.34
X156.78Y-75.88
X156.78Y-78.42
X156.78Y-80.96
X156.78Y-83.5
X156.78Y-86.04
X156.78Y-88.58
T3
X84.497Y-36.781
X84.497Y-65.281
X114.997Y-36.781
X114.997Y-65.281
T2
G00X55.187Y-43.513
M15
G01X55.187Y-40.513
M16
G05
G00X60.187Y-43.513
M15
G01X60.187Y-40.513
M16
G05
G00X73.1Y-39.1
M15
G01X70.1Y-39.1
M16
G05
G00X73.1Y-43.7
M15
G01X70.1Y-43.7
M16
G05
G00X126.1Y-39.1
M15
G01X129.1Y-39.1
M16
G05
G00X126.1Y-43.7
M15
G01X129.1Y-43.7
M16
G05
G00X126.1Y-57.1
M15
G01X129.1Y-57.1
M16
G05
G00X126.1Y-61.7
M15
G01X129.1Y-61.7
M16
G05
M30
